<svg id="svg" version="1.1" xmlns="http://www.w3.org/2000/svg" xmlns:xlink="http://www.w3.org/1999/xlink" width="400" height="400" viewBox="0, 0, 400,400"><g id="svgg"><path id="path0" d="M134.306 54.674 C 120.253 56.339,112.236 72.722,119.371 85.194 C 120.810 87.709,122.055 88.968,181.525 148.000 C 193.991 160.375,210.801 177.067,218.879 185.094 L 233.567 199.687 230.367 202.943 C 227.114 206.252,199.193 234.382,159.674 274.167 C 121.014 313.086,121.276 312.812,119.900 315.667 C 111.369 333.355,128.728 351.766,146.465 343.844 C 150.449 342.064,147.733 344.615,176.653 315.485 C 283.777 207.582,279.026 212.407,280.300 210.235 C 283.787 204.291,284.112 197.104,281.187 190.667 C 280.698 189.591,280.405 189.075,279.500 187.695 C 279.087 187.064,251.843 159.824,222.000 130.202 C 209.625 117.919,189.525 97.953,177.333 85.835 C 149.937 58.602,149.391 58.086,146.657 56.767 C 142.821 54.918,138.471 54.181,134.306 54.674 " stroke="none" fill="#4c4c4c" fill-rule="evenodd"></path><path id="path1" d="M201.000 109.438 C 201.000 109.495,201.487 109.983,202.083 110.521 L 203.167 111.500 202.188 110.417 C 201.275 109.407,201.000 109.180,201.000 109.438 M246.333 154.438 C 246.333 154.495,246.821 154.983,247.417 155.521 L 248.500 156.500 247.521 155.417 C 246.608 154.407,246.333 154.180,246.333 154.438 M196.812 295.083 L 195.833 296.167 196.917 295.188 C 197.512 294.649,198.000 294.162,198.000 294.104 C 198.000 293.847,197.725 294.074,196.812 295.083 " stroke="none" fill="#504c4c" fill-rule="evenodd"></path><path id="path2" d="M201.000 109.438 C 201.000 109.495,201.487 109.983,202.083 110.521 L 203.167 111.500 202.188 110.417 C 201.275 109.407,201.000 109.180,201.000 109.438 M246.333 154.438 C 246.333 154.495,246.821 154.983,247.417 155.521 L 248.500 156.500 247.521 155.417 C 246.608 154.407,246.333 154.180,246.333 154.438 M196.812 295.083 L 195.833 296.167 196.917 295.188 C 197.512 294.649,198.000 294.162,198.000 294.104 C 198.000 293.847,197.725 294.074,196.812 295.083 " stroke="none" fill="#504c4c" fill-rule="evenodd"></path><path id="path3" d="M201.000 109.438 C 201.000 109.495,201.487 109.983,202.083 110.521 L 203.167 111.500 202.188 110.417 C 201.275 109.407,201.000 109.180,201.000 109.438 M246.333 154.438 C 246.333 154.495,246.821 154.983,247.417 155.521 L 248.500 156.500 247.521 155.417 C 246.608 154.407,246.333 154.180,246.333 154.438 M196.812 295.083 L 195.833 296.167 196.917 295.188 C 197.512 294.649,198.000 294.162,198.000 294.104 C 198.000 293.847,197.725 294.074,196.812 295.083 " stroke="none" fill="#504c4c" fill-rule="evenodd"></path><path id="path4" d="M201.000 109.438 C 201.000 109.495,201.487 109.983,202.083 110.521 L 203.167 111.500 202.188 110.417 C 201.275 109.407,201.000 109.180,201.000 109.438 M246.333 154.438 C 246.333 154.495,246.821 154.983,247.417 155.521 L 248.500 156.500 247.521 155.417 C 246.608 154.407,246.333 154.180,246.333 154.438 M196.812 295.083 L 195.833 296.167 196.917 295.188 C 197.512 294.649,198.000 294.162,198.000 294.104 C 198.000 293.847,197.725 294.074,196.812 295.083 " stroke="none" fill="#504c4c" fill-rule="evenodd"></path></g></svg>