<svg id="svg" version="1.1" xmlns="http://www.w3.org/2000/svg" xmlns:xlink="http://www.w3.org/1999/xlink" width="400" height="400" viewBox="0, 0, 400,400"><g id="svgg"><path id="path0" d="M135.200 112.262 C 125.336 113.861,118.832 118.331,114.994 126.148 C 111.810 132.635,111.969 128.492,112.093 201.624 L 112.202 266.200 113.059 269.200 C 115.600 278.093,122.171 284.569,131.200 287.078 C 133.659 287.761,137.405 287.800,200.200 287.800 L 266.600 287.800 269.492 286.928 C 278.602 284.180,285.024 277.352,287.155 268.150 C 288.485 262.405,288.485 137.595,287.155 131.850 C 285.011 122.592,278.459 115.768,269.000 112.941 C 266.754 112.270,139.144 111.622,135.200 112.262 M268.715 125.765 C 271.072 127.062,272.597 128.632,274.274 131.484 L 275.400 133.400 275.400 200.000 L 275.400 266.600 274.483 268.318 C 273.143 270.827,271.131 272.890,268.721 274.225 L 266.600 275.400 200.200 275.400 L 133.800 275.400 131.912 274.528 C 129.584 273.452,126.779 270.625,125.536 268.100 L 124.600 266.200 124.488 241.278 L 124.377 216.355 122.926 215.081 C 120.742 213.163,118.900 208.000,120.400 208.000 C 120.620 208.000,120.800 208.678,120.800 209.506 C 120.800 211.233,122.302 214.304,123.552 215.134 C 124.725 215.914,124.743 213.761,123.583 211.364 C 123.047 210.258,122.856 209.318,123.027 208.634 C 123.439 206.993,123.945 207.041,123.730 208.700 C 123.623 209.525,123.719 210.650,123.943 211.200 C 124.223 211.889,124.362 200.188,124.391 173.600 C 124.430 138.261,124.491 134.841,125.117 133.119 C 126.554 129.162,129.337 126.464,133.538 124.954 C 134.727 124.527,147.304 124.445,200.800 124.515 L 266.600 124.600 268.715 125.765 M198.568 139.900 C 198.734 140.065,203.489 144.953,209.135 150.762 C 214.781 156.571,219.625 161.553,219.900 161.833 C 220.175 162.114,220.400 162.490,220.400 162.670 C 220.400 162.849,213.110 170.288,204.199 179.201 L 187.998 195.405 196.101 203.501 L 204.205 211.597 220.402 195.389 C 229.310 186.474,236.805 179.229,237.057 179.290 C 237.386 179.369,255.471 196.732,259.700 201.029 C 259.865 201.196,260.000 187.443,260.000 170.467 L 260.000 139.600 229.133 139.600 C 212.157 139.600,198.402 139.735,198.568 139.900 M122.800 204.400 C 122.800 204.620,122.620 204.800,122.400 204.800 C 122.180 204.800,121.996 205.025,121.991 205.300 C 121.981 205.866,120.423 207.988,120.409 207.454 C 120.394 206.888,122.120 204.000,122.474 204.000 C 122.653 204.000,122.800 204.180,122.800 204.400 " stroke="none" fill="#67676c" fill-rule="evenodd"></path></g></svg>