<svg id="svg" version="1.1" xmlns="http://www.w3.org/2000/svg" xmlns:xlink="http://www.w3.org/1999/xlink" width="400" height="375" viewBox="0, 0, 400,375"><g id="svgg"><path id="path0" d="M197.373 26.978 C 195.579 27.354,194.806 27.828,193.076 29.614 C 192.260 30.456,191.295 31.144,190.931 31.144 C 189.558 31.144,189.375 32.500,189.024 45.216 C 188.406 67.622,188.871 76.616,190.701 77.628 C 191.306 77.962,192.733 78.950,193.872 79.823 C 198.870 83.654,203.068 83.162,207.981 78.167 L 210.897 75.203 211.262 72.029 C 211.731 67.947,211.721 40.451,211.249 36.814 C 210.752 32.985,209.795 31.791,203.799 27.521 C 203.009 26.958,199.060 26.624,197.373 26.978 M89.306 72.279 C 86.223 72.880,86.066 73.024,84.647 76.569 C 81.399 84.686,82.859 88.295,93.557 98.589 C 93.934 98.952,94.902 99.925,95.707 100.750 C 96.512 101.576,97.440 102.505,97.771 102.814 C 98.101 103.124,99.029 104.053,99.834 104.878 C 100.639 105.704,101.570 106.632,101.903 106.942 C 102.236 107.251,103.548 108.534,104.819 109.793 C 106.090 111.051,107.581 112.355,108.133 112.691 C 108.685 113.026,109.243 113.638,109.374 114.050 C 109.730 115.172,111.809 115.572,117.073 115.533 C 122.921 115.489,123.507 115.337,123.915 113.764 C 124.117 112.982,124.666 112.284,125.437 111.828 C 127.412 110.658,127.485 110.505,127.763 106.994 C 128.138 102.265,127.834 100.944,125.801 98.447 C 124.860 97.292,123.982 95.820,123.850 95.176 C 123.710 94.491,123.255 93.827,122.757 93.578 C 121.442 92.922,119.785 91.196,119.542 90.228 C 119.421 89.748,118.943 89.241,118.479 89.101 C 117.382 88.770,115.586 87.098,115.166 86.016 C 114.984 85.548,114.452 85.017,113.984 84.836 C 113.024 84.465,111.760 83.169,111.087 81.865 C 110.839 81.385,110.139 80.818,109.532 80.607 C 108.846 80.367,108.067 79.605,107.473 78.592 C 106.889 77.596,105.980 76.699,105.135 76.286 C 104.375 75.914,103.415 75.065,103.002 74.399 C 101.911 72.639,93.859 71.393,89.306 72.279 M299.558 72.477 C 298.360 72.746,297.813 73.130,297.238 74.105 C 296.823 74.807,295.791 75.819,294.944 76.354 C 294.097 76.889,293.260 77.700,293.083 78.156 C 292.725 79.084,291.317 80.450,290.382 80.778 C 290.045 80.897,289.285 81.711,288.693 82.589 C 288.101 83.466,287.111 84.463,286.492 84.804 C 285.872 85.145,285.182 85.789,284.957 86.236 C 284.346 87.453,283.218 88.602,282.284 88.959 C 281.827 89.134,281.024 89.957,280.499 90.789 C 279.974 91.621,278.890 92.715,278.091 93.219 C 277.260 93.744,276.469 94.620,276.245 95.265 C 275.989 95.997,275.331 96.658,274.370 97.148 C 272.496 98.105,272.530 97.992,272.256 103.978 C 271.983 109.946,272.240 111.441,273.652 112.121 C 274.211 112.390,275.203 113.276,275.858 114.091 L 277.049 115.572 282.333 115.570 C 288.726 115.568,290.039 115.263,290.807 113.601 C 291.147 112.864,291.929 112.109,292.787 111.690 C 293.703 111.243,294.475 110.469,294.965 109.508 C 295.383 108.689,296.313 107.671,297.032 107.247 C 297.751 106.823,298.594 105.983,298.906 105.379 C 299.218 104.776,299.985 103.971,300.609 103.591 C 301.234 103.211,302.590 101.952,303.623 100.794 C 304.656 99.635,305.710 98.687,305.965 98.687 C 306.220 98.687,306.818 97.993,307.295 97.146 C 307.771 96.298,308.721 95.274,309.406 94.870 C 310.091 94.466,310.987 93.605,311.397 92.957 C 311.808 92.309,312.776 91.349,313.549 90.824 C 316.579 88.766,316.837 79.274,313.978 75.032 C 312.033 72.145,305.889 71.057,299.558 72.477 M189.118 113.932 C 183.871 114.284,181.169 114.813,180.121 115.695 C 178.871 116.747,174.775 118.064,171.715 118.399 C 169.825 118.606,169.291 118.849,167.998 120.091 C 167.167 120.889,165.670 121.836,164.671 122.196 C 163.672 122.555,161.967 123.579,160.883 124.471 C 159.799 125.364,158.301 126.260,157.555 126.462 C 156.640 126.711,155.876 127.296,155.208 128.260 C 154.664 129.045,153.569 129.974,152.776 130.324 C 151.191 131.024,144.020 138.179,142.746 140.331 C 142.317 141.057,141.388 142.038,140.683 142.511 C 139.884 143.046,139.117 144.044,138.649 145.158 C 138.236 146.141,137.302 147.538,136.572 148.264 C 135.654 149.176,135.054 150.271,134.624 151.818 C 134.198 153.350,133.590 154.465,132.691 155.364 C 131.161 156.894,130.582 158.219,130.582 160.190 C 130.582 162.317,129.674 164.919,128.171 167.101 C 125.066 171.610,125.263 204.897,128.422 209.484 C 129.285 210.737,130.957 216.449,130.957 218.142 C 130.957 218.473,131.552 219.285,132.279 219.947 C 133.303 220.879,133.811 221.837,134.532 224.201 C 135.251 226.559,135.717 227.441,136.582 228.081 C 137.197 228.536,138.022 229.538,138.414 230.308 C 138.807 231.077,139.917 232.552,140.881 233.583 C 141.845 234.615,143.807 236.843,145.241 238.535 C 146.675 240.226,148.981 242.506,150.367 243.600 C 151.752 244.695,153.651 246.373,154.586 247.329 C 155.520 248.285,156.989 249.421,157.848 249.854 C 158.708 250.286,159.761 251.131,160.189 251.731 C 160.705 252.457,161.433 252.910,162.360 253.084 C 164.191 253.428,166.198 254.477,167.316 255.675 C 168.338 256.770,169.452 257.173,173.132 257.777 C 175.792 258.214,178.113 259.172,178.947 260.177 C 181.587 263.358,217.202 262.924,221.369 259.660 C 222.942 258.428,224.301 257.976,228.261 257.370 C 230.896 256.967,231.289 256.796,232.135 255.686 C 232.859 254.738,233.752 254.227,235.986 253.483 C 238.008 252.810,239.270 252.127,240.124 251.247 C 240.800 250.549,242.084 249.699,242.979 249.358 C 244.075 248.939,244.854 248.313,245.371 247.437 C 245.793 246.723,246.722 245.793,247.436 245.372 C 248.150 244.951,249.075 244.027,249.493 243.320 C 249.910 242.612,250.763 241.722,251.387 241.343 C 252.011 240.963,253.003 239.991,253.590 239.182 C 254.177 238.373,255.122 237.464,255.690 237.162 C 256.258 236.860,257.126 235.924,257.620 235.082 C 258.113 234.241,259.019 233.180,259.634 232.726 C 260.248 232.272,261.091 231.130,261.507 230.189 C 261.924 229.248,262.855 227.788,263.577 226.945 C 264.326 226.069,265.236 224.348,265.699 222.931 C 266.144 221.567,267.080 219.703,267.779 218.790 C 268.478 217.877,269.194 216.526,269.371 215.788 C 269.547 215.050,269.978 213.157,270.327 211.582 C 270.686 209.966,271.364 208.173,271.883 207.470 C 273.366 205.460,273.508 204.252,273.764 191.401 C 274.098 174.720,273.703 170.720,271.454 168.015 C 270.980 167.445,270.418 166.024,270.192 164.826 C 269.139 159.222,269.013 158.835,267.888 157.758 C 267.150 157.051,266.494 155.796,265.984 154.118 C 265.453 152.371,264.706 150.971,263.633 149.714 C 262.719 148.643,261.789 147.013,261.415 145.824 C 260.910 144.224,260.488 143.612,259.476 143.015 C 258.678 142.544,257.876 141.599,257.381 140.545 C 256.926 139.578,256.155 138.635,255.602 138.369 C 255.064 138.110,254.247 137.338,253.786 136.652 C 253.324 135.967,252.271 134.917,251.446 134.319 C 250.621 133.721,249.757 132.881,249.528 132.452 C 249.299 132.024,248.289 131.167,247.285 130.550 C 246.282 129.932,245.137 128.884,244.742 128.222 C 244.229 127.359,243.486 126.830,242.126 126.359 C 241.082 125.997,239.456 125.062,238.513 124.283 C 237.569 123.503,235.822 122.534,234.629 122.128 C 233.437 121.723,231.931 120.926,231.283 120.357 C 229.916 119.157,227.804 118.199,226.525 118.199 C 225.229 118.199,221.546 116.862,220.199 115.902 C 217.776 114.177,201.177 113.125,189.118 113.932 M318.199 176.690 C 312.613 176.972,312.064 177.159,310.315 179.367 C 309.654 180.202,308.642 181.129,308.068 181.426 C 306.677 182.145,306.179 183.690,305.921 188.089 L 305.707 191.750 307.762 193.905 C 308.892 195.090,310.028 196.454,310.286 196.936 C 311.391 199.002,311.885 199.052,332.336 199.178 C 345.206 199.257,351.649 199.163,352.697 198.880 C 354.173 198.483,356.848 196.523,356.848 195.839 C 356.848 195.657,357.794 194.285,358.949 192.789 L 361.050 190.069 360.910 187.581 C 360.742 184.608,356.012 178.148,353.228 177.090 C 352.141 176.676,324.667 176.363,318.199 176.690 M46.646 177.226 C 45.987 177.472,44.103 178.970,42.457 180.554 L 39.465 183.435 39.205 185.867 C 38.733 190.269,39.166 191.787,41.686 194.568 C 42.905 195.913,43.902 197.174,43.902 197.371 C 43.902 198.946,45.441 199.062,66.417 199.062 C 89.412 199.062,88.624 199.157,90.233 196.200 C 90.802 195.155,91.730 193.767,92.296 193.116 C 93.867 191.306,94.212 190.425,94.447 187.624 L 94.664 185.041 92.454 182.542 C 91.238 181.168,89.732 179.452,89.107 178.729 C 88.280 177.774,87.511 177.327,86.293 177.092 C 83.591 176.571,48.076 176.691,46.646 177.226 M111.566 260.377 C 110.910 260.545,109.728 261.309,108.939 262.074 C 108.150 262.840,105.943 264.980,104.034 266.829 C 102.125 268.678,100.563 270.347,100.563 270.537 C 100.563 270.728,99.803 271.406,98.875 272.045 C 97.946 272.683,96.935 273.693,96.627 274.288 C 96.320 274.883,95.413 275.738,94.613 276.187 C 93.797 276.646,92.895 277.556,92.560 278.259 C 92.231 278.949,91.491 279.814,90.915 280.181 C 84.379 284.354,82.010 291.699,84.798 299.150 C 86.234 302.987,87.691 303.663,94.559 303.675 C 99.984 303.685,101.746 303.227,102.735 301.551 C 103.176 300.803,104.172 299.960,105.208 299.459 C 106.162 298.997,106.942 298.387,106.942 298.103 C 106.942 297.289,109.105 295.038,110.135 294.779 C 110.649 294.650,111.069 294.301,111.069 294.002 C 111.069 293.200,113.198 290.919,114.175 290.674 C 114.659 290.552,115.200 289.986,115.440 289.352 C 115.673 288.736,116.712 287.629,117.779 286.863 C 118.836 286.104,119.700 285.277,119.700 285.026 C 119.700 284.483,121.413 282.823,122.608 282.209 C 123.073 281.970,123.710 281.161,124.023 280.411 C 124.336 279.662,125.164 278.493,125.864 277.814 C 128.875 274.889,128.770 266.594,125.691 264.155 C 124.871 263.506,124.097 262.563,123.971 262.059 C 123.844 261.555,123.381 260.946,122.940 260.704 C 121.989 260.182,113.304 259.933,111.566 260.377 M277.947 260.535 C 277.020 260.824,276.276 261.399,275.790 262.204 C 275.381 262.880,274.635 263.590,274.131 263.781 C 271.039 264.957,271.310 275.600,274.523 279.219 C 275.430 280.240,276.173 281.233,276.173 281.425 C 276.173 281.617,276.760 282.173,277.478 282.661 C 278.195 283.149,279.362 284.294,280.069 285.207 C 280.777 286.120,281.849 287.186,282.452 287.577 C 283.055 287.968,283.928 288.841,284.392 289.518 C 284.856 290.195,285.798 291.134,286.485 291.605 C 287.172 292.076,288.016 292.939,288.362 293.524 C 288.707 294.108,289.658 295.009,290.475 295.525 C 291.292 296.041,292.148 296.872,292.376 297.373 C 292.604 297.873,293.484 298.731,294.331 299.279 C 295.179 299.828,296.466 300.910,297.192 301.684 C 299.798 304.466,311.827 304.751,314.236 302.089 C 316.613 299.463,316.432 286.433,314.002 285.269 C 312.855 284.719,311.069 282.732,311.069 282.005 C 311.069 281.737,310.559 281.306,309.936 281.048 C 308.712 280.541,307.136 278.876,306.761 277.695 C 306.633 277.291,306.157 276.849,305.703 276.712 C 304.559 276.365,303.334 275.175,302.804 273.897 C 302.559 273.305,301.997 272.711,301.554 272.577 C 300.426 272.236,299.202 271.038,298.671 269.757 C 298.423 269.158,298.001 268.668,297.732 268.668 C 296.941 268.668,295.070 266.899,294.560 265.669 C 294.275 264.980,293.719 264.438,293.152 264.296 C 292.637 264.166,291.396 263.333,290.396 262.445 C 287.746 260.092,282.138 259.232,277.947 260.535 M197.538 294.064 C 197.112 294.149,195.846 294.971,194.724 295.891 C 193.602 296.811,192.145 297.742,191.487 297.959 C 188.973 298.789,188.927 299.237,188.960 322.326 C 188.993 345.196,188.936 344.488,190.808 345.165 C 191.627 345.461,192.515 346.203,193.091 347.074 C 194.236 348.805,196.958 349.554,201.038 349.262 C 204.352 349.025,205.094 348.594,208.226 345.088 C 211.592 341.318,211.445 342.400,211.445 321.388 C 211.445 299.498,211.457 299.566,207.028 297.322 C 205.994 296.798,204.555 295.793,203.830 295.089 C 202.502 293.799,200.511 293.475,197.538 294.064 " stroke="none" fill="#fcd434" fill-rule="evenodd"></path><path id="path1" d="M195.979 25.679 C 191.980 26.648,188.221 30.859,187.559 35.110 C 187.023 38.552,187.357 74.699,187.941 76.560 C 189.394 81.182,198.607 84.715,204.690 82.982 C 207.320 82.233,211.834 77.451,212.445 74.766 C 213.355 70.768,213.145 35.624,212.195 33.048 C 210.251 27.775,202.279 24.152,195.979 25.679 M203.799 27.521 C 209.795 31.791,210.752 32.985,211.249 36.814 C 211.721 40.451,211.731 67.947,211.262 72.029 L 210.897 75.203 207.981 78.167 C 203.068 83.162,198.870 83.654,193.872 79.823 C 192.733 78.950,191.306 77.962,190.701 77.628 C 188.871 76.616,188.406 67.622,189.024 45.216 C 189.375 32.500,189.558 31.144,190.931 31.144 C 191.295 31.144,192.260 30.456,193.076 29.614 C 195.794 26.809,201.293 25.736,203.799 27.521 M91.932 69.801 C 86.642 70.505,84.544 72.114,81.905 77.486 C 78.353 84.719,79.453 86.831,94.744 102.152 C 107.632 115.066,108.822 116.101,111.431 116.660 C 122.483 119.030,129.877 114.187,129.363 104.914 C 128.993 98.242,127.215 95.721,113.044 81.777 L 102.914 71.809 99.956 70.833 C 96.669 69.749,94.456 69.465,91.932 69.801 M301.064 70.323 C 298.267 71.229,295.685 72.609,295.685 73.198 C 295.685 73.386,295.155 74.006,294.508 74.575 C 293.861 75.144,290.020 78.957,285.972 83.049 C 281.924 87.141,277.201 91.869,275.477 93.556 C 270.728 98.204,270.057 100.284,270.724 108.291 L 270.998 111.583 273.052 113.737 C 275.992 116.819,276.701 117.073,282.348 117.073 C 290.100 117.073,288.458 118.156,303.554 103.094 L 316.740 89.938 317.509 86.714 C 320.265 75.153,311.898 66.813,301.064 70.323 M100.938 72.782 C 101.748 73.033,102.539 73.653,103.002 74.399 C 103.415 75.065,104.375 75.914,105.135 76.286 C 105.980 76.699,106.889 77.596,107.473 78.592 C 108.067 79.605,108.846 80.367,109.532 80.607 C 110.139 80.818,110.839 81.385,111.087 81.865 C 111.760 83.169,113.024 84.465,113.984 84.836 C 114.452 85.017,114.984 85.548,115.166 86.016 C 115.586 87.098,117.382 88.770,118.479 89.101 C 118.943 89.241,119.421 89.748,119.542 90.228 C 119.785 91.196,121.442 92.922,122.757 93.578 C 123.255 93.827,123.710 94.491,123.850 95.176 C 123.982 95.820,124.860 97.292,125.801 98.447 C 127.834 100.944,128.138 102.265,127.763 106.994 C 127.485 110.505,127.412 110.658,125.437 111.828 C 124.666 112.284,124.117 112.982,123.915 113.764 C 123.507 115.337,122.921 115.489,117.073 115.533 C 111.809 115.572,109.730 115.172,109.374 114.050 C 109.243 113.638,108.685 113.026,108.133 112.691 C 107.581 112.355,106.090 111.051,104.819 109.793 C 103.548 108.534,102.236 107.251,101.903 106.942 C 101.570 106.632,100.639 105.704,99.834 104.878 C 99.029 104.053,98.101 103.124,97.771 102.814 C 97.440 102.505,96.512 101.576,95.707 100.750 C 94.902 99.925,93.934 98.952,93.557 98.589 C 82.859 88.295,81.399 84.686,84.647 76.569 C 86.066 73.024,86.223 72.880,89.306 72.279 C 90.875 71.974,99.538 72.348,100.938 72.782 M311.849 72.898 C 314.840 74.914,316.169 78.645,315.819 84.044 C 315.508 88.835,315.223 89.687,313.549 90.824 C 312.776 91.349,311.808 92.309,311.397 92.957 C 310.987 93.605,310.091 94.466,309.406 94.870 C 308.721 95.274,307.771 96.298,307.295 97.146 C 306.818 97.993,306.220 98.687,305.965 98.687 C 305.710 98.687,304.656 99.635,303.623 100.794 C 302.590 101.952,301.234 103.211,300.609 103.591 C 299.985 103.971,299.218 104.776,298.906 105.379 C 298.594 105.983,297.751 106.823,297.032 107.247 C 296.313 107.671,295.383 108.689,294.965 109.508 C 294.475 110.469,293.703 111.243,292.787 111.690 C 291.929 112.109,291.147 112.864,290.807 113.601 C 290.039 115.263,288.726 115.568,282.333 115.570 L 277.049 115.572 275.858 114.091 C 275.203 113.276,274.211 112.390,273.652 112.121 C 272.240 111.441,271.983 109.946,272.256 103.978 C 272.530 97.992,272.496 98.105,274.370 97.148 C 275.331 96.658,275.989 95.997,276.245 95.265 C 276.469 94.620,277.260 93.744,278.091 93.219 C 278.890 92.715,279.974 91.621,280.499 90.789 C 281.024 89.957,281.827 89.134,282.284 88.959 C 283.218 88.602,284.346 87.453,284.957 86.236 C 285.182 85.789,285.872 85.145,286.492 84.804 C 287.111 84.463,288.101 83.466,288.693 82.589 C 289.285 81.711,290.045 80.897,290.382 80.778 C 291.317 80.450,292.725 79.084,293.083 78.156 C 293.260 77.700,294.097 76.889,294.944 76.354 C 295.791 75.819,296.823 74.807,297.238 74.105 C 298.535 71.907,309.085 71.035,311.849 72.898 M196.248 111.646 C 194.906 111.923,192.964 112.162,191.932 112.179 C 186.720 112.263,179.112 113.615,176.148 114.985 C 174.537 115.729,172.195 116.599,170.943 116.917 C 169.692 117.235,167.808 118.061,166.756 118.751 C 165.704 119.441,163.763 120.551,162.441 121.218 C 161.119 121.885,159.362 122.967,158.537 123.621 C 157.711 124.276,156.569 125.102,155.998 125.458 C 151.751 128.102,145.520 133.875,141.352 139.024 C 135.763 145.931,134.217 148.122,133.409 150.281 C 133.023 151.313,132.238 152.749,131.664 153.471 C 131.091 154.193,130.131 156.304,129.531 158.161 C 128.932 160.019,128.001 162.469,127.463 163.606 C 126.143 166.396,125.456 169.273,124.775 174.862 C 124.460 177.443,124.034 180.144,123.827 180.863 C 123.256 182.856,123.380 192.088,124.038 196.572 C 125.571 207.011,126.385 210.886,127.575 213.408 C 128.233 214.805,129.201 217.129,129.726 218.574 C 130.251 220.019,131.159 221.899,131.745 222.753 C 132.331 223.606,133.165 225.211,133.598 226.318 C 134.032 227.424,134.852 228.837,135.422 229.456 C 135.992 230.075,137.231 231.688,138.176 233.040 C 139.121 234.393,140.174 235.731,140.515 236.014 C 140.856 236.297,141.705 237.385,142.401 238.433 C 143.580 240.205,147.153 243.704,150.478 246.341 C 156.080 250.785,159.489 253.276,161.521 254.409 C 162.816 255.131,164.532 256.169,165.334 256.715 C 166.136 257.261,168.200 258.155,169.922 258.701 C 171.643 259.248,174.091 260.186,175.362 260.784 C 181.571 263.710,199.856 265.462,208.846 263.993 C 210.688 263.692,214.137 263.177,216.510 262.849 C 219.770 262.399,221.514 261.936,223.640 260.959 C 225.188 260.248,227.552 259.333,228.893 258.927 C 230.235 258.521,232.345 257.570,233.583 256.815 C 234.822 256.059,236.764 255.026,237.899 254.517 C 239.034 254.009,240.849 252.933,241.932 252.125 C 243.016 251.317,244.813 249.975,245.926 249.141 C 248.821 246.973,259.948 235.495,261.726 232.842 C 262.552 231.610,263.860 229.754,264.633 228.716 C 265.406 227.678,266.305 226.033,266.629 225.059 C 266.954 224.085,267.873 222.326,268.672 221.148 C 269.471 219.971,270.323 218.150,270.564 217.102 C 270.806 216.054,271.584 213.890,272.294 212.292 C 276.613 202.575,276.942 175.352,272.853 165.966 C 272.242 164.563,271.375 162.171,270.927 160.651 C 270.070 157.748,266.279 150.060,264.625 147.873 C 264.091 147.167,263.209 145.775,262.664 144.779 C 260.708 141.200,248.963 129.046,244.732 126.219 C 243.553 125.432,241.891 124.239,241.037 123.568 C 240.184 122.896,238.242 121.749,236.722 121.017 C 235.202 120.286,233.283 119.267,232.458 118.753 C 231.632 118.239,230.028 117.550,228.893 117.222 C 227.758 116.894,225.394 115.978,223.640 115.187 C 219.745 113.430,216.426 112.727,209.568 112.207 C 206.679 111.987,203.555 111.649,202.627 111.455 C 200.435 110.997,199.219 111.033,196.248 111.646 M216.930 114.532 C 218.089 114.831,219.560 115.447,220.199 115.902 C 221.546 116.862,225.229 118.199,226.525 118.199 C 227.804 118.199,229.916 119.157,231.283 120.357 C 231.931 120.926,233.437 121.723,234.629 122.128 C 235.822 122.534,237.569 123.503,238.513 124.283 C 239.456 125.062,241.082 125.997,242.126 126.359 C 243.486 126.830,244.229 127.359,244.742 128.222 C 245.137 128.884,246.282 129.932,247.285 130.550 C 248.289 131.167,249.299 132.024,249.528 132.452 C 249.757 132.881,250.621 133.721,251.446 134.319 C 252.271 134.917,253.324 135.967,253.786 136.652 C 254.247 137.338,255.064 138.110,255.602 138.369 C 256.155 138.635,256.926 139.578,257.381 140.545 C 257.876 141.599,258.678 142.544,259.476 143.015 C 260.488 143.612,260.910 144.224,261.415 145.824 C 261.789 147.013,262.719 148.643,263.633 149.714 C 264.706 150.971,265.453 152.371,265.984 154.118 C 266.494 155.796,267.150 157.051,267.888 157.758 C 269.013 158.835,269.139 159.222,270.192 164.826 C 270.418 166.024,270.980 167.445,271.454 168.015 C 273.703 170.720,274.098 174.720,273.764 191.401 C 273.508 204.252,273.366 205.460,271.883 207.470 C 271.364 208.173,270.686 209.966,270.327 211.582 C 269.978 213.157,269.547 215.050,269.371 215.788 C 269.194 216.526,268.478 217.877,267.779 218.790 C 267.080 219.703,266.144 221.567,265.699 222.931 C 265.236 224.348,264.326 226.069,263.577 226.945 C 262.855 227.788,261.924 229.248,261.507 230.189 C 261.091 231.130,260.248 232.272,259.634 232.726 C 259.019 233.180,258.113 234.241,257.620 235.082 C 257.126 235.924,256.258 236.860,255.690 237.162 C 255.122 237.464,254.177 238.373,253.590 239.182 C 253.003 239.991,252.011 240.963,251.387 241.343 C 250.763 241.722,249.910 242.612,249.493 243.320 C 249.075 244.027,248.150 244.951,247.436 245.372 C 246.722 245.793,245.793 246.723,245.371 247.437 C 244.854 248.313,244.075 248.939,242.979 249.358 C 242.084 249.699,240.800 250.549,240.124 251.247 C 239.270 252.127,238.008 252.810,235.986 253.483 C 233.752 254.227,232.859 254.738,232.135 255.686 C 231.289 256.796,230.896 256.967,228.261 257.370 C 224.301 257.976,222.942 258.428,221.369 259.660 C 217.202 262.924,181.587 263.358,178.947 260.177 C 178.113 259.172,175.792 258.214,173.132 257.777 C 169.452 257.173,168.338 256.770,167.316 255.675 C 166.198 254.477,164.191 253.428,162.360 253.084 C 161.433 252.910,160.705 252.457,160.189 251.731 C 159.761 251.131,158.708 250.286,157.848 249.854 C 156.989 249.421,155.520 248.285,154.586 247.329 C 153.651 246.373,151.752 244.695,150.367 243.600 C 148.981 242.506,146.675 240.226,145.241 238.535 C 143.807 236.843,141.845 234.615,140.881 233.583 C 139.917 232.552,138.807 231.077,138.414 230.308 C 138.022 229.538,137.197 228.536,136.582 228.081 C 135.717 227.441,135.251 226.559,134.532 224.201 C 133.811 221.837,133.303 220.879,132.279 219.947 C 131.552 219.285,130.957 218.473,130.957 218.142 C 130.957 216.449,129.285 210.737,128.422 209.484 C 126.774 207.090,126.424 204.240,126.199 191.370 C 125.914 175.010,126.340 169.760,128.171 167.101 C 129.674 164.919,130.582 162.317,130.582 160.190 C 130.582 158.219,131.161 156.894,132.691 155.364 C 133.590 154.465,134.198 153.350,134.624 151.818 C 135.054 150.271,135.654 149.176,136.572 148.264 C 137.302 147.538,138.236 146.141,138.649 145.158 C 139.117 144.044,139.884 143.046,140.683 142.511 C 141.388 142.038,142.317 141.057,142.746 140.331 C 144.020 138.179,151.191 131.024,152.776 130.324 C 153.569 129.974,154.664 129.045,155.208 128.260 C 155.876 127.296,156.640 126.711,157.555 126.462 C 158.301 126.260,159.799 125.364,160.883 124.471 C 161.967 123.579,163.672 122.555,164.671 122.196 C 165.670 121.836,167.167 120.889,167.998 120.091 C 169.291 118.849,169.825 118.606,171.715 118.399 C 174.775 118.064,178.871 116.747,180.121 115.695 C 181.169 114.813,183.871 114.284,189.118 113.932 C 194.573 113.567,214.883 114.005,216.930 114.532 M49.654 175.244 C 41.889 176.062,38.086 180.315,38.086 188.180 C 38.086 193.443,38.142 193.583,41.702 197.288 C 45.231 200.960,44.375 200.851,68.120 200.678 C 89.962 200.520,89.589 200.565,91.295 197.871 C 91.795 197.081,92.800 195.724,93.529 194.854 C 96.732 191.028,96.435 184.126,92.895 180.140 C 91.953 179.079,91.182 178.055,91.182 177.864 C 91.182 177.674,90.432 177.078,89.516 176.541 L 87.849 175.564 74.225 175.225 C 58.693 174.838,53.477 174.842,49.654 175.244 M318.011 175.234 C 311.798 175.532,311.291 175.719,307.741 179.032 C 301.600 184.763,304.096 197.333,311.898 199.967 C 317.000 201.690,354.153 200.999,356.473 199.138 C 364.314 192.847,363.686 180.485,355.305 176.151 C 353.684 175.313,329.018 174.706,318.011 175.234 M353.228 177.090 C 356.012 178.148,360.742 184.608,360.910 187.581 L 361.050 190.069 358.949 192.789 C 357.794 194.285,356.848 195.657,356.848 195.839 C 356.848 196.523,354.173 198.483,352.697 198.880 C 351.649 199.163,345.206 199.257,332.336 199.178 C 311.885 199.052,311.391 199.002,310.286 196.936 C 310.028 196.454,308.892 195.090,307.762 193.905 L 305.707 191.750 305.921 188.089 C 306.179 183.690,306.677 182.145,308.068 181.426 C 308.642 181.129,309.654 180.202,310.315 179.367 C 312.064 177.159,312.613 176.972,318.199 176.690 C 324.667 176.363,352.141 176.676,353.228 177.090 M86.293 177.092 C 87.511 177.327,88.280 177.774,89.107 178.729 C 89.732 179.452,91.238 181.168,92.454 182.542 L 94.664 185.041 94.447 187.624 C 94.212 190.425,93.867 191.306,92.296 193.116 C 91.730 193.767,90.802 195.155,90.233 196.200 C 88.624 199.157,89.412 199.062,66.417 199.062 C 45.441 199.062,43.902 198.946,43.902 197.371 C 43.902 197.174,42.905 195.913,41.686 194.568 C 39.166 191.787,38.733 190.269,39.205 185.867 L 39.465 183.435 42.457 180.554 C 44.103 178.970,45.987 177.472,46.646 177.226 C 48.076 176.691,83.591 176.571,86.293 177.092 M280.113 258.591 C 276.592 259.413,275.870 259.715,274.371 260.999 C 271.191 263.721,270.732 265.048,270.732 271.510 C 270.732 278.690,270.121 277.727,282.506 290.067 C 297.921 305.426,299.347 306.391,306.191 306.098 C 309.734 305.947,310.056 305.854,314.692 303.668 C 317.657 302.270,319.108 292.657,317.110 287.653 C 316.132 285.202,314.036 282.904,301.313 270.325 C 291.515 260.638,289.993 259.461,286.577 258.931 C 282.182 258.250,281.687 258.224,280.113 258.591 M111.025 259.033 C 108.590 259.719,107.753 260.465,95.083 273.232 L 83.787 284.615 82.197 288.707 C 80.307 293.574,80.322 294.067,82.522 299.062 C 84.371 303.263,85.047 303.906,88.860 305.102 C 96.199 307.404,101.612 305.701,107.831 299.136 C 108.477 298.454,110.425 296.512,112.160 294.820 C 128.790 278.607,128.893 278.459,128.893 270.712 L 128.893 265.064 126.516 262.389 C 125.209 260.917,123.604 259.511,122.951 259.264 C 121.188 258.597,113.124 258.441,111.025 259.033 M122.940 260.704 C 123.381 260.946,123.844 261.555,123.971 262.059 C 124.097 262.563,124.871 263.506,125.691 264.155 C 128.770 266.594,128.875 274.889,125.864 277.814 C 125.164 278.493,124.336 279.662,124.023 280.411 C 123.710 281.161,123.073 281.970,122.608 282.209 C 121.413 282.823,119.700 284.483,119.700 285.026 C 119.700 285.277,118.836 286.104,117.779 286.863 C 116.712 287.629,115.673 288.736,115.440 289.352 C 115.200 289.986,114.659 290.552,114.175 290.674 C 113.198 290.919,111.069 293.200,111.069 294.002 C 111.069 294.301,110.649 294.650,110.135 294.779 C 109.105 295.038,106.942 297.289,106.942 298.103 C 106.942 298.387,106.162 298.997,105.208 299.459 C 104.172 299.960,103.176 300.803,102.735 301.551 C 101.746 303.227,99.984 303.685,94.559 303.675 C 87.691 303.663,86.234 302.987,84.798 299.150 C 82.010 291.699,84.379 284.354,90.915 280.181 C 91.491 279.814,92.231 278.949,92.560 278.259 C 92.895 277.556,93.797 276.646,94.613 276.187 C 95.413 275.738,96.320 274.883,96.627 274.288 C 96.935 273.693,97.946 272.683,98.875 272.045 C 99.803 271.406,100.563 270.728,100.563 270.537 C 100.563 270.347,102.125 268.678,104.034 266.829 C 105.943 264.980,108.150 262.840,108.939 262.074 C 109.728 261.309,110.910 260.545,111.566 260.377 C 113.304 259.933,121.989 260.182,122.940 260.704 M287.159 260.435 C 287.939 260.652,289.395 261.556,290.396 262.445 C 291.396 263.333,292.637 264.166,293.152 264.296 C 293.719 264.438,294.275 264.980,294.560 265.669 C 295.070 266.899,296.941 268.668,297.732 268.668 C 298.001 268.668,298.423 269.158,298.671 269.757 C 299.202 271.038,300.426 272.236,301.554 272.577 C 301.997 272.711,302.559 273.305,302.804 273.897 C 303.334 275.175,304.559 276.365,305.703 276.712 C 306.157 276.849,306.633 277.291,306.761 277.695 C 307.136 278.876,308.712 280.541,309.936 281.048 C 310.559 281.306,311.069 281.737,311.069 282.005 C 311.069 282.732,312.855 284.719,314.002 285.269 C 316.432 286.433,316.613 299.463,314.236 302.089 C 311.827 304.751,299.798 304.466,297.192 301.684 C 296.466 300.910,295.179 299.828,294.331 299.279 C 293.484 298.731,292.604 297.873,292.376 297.373 C 292.148 296.872,291.292 296.041,290.475 295.525 C 289.658 295.009,288.707 294.108,288.362 293.524 C 288.016 292.939,287.172 292.076,286.485 291.605 C 285.798 291.134,284.856 290.195,284.392 289.518 C 283.928 288.841,283.055 287.968,282.452 287.577 C 281.849 287.186,280.777 286.120,280.069 285.207 C 279.362 284.294,278.195 283.149,277.478 282.661 C 276.760 282.173,276.173 281.617,276.173 281.425 C 276.173 281.233,275.430 280.240,274.523 279.219 C 271.310 275.600,271.039 264.957,274.131 263.781 C 274.635 263.590,275.381 262.880,275.790 262.204 C 276.977 260.241,283.054 259.296,287.159 260.435 M195.853 293.030 C 193.014 294.113,188.475 298.054,187.912 299.926 C 187.093 302.642,187.232 342.791,188.065 344.311 C 189.003 346.024,193.010 349.582,194.586 350.103 C 196.193 350.633,205.073 350.459,206.094 349.877 C 207.897 348.850,211.948 343.652,212.442 341.733 C 213.280 338.474,213.162 303.701,212.303 300.930 C 210.496 295.100,201.612 290.834,195.853 293.030 M203.830 295.089 C 204.555 295.793,205.994 296.798,207.028 297.322 C 211.457 299.566,211.445 299.498,211.445 321.388 C 211.445 342.400,211.592 341.318,208.226 345.088 C 205.094 348.594,204.352 349.025,201.038 349.262 C 196.958 349.554,194.236 348.805,193.091 347.074 C 192.515 346.203,191.627 345.461,190.808 345.165 C 188.936 344.488,188.993 345.196,188.960 322.326 C 188.927 299.237,188.973 298.789,191.487 297.959 C 192.145 297.742,193.602 296.811,194.724 295.891 C 196.953 294.063,197.310 293.935,200.411 293.860 C 202.326 293.813,202.628 293.922,203.830 295.089 " stroke="none" fill="#fce474" fill-rule="evenodd"></path><path id="path2" d="M196.046 24.738 C 193.159 25.198,192.639 25.441,191.322 26.941 C 190.652 27.705,189.765 28.499,189.351 28.705 C 186.478 30.140,185.999 34.482,186.228 57.036 C 186.441 78.011,186.277 76.986,190.014 80.610 C 193.278 83.775,194.124 84.058,200.188 84.020 C 206.408 83.981,207.246 83.683,210.126 80.488 C 213.966 76.227,213.696 78.185,213.696 54.597 C 213.696 29.536,214.135 31.954,208.735 27.260 C 205.940 24.831,201.278 23.904,196.046 24.738 M203.302 25.716 C 206.593 26.693,211.276 30.554,212.195 33.048 C 213.145 35.624,213.355 70.768,212.445 74.766 C 211.834 77.451,207.320 82.233,204.690 82.982 C 198.607 84.715,189.394 81.182,187.941 76.560 C 187.357 74.699,187.023 38.552,187.559 35.110 C 188.654 28.074,196.160 23.595,203.302 25.716 M87.957 69.558 C 84.937 71.043,82.552 72.966,82.552 73.914 C 82.552 74.086,81.976 74.914,81.273 75.756 C 78.317 79.294,78.584 85.031,81.943 90.116 C 84.167 93.483,104.196 113.893,107.365 116.022 C 110.704 118.264,116.823 119.024,122.125 117.855 C 127.135 116.751,130.898 110.216,130.481 103.346 C 130.165 98.137,129.267 96.790,119.397 86.727 C 116.032 83.295,112.740 79.924,112.080 79.234 C 101.779 68.459,95.396 65.899,87.957 69.558 M299.551 69.528 C 297.724 70.473,295.784 71.840,294.773 72.895 C 293.837 73.872,292.907 74.672,292.707 74.672 C 292.507 74.672,291.845 75.389,291.236 76.266 C 290.626 77.144,289.436 78.281,288.591 78.794 C 287.746 79.307,287.054 79.915,287.054 80.146 C 287.054 80.640,280.401 87.430,279.917 87.430 C 279.735 87.430,279.089 88.151,278.483 89.033 C 277.876 89.915,276.952 90.865,276.430 91.145 C 275.908 91.424,274.958 92.381,274.319 93.270 C 273.680 94.160,272.820 94.995,272.407 95.126 C 270.357 95.777,269.007 102.279,269.741 107.965 C 270.747 115.756,273.868 118.199,282.820 118.199 C 289.974 118.199,290.565 117.890,297.619 110.466 C 297.897 110.174,299.728 108.341,301.689 106.393 C 303.649 104.446,305.507 102.577,305.816 102.242 C 306.126 101.907,308.770 99.315,311.692 96.483 C 320.353 88.090,321.819 83.578,318.234 76.345 C 314.540 68.890,306.473 65.947,299.551 69.528 M99.956 70.833 L 102.914 71.809 113.044 81.777 C 127.215 95.721,128.993 98.242,129.363 104.914 C 129.877 114.187,122.483 119.030,111.431 116.660 C 108.822 116.101,107.632 115.066,94.744 102.152 C 79.453 86.831,78.353 84.719,81.905 77.486 C 85.568 70.028,91.208 67.949,99.956 70.833 M308.558 69.978 C 316.322 72.001,319.569 78.071,317.509 86.714 L 316.740 89.938 303.554 103.094 C 288.458 118.156,290.100 117.073,282.348 117.073 C 276.701 117.073,275.992 116.819,273.052 113.737 L 270.998 111.583 270.724 108.291 C 270.057 100.284,270.728 98.204,275.477 93.556 C 277.201 91.869,281.924 87.141,285.972 83.049 C 290.020 78.957,293.861 75.144,294.508 74.575 C 295.155 74.006,295.685 73.386,295.685 73.198 C 295.685 71.137,304.521 68.927,308.558 69.978 M198.499 109.448 C 197.983 109.536,196.717 109.845,195.685 110.133 C 194.653 110.421,190.593 111.086,186.664 111.611 C 179.097 112.621,176.413 113.248,174.287 114.502 C 173.566 114.927,171.439 115.753,169.559 116.337 C 167.679 116.922,165.781 117.729,165.341 118.131 C 164.901 118.534,163.443 119.417,162.101 120.095 C 160.760 120.772,158.987 121.861,158.161 122.515 C 157.336 123.168,155.689 124.319,154.503 125.074 C 153.316 125.828,152.345 126.600,152.345 126.789 C 152.345 126.978,151.543 127.599,150.563 128.168 C 148.292 129.487,141.387 136.404,140.390 138.360 C 139.972 139.178,139.201 140.129,138.676 140.473 C 138.150 140.818,137.374 141.780,136.949 142.612 C 136.525 143.443,135.594 144.770,134.881 145.559 C 134.168 146.348,133.337 147.696,133.034 148.555 C 132.731 149.413,131.860 151.055,131.098 152.202 C 129.725 154.271,127.955 158.538,127.955 159.780 C 127.955 160.135,127.524 161.061,126.997 161.836 C 125.529 163.996,124.969 165.953,124.183 171.670 C 123.786 174.559,123.103 178.021,122.665 179.362 C 121.136 184.049,121.207 191.524,122.844 198.124 C 123.586 201.116,124.363 205.102,124.571 206.981 C 124.996 210.834,125.386 212.058,127.543 216.323 C 128.378 217.974,129.066 219.628,129.071 220.000 C 129.083 220.813,130.006 222.664,131.168 224.203 C 131.635 224.822,132.445 226.298,132.967 227.484 C 133.489 228.669,134.363 230.054,134.911 230.562 C 135.458 231.069,136.439 232.320,137.090 233.341 C 143.089 242.752,160.837 257.497,168.293 259.265 C 169.325 259.509,171.266 260.312,172.608 261.047 C 174.514 262.093,176.360 262.657,181.051 263.629 C 184.353 264.314,188.659 265.218,190.619 265.639 C 195.592 266.707,205.213 266.741,208.685 265.703 C 211.640 264.819,213.818 264.345,218.386 263.588 C 223.000 262.824,224.541 262.374,226.829 261.120 C 227.861 260.554,229.838 259.729,231.223 259.287 C 232.607 258.844,234.149 258.159,234.650 257.765 C 235.151 257.372,236.804 256.420,238.324 255.650 C 239.845 254.881,241.981 253.527,243.073 252.642 C 244.164 251.756,245.193 251.032,245.360 251.032 C 246.476 251.032,262.190 235.006,263.204 232.833 C 263.590 232.008,264.545 230.601,265.328 229.708 C 266.111 228.814,267.033 227.210,267.376 226.143 C 267.720 225.076,268.639 223.189,269.418 221.951 C 270.197 220.713,271.287 218.316,271.839 216.624 C 272.392 214.932,273.152 213.156,273.529 212.677 C 277.918 207.097,277.973 174.104,273.609 164.165 C 272.794 162.308,271.766 159.581,271.326 158.107 C 270.886 156.632,270.081 154.774,269.537 153.979 C 268.993 153.184,268.050 151.440,267.441 150.104 C 266.832 148.768,265.677 146.929,264.874 146.018 C 264.071 145.106,263.415 144.126,263.415 143.841 C 263.415 143.556,262.772 142.609,261.986 141.736 C 261.201 140.864,259.951 139.306,259.209 138.274 C 257.541 135.955,250.445 129.005,248.946 128.223 C 248.339 127.906,247.336 127.110,246.717 126.453 C 246.098 125.797,245.000 124.932,244.278 124.531 C 243.555 124.130,242.120 123.132,241.088 122.313 C 240.056 121.494,238.452 120.542,237.523 120.196 C 236.595 119.851,235.075 119.025,234.146 118.360 C 233.218 117.695,231.002 116.708,229.223 116.166 C 227.443 115.624,225.597 114.843,225.121 114.429 C 223.826 113.306,221.121 112.652,213.611 111.646 C 209.883 111.146,205.928 110.488,204.823 110.183 C 202.461 109.530,199.817 109.223,198.499 109.448 M202.627 111.455 C 203.555 111.649,206.679 111.987,209.568 112.207 C 216.426 112.727,219.745 113.430,223.640 115.187 C 225.394 115.978,227.758 116.894,228.893 117.222 C 230.028 117.550,231.632 118.239,232.458 118.753 C 233.283 119.267,235.202 120.286,236.722 121.017 C 238.242 121.749,240.184 122.896,241.037 123.568 C 241.891 124.239,243.553 125.432,244.732 126.219 C 248.963 129.046,260.708 141.200,262.664 144.779 C 263.209 145.775,264.091 147.167,264.625 147.873 C 266.279 150.060,270.070 157.748,270.927 160.651 C 271.375 162.171,272.242 164.563,272.853 165.966 C 276.942 175.352,276.613 202.575,272.294 212.292 C 271.584 213.890,270.806 216.054,270.564 217.102 C 270.323 218.150,269.471 219.971,268.672 221.148 C 267.873 222.326,266.954 224.085,266.629 225.059 C 266.305 226.033,265.406 227.678,264.633 228.716 C 263.860 229.754,262.552 231.610,261.726 232.842 C 259.948 235.495,248.821 246.973,245.926 249.141 C 244.813 249.975,243.016 251.317,241.932 252.125 C 240.849 252.933,239.034 254.009,237.899 254.517 C 236.764 255.026,234.822 256.059,233.583 256.815 C 232.345 257.570,230.235 258.521,228.893 258.927 C 227.552 259.333,225.188 260.248,223.640 260.959 C 221.514 261.936,219.770 262.399,216.510 262.849 C 214.137 263.177,210.688 263.692,208.846 263.993 C 199.856 265.462,181.571 263.710,175.362 260.784 C 174.091 260.186,171.643 259.248,169.922 258.701 C 168.200 258.155,166.136 257.261,165.334 256.715 C 164.532 256.169,162.816 255.131,161.521 254.409 C 159.489 253.276,156.080 250.785,150.478 246.341 C 147.153 243.704,143.580 240.205,142.401 238.433 C 141.705 237.385,140.856 236.297,140.515 236.014 C 140.174 235.731,139.121 234.393,138.176 233.040 C 137.231 231.688,135.992 230.075,135.422 229.456 C 134.852 228.837,134.032 227.424,133.598 226.318 C 133.165 225.211,132.331 223.606,131.745 222.753 C 131.159 221.899,130.251 220.019,129.726 218.574 C 129.201 217.129,128.233 214.805,127.575 213.408 C 126.385 210.886,125.571 207.011,124.038 196.572 C 123.380 192.088,123.256 182.856,123.827 180.863 C 124.034 180.144,124.460 177.443,124.775 174.862 C 125.456 169.273,126.143 166.396,127.463 163.606 C 128.001 162.469,128.932 160.019,129.531 158.161 C 130.131 156.304,131.091 154.193,131.664 153.471 C 132.238 152.749,133.023 151.313,133.409 150.281 C 134.217 148.122,135.763 145.931,141.352 139.024 C 145.520 133.875,151.751 128.102,155.998 125.458 C 156.569 125.102,157.711 124.276,158.537 123.621 C 159.362 122.967,161.119 121.885,162.441 121.218 C 163.763 120.551,165.704 119.441,166.756 118.751 C 167.808 118.061,169.692 117.235,170.943 116.917 C 172.195 116.599,174.537 115.729,176.148 114.985 C 179.112 113.615,186.720 112.263,191.932 112.179 C 192.964 112.162,194.906 111.923,196.248 111.646 C 199.219 111.033,200.435 110.997,202.627 111.455 M55.722 173.724 C 45.695 174.177,44.014 174.682,40.139 178.404 C 37.485 180.954,37.336 181.473,37.336 188.180 C 37.336 194.270,37.377 194.400,40.236 197.415 C 44.250 201.648,45.396 201.844,66.229 201.854 C 86.187 201.864,90.465 201.326,92.195 198.588 C 92.552 198.023,93.405 196.890,94.091 196.070 C 98.697 190.562,95.783 177.242,89.539 175.265 C 84.902 173.797,69.566 173.098,55.722 173.724 M320.826 173.751 C 311.993 174.129,310.566 174.615,306.584 178.595 L 303.752 181.426 303.762 186.304 C 303.772 191.806,304.440 194.808,306.131 196.949 C 306.680 197.644,307.395 198.657,307.720 199.200 C 309.016 201.367,318.171 202.097,339.775 201.757 C 355.515 201.509,355.808 201.457,358.779 198.364 C 365.605 191.260,364.264 179.139,356.256 175.565 C 352.524 173.898,336.512 173.079,320.826 173.751 M74.225 175.225 L 87.849 175.564 89.516 176.541 C 90.432 177.078,91.182 177.674,91.182 177.864 C 91.182 178.055,91.953 179.079,92.895 180.140 C 96.435 184.126,96.732 191.028,93.529 194.854 C 92.800 195.724,91.795 197.081,91.295 197.871 C 89.589 200.565,89.962 200.520,68.120 200.678 C 44.375 200.851,45.231 200.960,41.702 197.288 C 38.142 193.583,38.086 193.443,38.086 188.180 C 38.086 181.791,39.843 178.788,44.947 176.451 C 48.449 174.848,52.420 174.681,74.225 175.225 M349.461 175.430 C 355.129 175.648,355.516 175.805,358.643 179.147 C 364.072 184.951,363.110 193.813,356.473 199.138 C 354.153 200.999,317.000 201.690,311.898 199.967 C 306.564 198.166,303.164 190.445,304.651 183.509 C 305.114 181.351,308.950 177.203,311.581 176.017 C 313.727 175.049,332.182 174.763,349.461 175.430 M112.665 257.585 C 108.211 258.590,107.136 259.441,95.052 271.523 C 84.990 281.585,83.576 283.146,82.384 285.514 C 81.645 286.981,80.888 288.180,80.700 288.180 C 79.365 288.180,79.270 295.719,80.574 298.140 C 80.939 298.819,81.771 300.365,82.422 301.576 C 84.270 305.013,89.562 307.813,94.155 307.787 C 97.879 307.765,103.500 305.306,105.360 302.886 C 105.885 302.203,106.794 301.396,107.381 301.093 C 107.967 300.790,108.867 299.876,109.381 299.062 C 109.895 298.248,110.806 297.328,111.406 297.018 C 112.007 296.707,112.860 295.867,113.304 295.150 C 113.747 294.433,114.702 293.480,115.427 293.032 C 116.153 292.584,117.163 291.555,117.674 290.747 C 118.184 289.938,119.011 289.121,119.511 288.931 C 120.011 288.741,120.862 287.917,121.403 287.100 C 121.944 286.282,123.044 285.178,123.848 284.646 C 124.652 284.114,125.602 283.214,125.958 282.646 C 126.314 282.078,127.231 280.918,127.994 280.067 C 130.330 277.465,131.216 269.925,129.709 265.478 C 127.653 259.413,120.088 255.910,112.665 257.585 M281.051 257.296 C 275.804 257.886,271.151 261.298,270.142 265.296 C 269.290 268.670,269.486 275.888,270.500 278.495 C 271.341 280.654,287.611 297.698,291.745 300.750 C 292.570 301.359,294.108 302.622,295.163 303.556 C 301.567 309.228,307.598 309.487,315.255 304.420 C 321.129 300.533,321.207 287.635,315.384 283.050 C 314.642 282.466,313.690 281.436,313.267 280.760 C 312.844 280.084,312.007 279.278,311.406 278.967 C 310.806 278.657,309.895 277.737,309.381 276.923 C 308.867 276.109,307.947 275.185,307.337 274.869 C 306.726 274.554,305.704 273.536,305.066 272.608 C 304.427 271.680,303.426 270.673,302.842 270.371 C 302.257 270.068,301.432 269.233,301.008 268.514 C 300.584 267.796,299.592 266.800,298.803 266.302 C 298.015 265.805,297.144 264.975,296.867 264.459 C 296.591 263.942,295.632 263.057,294.737 262.491 C 293.842 261.925,293.021 261.234,292.915 260.955 C 292.144 258.946,285.259 256.823,281.051 257.296 M286.577 258.931 C 289.993 259.461,291.515 260.638,301.313 270.325 C 314.036 282.904,316.132 285.202,317.110 287.653 C 319.108 292.657,317.657 302.270,314.692 303.668 C 310.056 305.854,309.734 305.947,306.191 306.098 C 299.347 306.391,297.921 305.426,282.506 290.067 C 270.121 277.727,270.732 278.690,270.732 271.510 C 270.732 264.256,272.748 260.495,277.281 259.294 C 281.664 258.133,281.475 258.140,286.577 258.931 M122.951 259.264 C 123.604 259.511,125.209 260.917,126.516 262.389 L 128.893 265.064 128.893 270.712 C 128.893 278.459,128.790 278.607,112.160 294.820 C 110.425 296.512,108.477 298.454,107.831 299.136 C 101.612 305.701,96.199 307.404,88.860 305.102 C 85.047 303.906,84.371 303.263,82.522 299.062 C 80.322 294.067,80.307 293.574,82.197 288.707 L 83.787 284.615 95.083 273.232 C 107.753 260.465,108.590 259.719,111.025 259.033 C 113.124 258.441,121.188 258.597,122.951 259.264 M194.854 292.153 C 192.296 293.097,187.570 297.428,186.898 299.445 C 186.109 301.812,186.030 341.109,186.809 343.715 C 189.347 352.206,203.116 354.537,209.952 347.634 C 213.831 343.718,213.626 344.995,213.790 323.640 C 213.979 298.996,213.891 298.417,209.475 295.072 C 204.942 291.639,199.302 290.513,194.854 292.153 M202.868 292.865 C 207.122 294.129,211.303 297.703,212.303 300.930 C 213.162 303.701,213.280 338.474,212.442 341.733 C 211.948 343.652,207.897 348.850,206.094 349.877 C 205.073 350.459,196.193 350.633,194.586 350.103 C 193.010 349.582,189.003 346.024,188.065 344.311 C 187.232 342.791,187.093 302.642,187.912 299.926 C 189.326 295.230,197.630 291.310,202.868 292.865 " stroke="none" fill="#fceda8" fill-rule="evenodd"></path><path id="path3" d="M192.508 24.106 C 191.793 24.365,190.832 25.137,190.373 25.820 C 189.914 26.503,188.979 27.437,188.296 27.897 C 187.362 28.525,186.851 29.321,186.236 31.110 C 185.785 32.419,184.983 33.942,184.453 34.495 L 183.490 35.501 183.490 54.384 L 183.490 73.267 184.803 74.721 C 185.631 75.637,186.117 76.556,186.118 77.206 C 186.120 78.589,187.341 80.514,188.646 81.188 C 189.230 81.490,189.931 82.155,190.205 82.666 C 192.093 86.194,208.155 86.058,209.830 82.500 C 210.248 81.612,210.870 80.997,211.611 80.739 C 212.803 80.324,213.453 79.220,214.234 76.283 C 214.465 75.415,214.910 74.450,215.222 74.137 C 217.094 72.265,217.066 37.509,215.190 34.646 C 214.882 34.176,214.380 32.815,214.075 31.623 C 213.693 30.133,213.210 29.222,212.529 28.705 C 211.985 28.293,210.914 27.325,210.150 26.556 C 207.867 24.257,206.606 23.917,199.812 23.766 C 195.625 23.674,193.415 23.777,192.508 24.106 M205.358 25.139 C 206.611 25.509,208.143 26.653,211.718 29.891 C 213.643 31.634,213.696 32.295,213.696 54.597 C 213.696 78.185,213.966 76.227,210.126 80.488 C 207.246 83.683,206.408 83.981,200.188 84.020 C 194.124 84.058,193.278 83.775,190.014 80.610 C 186.277 76.986,186.441 78.011,186.228 57.036 C 185.999 34.482,186.478 30.140,189.351 28.705 C 189.765 28.499,190.652 27.705,191.322 26.941 C 191.993 26.177,192.905 25.437,193.349 25.296 C 196.228 24.382,202.513 24.300,205.358 25.139 M91.525 66.008 C 89.763 66.256,88.074 67.143,87.062 68.355 C 86.748 68.730,85.816 69.265,84.991 69.543 C 84.007 69.874,83.210 70.490,82.680 71.328 C 81.914 72.538,80.919 73.631,79.476 74.846 C 77.254 76.718,77.682 87.167,80.116 90.476 C 80.630 91.174,81.663 92.674,82.412 93.810 C 83.161 94.946,84.427 96.289,85.226 96.794 C 86.025 97.299,86.679 97.841,86.679 97.999 C 86.679 98.495,105.515 117.093,106.534 117.603 C 107.068 117.871,108.349 118.294,109.381 118.544 C 110.413 118.794,112.011 119.438,112.932 119.975 C 115.239 121.320,118.101 121.320,120.659 119.976 C 121.679 119.440,123.475 118.560,124.649 118.021 C 127.732 116.605,130.399 113.595,130.721 111.169 C 130.854 110.163,131.300 108.680,131.711 107.874 C 132.543 106.240,132.653 105.006,132.064 103.904 C 131.847 103.499,131.331 101.611,130.916 99.708 C 130.089 95.905,129.486 94.695,128.169 94.194 C 127.689 94.011,127.122 93.362,126.909 92.751 C 126.188 90.681,104.531 69.418,103.144 69.418 C 102.695 69.418,101.599 68.820,100.707 68.090 C 98.342 66.152,95.345 65.472,91.525 66.008 M299.682 67.745 C 298.645 68.700,297.498 69.418,297.012 69.418 C 296.046 69.418,294.184 70.742,294.184 71.429 C 294.184 71.679,293.720 72.160,293.152 72.499 C 291.793 73.309,276.173 89.064,276.173 89.623 C 276.173 89.861,275.962 90.056,275.704 90.056 C 274.761 90.056,269.805 95.750,269.383 97.319 C 269.160 98.147,268.485 99.746,267.884 100.872 C 266.402 103.650,266.400 106.040,267.879 109.047 C 268.476 110.262,269.261 112.101,269.621 113.133 C 270.466 115.549,272.947 118.008,275.127 118.590 C 276.012 118.826,277.670 119.439,278.812 119.953 C 281.719 121.259,284.669 121.262,286.637 119.960 C 287.439 119.429,289.085 118.739,290.295 118.425 C 292.320 117.901,292.789 117.556,296.180 114.087 C 298.206 112.015,299.931 110.319,300.013 110.319 C 300.289 110.319,314.447 96.049,314.447 95.771 C 314.447 95.621,315.290 94.771,316.320 93.884 C 317.351 92.996,318.305 91.814,318.440 91.257 C 318.575 90.700,319.236 89.627,319.909 88.874 C 322.624 85.833,322.495 75.887,319.731 75.164 C 319.310 75.054,318.599 74.122,318.049 72.960 C 317.317 71.413,316.741 70.765,315.566 70.166 C 314.726 69.737,313.382 68.794,312.582 68.071 C 310.710 66.380,309.435 66.038,305.068 66.056 L 301.501 66.071 299.682 67.745 M100.158 69.585 C 103.233 70.909,107.159 74.086,112.080 79.234 C 112.740 79.924,116.032 83.295,119.397 86.727 C 129.267 96.790,130.165 98.137,130.481 103.346 C 130.898 110.216,127.135 116.751,122.125 117.855 C 116.823 119.024,110.704 118.264,107.365 116.022 C 104.196 113.893,84.167 93.483,81.943 90.116 C 78.584 85.031,78.317 79.294,81.273 75.756 C 81.976 74.914,82.552 74.086,82.552 73.914 C 82.552 72.966,84.937 71.043,87.957 69.558 C 92.359 67.393,95.083 67.399,100.158 69.585 M310.774 69.212 C 314.369 70.676,316.376 72.594,318.234 76.345 C 321.819 83.578,320.353 88.090,311.692 96.483 C 308.770 99.315,306.126 101.907,305.816 102.242 C 305.507 102.577,303.649 104.446,301.689 106.393 C 299.728 108.341,297.897 110.174,297.619 110.466 C 290.565 117.890,289.974 118.199,282.820 118.199 C 273.868 118.199,270.747 115.756,269.741 107.965 C 269.007 102.279,270.357 95.777,272.407 95.126 C 272.820 94.995,273.680 94.160,274.319 93.270 C 274.958 92.381,275.908 91.424,276.430 91.145 C 276.952 90.865,277.876 89.915,278.483 89.033 C 279.089 88.151,279.735 87.430,279.917 87.430 C 280.401 87.430,287.054 80.640,287.054 80.146 C 287.054 79.915,287.746 79.307,288.591 78.794 C 289.436 78.281,290.626 77.144,291.236 76.266 C 291.845 75.389,292.507 74.672,292.707 74.672 C 292.907 74.672,293.837 73.872,294.773 72.895 C 299.230 68.244,305.084 66.896,310.774 69.212 M191.539 108.422 C 189.878 108.806,187.514 109.543,186.286 110.059 C 184.745 110.707,182.727 111.130,179.782 111.424 C 175.080 111.894,173.697 112.337,171.551 114.061 C 170.511 114.897,169.455 115.323,167.745 115.599 C 164.939 116.051,163.440 116.763,162.204 118.231 C 161.701 118.830,160.630 119.490,159.801 119.713 C 158.979 119.934,157.683 120.678,156.921 121.366 C 156.158 122.054,154.496 123.226,153.225 123.970 C 151.955 124.713,150.487 125.832,149.963 126.455 C 149.439 127.078,148.284 127.968,147.396 128.433 C 146.391 128.959,145.560 129.747,145.195 130.519 C 144.860 131.228,143.975 132.113,143.130 132.582 C 142.241 133.075,141.381 133.955,140.973 134.786 C 140.600 135.547,139.735 136.662,139.050 137.263 C 137.793 138.367,135.835 141.346,135.835 142.154 C 135.835 142.394,135.161 143.200,134.338 143.944 C 133.391 144.799,132.692 145.846,132.438 146.791 C 132.216 147.613,131.394 148.988,130.611 149.846 C 128.731 151.907,128.352 152.695,127.912 155.461 C 127.658 157.054,127.211 158.200,126.493 159.099 C 124.669 161.384,124.150 162.813,123.800 166.510 C 123.567 168.976,123.167 170.725,122.506 172.167 C 120.377 176.819,119.352 186.813,120.270 193.977 C 120.951 199.292,121.378 201.168,122.386 203.273 C 123.302 205.185,123.560 206.339,123.815 209.652 C 124.180 214.420,124.401 215.076,126.422 217.411 C 127.572 218.740,127.955 219.504,127.955 220.466 C 127.955 222.330,128.918 224.447,130.404 225.849 C 131.258 226.654,131.903 227.762,132.287 229.084 C 132.672 230.406,133.373 231.610,134.338 232.604 C 135.144 233.435,136.144 234.781,136.559 235.595 C 136.974 236.409,137.948 237.598,138.722 238.236 C 139.496 238.874,140.388 239.940,140.703 240.605 C 141.018 241.269,141.996 242.296,142.875 242.886 C 143.755 243.476,144.734 244.459,145.050 245.070 C 145.366 245.681,146.433 246.679,147.421 247.287 C 148.408 247.894,149.399 248.792,149.622 249.282 C 149.846 249.772,150.975 250.707,152.131 251.360 C 153.288 252.013,154.865 253.110,155.635 253.799 C 157.346 255.328,158.413 255.910,159.510 255.910 C 160.012 255.910,160.956 256.565,161.880 257.552 C 163.741 259.544,164.639 260.038,166.404 260.038 C 168.088 260.038,169.938 260.801,170.918 261.900 C 172.169 263.303,173.429 263.726,177.705 264.177 C 179.958 264.415,182.223 264.842,182.739 265.126 C 187.042 267.493,190.494 268.061,200.750 268.087 C 208.497 268.106,212.307 267.561,214.852 266.069 C 216.639 265.021,218.274 264.591,222.074 264.167 C 226.084 263.719,227.934 263.058,229.271 261.595 C 230.012 260.784,230.809 260.459,233.024 260.063 C 235.493 259.623,236.018 259.378,237.336 258.058 C 238.168 257.225,239.590 256.302,240.525 255.988 C 241.454 255.677,242.892 254.804,243.721 254.050 C 244.551 253.296,246.219 252.181,247.429 251.574 C 248.871 250.850,249.927 250.000,250.494 249.107 C 250.970 248.358,251.961 247.374,252.696 246.919 C 253.432 246.465,254.034 245.922,254.034 245.714 C 254.034 245.506,256.126 243.270,258.684 240.745 C 262.861 236.623,263.404 235.934,264.019 233.985 C 264.502 232.452,264.949 231.721,265.540 231.496 C 266.528 231.121,267.251 230.080,268.129 227.767 C 268.482 226.839,269.226 225.488,269.784 224.765 C 271.265 222.846,271.715 221.879,272.443 219.048 C 272.861 217.422,273.502 216.045,274.220 215.227 C 275.760 213.473,276.079 212.246,276.539 206.298 C 276.971 200.703,277.122 200.000,277.884 200.000 C 278.881 200.000,279.170 197.149,279.172 187.314 L 279.174 177.442 278.075 176.057 C 277.076 174.798,276.936 174.260,276.551 170.169 C 276.009 164.410,275.710 163.325,274.171 161.519 C 273.224 160.407,272.844 159.533,272.645 158.015 C 272.264 155.101,271.590 153.397,270.085 151.540 C 269.356 150.642,268.631 149.484,268.475 148.968 C 268.030 147.504,266.120 144.916,265.289 144.652 C 264.789 144.494,264.397 143.855,264.116 142.739 C 263.859 141.716,263.083 140.373,262.127 139.293 C 261.264 138.320,260.152 136.932,259.656 136.210 C 258.365 134.331,252.686 128.804,251.321 128.098 C 250.686 127.770,249.748 127.003,249.236 126.395 C 248.724 125.786,247.272 124.768,246.010 124.131 C 244.748 123.494,243.489 122.652,243.214 122.259 C 242.268 120.913,241.119 120.062,239.744 119.691 C 238.987 119.488,237.526 118.651,236.499 117.833 C 234.421 116.179,233.100 115.572,231.572 115.572 C 231.009 115.572,229.627 114.986,228.501 114.269 C 225.196 112.166,224.064 111.768,220.403 111.422 C 218.496 111.241,215.953 110.728,214.753 110.281 C 208.451 107.935,197.456 107.055,191.539 108.422 M204.823 110.183 C 205.928 110.488,209.883 111.146,213.611 111.646 C 221.121 112.652,223.826 113.306,225.121 114.429 C 225.597 114.843,227.443 115.624,229.223 116.166 C 231.002 116.708,233.218 117.695,234.146 118.360 C 235.075 119.025,236.595 119.851,237.523 120.196 C 238.452 120.542,240.056 121.494,241.088 122.313 C 242.120 123.132,243.555 124.130,244.278 124.531 C 245.000 124.932,246.098 125.797,246.717 126.453 C 247.336 127.110,248.339 127.906,248.946 128.223 C 250.445 129.005,257.541 135.955,259.209 138.274 C 259.951 139.306,261.201 140.864,261.986 141.736 C 262.772 142.609,263.415 143.556,263.415 143.841 C 263.415 144.126,264.071 145.106,264.874 146.018 C 265.677 146.929,266.832 148.768,267.441 150.104 C 268.050 151.440,268.993 153.184,269.537 153.979 C 270.081 154.774,270.886 156.632,271.326 158.107 C 271.766 159.581,272.794 162.308,273.609 164.165 C 277.973 174.104,277.918 207.097,273.529 212.677 C 273.152 213.156,272.392 214.932,271.839 216.624 C 271.287 218.316,270.197 220.713,269.418 221.951 C 268.639 223.189,267.720 225.076,267.376 226.143 C 267.033 227.210,266.111 228.814,265.328 229.708 C 264.545 230.601,263.590 232.008,263.204 232.833 C 262.190 235.006,246.476 251.032,245.360 251.032 C 245.193 251.032,244.164 251.756,243.073 252.642 C 241.981 253.527,239.845 254.881,238.324 255.650 C 236.804 256.420,235.151 257.372,234.650 257.765 C 234.149 258.159,232.607 258.844,231.223 259.287 C 229.838 259.729,227.861 260.554,226.829 261.120 C 224.541 262.374,223.000 262.824,218.386 263.588 C 213.818 264.345,211.640 264.819,208.685 265.703 C 205.213 266.741,195.592 266.707,190.619 265.639 C 188.659 265.218,184.353 264.314,181.051 263.629 C 176.360 262.657,174.514 262.093,172.608 261.047 C 171.266 260.312,169.325 259.509,168.293 259.265 C 160.837 257.497,143.089 242.752,137.090 233.341 C 136.439 232.320,135.458 231.069,134.911 230.562 C 134.363 230.054,133.489 228.669,132.967 227.484 C 132.445 226.298,131.635 224.822,131.168 224.203 C 130.006 222.664,129.083 220.813,129.071 220.000 C 129.066 219.628,128.378 217.974,127.543 216.323 C 125.386 212.058,124.996 210.834,124.571 206.981 C 124.363 205.102,123.586 201.116,122.844 198.124 C 121.207 191.524,121.136 184.049,122.665 179.362 C 123.103 178.021,123.786 174.559,124.183 171.670 C 124.969 165.953,125.529 163.996,126.997 161.836 C 127.524 161.061,127.955 160.135,127.955 159.780 C 127.955 158.538,129.725 154.271,131.098 152.202 C 131.860 151.055,132.731 149.413,133.034 148.555 C 133.337 147.696,134.168 146.348,134.881 145.559 C 135.594 144.770,136.525 143.443,136.949 142.612 C 137.374 141.780,138.150 140.818,138.676 140.473 C 139.201 140.129,139.972 139.178,140.390 138.360 C 141.387 136.404,148.292 129.487,150.563 128.168 C 151.543 127.599,152.345 126.978,152.345 126.789 C 152.345 126.600,153.316 125.828,154.503 125.074 C 155.689 124.319,157.336 123.168,158.161 122.515 C 158.987 121.861,160.760 120.772,162.101 120.095 C 163.443 119.417,164.901 118.534,165.341 118.131 C 165.781 117.729,167.679 116.922,169.559 116.337 C 171.439 115.753,173.566 114.927,174.287 114.502 C 176.413 113.248,179.097 112.621,186.664 111.611 C 190.593 111.086,194.653 110.421,195.685 110.133 C 199.277 109.129,201.046 109.139,204.823 110.183 M49.589 172.207 C 48.486 172.788,46.767 173.359,45.768 173.477 C 43.236 173.777,41.112 174.944,40.527 176.357 C 40.224 177.088,39.572 177.717,38.771 178.052 C 34.796 179.713,34.730 195.534,38.689 197.582 C 39.279 197.887,40.001 198.598,40.293 199.163 C 41.074 200.674,42.011 201.378,43.902 201.875 C 44.831 202.119,45.951 202.652,46.391 203.059 C 48.515 205.026,85.087 205.020,87.193 203.052 C 87.633 202.641,88.799 202.103,89.785 201.856 C 91.021 201.546,91.838 201.059,92.412 200.290 C 92.871 199.676,94.021 198.387,94.969 197.426 C 98.939 193.401,98.799 182.435,94.725 178.302 C 93.817 177.382,92.974 176.312,92.852 175.925 C 92.539 174.941,90.185 173.831,87.487 173.397 C 86.230 173.194,84.464 172.596,83.562 172.068 L 81.923 171.107 66.759 171.130 L 51.595 171.153 49.589 172.207 M317.942 171.482 C 316.666 171.660,314.977 172.147,314.190 172.563 C 313.402 172.978,311.948 173.521,310.958 173.767 C 309.893 174.033,308.743 174.651,308.143 175.279 C 306.387 177.120,305.473 178.024,304.526 178.854 C 301.876 181.179,301.541 191.930,303.972 196.623 C 304.931 198.475,307.852 201.501,308.684 201.503 C 310.130 201.507,312.324 202.346,313.211 203.234 L 314.132 204.154 332.770 204.047 L 351.407 203.940 353.471 202.914 C 354.606 202.350,356.239 201.714,357.099 201.501 C 358.348 201.191,358.873 200.782,359.704 199.467 C 360.277 198.562,361.262 197.594,361.893 197.316 C 365.143 195.883,364.819 179.663,361.509 178.155 C 360.999 177.922,360.231 177.165,359.803 176.472 C 358.839 174.912,356.836 173.856,354.182 173.509 C 353.069 173.363,351.814 173.020,351.394 172.748 C 349.514 171.528,324.406 170.577,317.942 171.482 M85.366 174.344 C 90.069 175.206,90.546 175.442,92.692 177.968 C 97.238 183.320,97.873 191.547,94.091 196.070 C 93.405 196.890,92.552 198.023,92.195 198.588 C 90.465 201.326,86.187 201.864,66.229 201.854 C 45.396 201.844,44.250 201.648,40.236 197.415 C 37.377 194.400,37.336 194.270,37.336 188.180 C 37.336 181.015,38.176 179.203,43.095 175.757 C 46.183 173.595,75.860 172.603,85.366 174.344 M351.378 174.337 C 359.402 175.642,362.997 179.799,363.025 187.805 C 363.042 192.817,362.275 194.727,358.779 198.364 C 355.808 201.457,355.515 201.509,339.775 201.757 C 318.171 202.097,309.016 201.367,307.720 199.200 C 307.395 198.657,306.680 197.644,306.131 196.949 C 304.440 194.808,303.772 191.806,303.762 186.304 L 303.752 181.426 306.584 178.595 C 310.566 174.615,311.993 174.129,320.826 173.751 C 330.021 173.357,347.399 173.690,351.378 174.337 M114.822 254.697 C 114.512 254.848,113.499 255.416,112.570 255.960 C 111.642 256.503,110.132 257.059,109.216 257.195 C 106.939 257.533,104.888 258.764,103.761 260.468 C 103.242 261.251,102.315 262.153,101.701 262.470 C 101.087 262.788,100.185 263.635,99.698 264.353 C 99.210 265.070,98.107 266.167,97.248 266.790 C 96.388 267.413,95.685 268.065,95.685 268.240 C 95.685 268.643,85.702 278.685,84.555 279.436 C 83.755 279.960,81.243 283.831,79.214 287.666 C 77.203 291.469,77.854 299.571,80.312 301.322 C 80.934 301.764,81.671 302.675,81.951 303.345 C 82.528 304.727,84.199 306.191,85.197 306.191 C 85.564 306.191,86.344 306.709,86.929 307.342 C 89.816 310.465,97.837 310.851,100.684 308.004 C 101.292 307.396,102.569 306.535,103.522 306.092 C 106.659 304.633,130.062 280.871,130.643 278.556 C 131.272 276.044,131.234 265.918,130.587 263.978 C 129.617 261.069,126.268 257.890,123.510 257.261 C 121.932 256.901,120.746 256.366,120.047 255.696 C 118.951 254.645,116.058 254.092,114.822 254.697 M280.335 255.500 C 279.109 256.699,278.914 256.779,275.610 257.423 C 271.599 258.205,270.352 259.523,269.405 263.977 C 269.186 265.009,268.559 266.529,268.011 267.355 C 266.451 269.706,266.380 272.830,267.822 275.669 C 268.435 276.875,269.211 278.809,269.548 279.966 C 269.905 281.196,270.591 282.480,271.196 283.054 C 271.766 283.595,272.855 284.674,273.617 285.452 C 274.378 286.230,275.356 287.205,275.791 287.617 C 276.226 288.030,277.123 288.934,277.785 289.627 C 278.446 290.319,279.473 291.333,280.068 291.878 C 280.662 292.424,281.591 293.357,282.131 293.951 C 282.672 294.546,283.592 295.475,284.175 296.015 C 284.759 296.556,286.195 297.927,287.367 299.062 C 290.381 301.982,294.983 305.689,296.277 306.240 C 296.880 306.497,297.880 307.159,298.499 307.712 C 301.758 310.622,310.038 310.719,312.624 307.877 C 313.267 307.171,314.337 306.413,315.003 306.194 C 316.539 305.686,317.596 304.550,318.392 302.547 C 318.737 301.678,319.343 300.864,319.739 300.738 C 322.667 299.809,322.787 289.429,319.896 287.223 C 319.062 286.587,318.569 285.833,318.401 284.935 C 318.168 283.692,317.751 283.165,313.625 278.893 C 308.095 273.169,296.050 261.574,295.436 261.384 C 294.990 261.246,294.028 260.405,293.298 259.514 C 292.280 258.271,291.552 257.787,290.169 257.431 C 289.178 257.176,287.270 256.495,285.929 255.917 C 282.099 254.266,281.633 254.232,280.335 255.500 M122.431 258.165 C 129.960 260.508,133.399 274.046,127.994 280.067 C 127.231 280.918,126.314 282.078,125.958 282.646 C 125.602 283.214,124.652 284.114,123.848 284.646 C 123.044 285.178,121.944 286.282,121.403 287.100 C 120.862 287.917,120.011 288.741,119.511 288.931 C 119.011 289.121,118.184 289.938,117.674 290.747 C 117.163 291.555,116.153 292.584,115.427 293.032 C 114.702 293.480,113.747 294.433,113.304 295.150 C 112.860 295.867,112.007 296.707,111.406 297.018 C 110.806 297.328,109.895 298.248,109.381 299.062 C 108.867 299.876,107.967 300.790,107.381 301.093 C 106.794 301.396,105.885 302.203,105.360 302.886 C 100.135 309.686,86.360 308.899,82.422 301.576 C 81.771 300.365,80.939 298.819,80.574 298.140 C 79.270 295.719,79.365 288.180,80.700 288.180 C 80.888 288.180,81.645 286.981,82.384 285.514 C 84.097 282.112,104.930 260.963,108.349 259.156 C 112.436 256.995,117.522 256.637,122.431 258.165 M287.747 257.983 C 289.838 258.505,292.580 260.082,292.915 260.955 C 293.021 261.234,293.842 261.925,294.737 262.491 C 295.632 263.057,296.591 263.942,296.867 264.459 C 297.144 264.975,298.015 265.805,298.803 266.302 C 299.592 266.800,300.584 267.796,301.008 268.514 C 301.432 269.233,302.257 270.068,302.842 270.371 C 303.426 270.673,304.427 271.680,305.066 272.608 C 305.704 273.536,306.726 274.554,307.337 274.869 C 307.947 275.185,308.867 276.109,309.381 276.923 C 309.895 277.737,310.806 278.657,311.406 278.967 C 312.007 279.278,312.844 280.084,313.267 280.760 C 313.690 281.436,314.642 282.466,315.384 283.050 C 321.207 287.635,321.129 300.533,315.255 304.420 C 307.598 309.487,301.567 309.228,295.163 303.556 C 294.108 302.622,292.570 301.359,291.745 300.750 C 287.611 297.698,271.341 280.654,270.500 278.495 C 269.486 275.888,269.290 268.670,270.142 265.296 C 271.695 259.145,279.472 255.914,287.747 257.983 M194.629 290.823 C 192.434 291.192,191.194 291.958,190.443 293.410 C 190.132 294.013,189.495 294.622,189.029 294.765 C 187.591 295.203,186.874 296.107,186.244 298.275 C 185.879 299.528,185.211 300.757,184.564 301.361 L 183.490 302.365 183.490 321.355 L 183.490 340.344 184.621 341.906 C 185.244 342.765,185.858 344.157,185.986 344.999 C 186.374 347.544,190.461 351.369,193.433 351.968 C 194.672 352.218,196.287 352.756,197.023 353.165 C 198.293 353.869,198.466 353.877,200.400 353.322 C 201.522 352.999,203.693 352.475,205.225 352.157 C 208.335 351.510,208.726 351.272,209.999 349.255 C 210.490 348.478,211.127 347.842,211.416 347.842 C 212.194 347.842,213.884 345.665,213.884 344.662 C 213.884 344.183,214.430 342.803,215.098 341.595 L 216.313 339.400 216.436 322.640 C 216.555 306.419,216.534 305.833,215.798 304.390 C 215.380 303.570,214.663 301.407,214.206 299.583 C 213.337 296.118,212.317 294.559,210.919 294.559 C 210.473 294.559,209.975 294.143,209.683 293.527 C 208.514 291.063,201.115 289.734,194.629 290.823 M205.629 292.478 C 213.832 296.695,213.992 297.306,213.790 323.640 C 213.626 344.995,213.831 343.718,209.952 347.634 C 204.394 353.247,195.305 353.303,189.697 347.759 C 186.151 344.254,186.301 345.419,186.321 321.576 C 186.341 297.318,186.091 298.945,190.366 295.250 C 194.692 291.510,201.381 290.295,205.629 292.478 " stroke="none" fill="#fcf4cb" fill-rule="evenodd"></path></g></svg>