<svg id="svg" version="1.1" xmlns="http://www.w3.org/2000/svg" xmlns:xlink="http://www.w3.org/1999/xlink" width="400" height="375" viewBox="0, 0, 400,375"><g id="svgg"><path id="path0" d="M166.631 61.297 C 164.952 63.063,163.925 63.365,156.976 64.137 C 151.224 64.776,151.144 64.797,150.243 65.948 C 149.168 67.321,147.957 67.769,143.902 68.295 C 139.785 68.830,139.212 68.983,139.212 69.548 C 139.212 70.913,135.377 72.782,132.555 72.791 C 131.526 72.795,131.236 73.008,130.678 74.169 C 130.316 74.924,129.765 75.663,129.456 75.812 C 129.146 75.960,128.240 76.362,127.442 76.705 C 126.643 77.048,125.208 77.980,124.252 78.776 C 123.296 79.572,121.628 80.599,120.544 81.059 C 119.461 81.518,118.574 82.094,118.574 82.340 C 118.574 83.058,116.593 84.728,115.578 84.865 C 114.928 84.952,114.372 85.487,113.745 86.626 C 113.154 87.699,112.407 88.443,111.569 88.794 C 110.867 89.087,109.134 90.546,107.717 92.037 C 106.300 93.527,104.383 95.507,103.458 96.435 C 102.532 97.364,101.509 98.652,101.183 99.298 C 100.857 99.944,100.007 100.817,99.295 101.237 C 98.470 101.723,97.728 102.613,97.256 103.681 C 96.847 104.605,95.992 105.746,95.356 106.216 C 94.577 106.793,93.889 107.886,93.243 109.575 C 92.544 111.405,91.834 112.485,90.608 113.587 C 89.415 114.659,88.931 115.385,88.931 116.099 C 88.931 117.397,87.723 119.749,86.320 121.184 C 85.662 121.858,85.125 122.887,84.993 123.728 C 84.536 126.657,83.954 128.093,82.708 129.377 C 81.367 130.757,80.910 132.003,80.476 135.460 C 80.152 138.037,79.416 139.857,78.169 141.159 C 77.127 142.246,77.228 141.588,76.179 154.170 C 75.565 161.546,75.781 161.036,71.916 164.252 C 68.113 167.418,67.268 167.856,63.787 168.467 C 60.467 169.050,60.038 169.201,60.038 169.792 C 60.038 170.897,58.057 171.964,54.130 172.976 C 52.959 173.277,52.384 173.683,51.956 174.510 C 51.585 175.228,50.668 175.973,49.421 176.570 C 48.055 177.223,47.298 177.869,46.904 178.715 C 46.583 179.406,45.733 180.247,44.924 180.675 C 44.097 181.113,43.237 181.973,42.860 182.739 C 42.479 183.515,41.628 184.360,40.783 184.803 C 39.811 185.313,39.134 186.044,38.673 187.083 C 38.272 187.987,37.475 188.922,36.727 189.368 C 35.690 189.985,35.340 190.541,34.802 192.422 C 34.320 194.106,33.753 195.101,32.681 196.141 C 31.208 197.570,30.400 199.520,30.396 201.659 C 30.395 202.476,29.939 203.191,28.612 204.462 L 26.829 206.169 26.591 210.120 C 26.459 212.293,26.143 216.520,25.887 219.512 C 25.344 225.862,25.595 237.656,26.441 245.591 C 26.749 248.480,27.005 250.971,27.009 251.125 C 27.013 251.280,27.669 252.078,28.466 252.900 C 29.966 254.445,31.144 257.541,31.144 259.937 C 31.144 260.910,31.376 261.214,32.552 261.789 C 33.648 262.325,34.070 262.827,34.462 264.067 C 34.794 265.117,35.468 266.055,36.446 266.830 C 37.261 267.475,38.271 268.677,38.691 269.500 C 39.827 271.727,45.636 277.421,47.695 278.325 C 48.672 278.755,49.957 279.748,50.650 280.611 C 51.421 281.571,52.312 282.230,53.049 282.388 C 53.732 282.533,54.860 283.318,55.751 284.266 C 57.136 285.739,57.528 285.933,59.879 286.304 C 63.891 286.938,65.314 287.478,66.741 288.905 L 68.058 290.222 73.710 290.675 C 76.819 290.924,81.895 291.327,84.991 291.571 C 90.555 292.010,90.637 292.029,92.183 293.287 L 93.747 294.559 193.088 294.559 L 292.430 294.559 294.195 293.426 C 295.577 292.539,296.643 292.214,299.106 291.926 C 304.169 291.334,314.866 290.432,316.812 290.432 C 318.417 290.432,318.750 290.276,319.996 288.942 C 321.378 287.462,324.342 286.304,326.745 286.304 C 327.879 286.304,328.745 285.831,330.106 284.470 C 330.786 283.791,332.143 283.094,333.696 282.628 C 335.517 282.082,336.470 281.550,337.218 280.661 C 338.201 279.493,341.412 277.700,342.589 277.663 C 342.899 277.653,343.609 276.985,344.167 276.177 C 344.897 275.121,345.601 274.597,346.676 274.307 C 347.863 273.988,348.349 273.579,349.040 272.318 C 349.552 271.385,350.434 270.470,351.183 270.095 C 351.884 269.745,352.814 268.816,353.251 268.031 C 353.689 267.244,354.626 266.313,355.341 265.955 C 356.062 265.593,356.937 264.721,357.312 263.989 C 357.716 263.201,358.582 262.369,359.467 261.918 C 360.605 261.337,361.037 260.838,361.336 259.756 C 361.815 258.028,361.997 257.766,363.415 256.775 C 364.282 256.168,364.707 255.399,365.268 253.424 C 365.775 251.639,366.413 250.403,367.370 249.352 C 368.332 248.296,368.997 247.005,369.583 245.053 C 370.194 243.015,370.781 241.902,371.759 240.925 C 373.050 239.635,373.123 239.413,373.797 234.709 C 374.617 228.994,374.973 227.761,376.235 226.260 C 377.649 224.580,377.995 219.573,377.723 204.717 L 377.497 192.360 376.573 191.396 C 374.997 189.750,373.358 183.360,373.358 178.859 C 373.358 178.227,372.838 177.375,371.860 176.407 C 370.132 174.696,369.606 173.536,369.606 171.433 C 369.606 169.538,369.126 168.639,367.725 167.915 C 366.432 167.246,365.760 166.059,365.111 163.299 C 364.714 161.610,364.417 161.164,363.163 160.372 C 362.187 159.756,361.446 158.883,360.983 157.802 C 360.571 156.843,359.948 156.060,359.477 155.911 C 359.034 155.770,358.094 154.751,357.387 153.647 C 356.680 152.542,355.643 151.417,355.081 151.147 C 354.520 150.877,353.587 149.951,353.009 149.089 C 352.313 148.053,351.501 147.371,350.614 147.078 C 349.652 146.760,349.123 146.282,348.752 145.394 C 348.391 144.528,347.851 144.027,346.965 143.735 C 346.266 143.504,344.558 142.410,343.169 141.303 C 341.724 140.151,339.922 139.088,338.958 138.818 C 337.676 138.459,337.062 138.012,336.391 136.949 C 335.711 135.872,335.181 135.492,334.077 135.289 C 332.026 134.911,329.568 133.760,328.145 132.510 C 327.149 131.636,326.320 131.344,323.777 130.972 C 319.970 130.416,318.719 129.921,316.833 128.229 L 315.385 126.930 305.227 126.292 C 293.824 125.577,292.776 125.414,291.237 124.119 C 290.489 123.489,289.298 123.062,287.438 122.754 C 285.947 122.508,284.250 122.060,283.666 121.758 C 282.597 121.205,282.439 120.913,281.983 118.649 C 281.840 117.942,281.115 116.798,280.293 115.984 C 279.313 115.014,278.661 113.898,278.252 112.493 C 277.792 110.909,277.303 110.146,276.157 109.226 C 275.335 108.565,274.257 107.233,273.761 106.264 C 273.265 105.295,272.085 103.603,271.139 102.502 C 270.152 101.355,269.418 100.126,269.418 99.621 C 269.418 98.581,268.508 97.561,267.581 97.561 C 266.723 97.561,265.454 96.146,265.147 94.846 C 264.978 94.134,264.590 93.745,263.878 93.575 C 262.515 93.249,261.990 92.798,261.210 91.276 C 260.851 90.576,259.891 89.633,259.078 89.180 C 258.241 88.714,257.316 87.792,256.947 87.056 C 256.490 86.144,255.760 85.514,254.508 84.948 C 253.525 84.504,252.093 83.536,251.326 82.796 C 250.559 82.056,249.092 81.026,248.066 80.506 C 247.040 79.986,245.746 78.965,245.191 78.237 C 244.635 77.509,243.738 76.807,243.197 76.677 C 241.452 76.257,238.679 74.690,238.088 73.789 C 237.688 73.179,236.867 72.768,235.379 72.435 C 233.689 72.057,232.922 71.626,231.703 70.372 C 230.230 68.856,230.019 68.768,226.916 68.367 C 223.456 67.921,221.049 66.943,220.110 65.603 C 219.600 64.874,218.870 64.702,213.800 64.118 C 206.988 63.333,205.634 62.976,203.987 61.529 L 202.741 60.435 185.329 60.190 L 167.917 59.944 166.631 61.297 " stroke="none" fill="#c4c4c4" fill-rule="evenodd"></path><path id="path1" d="M175.047 59.341 C 167.087 59.611,165.185 59.895,161.788 61.324 C 160.619 61.816,157.661 62.577,155.214 63.014 C 152.252 63.544,149.871 64.229,148.085 65.063 C 146.610 65.753,144.137 66.691,142.589 67.147 C 141.041 67.604,139.015 68.391,138.086 68.896 C 137.158 69.400,134.966 70.501,133.216 71.341 C 131.466 72.181,129.454 73.379,128.744 74.002 C 128.034 74.625,126.426 75.596,125.171 76.159 C 123.916 76.722,122.643 77.480,122.342 77.843 C 122.040 78.206,120.832 79.156,119.656 79.955 C 118.480 80.753,117.207 81.796,116.827 82.273 C 116.446 82.749,115.537 83.505,114.805 83.954 C 114.074 84.402,113.013 85.288,112.447 85.923 C 111.881 86.558,110.593 87.585,109.584 88.206 C 107.527 89.472,97.568 100.255,96.440 102.439 C 96.173 102.955,95.240 104.149,94.366 105.093 C 93.492 106.037,92.442 107.566,92.033 108.490 C 91.625 109.413,90.782 110.752,90.160 111.464 C 89.538 112.176,88.566 113.687,88.000 114.822 C 87.434 115.957,86.552 117.442,86.042 118.123 C 85.531 118.804,84.628 120.690,84.035 122.315 C 83.442 123.940,82.433 126.120,81.793 127.160 C 81.153 128.200,80.210 130.620,79.697 132.537 C 79.184 134.454,78.285 136.871,77.700 137.909 C 76.592 139.873,76.009 142.205,75.594 146.341 C 75.459 147.683,75.021 150.216,74.620 151.970 C 73.154 158.379,72.349 161.545,72.046 162.086 C 71.381 163.275,63.526 167.441,61.136 167.872 C 60.399 168.005,58.711 168.879,57.384 169.815 C 56.057 170.750,54.242 171.700,53.350 171.925 C 52.284 172.195,51.449 172.715,50.911 173.446 C 50.462 174.057,49.418 174.959,48.593 175.449 C 47.767 175.940,44.840 178.667,42.088 181.510 C 34.907 188.928,34.700 189.167,33.665 191.208 C 33.149 192.225,32.374 193.377,31.943 193.766 C 31.512 194.156,30.635 195.844,29.994 197.519 C 29.353 199.193,28.356 201.323,27.778 202.251 C 26.355 204.538,25.887 206.106,25.321 210.472 C 24.903 213.696,24.300 215.945,23.500 217.261 C 22.222 219.362,22.284 238.654,23.577 241.463 C 24.052 242.495,24.860 245.366,25.372 247.842 C 26.442 253.020,26.842 254.215,27.961 255.582 C 28.404 256.125,29.161 257.644,29.643 258.960 C 30.124 260.275,30.995 262.026,31.577 262.852 C 32.160 263.677,33.103 265.095,33.673 266.002 C 34.243 266.909,35.529 268.598,36.531 269.754 C 37.533 270.911,38.497 272.231,38.674 272.688 C 38.851 273.144,39.664 273.940,40.481 274.456 C 41.299 274.972,42.261 275.891,42.620 276.499 C 42.978 277.106,43.963 277.988,44.807 278.458 C 45.651 278.929,47.414 280.132,48.724 281.132 C 50.034 282.132,51.754 283.280,52.545 283.684 C 53.337 284.087,54.206 284.715,54.478 285.079 C 55.366 286.269,56.166 286.694,58.966 287.465 C 60.484 287.883,62.820 288.824,64.157 289.556 C 66.103 290.621,67.360 290.995,70.446 291.425 C 72.568 291.721,76.033 292.465,78.146 293.080 C 85.204 295.132,83.500 295.102,193.433 295.109 C 301.651 295.117,301.333 295.122,307.692 293.278 C 309.447 292.769,312.064 292.163,313.508 291.930 C 314.953 291.698,316.989 291.362,318.033 291.184 C 319.076 291.006,320.934 290.273,322.160 289.554 C 323.387 288.836,325.837 287.814,327.605 287.285 C 329.373 286.755,331.399 285.902,332.108 285.389 C 332.816 284.876,334.493 283.936,335.835 283.300 C 337.176 282.664,338.890 281.650,339.644 281.047 C 340.397 280.443,341.915 279.418,343.015 278.769 C 344.116 278.120,345.236 277.275,345.505 276.892 C 345.773 276.509,346.874 275.610,347.950 274.896 C 350.277 273.351,360.557 263.003,362.777 259.971 C 363.634 258.799,364.512 257.732,364.728 257.598 C 364.944 257.465,365.680 256.229,366.365 254.851 C 367.049 253.473,368.047 251.706,368.582 250.924 C 369.117 250.142,369.918 248.410,370.362 247.076 C 370.806 245.741,371.732 243.975,372.420 243.152 C 373.414 241.963,373.839 240.902,374.489 237.994 C 374.939 235.981,375.773 233.321,376.343 232.083 C 378.376 227.669,378.931 222.750,378.971 208.818 C 379.009 195.090,378.455 190.426,376.125 184.880 C 375.622 183.684,374.947 181.429,374.624 179.869 C 373.995 176.825,373.222 174.676,372.624 174.306 C 372.182 174.033,371.422 172.439,370.370 169.577 C 369.947 168.425,369.137 166.961,368.571 166.323 C 367.516 165.134,366.669 163.615,365.836 161.416 C 365.576 160.729,364.952 159.898,364.450 159.568 C 363.947 159.239,362.644 157.775,361.555 156.314 C 358.344 152.010,350.706 144.611,346.839 142.059 C 345.977 141.491,345.183 140.793,345.074 140.509 C 344.965 140.225,343.981 139.543,342.888 138.993 C 341.795 138.444,340.126 137.429,339.179 136.740 C 338.232 136.050,336.628 135.132,335.614 134.700 C 334.601 134.267,332.758 133.263,331.520 132.467 C 330.281 131.672,328.508 130.826,327.580 130.589 C 323.301 129.495,321.968 129.007,320.365 127.945 C 318.579 126.762,314.701 125.724,312.008 125.707 C 310.379 125.698,304.696 124.433,303.568 123.829 C 303.185 123.624,300.115 123.199,296.746 122.885 C 285.643 121.849,284.414 121.349,282.760 117.196 C 282.198 115.787,281.431 114.296,281.054 113.884 C 280.678 113.471,279.734 112.036,278.958 110.694 C 278.182 109.353,277.014 107.580,276.362 106.754 C 275.711 105.929,274.800 104.593,274.339 103.786 C 272.674 100.873,257.288 84.840,255.068 83.704 C 254.502 83.415,253.786 82.792,253.476 82.319 C 253.167 81.847,252.110 81.002,251.128 80.441 C 250.147 79.880,248.668 78.888,247.842 78.236 C 247.017 77.584,245.244 76.411,243.903 75.631 C 242.563 74.850,240.910 73.724,240.232 73.128 C 239.553 72.532,238.608 72.045,238.131 72.045 C 237.291 72.045,232.978 69.510,232.499 68.734 C 232.368 68.523,231.715 68.241,231.046 68.108 C 228.472 67.594,223.792 65.883,222.203 64.876 C 221.289 64.296,219.760 63.718,218.807 63.592 C 214.960 63.084,210.915 62.144,208.090 61.102 C 203.641 59.462,191.132 58.795,175.047 59.341 M203.987 61.529 C 205.634 62.976,206.988 63.333,213.800 64.118 C 218.870 64.702,219.600 64.874,220.110 65.603 C 221.049 66.943,223.456 67.921,226.916 68.367 C 230.019 68.768,230.230 68.856,231.703 70.372 C 232.922 71.626,233.689 72.057,235.379 72.435 C 236.867 72.768,237.688 73.179,238.088 73.789 C 238.679 74.690,241.452 76.257,243.197 76.677 C 243.738 76.807,244.635 77.509,245.191 78.237 C 245.746 78.965,247.040 79.986,248.066 80.506 C 249.092 81.026,250.559 82.056,251.326 82.796 C 252.093 83.536,253.525 84.504,254.508 84.948 C 255.760 85.514,256.490 86.144,256.947 87.056 C 257.316 87.792,258.241 88.714,259.078 89.180 C 259.891 89.633,260.851 90.576,261.210 91.276 C 261.990 92.798,262.515 93.249,263.878 93.575 C 264.590 93.745,264.978 94.134,265.147 94.846 C 265.454 96.146,266.723 97.561,267.581 97.561 C 268.508 97.561,269.418 98.581,269.418 99.621 C 269.418 100.126,270.152 101.355,271.139 102.502 C 272.085 103.603,273.265 105.295,273.761 106.264 C 274.257 107.233,275.335 108.565,276.157 109.226 C 277.303 110.146,277.792 110.909,278.252 112.493 C 278.661 113.898,279.313 115.014,280.293 115.984 C 281.115 116.798,281.840 117.942,281.983 118.649 C 282.439 120.913,282.597 121.205,283.666 121.758 C 284.250 122.060,285.947 122.508,287.438 122.754 C 289.298 123.062,290.489 123.489,291.237 124.119 C 292.776 125.414,293.824 125.577,305.227 126.292 L 315.385 126.930 316.833 128.229 C 318.719 129.921,319.970 130.416,323.777 130.972 C 326.320 131.344,327.149 131.636,328.145 132.510 C 329.568 133.760,332.026 134.911,334.077 135.289 C 335.181 135.492,335.711 135.872,336.391 136.949 C 337.062 138.012,337.676 138.459,338.958 138.818 C 339.922 139.088,341.724 140.151,343.169 141.303 C 344.558 142.410,346.266 143.504,346.965 143.735 C 347.851 144.027,348.391 144.528,348.752 145.394 C 349.123 146.282,349.652 146.760,350.614 147.078 C 351.501 147.371,352.313 148.053,353.009 149.089 C 353.587 149.951,354.520 150.877,355.081 151.147 C 355.643 151.417,356.680 152.542,357.387 153.647 C 358.094 154.751,359.034 155.770,359.477 155.911 C 359.948 156.060,360.571 156.843,360.983 157.802 C 361.446 158.883,362.187 159.756,363.163 160.372 C 364.417 161.164,364.714 161.610,365.111 163.299 C 365.760 166.059,366.432 167.246,367.725 167.915 C 369.126 168.639,369.606 169.538,369.606 171.433 C 369.606 173.536,370.132 174.696,371.860 176.407 C 372.838 177.375,373.358 178.227,373.358 178.859 C 373.358 183.360,374.997 189.750,376.573 191.396 L 377.497 192.360 377.723 204.717 C 377.995 219.573,377.649 224.580,376.235 226.260 C 374.973 227.761,374.617 228.994,373.797 234.709 C 373.123 239.413,373.050 239.635,371.759 240.925 C 370.781 241.902,370.194 243.015,369.583 245.053 C 368.997 247.005,368.332 248.296,367.370 249.352 C 366.413 250.403,365.775 251.639,365.268 253.424 C 364.707 255.399,364.282 256.168,363.415 256.775 C 361.997 257.766,361.815 258.028,361.336 259.756 C 361.037 260.838,360.605 261.337,359.467 261.918 C 358.582 262.369,357.716 263.201,357.312 263.989 C 356.937 264.721,356.062 265.593,355.341 265.955 C 354.626 266.313,353.689 267.244,353.251 268.031 C 352.814 268.816,351.884 269.745,351.183 270.095 C 350.434 270.470,349.552 271.385,349.040 272.318 C 348.349 273.579,347.863 273.988,346.676 274.307 C 345.601 274.597,344.897 275.121,344.167 276.177 C 343.609 276.985,342.899 277.653,342.589 277.663 C 341.412 277.700,338.201 279.493,337.218 280.661 C 336.470 281.550,335.517 282.082,333.696 282.628 C 332.143 283.094,330.786 283.791,330.106 284.470 C 328.745 285.831,327.879 286.304,326.745 286.304 C 324.342 286.304,321.378 287.462,319.996 288.942 C 318.750 290.276,318.417 290.432,316.812 290.432 C 314.866 290.432,304.169 291.334,299.106 291.926 C 296.643 292.214,295.577 292.539,294.195 293.426 L 292.430 294.559 193.088 294.559 L 93.747 294.559 92.183 293.287 C 90.637 292.029,90.555 292.010,84.991 291.571 C 81.895 291.327,76.819 290.924,73.710 290.675 L 68.058 290.222 66.741 288.905 C 65.314 287.478,63.891 286.938,59.879 286.304 C 57.528 285.933,57.136 285.739,55.751 284.266 C 54.860 283.318,53.732 282.533,53.049 282.388 C 52.312 282.230,51.421 281.571,50.650 280.611 C 49.957 279.748,48.672 278.755,47.695 278.325 C 45.636 277.421,39.827 271.727,38.691 269.500 C 38.271 268.677,37.261 267.475,36.446 266.830 C 35.468 266.055,34.794 265.117,34.462 264.067 C 34.070 262.827,33.648 262.325,32.552 261.789 C 31.376 261.214,31.144 260.910,31.144 259.937 C 31.144 257.541,29.966 254.445,28.466 252.900 C 27.669 252.078,27.013 251.280,27.009 251.125 C 27.005 250.971,26.749 248.480,26.441 245.591 C 25.595 237.656,25.344 225.862,25.887 219.512 C 26.143 216.520,26.459 212.293,26.591 210.120 L 26.829 206.169 28.612 204.462 C 29.939 203.191,30.395 202.476,30.396 201.659 C 30.400 199.520,31.208 197.570,32.681 196.141 C 33.753 195.101,34.320 194.106,34.802 192.422 C 35.340 190.541,35.690 189.985,36.727 189.368 C 37.475 188.922,38.272 187.987,38.673 187.083 C 39.134 186.044,39.811 185.313,40.783 184.803 C 41.628 184.360,42.479 183.515,42.860 182.739 C 43.237 181.973,44.097 181.113,44.924 180.675 C 45.733 180.247,46.583 179.406,46.904 178.715 C 47.298 177.869,48.055 177.223,49.421 176.570 C 50.668 175.973,51.585 175.228,51.956 174.510 C 52.384 173.683,52.959 173.277,54.130 172.976 C 58.057 171.964,60.038 170.897,60.038 169.792 C 60.038 169.201,60.467 169.050,63.787 168.467 C 67.268 167.856,68.113 167.418,71.916 164.252 C 75.781 161.036,75.565 161.546,76.179 154.170 C 77.228 141.588,77.127 142.246,78.169 141.159 C 79.416 139.857,80.152 138.037,80.476 135.460 C 80.910 132.003,81.367 130.757,82.708 129.377 C 83.954 128.093,84.536 126.657,84.993 123.728 C 85.125 122.887,85.662 121.858,86.320 121.184 C 87.723 119.749,88.931 117.397,88.931 116.099 C 88.931 115.385,89.415 114.659,90.608 113.587 C 91.834 112.485,92.544 111.405,93.243 109.575 C 93.889 107.886,94.577 106.793,95.356 106.216 C 95.992 105.746,96.847 104.605,97.256 103.681 C 97.728 102.613,98.470 101.723,99.295 101.237 C 100.007 100.817,100.857 99.944,101.183 99.298 C 101.509 98.652,102.532 97.364,103.458 96.435 C 104.383 95.507,106.300 93.527,107.717 92.037 C 109.134 90.546,110.867 89.087,111.569 88.794 C 112.407 88.443,113.154 87.699,113.745 86.626 C 114.372 85.487,114.928 84.952,115.578 84.865 C 116.593 84.728,118.574 83.058,118.574 82.340 C 118.574 82.094,119.461 81.518,120.544 81.059 C 121.628 80.599,123.296 79.572,124.252 78.776 C 125.208 77.980,126.643 77.048,127.442 76.705 C 128.240 76.362,129.146 75.960,129.456 75.812 C 129.765 75.663,130.316 74.924,130.678 74.169 C 131.236 73.008,131.526 72.795,132.555 72.791 C 135.377 72.782,139.212 70.913,139.212 69.548 C 139.212 68.983,139.785 68.830,143.902 68.295 C 147.957 67.769,149.168 67.321,150.243 65.948 C 151.144 64.797,151.224 64.776,156.976 64.137 C 163.925 63.365,164.952 63.063,166.631 61.297 L 167.917 59.944 185.329 60.190 L 202.741 60.435 203.987 61.529 " stroke="none" fill="#d4d4d4" fill-rule="evenodd"></path><path id="path2" d="M179.348 56.800 C 179.240 56.908,175.864 57.167,171.846 57.377 C 163.712 57.800,159.475 58.475,156.667 59.793 C 154.512 60.806,153.169 61.201,148.298 62.257 C 145.882 62.781,144.329 63.356,143.232 64.134 C 142.363 64.751,140.445 65.585,138.972 65.988 C 136.080 66.779,135.138 67.203,133.396 68.494 C 132.777 68.952,131.451 69.684,130.451 70.119 C 129.450 70.554,127.846 71.482,126.886 72.182 C 125.926 72.881,124.262 73.895,123.189 74.435 C 122.116 74.975,120.765 76.008,120.187 76.732 C 119.610 77.456,118.816 78.049,118.423 78.049 C 118.030 78.049,116.848 78.900,115.796 79.941 C 113.834 81.881,112.423 83.020,107.927 86.288 C 105.421 88.110,101.717 91.889,99.080 95.316 C 98.368 96.241,97.212 97.650,96.511 98.447 C 95.810 99.243,94.999 100.464,94.708 101.160 C 94.418 101.855,93.752 102.705,93.228 103.048 C 92.705 103.391,91.829 104.449,91.281 105.400 C 90.733 106.351,89.747 107.805,89.089 108.630 C 88.431 109.456,87.344 111.229,86.674 112.570 C 86.004 113.912,84.990 115.542,84.421 116.194 C 83.852 116.845,83.029 118.449,82.592 119.759 C 81.845 121.996,81.427 122.795,79.837 125.019 C 79.479 125.520,78.834 127.356,78.404 129.100 C 77.974 130.844,77.152 133.114,76.578 134.146 C 75.131 136.747,74.437 139.124,73.782 143.715 C 73.426 146.208,72.846 148.469,72.202 149.873 C 71.506 151.389,71.016 153.408,70.651 156.252 C 70.016 161.211,69.668 161.855,67.301 162.451 C 66.317 162.699,64.575 163.478,63.431 164.182 C 62.287 164.887,60.253 165.821,58.912 166.260 C 57.570 166.698,55.713 167.608,54.784 168.283 C 53.856 168.957,52.505 169.807,51.782 170.171 C 47.123 172.518,34.077 185.425,32.053 189.690 C 31.698 190.438,31.021 191.304,30.549 191.613 C 30.060 191.934,29.176 193.415,28.495 195.056 C 27.838 196.640,27.006 198.358,26.646 198.874 C 25.377 200.694,24.783 202.199,24.180 205.117 C 23.845 206.739,23.151 209.064,22.638 210.283 C 19.176 218.508,19.194 239.656,22.669 247.307 C 23.564 249.276,24.119 251.258,24.564 254.067 C 24.681 254.807,25.447 256.524,26.266 257.882 C 27.085 259.240,28.115 261.335,28.556 262.539 C 28.997 263.743,29.907 265.319,30.578 266.041 C 31.250 266.764,32.413 268.331,33.164 269.525 C 33.915 270.719,34.787 271.795,35.101 271.916 C 35.416 272.037,36.161 272.844,36.757 273.711 C 37.353 274.577,38.438 275.695,39.168 276.195 C 39.899 276.696,40.710 277.504,40.971 277.993 C 41.232 278.481,42.210 279.397,43.143 280.029 C 44.077 280.662,45.496 281.760,46.296 282.471 C 47.097 283.182,48.628 284.164,49.698 284.654 C 50.768 285.144,52.055 285.985,52.557 286.523 C 53.638 287.680,54.927 288.387,57.686 289.336 C 58.802 289.720,60.194 290.437,60.778 290.929 C 61.922 291.891,65.146 292.827,69.381 293.428 C 70.949 293.651,72.904 294.256,74.192 294.917 C 78.807 297.287,93.455 297.508,222.139 297.143 C 307.945 296.900,308.407 296.890,312.222 295.152 C 313.342 294.641,315.103 294.022,316.135 293.775 C 321.881 292.403,323.792 291.778,325.305 290.776 C 326.227 290.165,327.665 289.488,328.500 289.270 C 329.335 289.052,330.639 288.715,331.397 288.521 C 332.154 288.327,333.670 287.495,334.764 286.673 C 335.858 285.851,336.929 285.178,337.144 285.178 C 337.802 285.178,340.456 283.642,341.745 282.515 C 342.415 281.929,343.888 280.858,345.018 280.135 C 346.147 279.413,347.287 278.465,347.551 278.029 C 347.814 277.593,348.687 276.897,349.489 276.483 C 351.358 275.517,360.769 266.325,362.695 263.583 C 363.504 262.433,364.967 260.655,365.947 259.634 C 366.928 258.612,367.730 257.538,367.730 257.247 C 367.730 256.956,368.310 255.958,369.018 255.030 C 370.615 252.938,371.286 251.657,371.816 249.687 C 372.043 248.844,372.894 247.155,373.709 245.934 C 374.675 244.486,375.397 242.807,375.788 241.100 C 376.118 239.662,376.956 237.466,377.650 236.222 C 382.331 227.831,382.426 189.769,377.787 181.389 C 377.205 180.337,376.372 178.057,375.936 176.323 C 375.084 172.930,374.485 171.511,373.593 170.771 C 373.282 170.513,372.576 169.119,372.024 167.674 C 371.471 166.229,370.482 164.341,369.824 163.480 C 369.167 162.619,368.135 161.006,367.531 159.897 C 366.928 158.788,366.067 157.713,365.618 157.508 C 365.169 157.304,364.438 156.430,363.994 155.567 C 362.742 153.132,353.005 143.362,349.272 140.793 C 348.359 140.165,347.379 139.371,347.095 139.029 C 346.812 138.687,345.977 138.098,345.241 137.720 C 344.505 137.342,342.735 136.169,341.308 135.113 C 339.859 134.041,337.855 132.944,336.767 132.628 C 335.697 132.316,334.415 131.628,333.920 131.098 C 332.696 129.787,331.526 129.229,328.567 128.543 C 327.183 128.222,324.834 127.293,323.345 126.479 C 321.516 125.478,319.786 124.862,318.011 124.578 C 312.898 123.761,311.238 123.353,309.545 122.498 C 307.238 121.335,304.618 120.922,296.610 120.459 C 286.867 119.897,286.749 119.845,284.361 115.009 C 283.545 113.358,282.571 111.670,282.196 111.257 C 281.821 110.844,280.810 109.240,279.948 107.692 C 279.087 106.144,278.168 104.709,277.907 104.503 C 277.645 104.296,276.792 103.114,276.011 101.876 C 275.229 100.638,272.962 97.902,270.972 95.797 C 268.982 93.692,266.625 91.129,265.733 90.103 C 264.842 89.077,263.322 87.692,262.356 87.026 C 261.391 86.360,260.142 85.171,259.581 84.384 C 259.020 83.596,257.923 82.544,257.142 82.046 C 256.361 81.548,255.300 80.682,254.784 80.121 C 254.268 79.560,253.255 78.797,252.533 78.424 C 251.811 78.051,250.797 77.293,250.281 76.739 C 249.765 76.186,248.291 75.224,247.004 74.603 C 245.717 73.981,244.029 72.962,243.252 72.336 C 242.474 71.711,240.805 70.731,239.542 70.159 C 238.279 69.586,236.536 68.605,235.670 67.977 C 234.804 67.350,232.793 66.403,231.201 65.872 C 229.609 65.342,227.721 64.515,227.005 64.035 C 225.268 62.869,223.581 62.317,220.587 61.936 C 219.142 61.752,216.860 61.066,215.146 60.299 C 211.328 58.591,207.631 57.892,200.000 57.437 C 191.472 56.928,179.586 56.562,179.348 56.800 M205.253 59.408 C 206.801 59.710,208.939 60.305,210.004 60.730 C 211.070 61.154,213.946 61.916,216.397 62.423 C 219.334 63.030,222.126 63.914,224.591 65.016 C 226.648 65.936,228.935 66.798,229.674 66.933 C 230.413 67.067,232.017 67.782,233.239 68.522 C 234.460 69.261,236.603 70.445,238.001 71.152 C 239.399 71.860,241.311 73.025,242.251 73.743 C 243.191 74.460,244.182 75.047,244.453 75.047 C 244.724 75.047,245.935 75.775,247.144 76.665 C 248.354 77.555,250.272 78.884,251.407 79.620 C 259.110 84.611,274.180 101.139,280.082 111.069 C 280.634 111.998,281.504 113.338,282.016 114.048 C 282.528 114.757,283.199 116.205,283.507 117.266 C 284.443 120.485,286.396 121.181,297.150 122.125 C 301.982 122.549,304.330 122.945,307.001 123.784 C 308.929 124.389,311.669 125.001,313.090 125.142 C 316.374 125.469,319.011 126.242,321.388 127.578 C 322.420 128.157,324.615 129.005,326.266 129.462 C 329.561 130.373,330.724 130.894,333.110 132.526 C 333.985 133.124,335.409 133.864,336.274 134.169 C 337.139 134.474,338.365 135.117,338.999 135.598 C 339.632 136.078,341.248 137.136,342.589 137.949 C 347.572 140.970,358.289 150.648,361.788 155.288 C 362.669 156.456,363.991 158.086,364.727 158.912 C 365.462 159.737,366.818 161.736,367.741 163.353 C 368.664 164.971,369.879 167.082,370.442 168.044 C 371.004 169.006,371.469 170.021,371.473 170.300 C 371.478 170.578,372.066 171.760,372.780 172.927 C 373.493 174.093,374.442 176.398,374.888 178.049 C 375.335 179.700,376.167 182.233,376.737 183.677 C 380.584 193.415,380.776 222.177,377.063 232.645 C 376.441 234.400,375.597 236.932,375.187 238.274 C 373.717 243.087,366.468 256.875,364.131 259.303 C 363.428 260.034,362.852 260.845,362.852 261.105 C 362.852 261.754,350.128 274.404,348.339 275.533 C 347.544 276.035,346.292 277.017,345.554 277.716 C 343.682 279.491,339.905 282.053,336.607 283.785 C 335.071 284.591,333.298 285.634,332.667 286.102 C 332.036 286.570,330.338 287.253,328.893 287.620 C 327.448 287.987,325.507 288.710,324.578 289.225 C 321.216 291.093,320.204 291.464,316.698 292.119 C 314.737 292.485,311.867 293.173,310.319 293.648 C 305.758 295.048,302.316 295.344,286.492 295.694 C 266.694 296.132,121.121 296.130,100.000 295.691 C 82.670 295.331,81.528 295.225,75.797 293.446 C 73.837 292.838,70.895 292.162,69.259 291.943 C 67.222 291.672,65.399 291.120,63.472 290.193 C 61.925 289.449,59.548 288.453,58.190 287.979 C 56.833 287.505,55.125 286.617,54.394 286.005 C 53.664 285.394,52.144 284.338,51.017 283.659 C 49.890 282.980,48.293 281.894,47.467 281.247 C 46.642 280.599,45.375 279.703,44.653 279.257 C 40.616 276.761,31.541 265.437,29.234 260.018 C 28.629 258.595,27.726 256.831,27.228 256.097 C 26.716 255.341,25.964 253.186,25.494 251.125 C 25.038 249.124,24.175 246.072,23.577 244.344 C 21.469 238.262,20.958 221.610,22.722 216.482 C 23.249 214.950,24.099 211.923,24.610 209.756 C 25.784 204.786,26.599 202.224,27.243 201.482 C 27.521 201.162,28.243 199.700,28.848 198.232 C 31.031 192.940,36.589 185.505,42.821 179.542 C 46.638 175.891,52.052 171.482,52.720 171.482 C 52.988 171.482,54.111 170.874,55.216 170.131 C 57.880 168.337,58.658 167.951,62.311 166.618 C 64.015 165.997,65.678 165.246,66.007 164.952 C 66.335 164.657,67.320 164.131,68.194 163.783 C 70.522 162.856,71.879 161.126,72.200 158.680 C 72.345 157.569,72.945 154.719,73.534 152.345 C 74.122 149.972,74.802 146.764,75.045 145.216 C 75.705 141.012,76.436 138.383,77.455 136.545 C 77.959 135.639,78.816 133.293,79.360 131.332 C 79.904 129.371,80.765 127.161,81.273 126.419 C 81.781 125.678,82.699 123.765,83.314 122.169 C 83.929 120.572,84.907 118.562,85.489 117.701 C 86.070 116.840,87.194 114.953,87.986 113.508 C 88.778 112.064,89.829 110.395,90.322 109.800 C 90.815 109.205,91.549 108.069,91.953 107.276 C 92.358 106.483,93.405 104.995,94.281 103.968 C 95.156 102.941,96.970 100.715,98.311 99.022 C 103.824 92.061,106.625 89.018,108.417 88.043 C 109.410 87.502,110.455 86.777,110.740 86.432 C 111.024 86.086,112.512 84.812,114.045 83.601 C 115.579 82.390,117.067 81.067,117.351 80.660 C 117.636 80.253,118.408 79.649,119.066 79.318 C 119.724 78.986,120.773 78.232,121.397 77.641 C 122.021 77.050,123.548 76.073,124.792 75.471 C 126.035 74.869,127.551 73.958,128.160 73.447 C 128.770 72.937,130.535 71.884,132.083 71.109 C 133.630 70.334,135.329 69.394,135.858 69.021 C 136.387 68.647,138.244 67.845,139.986 67.237 C 141.727 66.629,144.629 65.517,146.434 64.765 C 148.239 64.013,151.278 63.072,153.188 62.674 C 155.098 62.276,158.129 61.449,159.924 60.837 C 162.822 59.848,165.826 59.227,169.981 58.759 C 173.605 58.350,202.563 58.883,205.253 59.408 " stroke="none" fill="#e4e4e4" fill-rule="evenodd"></path><path id="path3" d="M169.981 58.759 C 165.826 59.227,162.822 59.848,159.924 60.837 C 158.129 61.449,155.098 62.276,153.188 62.674 C 151.278 63.072,148.239 64.013,146.434 64.765 C 144.629 65.517,141.727 66.629,139.986 67.237 C 138.244 67.845,136.387 68.647,135.858 69.021 C 135.329 69.394,133.630 70.334,132.083 71.109 C 130.535 71.884,128.770 72.937,128.160 73.447 C 127.551 73.958,126.035 74.869,124.792 75.471 C 123.548 76.073,122.021 77.050,121.397 77.641 C 120.773 78.232,119.724 78.986,119.066 79.318 C 118.408 79.649,117.636 80.253,117.351 80.660 C 117.067 81.067,115.579 82.390,114.045 83.601 C 112.512 84.812,111.024 86.086,110.740 86.432 C 110.455 86.777,109.410 87.502,108.417 88.043 C 106.625 89.018,103.824 92.061,98.311 99.022 C 96.970 100.715,95.156 102.941,94.281 103.968 C 93.405 104.995,92.358 106.483,91.953 107.276 C 91.549 108.069,90.815 109.205,90.322 109.800 C 89.829 110.395,88.778 112.064,87.986 113.508 C 87.194 114.953,86.070 116.840,85.489 117.701 C 84.907 118.562,83.929 120.572,83.314 122.169 C 82.699 123.765,81.781 125.678,81.273 126.419 C 80.765 127.161,79.904 129.371,79.360 131.332 C 78.816 133.293,77.959 135.639,77.455 136.545 C 76.436 138.383,75.705 141.012,75.045 145.216 C 74.802 146.764,74.122 149.972,73.534 152.345 C 72.945 154.719,72.345 157.569,72.200 158.680 C 71.879 161.126,70.522 162.856,68.194 163.783 C 67.320 164.131,66.335 164.657,66.007 164.952 C 65.678 165.246,64.015 165.997,62.311 166.618 C 58.658 167.951,57.880 168.337,55.216 170.131 C 54.111 170.874,52.988 171.482,52.720 171.482 C 52.052 171.482,46.638 175.891,42.821 179.542 C 36.589 185.505,31.031 192.940,28.848 198.232 C 28.243 199.700,27.521 201.162,27.243 201.482 C 26.599 202.224,25.784 204.786,24.610 209.756 C 24.099 211.923,23.249 214.950,22.722 216.482 C 20.958 221.610,21.469 238.262,23.577 244.344 C 24.175 246.072,25.038 249.124,25.494 251.125 C 25.964 253.186,26.716 255.341,27.228 256.097 C 27.726 256.831,28.629 258.595,29.234 260.018 C 31.541 265.437,40.616 276.761,44.653 279.257 C 45.375 279.703,46.642 280.599,47.467 281.247 C 48.293 281.894,49.890 282.980,51.017 283.659 C 52.144 284.338,53.664 285.394,54.394 286.005 C 55.125 286.617,56.833 287.505,58.190 287.979 C 59.548 288.453,61.925 289.449,63.472 290.193 C 65.399 291.120,67.222 291.672,69.259 291.943 C 70.895 292.162,73.837 292.838,75.797 293.446 C 81.528 295.225,82.670 295.331,100.000 295.691 C 121.121 296.130,266.694 296.132,286.492 295.694 C 302.316 295.344,305.758 295.048,310.319 293.648 C 311.867 293.173,314.737 292.485,316.698 292.119 C 320.204 291.464,321.216 291.093,324.578 289.225 C 325.507 288.710,327.448 287.987,328.893 287.620 C 330.338 287.253,332.036 286.570,332.667 286.102 C 333.298 285.634,335.071 284.591,336.607 283.785 C 339.905 282.053,343.682 279.491,345.554 277.716 C 346.292 277.017,347.544 276.035,348.339 275.533 C 350.128 274.404,362.852 261.754,362.852 261.105 C 362.852 260.845,363.428 260.034,364.131 259.303 C 366.468 256.875,373.717 243.087,375.187 238.274 C 375.597 236.932,376.441 234.400,377.063 232.645 C 380.776 222.177,380.584 193.415,376.737 183.677 C 376.167 182.233,375.335 179.700,374.888 178.049 C 374.442 176.398,373.493 174.093,372.780 172.927 C 372.066 171.760,371.478 170.578,371.473 170.300 C 371.469 170.021,371.004 169.006,370.442 168.044 C 369.879 167.082,368.664 164.971,367.741 163.353 C 366.818 161.736,365.462 159.737,364.727 158.912 C 363.991 158.086,362.669 156.456,361.788 155.288 C 358.289 150.648,347.572 140.970,342.589 137.949 C 341.248 137.136,339.632 136.078,338.999 135.598 C 338.365 135.117,337.139 134.474,336.274 134.169 C 335.409 133.864,333.985 133.124,333.110 132.526 C 330.724 130.894,329.561 130.373,326.266 129.462 C 324.615 129.005,322.420 128.157,321.388 127.578 C 319.011 126.242,316.374 125.469,313.090 125.142 C 311.669 125.001,308.929 124.389,307.001 123.784 C 304.330 122.945,301.982 122.549,297.150 122.125 C 286.396 121.181,284.443 120.485,283.507 117.266 C 283.199 116.205,282.528 114.757,282.016 114.048 C 281.504 113.338,280.634 111.998,280.082 111.069 C 274.180 101.139,259.110 84.611,251.407 79.620 C 250.272 78.884,248.354 77.555,247.144 76.665 C 245.935 75.775,244.724 75.047,244.453 75.047 C 244.182 75.047,243.191 74.460,242.251 73.743 C 241.311 73.025,239.399 71.860,238.001 71.152 C 236.603 70.445,234.460 69.261,233.239 68.522 C 232.017 67.782,230.413 67.067,229.674 66.933 C 228.935 66.798,226.648 65.936,224.591 65.016 C 222.126 63.914,219.334 63.030,216.397 62.423 C 213.946 61.916,211.070 61.154,210.004 60.730 C 205.896 59.092,203.271 58.866,186.867 58.735 C 178.302 58.667,170.704 58.677,169.981 58.759 M200.021 59.663 C 204.161 59.939,205.663 60.207,208.090 61.102 C 210.915 62.144,214.960 63.084,218.807 63.592 C 219.760 63.718,221.289 64.296,222.203 64.876 C 223.792 65.883,228.472 67.594,231.046 68.108 C 231.715 68.241,232.368 68.523,232.499 68.734 C 232.978 69.510,237.291 72.045,238.131 72.045 C 238.608 72.045,239.553 72.532,240.232 73.128 C 240.910 73.724,242.563 74.850,243.903 75.631 C 245.244 76.411,247.017 77.584,247.842 78.236 C 248.668 78.888,250.147 79.880,251.128 80.441 C 252.110 81.002,253.167 81.847,253.476 82.319 C 253.786 82.792,254.502 83.415,255.068 83.704 C 257.288 84.840,272.674 100.873,274.339 103.786 C 274.800 104.593,275.711 105.929,276.362 106.754 C 277.014 107.580,278.182 109.353,278.958 110.694 C 279.734 112.036,280.678 113.471,281.054 113.884 C 281.431 114.296,282.198 115.787,282.760 117.196 C 284.414 121.349,285.643 121.849,296.746 122.885 C 300.115 123.199,303.185 123.624,303.568 123.829 C 304.696 124.433,310.379 125.698,312.008 125.707 C 314.701 125.724,318.579 126.762,320.365 127.945 C 321.968 129.007,323.301 129.495,327.580 130.589 C 328.508 130.826,330.281 131.672,331.520 132.467 C 332.758 133.263,334.601 134.267,335.614 134.700 C 336.628 135.132,338.232 136.050,339.179 136.740 C 340.126 137.429,341.795 138.444,342.888 138.993 C 343.981 139.543,344.965 140.225,345.074 140.509 C 345.183 140.793,345.977 141.491,346.839 142.059 C 350.706 144.611,358.344 152.010,361.555 156.314 C 362.644 157.775,363.947 159.239,364.450 159.568 C 364.952 159.898,365.576 160.729,365.836 161.416 C 366.669 163.615,367.516 165.134,368.571 166.323 C 369.137 166.961,369.947 168.425,370.370 169.577 C 371.422 172.439,372.182 174.033,372.624 174.306 C 373.222 174.676,373.995 176.825,374.624 179.869 C 374.947 181.429,375.622 183.684,376.125 184.880 C 380.106 194.355,380.241 223.618,376.343 232.083 C 375.773 233.321,374.939 235.981,374.489 237.994 C 373.839 240.902,373.414 241.963,372.420 243.152 C 371.732 243.975,370.806 245.741,370.362 247.076 C 369.918 248.410,369.117 250.142,368.582 250.924 C 368.047 251.706,367.049 253.473,366.365 254.851 C 365.680 256.229,364.944 257.465,364.728 257.598 C 364.512 257.732,363.634 258.799,362.777 259.971 C 360.557 263.003,350.277 273.351,347.950 274.896 C 346.874 275.610,345.773 276.509,345.505 276.892 C 345.236 277.275,344.116 278.120,343.015 278.769 C 341.915 279.418,340.397 280.443,339.644 281.047 C 338.890 281.650,337.176 282.664,335.835 283.300 C 334.493 283.936,332.816 284.876,332.108 285.389 C 331.399 285.902,329.373 286.755,327.605 287.285 C 325.837 287.814,323.387 288.836,322.160 289.554 C 320.934 290.273,319.076 291.006,318.033 291.184 C 316.989 291.362,314.953 291.698,313.508 291.930 C 312.064 292.163,309.447 292.769,307.692 293.278 C 301.333 295.122,301.651 295.117,193.433 295.109 C 83.500 295.102,85.204 295.132,78.146 293.080 C 76.033 292.465,72.568 291.721,70.446 291.425 C 67.360 290.995,66.103 290.621,64.157 289.556 C 62.820 288.824,60.484 287.883,58.966 287.465 C 56.166 286.694,55.366 286.269,54.478 285.079 C 54.206 284.715,53.337 284.087,52.545 283.684 C 51.754 283.280,50.034 282.132,48.724 281.132 C 47.414 280.132,45.651 278.929,44.807 278.458 C 43.963 277.988,42.978 277.106,42.620 276.499 C 42.261 275.891,41.299 274.972,40.481 274.456 C 39.664 273.940,38.851 273.144,38.674 272.688 C 38.497 272.231,37.533 270.911,36.531 269.754 C 35.529 268.598,34.243 266.909,33.673 266.002 C 33.103 265.095,32.160 263.677,31.577 262.852 C 30.995 262.026,30.124 260.275,29.643 258.960 C 29.161 257.644,28.404 256.125,27.961 255.582 C 26.842 254.215,26.442 253.020,25.372 247.842 C 24.860 245.366,24.052 242.495,23.577 241.463 C 22.284 238.654,22.222 219.362,23.500 217.261 C 24.300 215.945,24.903 213.696,25.321 210.472 C 25.887 206.106,26.355 204.538,27.778 202.251 C 28.356 201.323,29.353 199.193,29.994 197.519 C 30.635 195.844,31.512 194.156,31.943 193.766 C 32.374 193.377,33.149 192.225,33.665 191.208 C 34.700 189.167,34.907 188.928,42.088 181.510 C 44.840 178.667,47.767 175.940,48.593 175.449 C 49.418 174.959,50.462 174.057,50.911 173.446 C 51.449 172.715,52.284 172.195,53.350 171.925 C 54.242 171.700,56.057 170.750,57.384 169.815 C 58.711 168.879,60.399 168.005,61.136 167.872 C 63.526 167.441,71.381 163.275,72.046 162.086 C 72.349 161.545,73.154 158.379,74.620 151.970 C 75.021 150.216,75.459 147.683,75.594 146.341 C 76.009 142.205,76.592 139.873,77.700 137.909 C 78.285 136.871,79.184 134.454,79.697 132.537 C 80.210 130.620,81.153 128.200,81.793 127.160 C 82.433 126.120,83.442 123.940,84.035 122.315 C 84.628 120.690,85.531 118.804,86.042 118.123 C 86.552 117.442,87.434 115.957,88.000 114.822 C 88.566 113.687,89.538 112.176,90.160 111.464 C 90.782 110.752,91.625 109.413,92.033 108.490 C 92.442 107.566,93.492 106.037,94.366 105.093 C 95.240 104.149,96.173 102.955,96.440 102.439 C 97.568 100.255,107.527 89.472,109.584 88.206 C 110.593 87.585,111.881 86.558,112.447 85.923 C 113.013 85.288,114.074 84.402,114.805 83.954 C 115.537 83.505,116.446 82.749,116.827 82.273 C 117.207 81.796,118.480 80.753,119.656 79.955 C 120.832 79.156,122.040 78.206,122.342 77.843 C 122.643 77.480,123.916 76.722,125.171 76.159 C 126.426 75.596,128.034 74.625,128.744 74.002 C 129.454 73.379,131.466 72.181,133.216 71.341 C 134.966 70.501,137.158 69.400,138.086 68.896 C 139.015 68.391,141.041 67.604,142.589 67.147 C 144.137 66.691,146.610 65.753,148.085 65.063 C 149.871 64.229,152.252 63.544,155.214 63.014 C 157.661 62.577,160.619 61.816,161.788 61.324 C 166.899 59.174,182.546 58.494,200.021 59.663 " stroke="none" fill="#dcdcdc" fill-rule="evenodd"></path></g></svg>