<svg id="svg" version="1.1" xmlns="http://www.w3.org/2000/svg" xmlns:xlink="http://www.w3.org/1999/xlink" width="400" height="375" viewBox="0, 0, 400,375"><g id="svgg"><path id="path0" d="M170.364 18.031 C 163.314 18.483,160.510 18.983,158.042 20.225 C 156.041 21.233,151.068 22.514,149.156 22.514 C 148.685 22.514,147.499 23.175,146.521 23.984 C 145.383 24.924,143.780 25.755,142.071 26.291 C 140.506 26.781,138.921 27.576,138.244 28.210 C 137.046 29.331,133.778 30.769,132.426 30.769 C 131.993 30.769,131.046 31.450,130.273 32.318 C 129.514 33.169,128.218 34.163,127.392 34.527 C 126.567 34.891,124.820 36.055,123.510 37.115 C 122.200 38.175,120.680 39.275,120.133 39.560 C 119.585 39.844,118.763 40.585,118.306 41.206 C 117.849 41.827,116.810 42.629,115.998 42.987 C 115.032 43.414,114.238 44.145,113.697 45.108 C 113.242 45.916,112.326 46.837,111.660 47.155 C 110.993 47.472,110.046 48.382,109.555 49.177 C 109.064 49.972,108.121 50.914,107.459 51.270 C 106.700 51.679,105.954 52.564,105.437 53.667 C 104.978 54.647,104.131 55.703,103.509 56.071 C 102.818 56.479,102.068 57.479,101.514 58.730 C 101.027 59.832,99.961 61.464,99.145 62.356 C 98.329 63.248,97.367 64.568,97.008 65.291 C 96.648 66.013,95.718 67.280,94.941 68.105 C 94.041 69.061,93.243 70.469,92.743 71.985 C 92.286 73.372,91.415 74.966,90.654 75.809 C 89.850 76.698,89.261 77.803,89.120 78.683 C 88.642 81.682,88.036 83.380,86.966 84.724 C 85.324 86.786,85.193 87.136,84.785 90.519 C 84.322 94.365,83.162 98.345,81.982 100.139 C 81.227 101.287,80.996 102.408,80.512 107.274 C 79.667 115.781,79.219 116.385,72.498 118.080 C 69.921 118.730,68.605 119.264,67.999 119.908 C 67.004 120.966,65.788 121.635,62.891 122.719 C 61.617 123.196,60.512 123.912,60.051 124.559 C 59.636 125.142,58.661 125.876,57.885 126.191 C 57.108 126.506,55.831 127.538,55.047 128.485 C 54.263 129.432,53.437 130.206,53.212 130.206 C 52.623 130.206,47.443 135.557,46.767 136.863 C 46.454 137.468,45.603 138.418,44.875 138.973 C 44.051 139.601,43.387 140.532,43.115 141.437 C 42.876 142.238,42.028 143.711,41.233 144.711 C 39.593 146.772,38.897 148.106,38.311 150.316 C 38.088 151.160,37.488 152.426,36.979 153.130 C 35.087 155.747,34.814 156.565,34.491 160.571 C 34.315 162.754,33.899 165.891,33.566 167.542 C 32.441 173.130,32.433 180.241,33.546 186.851 C 34.082 190.042,34.522 193.689,34.522 194.957 C 34.522 197.762,35.007 199.290,36.600 201.501 C 37.269 202.430,38.168 204.331,38.597 205.727 C 39.588 208.946,39.931 209.587,41.704 211.530 C 42.501 212.403,43.152 213.451,43.152 213.860 C 43.152 214.622,44.179 215.787,49.843 221.451 C 56.026 227.633,56.478 228.031,57.825 228.472 C 58.568 228.716,59.581 229.348,60.076 229.878 C 61.206 231.087,62.246 231.629,65.384 232.642 C 66.756 233.086,68.893 234.130,70.134 234.963 C 72.113 236.292,72.771 236.518,75.501 236.811 C 81.503 237.455,84.955 238.403,86.540 239.844 C 87.326 240.559,88.969 240.568,193.481 240.454 L 299.625 240.338 301.066 239.441 C 302.996 238.242,307.150 237.190,311.061 236.911 C 314.291 236.681,316.406 235.980,318.199 234.547 C 318.715 234.134,320.910 233.313,323.077 232.722 C 326.346 231.831,327.261 231.413,328.451 230.271 C 329.239 229.513,330.043 228.893,330.237 228.893 C 331.082 228.893,334.292 227.156,335.923 225.815 C 336.900 225.012,338.167 224.191,338.737 223.989 C 339.308 223.788,340.153 223.042,340.615 222.330 C 341.077 221.619,342.005 220.758,342.679 220.417 C 343.720 219.890,344.970 218.787,348.382 215.385 C 350.216 213.556,352.710 210.524,353.245 209.473 C 353.588 208.801,354.538 207.828,355.358 207.310 C 356.395 206.655,356.848 206.105,356.848 205.500 C 356.848 204.124,358.546 201.132,360.011 199.924 C 360.852 199.231,361.351 198.492,361.351 197.940 C 361.351 196.758,362.553 194.209,364.161 191.985 C 365.106 190.677,365.478 189.767,365.478 188.762 C 365.478 186.531,366.900 181.581,367.994 180.002 C 369.446 177.906,369.615 176.147,369.800 161.163 C 370.029 142.617,369.789 139.813,367.594 135.348 C 366.501 133.124,365.814 131.161,365.665 129.831 C 365.294 126.533,365.153 126.137,363.824 124.662 C 363.082 123.839,362.168 122.124,361.601 120.489 C 360.891 118.446,360.298 117.433,359.351 116.653 C 358.574 116.012,357.646 114.632,357.008 113.168 C 356.367 111.696,355.598 110.553,355.051 110.261 C 354.556 109.996,353.738 108.965,353.234 107.971 C 352.698 106.913,351.939 106.018,351.406 105.816 C 350.904 105.625,349.977 104.745,349.345 103.860 C 348.713 102.975,347.684 101.890,347.058 101.448 C 346.431 101.006,345.509 100.088,345.007 99.409 C 344.506 98.729,343.292 97.740,342.310 97.210 C 341.329 96.681,340.356 95.847,340.150 95.358 C 339.899 94.762,338.844 94.042,336.961 93.181 C 335.413 92.473,333.555 91.332,332.833 90.645 C 332.111 89.957,330.618 89.103,329.515 88.746 C 328.413 88.389,326.978 87.647,326.326 87.097 C 325.674 86.548,324.881 85.900,324.563 85.658 C 324.245 85.416,322.641 84.943,320.998 84.607 C 318.087 84.013,316.884 83.479,315.457 82.149 C 314.535 81.291,311.992 80.675,309.367 80.675 C 306.662 80.675,300.484 79.421,297.315 78.228 C 295.585 77.577,293.204 77.139,289.234 76.740 C 281.154 75.930,279.493 74.993,278.363 70.607 C 278.108 69.619,277.231 68.147,276.126 66.855 C 275.126 65.685,274.016 63.918,273.659 62.929 C 273.271 61.851,272.535 60.768,271.825 60.226 C 271.173 59.729,270.316 58.681,269.921 57.897 C 269.113 56.296,269.026 56.201,259.351 46.305 C 255.220 42.080,251.765 38.866,250.931 38.473 C 250.153 38.106,249.159 37.305,248.723 36.692 C 248.286 36.079,247.183 35.258,246.272 34.867 C 245.361 34.476,243.684 33.398,242.545 32.471 C 241.407 31.543,239.834 30.612,239.050 30.401 C 238.266 30.190,236.969 29.491,236.167 28.847 C 234.433 27.455,232.044 26.371,229.519 25.829 C 228.329 25.574,227.179 24.982,226.260 24.152 C 225.025 23.036,224.276 22.752,220.503 21.970 C 217.235 21.292,215.756 20.788,214.501 19.925 C 213.143 18.991,212.219 18.705,209.513 18.384 C 205.176 17.868,176.872 17.613,170.364 18.031 " stroke="none" fill="#c4c4c4" fill-rule="evenodd"></path><path id="path1" d="M115.423 264.798 C 113.339 265.365,109.667 268.250,109.042 269.813 C 108.690 270.691,107.863 272.043,107.203 272.817 C 106.544 273.591,105.595 275.296,105.094 276.606 C 104.594 277.915,103.716 279.493,103.143 280.113 C 102.569 280.732,101.588 282.370,100.961 283.753 C 100.334 285.136,99.304 286.857,98.672 287.576 C 98.040 288.296,97.120 289.913,96.628 291.169 C 96.136 292.424,95.213 294.109,94.577 294.912 C 93.940 295.716,93.017 297.283,92.525 298.395 C 92.033 299.508,91.190 300.942,90.651 301.582 C 87.598 305.210,87.761 309.854,91.050 313.025 C 91.845 313.791,92.791 314.762,93.152 315.183 C 93.973 316.139,98.818 316.287,100.518 315.408 C 102.035 314.623,106.912 308.339,107.764 306.071 C 108.165 305.002,109.011 303.477,109.643 302.681 C 110.276 301.885,111.376 300.028,112.089 298.553 C 112.802 297.079,113.773 295.450,114.246 294.934 C 114.719 294.418,115.304 293.376,115.546 292.619 C 116.010 291.165,117.839 288.378,118.951 287.430 C 119.314 287.120,119.982 285.728,120.435 284.336 C 120.996 282.617,121.668 281.421,122.532 280.606 C 125.024 278.256,125.450 269.874,123.176 267.954 C 120.280 265.509,117.288 264.291,115.423 264.798 M232.438 265.871 C 230.215 267.015,227.045 270.671,225.746 273.588 C 225.251 274.700,224.412 276.014,223.880 276.508 C 223.349 277.002,222.464 278.583,221.914 280.022 C 221.364 281.461,220.429 283.191,219.836 283.866 C 219.242 284.542,218.154 286.423,217.418 288.045 C 216.682 289.667,215.672 291.423,215.175 291.947 C 214.678 292.470,213.831 293.990,213.293 295.324 C 212.756 296.657,211.735 298.501,211.024 299.420 C 208.367 302.858,207.589 309.269,209.482 312.131 C 212.221 316.272,217.600 317.397,220.344 314.401 C 221.022 313.661,221.948 312.938,222.403 312.793 C 222.922 312.628,223.600 311.739,224.232 310.393 C 224.784 309.217,225.788 307.495,226.465 306.566 C 227.141 305.637,228.106 303.949,228.610 302.814 C 229.113 301.679,229.996 300.194,230.571 299.513 C 231.146 298.832,232.198 297.059,232.909 295.573 C 233.620 294.087,234.519 292.529,234.909 292.112 C 235.298 291.695,236.147 290.176,236.795 288.735 C 237.444 287.295,238.353 285.610,238.815 284.991 C 242.057 280.646,244.554 273.163,243.779 270.116 C 242.899 266.654,235.962 264.057,232.438 265.871 M278.363 308.633 C 276.988 309.534,275.753 310.617,275.619 311.039 C 275.485 311.461,274.626 312.611,273.710 313.595 C 272.794 314.578,272.041 315.637,272.037 315.947 C 272.023 316.883,270.718 319.465,269.359 321.246 C 268.654 322.169,267.768 323.761,267.390 324.783 C 267.012 325.805,266.208 327.275,265.603 328.050 C 264.998 328.824,264.053 330.344,263.503 331.427 C 262.953 332.510,261.976 334.028,261.331 334.800 C 260.686 335.573,259.956 336.880,259.708 337.705 C 259.461 338.531,258.477 340.347,257.521 341.742 C 255.509 344.678,254.784 346.765,254.784 349.628 C 254.784 357.266,265.130 360.790,269.324 354.581 C 269.892 353.740,270.908 352.344,271.581 351.479 C 272.255 350.614,273.329 348.809,273.969 347.467 C 274.608 346.126,275.699 344.252,276.393 343.303 C 277.086 342.354,278.139 340.496,278.733 339.175 C 279.326 337.854,280.262 336.239,280.813 335.585 C 281.364 334.932,282.248 333.412,282.778 332.208 C 283.309 331.004,284.128 329.511,284.598 328.890 C 285.069 328.268,286.071 326.512,286.825 324.986 C 287.579 323.461,288.783 321.562,289.501 320.767 C 290.772 319.361,290.807 319.239,290.807 316.190 C 290.807 311.584,290.525 311.049,286.930 308.831 C 282.952 306.377,281.844 306.351,278.363 308.633 M162.101 307.669 C 158.158 308.878,156.133 310.476,155.176 313.133 C 154.804 314.165,153.850 315.795,153.056 316.755 C 152.261 317.716,151.256 319.452,150.821 320.614 C 150.386 321.777,149.420 323.524,148.675 324.497 C 147.929 325.470,146.851 327.230,146.278 328.409 C 145.705 329.587,144.810 330.830,144.288 331.172 C 143.766 331.514,143.340 332.021,143.340 332.299 C 143.340 333.568,141.646 337.128,140.496 338.279 C 139.715 339.060,138.914 340.463,138.421 341.914 C 137.980 343.214,137.111 345.246,136.490 346.430 C 134.667 349.904,136.956 356.599,140.273 357.494 C 143.458 358.354,149.343 357.555,149.343 356.262 C 149.343 355.954,150.069 354.977,150.956 354.090 C 151.842 353.204,152.873 351.680,153.245 350.704 C 153.618 349.728,154.523 348.051,155.256 346.979 C 155.990 345.906,157.166 343.859,157.872 342.429 C 158.577 341.000,159.735 339.151,160.446 338.322 C 161.156 337.492,161.910 336.168,162.123 335.381 C 162.335 334.593,163.006 333.382,163.614 332.689 C 164.222 331.997,165.245 330.184,165.886 328.661 C 166.528 327.137,167.532 325.385,168.117 324.765 C 170.690 322.042,171.942 313.953,170.271 310.845 C 169.136 308.734,164.503 306.933,162.101 307.669 " stroke="none" fill="#41cdec" fill-rule="evenodd"></path><path id="path2" d="M175.610 13.496 C 174.268 13.636,172.073 14.112,170.732 14.554 C 169.390 14.996,166.182 15.627,163.602 15.956 C 157.446 16.741,156.118 17.058,152.734 18.546 C 151.172 19.232,148.698 20.133,147.236 20.546 C 145.774 20.960,143.705 21.899,142.639 22.632 C 141.573 23.365,139.807 24.225,138.713 24.543 C 137.620 24.861,135.996 25.649,135.106 26.294 C 134.215 26.939,132.453 27.931,131.190 28.497 C 129.927 29.064,128.654 29.816,128.362 30.169 C 128.069 30.521,126.634 31.497,125.172 32.338 C 123.710 33.179,121.839 34.489,121.013 35.249 C 120.188 36.010,118.503 37.374,117.269 38.280 C 111.215 42.729,96.900 58.667,95.102 62.960 C 94.818 63.639,94.009 64.906,93.304 65.775 C 92.599 66.644,91.640 68.114,91.172 69.043 C 90.704 69.972,89.754 71.475,89.061 72.383 C 88.368 73.291,87.613 74.726,87.383 75.572 C 86.469 78.931,86.233 79.524,84.981 81.602 C 83.660 83.797,83.314 84.801,82.545 88.672 C 82.307 89.871,81.638 91.755,81.057 92.858 C 79.746 95.350,79.230 97.683,78.777 103.152 C 78.118 111.107,75.235 115.030,69.075 116.351 C 68.041 116.573,66.639 117.158,65.961 117.651 C 65.283 118.144,63.377 119.250,61.726 120.108 C 60.075 120.966,58.028 122.281,57.176 123.029 C 56.325 123.778,54.934 124.885,54.086 125.490 C 51.068 127.642,42.733 136.697,40.901 139.813 C 40.385 140.691,39.404 142.183,38.722 143.129 C 36.524 146.177,33.388 153.018,32.446 156.820 C 31.956 158.796,31.304 161.124,30.996 161.993 C 28.775 168.275,28.457 182.864,30.380 190.244 C 31.449 194.341,32.680 199.198,33.120 201.049 C 33.331 201.936,34.030 203.540,34.674 204.614 C 35.317 205.688,36.264 207.642,36.778 208.957 C 37.291 210.271,38.348 212.074,39.126 212.963 C 39.904 213.852,40.807 215.216,41.132 215.995 C 41.844 217.698,50.556 226.677,53.516 228.758 C 54.650 229.555,56.537 230.959,57.709 231.879 C 58.882 232.798,61.026 234.031,62.473 234.618 C 63.919 235.205,65.725 236.113,66.485 236.638 C 67.245 237.162,69.457 237.994,71.401 238.488 C 73.344 238.981,76.149 239.902,77.633 240.534 C 82.653 242.670,78.111 242.589,193.433 242.589 C 307.494 242.589,303.842 242.649,309.265 240.696 C 310.774 240.154,314.181 239.130,316.838 238.421 C 319.495 237.713,322.120 236.812,322.671 236.420 C 323.222 236.027,324.848 235.243,326.283 234.678 C 327.719 234.113,329.653 233.108,330.582 232.443 C 331.510 231.779,333.283 230.727,334.522 230.105 C 335.760 229.484,337.111 228.594,337.523 228.129 C 337.936 227.663,339.163 226.709,340.251 226.008 C 341.338 225.307,342.435 224.394,342.690 223.979 C 342.944 223.564,343.996 222.710,345.028 222.081 C 347.379 220.647,354.248 213.688,355.114 211.863 C 355.470 211.112,356.181 210.223,356.694 209.887 C 357.207 209.551,358.323 208.076,359.174 206.608 C 360.024 205.141,361.038 203.529,361.425 203.027 C 361.812 202.525,362.798 200.752,363.615 199.087 C 364.432 197.422,365.512 195.504,366.014 194.824 C 366.516 194.144,367.202 192.371,367.540 190.884 C 367.877 189.397,368.723 186.914,369.421 185.366 C 370.693 182.542,372.233 175.519,372.233 172.536 C 372.233 171.743,372.662 168.944,373.186 166.317 C 374.490 159.785,374.606 152.926,373.454 150.469 C 372.899 149.285,372.484 147.098,372.064 143.152 C 371.269 135.683,370.873 133.867,369.407 130.963 C 368.728 129.618,367.822 127.336,367.394 125.891 C 366.965 124.447,366.095 122.505,365.460 121.576 C 364.825 120.647,363.886 118.959,363.374 117.824 C 362.861 116.689,361.971 115.169,361.395 114.447 C 360.819 113.724,359.871 112.373,359.289 111.445 C 356.059 106.290,346.997 97.079,340.367 92.212 C 339.455 91.542,337.943 90.421,337.008 89.719 C 336.073 89.018,334.371 88.037,333.226 87.539 C 330.809 86.488,330.813 86.490,328.735 84.919 C 327.865 84.260,326.030 83.348,324.658 82.891 C 323.286 82.435,321.357 81.586,320.372 81.004 C 318.264 79.762,315.707 78.981,311.820 78.392 C 310.272 78.158,307.908 77.550,306.567 77.042 C 302.948 75.670,299.118 75.032,293.246 74.824 C 283.976 74.495,282.919 73.934,279.897 67.730 C 275.844 59.412,258.929 39.655,253.471 36.862 C 252.852 36.545,251.445 35.467,250.345 34.466 C 249.245 33.465,248.208 32.645,248.041 32.645 C 247.873 32.645,246.916 31.964,245.913 31.132 C 244.911 30.300,243.161 29.179,242.026 28.642 C 240.891 28.104,239.216 27.154,238.305 26.529 C 237.393 25.904,235.390 24.924,233.855 24.351 C 232.319 23.778,230.448 22.891,229.696 22.378 C 228.945 21.866,227.148 21.074,225.704 20.617 C 224.259 20.161,221.895 19.286,220.450 18.673 C 216.254 16.892,215.067 16.610,208.226 15.778 C 203.535 15.207,201.279 14.761,200.032 14.157 C 198.214 13.278,181.943 12.837,175.610 13.496 M209.513 18.384 C 212.219 18.705,213.143 18.991,214.501 19.925 C 215.756 20.788,217.235 21.292,220.503 21.970 C 224.276 22.752,225.025 23.036,226.260 24.152 C 227.179 24.982,228.329 25.574,229.519 25.829 C 232.044 26.371,234.433 27.455,236.167 28.847 C 236.969 29.491,238.266 30.190,239.050 30.401 C 239.834 30.612,241.407 31.543,242.545 32.471 C 243.684 33.398,245.361 34.476,246.272 34.867 C 247.183 35.258,248.286 36.079,248.723 36.692 C 249.159 37.305,250.153 38.106,250.931 38.473 C 251.765 38.866,255.220 42.080,259.351 46.305 C 269.026 56.201,269.113 56.296,269.921 57.897 C 270.316 58.681,271.173 59.729,271.825 60.226 C 272.535 60.768,273.271 61.851,273.659 62.929 C 274.016 63.918,275.126 65.685,276.126 66.855 C 277.231 68.147,278.108 69.619,278.363 70.607 C 279.493 74.993,281.154 75.930,289.234 76.740 C 293.204 77.139,295.585 77.577,297.315 78.228 C 300.484 79.421,306.662 80.675,309.367 80.675 C 311.992 80.675,314.535 81.291,315.457 82.149 C 316.884 83.479,318.087 84.013,320.998 84.607 C 322.641 84.943,324.245 85.416,324.563 85.658 C 324.881 85.900,325.674 86.548,326.326 87.097 C 326.978 87.647,328.413 88.389,329.515 88.746 C 330.618 89.103,332.111 89.957,332.833 90.645 C 333.555 91.332,335.413 92.473,336.961 93.181 C 338.844 94.042,339.899 94.762,340.150 95.358 C 340.356 95.847,341.329 96.681,342.310 97.210 C 343.292 97.740,344.506 98.729,345.007 99.409 C 345.509 100.088,346.431 101.006,347.058 101.448 C 347.684 101.890,348.713 102.975,349.345 103.860 C 349.977 104.745,350.904 105.625,351.406 105.816 C 351.939 106.018,352.698 106.913,353.234 107.971 C 353.738 108.965,354.556 109.996,355.051 110.261 C 355.598 110.553,356.367 111.696,357.008 113.168 C 357.646 114.632,358.574 116.012,359.351 116.653 C 360.298 117.433,360.891 118.446,361.601 120.489 C 362.168 122.124,363.082 123.839,363.824 124.662 C 365.153 126.137,365.294 126.533,365.665 129.831 C 365.814 131.161,366.501 133.124,367.594 135.348 C 369.789 139.813,370.029 142.617,369.800 161.163 C 369.615 176.147,369.446 177.906,367.994 180.002 C 366.900 181.581,365.478 186.531,365.478 188.762 C 365.478 189.767,365.106 190.677,364.161 191.985 C 362.553 194.209,361.351 196.758,361.351 197.940 C 361.351 198.492,360.852 199.231,360.011 199.924 C 358.546 201.132,356.848 204.124,356.848 205.500 C 356.848 206.105,356.395 206.655,355.358 207.310 C 354.538 207.828,353.588 208.801,353.245 209.473 C 352.710 210.524,350.216 213.556,348.382 215.385 C 344.970 218.787,343.720 219.890,342.679 220.417 C 342.005 220.758,341.077 221.619,340.615 222.330 C 340.153 223.042,339.308 223.788,338.737 223.989 C 338.167 224.191,336.900 225.012,335.923 225.815 C 334.292 227.156,331.082 228.893,330.237 228.893 C 330.043 228.893,329.239 229.513,328.451 230.271 C 327.261 231.413,326.346 231.831,323.077 232.722 C 320.910 233.313,318.715 234.134,318.199 234.547 C 316.406 235.980,314.291 236.681,311.061 236.911 C 307.150 237.190,302.996 238.242,301.066 239.441 L 299.625 240.338 193.481 240.454 C 88.969 240.568,87.326 240.559,86.540 239.844 C 84.955 238.403,81.503 237.455,75.501 236.811 C 72.771 236.518,72.113 236.292,70.134 234.963 C 68.893 234.130,66.756 233.086,65.384 232.642 C 62.246 231.629,61.206 231.087,60.076 229.878 C 59.581 229.348,58.568 228.716,57.825 228.472 C 56.478 228.031,56.026 227.633,49.843 221.451 C 44.179 215.787,43.152 214.622,43.152 213.860 C 43.152 213.451,42.501 212.403,41.704 211.530 C 39.931 209.587,39.588 208.946,38.597 205.727 C 38.168 204.331,37.269 202.430,36.600 201.501 C 35.007 199.290,34.522 197.762,34.522 194.957 C 34.522 193.689,34.082 190.042,33.546 186.851 C 32.433 180.241,32.441 173.130,33.566 167.542 C 33.899 165.891,34.315 162.754,34.491 160.571 C 34.814 156.565,35.087 155.747,36.979 153.130 C 37.488 152.426,38.088 151.160,38.311 150.316 C 38.897 148.106,39.593 146.772,41.233 144.711 C 42.028 143.711,42.876 142.238,43.115 141.437 C 43.387 140.532,44.051 139.601,44.875 138.973 C 45.603 138.418,46.454 137.468,46.767 136.863 C 47.443 135.557,52.623 130.206,53.212 130.206 C 53.437 130.206,54.263 129.432,55.047 128.485 C 55.831 127.538,57.108 126.506,57.885 126.191 C 58.661 125.876,59.636 125.142,60.051 124.559 C 60.512 123.912,61.617 123.196,62.891 122.719 C 65.788 121.635,67.004 120.966,67.999 119.908 C 68.605 119.264,69.921 118.730,72.498 118.080 C 79.219 116.385,79.667 115.781,80.512 107.274 C 80.996 102.408,81.227 101.287,81.982 100.139 C 83.162 98.345,84.322 94.365,84.785 90.519 C 85.193 87.136,85.324 86.786,86.966 84.724 C 88.036 83.380,88.642 81.682,89.120 78.683 C 89.261 77.803,89.850 76.698,90.654 75.809 C 91.415 74.966,92.286 73.372,92.743 71.985 C 93.243 70.469,94.041 69.061,94.941 68.105 C 95.718 67.280,96.648 66.013,97.008 65.291 C 97.367 64.568,98.329 63.248,99.145 62.356 C 99.961 61.464,101.027 59.832,101.514 58.730 C 102.068 57.479,102.818 56.479,103.509 56.071 C 104.131 55.703,104.978 54.647,105.437 53.667 C 105.954 52.564,106.700 51.679,107.459 51.270 C 108.121 50.914,109.064 49.972,109.555 49.177 C 110.046 48.382,110.993 47.472,111.660 47.155 C 112.326 46.837,113.242 45.916,113.697 45.108 C 114.238 44.145,115.032 43.414,115.998 42.987 C 116.810 42.629,117.849 41.827,118.306 41.206 C 118.763 40.585,119.585 39.844,120.133 39.560 C 120.680 39.275,122.200 38.175,123.510 37.115 C 124.820 36.055,126.567 34.891,127.392 34.527 C 128.218 34.163,129.514 33.169,130.273 32.318 C 131.046 31.450,131.993 30.769,132.426 30.769 C 133.778 30.769,137.046 29.331,138.244 28.210 C 138.921 27.576,140.506 26.781,142.071 26.291 C 143.780 25.755,145.383 24.924,146.521 23.984 C 147.499 23.175,148.685 22.514,149.156 22.514 C 151.068 22.514,156.041 21.233,158.042 20.225 C 162.631 17.915,195.634 16.734,209.513 18.384 M111.632 262.877 C 109.454 264.006,106.938 266.952,106.944 268.368 C 106.945 268.636,107.325 268.231,107.788 267.469 C 108.877 265.676,111.504 263.440,113.256 262.814 C 114.416 262.400,114.485 262.320,113.696 262.308 C 113.180 262.300,112.251 262.556,111.632 262.877 M230.176 262.718 C 229.747 262.927,229.106 263.588,228.751 264.189 C 228.397 264.789,227.499 265.744,226.756 266.310 C 226.013 266.877,225.177 267.887,224.898 268.555 C 224.181 270.269,224.270 270.558,225.097 269.202 C 225.485 268.566,227.064 266.751,228.607 265.168 C 230.149 263.584,231.309 262.300,231.184 262.314 C 231.059 262.328,230.606 262.510,230.176 262.718 M121.972 263.724 C 123.737 264.846,126.079 267.280,126.079 267.993 C 126.079 268.227,126.176 268.321,126.294 268.202 C 127.059 267.437,122.614 262.664,121.136 262.664 C 120.473 262.664,120.644 262.881,121.972 263.724 M243.141 265.588 C 246.302 268.710,246.461 269.038,246.642 272.795 C 246.743 274.893,246.770 274.769,246.832 271.913 L 246.904 268.591 243.996 265.632 C 242.397 264.005,240.884 262.671,240.635 262.669 C 240.386 262.666,241.514 263.980,243.141 265.588 M105.774 269.921 C 104.754 270.765,103.356 272.720,103.608 272.952 C 103.796 273.126,107.077 269.428,106.894 269.248 C 106.817 269.172,106.313 269.475,105.774 269.921 M126.642 273.513 L 126.642 278.097 127.321 275.789 C 127.977 273.562,127.977 273.402,127.321 271.206 L 126.642 268.930 126.642 273.513 M223.493 272.177 C 223.125 273.141,222.492 274.107,222.086 274.325 C 221.237 274.779,219.888 276.843,219.896 277.674 C 219.899 277.983,220.405 277.434,221.021 276.454 C 221.637 275.474,222.294 274.672,222.481 274.672 C 222.935 274.672,224.495 271.420,224.309 270.862 C 224.228 270.621,223.861 271.213,223.493 272.177 M102.836 274.619 C 102.562 275.280,102.440 275.924,102.566 276.049 C 102.845 276.328,103.639 274.333,103.462 273.800 C 103.391 273.589,103.110 273.958,102.836 274.619 M101.037 277.767 C 100.391 278.438,99.500 279.963,99.056 281.156 C 98.596 282.393,97.867 283.576,97.360 283.908 C 96.462 284.497,94.931 287.214,94.939 288.205 C 94.941 288.501,95.331 288.068,95.804 287.242 C 96.277 286.417,97.181 285.030,97.812 284.162 C 98.442 283.293,99.181 282.027,99.453 281.347 C 99.725 280.668,100.508 279.479,101.193 278.704 C 102.251 277.509,102.755 276.548,102.325 276.548 C 102.262 276.548,101.683 277.097,101.037 277.767 M246.154 277.640 C 246.154 277.828,245.464 278.854,244.620 279.921 C 242.671 282.388,242.935 282.776,244.982 280.451 C 246.291 278.964,247.009 277.298,246.341 277.298 C 246.238 277.298,246.154 277.452,246.154 277.640 M219.325 279.174 C 219.184 279.618,219.153 280.066,219.256 280.169 C 219.359 280.272,219.559 279.994,219.700 279.550 C 219.841 279.106,219.872 278.658,219.768 278.555 C 219.665 278.452,219.465 278.731,219.325 279.174 M125.774 280.060 C 125.512 280.783,124.545 282.344,123.625 283.529 C 122.704 284.715,121.956 285.951,121.963 286.276 C 121.971 286.724,122.076 286.686,122.397 286.116 C 122.630 285.704,123.325 284.783,123.941 284.072 C 125.146 282.680,126.586 279.758,126.377 279.130 C 126.306 278.919,126.035 279.337,125.774 280.060 M217.770 281.879 C 216.491 283.230,215.751 284.479,215.775 285.247 C 215.783 285.519,216.050 285.235,216.367 284.615 C 216.685 283.996,217.457 283.040,218.083 282.489 C 218.708 281.939,219.157 281.299,219.080 281.067 C 219.002 280.834,218.413 281.200,217.770 281.879 M241.704 285.460 C 241.050 286.750,240.352 287.805,240.154 287.805 C 239.738 287.805,238.644 289.784,238.661 290.507 C 238.667 290.775,238.862 290.657,239.095 290.244 C 239.328 289.831,239.997 288.940,240.582 288.263 C 241.889 286.753,243.249 284.152,243.044 283.555 C 242.961 283.313,242.358 284.170,241.704 285.460 M120.415 289.366 C 119.712 290.436,118.821 291.796,118.435 292.390 C 118.050 292.983,117.826 293.561,117.939 293.674 C 118.051 293.786,118.392 293.398,118.696 292.811 C 118.999 292.224,119.626 291.406,120.088 290.993 C 120.915 290.257,122.140 287.869,121.844 287.573 C 121.761 287.490,121.118 288.297,120.415 289.366 M213.415 288.837 C 212.460 289.838,211.628 291.518,211.637 292.426 C 211.639 292.670,212.074 292.111,212.603 291.182 C 213.132 290.253,213.919 289.114,214.352 288.649 C 214.786 288.185,214.974 287.805,214.770 287.805 C 214.566 287.805,213.956 288.269,213.415 288.837 M92.589 292.214 C 91.626 293.223,90.792 294.917,90.821 295.803 C 90.830 296.048,91.062 295.728,91.339 295.093 C 91.616 294.458,92.386 293.318,93.052 292.560 C 94.450 290.967,94.058 290.674,92.589 292.214 M238.304 291.421 C 238.287 291.656,237.714 292.669,237.030 293.673 C 235.187 296.377,235.042 296.722,236.186 295.685 C 237.395 294.590,238.773 292.072,238.513 291.435 C 238.385 291.122,238.325 291.118,238.304 291.421 M211.257 293.786 C 211.257 293.980,210.557 294.947,209.701 295.936 C 208.195 297.677,207.119 299.653,207.139 300.645 C 207.144 300.909,207.572 300.302,208.088 299.296 C 208.605 298.290,209.614 296.782,210.330 295.945 C 211.477 294.605,211.997 293.433,211.445 293.433 C 211.341 293.433,211.257 293.592,211.257 293.786 M117.104 295.236 C 116.859 295.827,116.160 296.856,115.552 297.522 C 114.210 298.992,114.074 299.918,115.381 298.690 C 116.357 297.773,118.042 294.652,117.729 294.340 C 117.630 294.241,117.349 294.644,117.104 295.236 M90.230 297.280 C 90.091 297.744,89.294 298.760,88.460 299.538 C 87.626 300.316,87.066 301.075,87.215 301.224 C 87.629 301.638,90.807 298.086,90.807 297.208 C 90.807 296.193,90.545 296.226,90.230 297.280 M233.963 298.807 C 233.676 299.493,232.895 300.588,232.226 301.242 C 231.558 301.896,231.123 302.543,231.260 302.680 C 231.682 303.101,233.959 300.389,234.405 298.934 C 234.931 297.220,234.658 297.142,233.963 298.807 M113.398 301.505 C 112.934 302.462,111.915 304.119,111.135 305.187 C 110.355 306.255,109.411 307.945,109.037 308.942 C 108.660 309.948,107.376 311.860,106.149 313.242 C 104.934 314.611,103.940 315.867,103.940 316.032 C 103.940 316.198,103.391 316.668,102.720 317.077 C 102.050 317.486,101.759 317.821,102.074 317.822 C 103.007 317.825,104.219 316.783,105.094 315.227 C 105.544 314.427,106.314 313.556,106.805 313.293 C 107.646 312.843,109.944 308.867,109.944 307.861 C 109.944 307.607,110.623 306.578,111.454 305.576 C 113.084 303.608,114.593 300.815,114.377 300.167 C 114.304 299.946,113.863 300.549,113.398 301.505 M206.798 301.754 C 206.774 302.099,206.330 302.886,205.811 303.502 C 203.077 306.752,203.187 309.294,206.229 313.133 C 209.305 317.015,210.010 317.713,211.058 317.913 C 212.475 318.184,212.209 317.742,210.367 316.764 C 209.465 316.286,208.559 315.526,208.353 315.077 C 208.148 314.627,207.379 313.541,206.645 312.663 C 204.132 309.657,203.974 307.478,206.038 304.262 C 206.672 303.275,207.111 302.165,207.016 301.796 C 206.865 301.217,206.835 301.212,206.798 301.754 M86.497 303.171 C 86.098 304.429,86.206 309.686,86.665 311.392 C 87.267 313.628,87.378 313.239,87.023 310.131 C 86.859 308.687,86.823 306.365,86.943 304.972 C 87.157 302.496,86.962 301.707,86.497 303.171 M230.582 303.940 C 230.441 304.384,230.410 304.831,230.513 304.935 C 230.616 305.038,230.816 304.759,230.957 304.315 C 231.098 303.871,231.129 303.424,231.025 303.321 C 230.922 303.217,230.722 303.496,230.582 303.940 M160.225 304.210 C 159.916 304.326,158.868 305.115,157.897 305.963 C 156.926 306.811,155.533 307.986,154.801 308.574 C 154.070 309.161,153.471 309.808,153.471 310.011 C 153.471 310.214,154.034 309.849,154.722 309.200 C 155.410 308.551,156.406 307.735,156.936 307.387 C 157.466 307.039,158.465 306.311,159.156 305.770 C 159.847 305.229,160.919 304.609,161.538 304.393 C 162.596 304.023,162.607 303.999,161.726 303.999 C 161.210 303.999,160.535 304.094,160.225 304.210 M164.728 304.290 C 171.775 305.703,177.025 315.207,173.446 320.074 C 172.220 321.742,171.889 322.583,172.645 322.116 C 178.823 318.298,172.480 303.733,164.748 303.983 L 163.415 304.026 164.728 304.290 M278.972 304.339 C 277.068 304.893,270.152 312.203,270.182 313.630 C 270.193 314.138,270.283 314.108,270.651 313.474 C 272.237 310.744,276.873 306.056,279.174 304.856 C 280.943 303.933,280.884 303.783,278.972 304.339 M286.314 304.936 C 286.825 305.277,287.735 305.994,288.338 306.530 L 289.434 307.505 288.593 306.284 C 287.735 305.039,286.734 304.315,285.870 304.315 C 285.604 304.315,285.804 304.594,286.314 304.936 M229.734 306.331 C 229.510 306.823,228.765 307.865,228.078 308.647 C 227.134 309.723,227.028 309.964,227.644 309.634 C 228.605 309.120,229.890 307.564,230.225 306.507 C 230.571 305.416,230.210 305.287,229.734 306.331 M290.807 308.540 C 291.529 309.232,292.174 309.763,292.240 309.720 C 292.566 309.507,291.293 308.070,290.452 307.701 C 289.611 307.333,289.655 307.436,290.807 308.540 M225.480 312.581 C 224.370 314.664,222.028 316.897,220.263 317.555 C 219.872 317.700,219.940 317.773,220.488 317.794 C 222.322 317.863,225.832 314.267,226.624 311.508 C 227.122 309.769,226.835 310.039,225.480 312.581 M292.319 315.642 C 292.306 321.397,292.193 321.869,290.286 324.153 C 288.643 326.119,288.487 327.182,290.113 325.328 C 292.567 322.531,294.204 313.731,292.739 311.210 C 292.430 310.678,292.328 311.755,292.319 315.642 M151.333 313.795 C 150.172 315.022,149.168 316.648,149.418 316.898 C 149.493 316.972,150.278 316.097,151.163 314.953 C 152.977 312.610,153.072 311.958,151.333 313.795 M89.585 315.517 C 90.874 316.786,92.094 317.824,92.296 317.824 C 92.790 317.824,89.751 314.815,88.355 313.923 C 87.743 313.531,88.296 314.249,89.585 315.517 M267.795 317.849 C 267.059 318.709,266.195 320.182,265.874 321.124 C 265.012 323.654,265.205 323.924,266.242 321.640 C 266.742 320.541,267.681 318.971,268.330 318.152 C 269.922 316.141,269.474 315.887,267.795 317.849 M95.779 318.468 C 96.346 318.554,97.275 318.554,97.842 318.468 C 98.410 318.382,97.946 318.311,96.811 318.311 C 95.675 318.311,95.211 318.382,95.779 318.468 M147.133 321.399 C 145.864 322.844,144.810 324.764,144.131 326.865 C 143.891 327.607,143.285 328.433,142.784 328.702 C 142.283 328.970,141.612 329.739,141.293 330.411 C 140.533 332.013,140.569 332.977,141.334 331.520 C 141.659 330.901,142.485 329.803,143.170 329.081 C 143.854 328.358,144.774 326.839,145.214 325.704 C 145.654 324.568,146.478 323.049,147.046 322.326 C 149.024 319.810,149.083 319.178,147.133 321.399 M171.666 323.583 C 171.510 324.170,170.831 325.373,170.157 326.256 C 168.833 327.991,168.101 329.227,168.111 329.713 C 168.115 329.881,168.469 329.470,168.899 328.799 C 169.328 328.129,169.841 327.580,170.039 327.580 C 170.521 327.580,172.337 323.566,172.121 322.978 C 172.027 322.723,171.822 322.995,171.666 323.583 M263.686 325.285 C 262.110 327.030,261.432 328.201,261.641 328.820 C 261.725 329.067,262.092 328.677,262.458 327.955 C 262.824 327.233,263.642 326.095,264.275 325.428 C 264.909 324.760,265.336 324.122,265.224 324.011 C 265.112 323.899,264.420 324.473,263.686 325.285 M286.945 330.113 C 286.403 330.886,285.355 332.702,284.616 334.146 C 283.878 335.591,282.801 337.364,282.223 338.086 C 280.995 339.621,280.171 341.084,280.402 341.316 C 280.492 341.405,281.015 340.800,281.564 339.970 C 282.113 339.140,282.698 338.462,282.864 338.462 C 283.030 338.462,283.730 337.180,284.418 335.613 C 285.107 334.046,286.235 332.088,286.925 331.262 C 287.615 330.436,288.180 329.523,288.180 329.233 C 288.180 328.456,288.031 328.562,286.945 330.113 M260.942 330.395 C 260.812 330.912,260.210 331.752,259.604 332.262 C 258.428 333.251,257.413 334.911,257.419 335.835 C 257.421 336.144,257.800 335.785,258.261 335.035 C 258.722 334.286,259.648 332.952,260.319 332.071 C 260.990 331.190,261.538 330.241,261.538 329.962 C 261.538 329.136,261.195 329.385,260.942 330.395 M167.549 331.102 C 167.383 331.697,166.501 333.101,165.589 334.221 C 164.677 335.341,164.012 336.458,164.112 336.703 C 164.213 336.951,164.307 336.868,164.323 336.517 C 164.339 336.170,164.863 335.523,165.487 335.078 C 166.768 334.166,168.226 331.596,168.000 330.647 C 167.897 330.214,167.756 330.356,167.549 331.102 M140.190 333.468 C 140.045 333.921,139.174 335.259,138.255 336.442 C 137.337 337.625,136.592 338.943,136.600 339.371 C 136.613 340.021,136.714 339.963,137.208 339.024 C 137.534 338.405,138.183 337.477,138.651 336.961 C 139.743 335.756,140.802 333.660,140.607 333.089 C 140.524 332.845,140.336 333.016,140.190 333.468 M162.864 339.290 C 162.408 340.176,161.648 341.323,161.175 341.839 C 160.115 342.998,159.341 344.456,159.632 344.748 C 159.752 344.867,159.850 344.808,159.850 344.615 C 159.850 344.422,160.549 343.423,161.403 342.395 C 162.896 340.598,164.199 338.182,163.858 337.842 C 163.768 337.752,163.321 338.404,162.864 339.290 M255.640 339.306 C 254.448 340.602,253.285 342.693,253.293 343.527 C 253.297 344.002,253.558 343.709,254.003 342.729 C 254.390 341.878,254.894 341.065,255.123 340.923 C 255.530 340.671,256.809 338.462,256.548 338.462 C 256.475 338.462,256.067 338.841,255.640 339.306 M134.581 342.610 C 131.916 344.706,131.706 353.118,134.252 355.816 C 135.694 357.346,136.046 357.067,134.734 355.434 C 132.473 352.621,132.474 347.112,134.736 343.545 C 135.962 341.613,135.949 341.534,134.581 342.610 M279.081 344.110 C 278.513 345.131,277.884 345.966,277.683 345.966 C 277.482 345.966,277.045 346.494,276.712 347.138 C 276.108 348.306,276.111 348.305,277.596 346.857 C 279.092 345.397,280.447 343.199,280.229 342.583 C 280.165 342.402,279.648 343.089,279.081 344.110 M252.298 346.804 C 250.670 350.801,254.530 359.511,257.909 359.463 C 258.707 359.452,258.708 359.443,257.974 359.039 C 254.047 356.876,251.533 350.695,252.898 346.558 C 253.592 344.458,253.186 344.624,252.298 346.804 M158.946 345.966 C 158.782 346.482,158.190 347.495,157.630 348.218 C 155.936 350.405,155.789 350.756,156.864 350.056 C 158.000 349.316,159.581 346.578,159.387 345.686 C 159.275 345.169,159.181 345.229,158.946 345.966 M275.696 349.371 C 275.556 349.902,274.846 351.116,274.118 352.069 C 272.557 354.113,272.404 354.717,273.770 353.443 C 274.981 352.312,276.261 349.872,276.084 349.034 C 275.990 348.591,275.875 348.690,275.696 349.371 M154.625 353.403 C 154.378 353.998,153.129 355.608,151.848 356.980 C 150.567 358.352,149.639 359.475,149.785 359.475 C 150.398 359.475,154.666 354.884,155.034 353.829 C 155.552 352.344,155.211 351.988,154.625 353.403 M271.134 356.484 C 270.389 357.523,269.360 358.563,268.848 358.796 C 267.796 359.275,267.565 359.950,268.574 359.596 C 269.641 359.220,271.310 357.514,272.087 356.004 C 273.081 354.072,272.746 354.241,271.134 356.484 M136.157 357.874 C 136.565 358.637,138.018 359.705,138.248 359.411 C 138.301 359.343,137.752 358.782,137.028 358.164 C 135.914 357.214,135.780 357.169,136.157 357.874 M142.877 360.122 C 143.552 360.205,144.565 360.204,145.129 360.118 C 145.693 360.032,145.141 359.964,143.902 359.966 C 142.664 359.968,142.203 360.038,142.877 360.122 M262.008 360.119 C 262.575 360.205,263.504 360.205,264.071 360.119 C 264.639 360.033,264.174 359.962,263.039 359.962 C 261.904 359.962,261.440 360.033,262.008 360.119 " stroke="none" fill="#dbdcdc" fill-rule="evenodd"></path><path id="path3" d="M113.279 262.786 C 111.263 263.537,108.593 265.942,107.616 267.888 C 107.142 268.833,106.037 270.426,105.159 271.429 C 104.282 272.432,103.565 273.498,103.565 273.798 C 103.565 274.728,101.822 278.198,100.969 278.964 C 100.524 279.363,99.857 280.377,99.486 281.215 C 99.115 282.053,98.029 283.881,97.074 285.276 C 96.118 286.672,95.158 288.475,94.940 289.283 C 94.723 290.092,93.932 291.483,93.184 292.375 C 91.716 294.124,90.807 295.959,90.807 297.170 C 90.807 297.587,89.990 298.831,88.991 299.933 C 86.407 302.787,85.852 312.063,88.168 313.692 C 88.611 314.004,89.700 314.972,90.589 315.843 C 93.950 319.139,101.429 319.162,103.940 315.884 C 104.456 315.210,105.657 313.791,106.609 312.729 C 107.562 311.667,108.650 309.973,109.029 308.964 C 109.407 307.955,110.380 306.223,111.189 305.114 C 111.999 304.006,113.237 301.853,113.940 300.330 C 114.644 298.807,115.379 297.561,115.573 297.561 C 115.767 297.561,116.617 296.168,117.462 294.465 C 118.307 292.763,119.658 290.441,120.463 289.306 C 121.269 288.171,121.933 286.892,121.940 286.463 C 121.946 286.035,122.699 284.722,123.613 283.545 C 127.479 278.566,128.026 269.699,124.694 266.011 C 121.810 262.820,116.909 261.435,113.279 262.786 M228.641 265.133 C 225.321 268.540,224.929 269.108,224.200 271.563 C 223.890 272.607,223.159 273.944,222.575 274.535 C 221.159 275.969,220.099 277.850,219.477 280.032 C 219.167 281.120,218.614 282.057,218.074 282.411 C 217.584 282.732,216.673 284.120,216.050 285.494 C 215.427 286.868,214.508 288.479,214.007 289.074 C 212.841 290.461,211.632 292.829,211.632 293.726 C 211.632 294.110,211.043 295.112,210.323 295.954 C 208.842 297.684,207.130 300.886,207.128 301.931 C 207.127 302.313,206.621 303.386,206.003 304.315 C 203.970 307.373,204.147 309.676,206.645 312.663 C 207.379 313.541,208.146 314.623,208.349 315.067 C 208.945 316.373,212.034 317.819,214.773 318.075 C 219.604 318.526,223.326 316.623,225.467 312.606 C 226.122 311.376,227.253 309.658,227.980 308.789 C 229.565 306.891,229.816 306.442,230.615 304.078 C 230.954 303.074,231.716 301.745,232.306 301.126 C 232.897 300.507,233.908 299.000,234.552 297.778 C 235.197 296.555,236.295 294.724,236.994 293.709 C 237.692 292.694,238.446 291.185,238.670 290.355 C 238.893 289.526,239.456 288.486,239.921 288.045 C 240.877 287.137,243.152 283.069,243.152 282.267 C 243.152 281.977,243.721 281.036,244.416 280.176 C 246.364 277.764,246.529 277.232,246.529 273.358 C 246.529 269.068,246.431 268.845,243.090 265.529 C 240.134 262.596,239.385 262.312,234.561 262.298 L 231.412 262.289 228.641 265.133 M120.392 265.981 C 124.089 268.246,124.313 268.579,124.497 272.097 C 124.730 276.518,124.134 279.095,122.532 280.606 C 121.668 281.421,120.996 282.617,120.435 284.336 C 119.982 285.728,119.314 287.120,118.951 287.430 C 117.839 288.378,116.010 291.165,115.546 292.619 C 115.304 293.376,114.719 294.418,114.246 294.934 C 113.773 295.450,112.802 297.079,112.089 298.553 C 111.376 300.028,110.276 301.885,109.643 302.681 C 109.011 303.477,108.165 305.002,107.764 306.071 C 106.912 308.339,102.035 314.623,100.518 315.408 C 98.818 316.287,93.973 316.139,93.152 315.183 C 92.791 314.762,91.845 313.791,91.050 313.025 C 87.761 309.854,87.598 305.210,90.651 301.582 C 91.190 300.942,92.033 299.508,92.525 298.395 C 93.017 297.283,93.940 295.716,94.577 294.912 C 95.213 294.109,96.136 292.424,96.628 291.169 C 97.120 289.913,98.040 288.296,98.672 287.576 C 99.304 286.857,100.334 285.136,100.961 283.753 C 101.588 282.370,102.569 280.732,103.143 280.113 C 103.716 279.493,104.594 277.915,105.094 276.606 C 105.595 275.296,106.544 273.591,107.203 272.817 C 107.863 272.043,108.690 270.691,109.042 269.813 C 109.553 268.535,110.183 267.894,112.195 266.604 C 115.908 264.224,117.346 264.115,120.392 265.981 M237.942 265.433 C 239.842 266.112,243.509 269.054,243.779 270.116 C 244.554 273.163,242.057 280.646,238.815 284.991 C 238.353 285.610,237.444 287.295,236.795 288.735 C 236.147 290.176,235.298 291.695,234.909 292.112 C 234.519 292.529,233.620 294.087,232.909 295.573 C 232.198 297.059,231.146 298.832,230.571 299.513 C 229.996 300.194,229.113 301.679,228.610 302.814 C 228.106 303.949,227.141 305.637,226.465 306.566 C 225.788 307.495,224.784 309.217,224.232 310.393 C 223.600 311.739,222.922 312.628,222.403 312.793 C 221.948 312.938,221.022 313.661,220.344 314.401 C 217.600 317.397,212.221 316.272,209.482 312.131 C 207.589 309.269,208.367 302.858,211.024 299.420 C 211.735 298.501,212.756 296.657,213.293 295.324 C 213.831 293.990,214.678 292.470,215.175 291.947 C 215.672 291.423,216.682 289.667,217.418 288.045 C 218.154 286.423,219.242 284.542,219.836 283.866 C 220.429 283.191,221.364 281.461,221.914 280.022 C 222.464 278.583,223.349 277.002,223.880 276.508 C 224.412 276.014,225.251 274.700,225.746 273.588 C 228.486 267.434,233.729 263.928,237.942 265.433 M161.538 304.399 C 160.919 304.612,159.847 305.229,159.156 305.770 C 158.465 306.311,157.466 307.039,156.936 307.387 C 155.069 308.614,153.521 310.343,153.073 311.701 C 152.824 312.456,151.903 314.016,151.026 315.167 C 150.150 316.319,149.171 318.058,148.852 319.032 C 148.532 320.006,147.763 321.442,147.142 322.222 C 146.521 323.002,145.653 324.562,145.213 325.690 C 144.773 326.818,143.786 328.422,143.020 329.255 C 142.254 330.088,141.406 331.360,141.135 332.083 C 139.992 335.127,139.442 336.225,138.744 336.856 C 138.338 337.223,137.581 338.368,137.063 339.400 C 136.545 340.432,135.559 342.205,134.873 343.340 C 131.627 348.710,132.843 355.146,137.802 358.849 C 138.910 359.676,143.815 360.106,147.322 359.683 C 150.041 359.355,153.058 356.495,155.240 352.177 C 155.965 350.743,157.025 348.970,157.596 348.237 C 158.168 347.504,158.945 346.066,159.324 345.042 C 159.703 344.018,160.458 342.667,161.001 342.040 C 162.228 340.627,163.977 337.506,163.977 336.733 C 163.977 336.416,164.638 335.367,165.446 334.401 C 166.253 333.436,167.335 331.600,167.850 330.322 C 168.364 329.044,169.297 327.355,169.922 326.570 C 170.548 325.784,171.412 324.238,171.843 323.134 C 172.274 322.030,173.084 320.527,173.643 319.794 C 177.930 314.173,168.390 302.039,161.538 304.399 M279.174 304.856 C 276.150 306.433,271.392 311.687,270.082 314.895 C 269.635 315.990,268.733 317.600,268.077 318.474 C 267.421 319.347,266.500 321.036,266.030 322.226 C 265.560 323.416,264.723 324.897,264.169 325.516 C 262.955 326.873,261.747 328.949,261.426 330.228 C 261.297 330.743,260.592 331.864,259.861 332.719 C 259.129 333.574,257.855 335.680,257.030 337.399 C 256.204 339.119,255.129 341.067,254.641 341.730 C 250.645 347.152,252.847 356.861,258.618 359.268 C 260.669 360.123,266.144 360.042,268.161 359.127 C 269.513 358.513,272.795 354.889,272.795 354.010 C 272.795 353.876,273.282 353.151,273.876 352.399 C 274.471 351.647,275.473 349.892,276.104 348.499 C 276.735 347.106,277.417 345.966,277.619 345.966 C 278.129 345.966,279.485 343.693,280.290 341.490 C 280.660 340.480,281.482 339.006,282.118 338.214 C 282.753 337.421,283.877 335.591,284.615 334.146 C 285.353 332.702,286.544 330.675,287.262 329.644 C 287.980 328.612,288.722 327.212,288.910 326.534 C 289.099 325.855,289.783 324.696,290.430 323.959 C 292.157 321.993,292.308 321.304,292.302 315.454 C 292.295 309.333,292.522 309.925,289.118 307.126 C 284.937 303.687,282.487 303.128,279.174 304.856 M286.930 308.831 C 290.525 311.049,290.807 311.584,290.807 316.190 C 290.807 319.239,290.772 319.361,289.501 320.767 C 288.783 321.562,287.579 323.461,286.825 324.986 C 286.071 326.512,285.069 328.268,284.598 328.890 C 284.128 329.511,283.309 331.004,282.778 332.208 C 282.248 333.412,281.364 334.932,280.813 335.585 C 280.262 336.239,279.326 337.854,278.733 339.175 C 278.139 340.496,277.086 342.354,276.393 343.303 C 275.699 344.252,274.608 346.126,273.969 347.467 C 273.329 348.809,272.255 350.614,271.581 351.479 C 270.908 352.344,269.892 353.740,269.324 354.581 C 265.130 360.790,254.784 357.266,254.784 349.628 C 254.784 346.765,255.509 344.678,257.521 341.742 C 258.477 340.347,259.461 338.531,259.708 337.705 C 259.956 336.880,260.686 335.573,261.331 334.800 C 261.976 334.028,262.953 332.510,263.503 331.427 C 264.053 330.344,264.998 328.824,265.603 328.050 C 266.208 327.275,267.012 325.805,267.390 324.783 C 267.768 323.761,268.654 322.169,269.359 321.246 C 270.718 319.465,272.023 316.883,272.037 315.947 C 272.041 315.637,272.794 314.578,273.710 313.595 C 274.626 312.611,275.485 311.461,275.619 311.039 C 275.753 310.617,276.988 309.534,278.363 308.633 C 281.844 306.351,282.952 306.377,286.930 308.831 M167.170 308.500 C 170.450 310.066,170.892 310.903,170.907 315.572 C 170.921 319.655,169.963 322.812,168.117 324.765 C 167.532 325.385,166.528 327.137,165.886 328.661 C 165.245 330.184,164.222 331.997,163.614 332.689 C 163.006 333.382,162.335 334.593,162.123 335.381 C 161.910 336.168,161.156 337.492,160.446 338.322 C 159.735 339.151,158.577 341.000,157.872 342.429 C 157.166 343.859,155.990 345.906,155.256 346.979 C 154.523 348.051,153.618 349.728,153.245 350.704 C 152.873 351.680,151.842 353.204,150.956 354.090 C 150.069 354.977,149.343 355.954,149.343 356.262 C 149.343 357.555,143.458 358.354,140.273 357.494 C 136.956 356.599,134.667 349.904,136.490 346.430 C 137.111 345.246,137.980 343.214,138.421 341.914 C 138.914 340.463,139.715 339.060,140.496 338.279 C 141.646 337.128,143.340 333.568,143.340 332.299 C 143.340 332.021,143.766 331.514,144.288 331.172 C 144.810 330.830,145.705 329.587,146.278 328.409 C 146.851 327.230,147.929 325.470,148.675 324.497 C 149.420 323.524,150.386 321.777,150.821 320.614 C 151.256 319.452,152.261 317.716,153.056 316.755 C 153.850 315.795,154.804 314.165,155.176 313.133 C 156.077 310.631,156.252 310.442,158.889 309.107 C 163.107 306.974,163.860 306.918,167.170 308.500 " stroke="none" fill="#a7e4f3" fill-rule="evenodd"></path></g></svg>