<svg id="svg" version="1.1" xmlns="http://www.w3.org/2000/svg" xmlns:xlink="http://www.w3.org/1999/xlink" width="400" height="400" viewBox="0, 0, 400,400"><g id="svgg"><path id="path0" d="M262.000 93.181 C 260.790 93.345,258.540 93.687,257.000 93.941 C 253.380 94.536,247.535 95.485,243.037 96.206 C 241.078 96.520,238.648 97.043,237.637 97.368 C 236.627 97.692,234.903 98.084,233.807 98.238 C 232.710 98.393,231.270 98.742,230.607 99.015 C 229.943 99.288,228.410 99.643,227.200 99.803 C 225.990 99.964,224.370 100.339,223.600 100.637 C 222.830 100.935,221.030 101.430,219.600 101.737 C 216.025 102.504,211.862 103.548,209.000 104.394 C 205.814 105.335,198.156 107.334,192.000 108.831 C 186.294 110.218,183.790 110.889,181.498 111.643 C 180.233 112.059,178.770 112.400,178.247 112.400 C 177.725 112.400,176.639 112.675,175.834 113.012 C 175.028 113.348,173.161 113.868,171.685 114.167 C 168.184 114.875,164.107 115.841,160.508 116.817 C 158.918 117.247,156.916 117.600,156.059 117.600 C 155.202 117.600,153.713 117.879,152.750 118.221 C 151.788 118.562,149.200 119.103,147.000 119.423 C 144.800 119.743,142.280 120.184,141.400 120.404 C 134.820 122.049,110.301 121.678,103.400 119.829 C 99.057 118.666,95.341 117.344,94.236 116.570 C 93.788 116.257,93.187 116.000,92.899 116.000 C 90.770 116.000,82.427 109.391,77.025 103.424 L 73.851 99.918 71.121 100.072 C 66.385 100.340,64.463 104.036,67.065 107.875 C 70.099 112.354,78.270 120.142,82.400 122.492 C 87.981 125.669,94.167 128.284,98.400 129.258 C 99.390 129.485,101.730 130.039,103.600 130.489 C 110.252 132.089,135.668 131.912,144.535 130.204 C 146.260 129.872,148.616 129.600,149.773 129.600 C 150.929 129.600,152.848 129.266,154.037 128.858 C 155.227 128.450,157.100 127.996,158.200 127.849 C 160.190 127.582,164.676 126.602,170.400 125.183 C 172.050 124.774,175.252 123.981,177.516 123.420 C 179.780 122.859,182.070 122.400,182.605 122.400 C 183.141 122.400,184.348 122.053,185.289 121.629 C 186.230 121.204,188.170 120.565,189.600 120.209 C 191.030 119.852,193.550 119.221,195.200 118.807 C 196.850 118.392,199.370 117.769,200.800 117.421 C 205.226 116.346,209.686 115.169,212.400 114.362 C 213.830 113.936,215.180 113.594,215.400 113.600 C 215.620 113.606,216.970 113.254,218.400 112.817 C 222.137 111.675,229.085 110.000,230.088 110.000 C 230.558 110.000,232.126 109.648,233.572 109.218 C 237.348 108.094,240.802 107.295,245.640 106.425 C 247.972 106.006,250.582 105.486,251.440 105.269 C 252.298 105.052,254.350 104.761,256.000 104.623 C 257.650 104.484,260.440 104.073,262.200 103.708 C 266.882 102.739,287.914 102.707,291.400 103.665 C 292.720 104.027,294.700 104.447,295.800 104.598 C 296.900 104.749,298.610 105.187,299.600 105.573 C 300.590 105.958,302.390 106.594,303.600 106.985 C 304.810 107.377,307.116 108.440,308.725 109.349 C 310.333 110.257,312.133 111.252,312.725 111.561 C 316.203 113.376,324.097 121.234,327.000 125.773 C 330.415 131.111,337.600 129.945,337.600 124.051 C 337.600 119.978,327.645 108.100,320.200 103.289 C 312.987 98.629,305.271 95.381,299.110 94.411 C 297.631 94.178,295.921 93.776,295.310 93.517 C 294.026 92.973,265.641 92.686,262.000 93.181 M198.840 147.107 C 193.375 160.163,189.628 167.786,184.577 176.124 C 183.270 178.282,181.750 180.813,181.200 181.747 C 180.650 182.682,179.397 184.696,178.415 186.223 C 177.433 187.750,176.353 189.492,176.015 190.094 C 175.677 190.696,174.043 193.576,172.386 196.494 C 166.613 206.655,165.800 209.358,165.800 218.400 C 165.800 235.010,175.338 246.611,192.592 250.988 C 199.654 252.779,210.810 251.094,215.554 247.519 C 216.079 247.123,216.719 246.800,216.976 246.800 C 218.716 246.800,226.222 238.837,228.904 234.147 C 232.404 228.026,232.600 227.170,232.600 218.000 C 232.600 208.354,232.180 206.942,225.989 195.800 C 225.256 194.480,224.362 192.860,224.003 192.200 C 223.644 191.540,222.957 190.370,222.477 189.600 C 221.996 188.830,221.602 187.626,221.601 186.924 C 221.601 186.222,221.436 185.546,221.235 185.422 C 221.034 185.298,220.089 183.829,219.135 182.157 C 218.181 180.486,217.040 178.521,216.600 177.791 C 216.160 177.061,214.754 174.605,213.476 172.332 C 212.198 170.059,210.986 167.930,210.782 167.600 C 209.488 165.504,204.186 154.191,201.362 147.500 C 199.987 144.243,200.036 144.251,198.840 147.107 M201.719 172.955 C 202.204 173.480,203.199 175.055,203.930 176.455 C 204.662 177.855,205.742 179.827,206.330 180.837 C 208.660 184.840,209.755 186.660,210.638 188.000 C 211.145 188.770,211.704 189.760,211.880 190.200 C 212.056 190.640,212.906 192.080,213.770 193.400 C 216.657 197.814,217.093 198.581,218.897 202.400 C 223.552 212.255,224.333 216.064,222.998 222.411 C 221.511 229.479,216.725 235.408,209.719 238.863 L 206.361 240.519 200.081 240.559 L 193.800 240.599 190.342 238.894 C 180.297 233.939,174.855 223.124,177.227 212.832 C 177.612 211.161,182.488 200.863,184.533 197.400 C 185.053 196.520,186.134 194.660,186.936 193.267 C 187.738 191.874,188.755 190.275,189.197 189.713 C 189.639 189.152,190.000 188.468,190.000 188.195 C 190.000 187.922,190.264 187.479,190.587 187.211 C 190.909 186.943,193.024 183.416,195.287 179.373 C 199.667 171.545,200.058 171.155,201.719 172.955 M264.600 180.406 C 262.840 180.598,260.680 180.942,259.800 181.169 C 258.920 181.395,256.850 181.591,255.200 181.602 C 248.358 181.651,244.286 184.122,246.571 186.839 C 247.137 187.511,247.600 188.397,247.600 188.807 C 247.600 189.217,247.783 189.666,248.006 189.804 C 248.229 189.941,248.773 190.762,249.214 191.627 C 250.126 193.416,251.374 193.668,254.267 192.647 C 255.129 192.343,258.706 191.883,262.217 191.625 C 265.728 191.368,269.680 190.988,271.000 190.781 C 277.710 189.732,293.745 191.774,301.600 194.678 C 310.249 197.875,319.607 205.057,325.078 212.697 C 327.981 216.751,330.790 217.881,334.154 216.348 C 336.511 215.274,336.622 210.726,334.382 207.029 C 332.556 204.016,323.388 194.463,320.510 192.576 C 319.240 191.742,317.723 190.668,317.139 190.189 C 316.073 189.313,309.082 185.775,307.205 185.161 C 306.652 184.980,304.400 184.180,302.200 183.382 C 299.779 182.504,296.937 181.798,295.000 181.594 C 293.240 181.409,291.170 181.056,290.400 180.810 C 288.616 180.240,268.928 179.932,264.600 180.406 M65.814 188.441 C 63.878 190.142,63.772 193.253,65.555 196.064 C 68.207 200.246,75.560 207.212,80.270 210.005 C 81.111 210.504,82.430 211.327,83.200 211.834 C 83.970 212.341,86.040 213.318,87.800 214.006 C 89.560 214.694,91.548 215.505,92.217 215.808 C 92.886 216.111,94.146 216.542,95.017 216.766 C 105.595 219.491,107.418 219.732,118.806 219.909 C 125.239 220.009,130.119 219.899,132.006 219.613 C 133.653 219.362,136.828 218.933,139.061 218.660 C 143.537 218.111,144.400 217.671,144.400 215.934 C 144.400 215.292,144.679 213.415,145.020 211.763 C 145.961 207.211,145.282 206.242,141.974 207.409 C 140.977 207.761,137.610 208.197,134.207 208.416 C 130.903 208.628,127.120 208.980,125.800 209.198 C 122.715 209.709,116.699 209.712,114.024 209.205 C 112.878 208.987,109.954 208.622,107.528 208.393 C 105.101 208.164,102.640 207.734,102.058 207.436 C 101.476 207.138,100.190 206.765,99.200 206.606 C 98.210 206.447,96.860 206.079,96.200 205.788 C 95.540 205.498,93.873 204.816,92.496 204.275 C 86.770 202.022,79.737 196.812,75.485 191.673 C 71.474 186.825,68.708 185.901,65.814 188.441 M262.386 268.814 C 259.408 268.975,255.628 269.389,253.986 269.733 C 252.344 270.077,249.740 270.473,248.200 270.612 C 246.660 270.750,244.061 271.209,242.425 271.632 C 240.788 272.054,239.078 272.398,238.625 272.395 C 237.910 272.391,235.481 272.916,227.200 274.864 C 226.210 275.097,223.870 275.647,222.000 276.088 C 213.062 278.192,209.758 279.051,205.400 280.402 C 204.080 280.812,200.930 281.631,198.400 282.224 C 195.870 282.817,192.764 283.639,191.498 284.051 C 190.233 284.463,188.844 284.800,188.413 284.800 C 187.983 284.800,186.678 285.140,185.515 285.554 C 183.416 286.303,180.965 286.971,175.200 288.365 C 173.550 288.764,171.390 289.297,170.400 289.549 C 163.094 291.409,157.286 292.750,153.000 293.566 C 150.800 293.984,148.730 294.434,148.400 294.564 C 148.070 294.695,145.280 295.166,142.200 295.611 C 139.120 296.056,135.359 296.609,133.843 296.839 C 129.098 297.559,105.628 297.112,102.000 296.232 C 98.139 295.296,91.521 293.232,91.002 292.802 C 90.781 292.619,89.340 291.802,87.800 290.985 C 83.237 288.565,81.656 287.318,76.400 281.989 C 70.752 276.262,70.375 276.000,67.779 276.000 C 64.699 276.000,62.336 278.832,62.789 281.980 C 63.110 284.219,72.599 294.211,77.350 297.316 C 83.909 301.601,84.470 301.876,91.400 304.209 C 97.478 306.255,101.079 307.131,104.600 307.420 C 106.360 307.564,109.150 307.934,110.800 308.241 C 114.653 308.959,122.789 308.955,127.400 308.234 C 129.380 307.924,132.620 307.555,134.600 307.414 C 138.043 307.169,143.709 306.290,150.600 304.930 C 152.360 304.583,154.880 304.133,156.200 303.929 C 157.520 303.726,159.320 303.379,160.200 303.158 C 161.080 302.937,163.240 302.429,165.000 302.030 C 170.215 300.847,179.620 298.434,182.200 297.616 C 183.520 297.198,185.230 296.739,186.000 296.595 C 186.770 296.452,188.480 296.007,189.800 295.605 C 193.155 294.584,198.783 293.026,202.800 292.005 C 204.670 291.530,207.383 290.795,208.828 290.371 C 210.274 289.947,211.984 289.599,212.628 289.598 C 213.273 289.596,214.318 289.325,214.950 288.995 C 216.231 288.327,220.796 287.096,226.088 285.990 C 228.007 285.589,229.757 285.150,229.977 285.014 C 230.198 284.878,231.778 284.505,233.489 284.186 C 235.200 283.866,237.584 283.334,238.787 283.002 C 239.990 282.671,241.632 282.400,242.437 282.400 C 243.241 282.400,244.687 282.120,245.650 281.779 C 246.612 281.437,249.830 280.802,252.800 280.368 C 270.013 277.854,290.632 278.474,297.032 281.698 C 297.674 282.021,298.740 282.390,299.400 282.517 C 301.612 282.944,308.967 286.695,311.409 288.641 C 316.266 292.511,321.532 298.161,324.132 302.289 C 327.366 307.423,334.000 305.842,334.000 299.937 C 334.000 295.157,322.467 282.067,314.486 277.788 C 313.449 277.232,311.699 276.287,310.598 275.689 C 308.344 274.462,303.246 272.400,302.470 272.400 C 302.190 272.400,301.417 272.119,300.752 271.775 C 295.719 269.172,279.261 267.902,262.386 268.814 " stroke="none" fill="#141414" fill-rule="evenodd"></path><path id="path1" d="M267.200 91.195 C 266.430 91.378,263.570 91.728,260.844 91.972 C 258.118 92.216,254.698 92.671,253.244 92.982 C 251.790 93.293,249.700 93.657,248.600 93.791 C 246.518 94.044,243.353 94.678,231.600 97.192 C 229.730 97.592,226.040 98.497,223.400 99.203 C 220.760 99.909,217.790 100.634,216.800 100.814 C 215.810 100.994,214.280 101.398,213.400 101.712 C 212.520 102.026,211.080 102.408,210.200 102.561 C 209.320 102.713,207.520 103.181,206.200 103.601 C 203.665 104.406,200.052 105.367,196.400 106.206 C 193.231 106.934,189.390 107.925,186.400 108.786 C 183.568 109.602,178.889 110.827,174.800 111.823 C 173.370 112.171,170.850 112.786,169.200 113.190 C 162.646 114.793,153.683 116.739,151.600 117.011 C 150.390 117.170,148.981 117.458,148.470 117.651 C 147.958 117.845,145.798 118.185,143.670 118.407 C 141.541 118.629,138.180 119.098,136.200 119.449 C 131.796 120.230,113.011 120.336,109.800 119.598 C 108.700 119.345,106.450 118.899,104.800 118.607 C 94.725 116.823,86.115 111.632,77.933 102.406 C 73.857 97.811,71.180 97.083,67.311 99.518 C 66.417 100.081,64.400 103.838,64.400 104.941 C 64.400 108.496,74.819 119.831,81.400 123.436 C 81.840 123.677,82.830 124.240,83.600 124.686 C 89.791 128.276,98.949 131.464,105.202 132.208 C 106.411 132.351,108.815 132.723,110.544 133.034 C 114.797 133.799,128.766 133.793,133.704 133.025 C 135.737 132.708,138.840 132.334,140.600 132.194 C 144.676 131.870,152.101 130.667,158.000 129.375 C 160.530 128.821,164.310 127.997,166.400 127.544 C 175.797 125.507,187.691 122.541,193.000 120.910 C 194.100 120.572,196.440 119.950,198.200 119.528 C 206.151 117.621,208.023 117.147,211.400 116.183 C 213.380 115.618,216.493 114.812,218.317 114.391 C 220.141 113.970,221.847 113.494,222.108 113.333 C 222.368 113.172,223.666 112.824,224.991 112.559 C 228.111 111.935,232.238 110.964,236.000 109.968 C 237.650 109.532,240.062 109.005,241.360 108.798 C 242.658 108.592,244.278 108.248,244.960 108.034 C 245.642 107.821,247.640 107.441,249.400 107.191 C 251.160 106.941,253.680 106.492,255.000 106.193 C 265.512 103.812,290.759 104.060,298.200 106.617 C 303.713 108.511,304.866 108.981,308.200 110.694 C 314.554 113.958,321.428 119.950,325.104 125.430 C 329.341 131.745,335.621 132.472,338.072 126.931 C 339.868 122.870,338.424 119.360,332.004 112.183 C 331.012 111.074,329.820 109.724,329.356 109.183 C 322.304 100.968,307.352 93.822,292.800 91.713 C 287.727 90.977,269.646 90.612,267.200 91.195 M292.200 92.423 C 306.845 94.109,318.850 99.892,329.002 110.151 C 336.862 118.094,339.338 122.763,337.680 126.512 C 335.505 131.429,330.076 131.195,326.447 126.029 C 311.046 104.104,285.940 98.691,242.200 107.862 C 239.560 108.415,236.590 109.114,235.600 109.416 C 234.610 109.717,232.360 110.239,230.600 110.577 C 228.840 110.914,224.340 112.007,220.600 113.005 C 210.956 115.579,200.311 118.345,196.800 119.188 C 195.150 119.584,191.730 120.489,189.200 121.198 C 182.081 123.195,178.827 124.033,175.988 124.602 C 174.552 124.891,172.392 125.392,171.188 125.717 C 169.985 126.041,166.750 126.781,164.000 127.360 C 161.250 127.939,157.830 128.678,156.400 129.002 C 154.970 129.326,151.910 129.866,149.600 130.202 C 147.290 130.537,145.146 130.905,144.837 131.018 C 137.026 133.870,101.831 132.535,95.501 129.147 C 95.081 128.922,93.806 128.465,92.669 128.132 C 82.828 125.248,67.373 112.699,65.644 106.187 C 64.515 101.935,68.240 98.217,72.636 99.208 C 73.758 99.461,75.220 100.701,79.336 104.889 C 88.039 113.746,95.565 117.748,107.928 120.093 C 111.569 120.784,134.528 120.795,137.600 120.108 C 138.810 119.837,141.780 119.346,144.200 119.016 C 149.644 118.275,159.024 116.386,169.800 113.861 C 171.120 113.551,174.360 112.718,177.000 112.008 C 179.640 111.299,183.060 110.395,184.600 109.999 C 186.140 109.603,191.900 108.111,197.400 106.682 C 252.629 92.339,269.467 89.806,292.200 92.423 M198.273 144.900 C 197.711 146.055,196.630 148.530,195.871 150.400 C 195.111 152.270,194.201 154.340,193.848 155.000 C 193.494 155.660,193.204 156.348,193.202 156.528 C 193.196 157.414,186.259 170.825,183.953 174.412 C 182.622 176.481,177.636 184.644,175.715 187.900 C 175.228 188.725,174.453 190.030,173.992 190.800 C 171.846 194.383,170.739 196.332,169.956 197.905 C 169.489 198.843,168.948 199.709,168.754 199.829 C 168.559 199.949,168.400 200.372,168.400 200.770 C 168.400 201.167,168.081 201.921,167.690 202.446 C 165.858 204.908,163.273 216.502,163.722 220.243 C 164.320 225.215,166.057 231.218,167.587 233.600 C 167.940 234.150,168.487 235.111,168.802 235.736 C 170.611 239.327,176.812 245.607,181.000 248.089 C 195.407 256.630,213.532 254.065,225.090 241.850 C 227.575 239.224,231.600 233.159,231.600 232.041 C 231.600 231.783,231.857 231.173,232.171 230.686 C 232.485 230.199,233.235 227.820,233.837 225.400 C 236.333 215.370,234.570 208.043,226.062 193.079 C 224.536 190.395,223.003 187.199,222.654 185.974 C 222.306 184.750,221.507 183.040,220.880 182.174 C 220.252 181.307,219.483 180.131,219.169 179.561 C 217.808 177.079,216.130 174.214,215.248 172.866 C 213.627 170.390,205.643 154.213,204.653 151.400 C 204.343 150.520,203.344 148.225,202.433 146.300 C 200.418 142.042,199.769 141.823,198.273 144.900 M203.328 150.100 C 208.631 162.448,211.179 167.421,218.127 178.981 C 220.104 182.270,221.885 185.690,222.085 186.581 C 222.285 187.471,223.584 190.180,224.972 192.600 C 230.665 202.525,232.653 207.130,233.432 212.200 C 238.661 246.214,197.221 266.300,173.789 241.108 C 162.234 228.684,161.712 213.198,172.244 195.200 C 176.451 188.011,179.248 183.353,181.011 180.600 C 184.026 175.893,189.684 165.873,191.402 162.200 C 193.269 158.207,197.172 149.357,198.413 146.300 C 199.870 142.713,200.298 143.043,203.328 150.100 M199.292 173.900 C 198.873 174.505,197.757 176.440,196.812 178.200 C 195.380 180.867,193.009 184.820,189.254 190.800 C 180.990 203.961,177.594 211.867,177.606 217.920 C 177.652 241.690,209.899 248.846,220.421 227.422 C 224.726 218.657,222.580 208.039,213.788 194.600 C 211.987 191.846,208.384 185.771,204.774 179.400 C 201.907 174.340,200.887 172.800,200.400 172.800 C 200.210 172.800,199.711 173.295,199.292 173.900 M201.291 174.700 C 201.629 175.085,202.043 175.850,202.210 176.400 C 202.378 176.950,202.915 177.940,203.403 178.600 C 203.892 179.260,205.137 181.330,206.171 183.200 C 207.204 185.070,208.576 187.410,209.219 188.400 C 209.861 189.390,210.615 190.650,210.894 191.200 C 211.172 191.750,212.168 193.370,213.107 194.800 C 214.981 197.654,219.397 206.446,220.815 210.144 C 222.889 215.556,221.938 224.196,218.696 229.396 C 210.141 243.116,189.268 242.767,181.074 228.766 C 178.526 224.411,177.537 215.341,179.209 211.656 C 179.644 210.697,180.000 209.757,180.000 209.567 C 180.000 209.377,180.608 208.001,181.351 206.511 C 182.095 205.020,183.362 202.475,184.167 200.856 C 184.973 199.237,186.345 196.839,187.216 195.528 C 188.087 194.216,188.800 193.062,188.800 192.963 C 188.800 192.791,189.357 191.886,192.226 187.400 C 193.945 184.711,195.197 182.539,197.698 177.906 C 199.878 173.867,200.260 173.526,201.291 174.700 M261.932 179.232 C 259.805 179.408,257.375 179.737,256.532 179.964 C 255.690 180.190,253.200 180.574,251.000 180.817 C 243.788 181.614,242.501 182.774,244.809 186.400 C 245.439 187.390,246.443 189.245,247.041 190.522 C 248.946 194.589,249.949 194.913,257.200 193.805 C 267.055 192.300,287.787 191.995,290.800 193.312 C 291.570 193.649,293.100 194.046,294.200 194.195 C 296.131 194.458,302.363 196.351,303.866 197.132 C 304.270 197.342,305.770 198.093,307.200 198.800 C 312.954 201.647,317.388 205.437,322.998 212.305 C 327.576 217.908,329.773 219.515,331.962 218.859 C 335.297 217.860,338.000 214.876,338.000 212.196 C 338.000 208.659,327.291 194.916,322.200 191.920 C 321.100 191.272,319.480 190.217,318.600 189.575 C 316.832 188.285,316.273 187.965,312.200 185.910 C 307.240 183.408,299.905 180.800,297.826 180.800 C 297.317 180.800,296.113 180.522,295.151 180.183 C 291.624 178.938,272.203 178.382,261.932 179.232 M283.400 179.584 C 305.972 180.818,321.964 189.108,334.517 206.082 C 338.147 210.990,337.836 215.246,333.701 217.248 C 330.482 218.806,328.375 217.913,325.013 213.568 C 312.715 197.673,299.317 191.755,275.800 191.829 C 266.070 191.860,259.499 192.358,254.142 193.470 C 249.911 194.349,249.684 194.194,246.661 188.394 C 244.657 184.550,244.402 183.826,244.881 183.347 C 246.164 182.065,258.499 180.031,267.600 179.602 C 275.880 179.211,276.552 179.210,283.400 179.584 M66.196 186.556 C 59.497 189.475,62.977 198.293,74.400 207.345 C 83.511 214.566,90.032 217.421,104.400 220.482 C 112.092 222.120,141.763 220.748,145.051 218.601 C 146.337 217.762,147.177 207.413,146.051 206.294 C 145.364 205.612,140.323 205.805,136.915 206.644 C 124.900 209.601,98.443 206.765,90.000 201.615 C 83.752 197.803,82.585 196.870,77.473 191.603 L 72.036 186.000 69.718 186.016 C 68.443 186.024,66.858 186.267,66.196 186.556 M77.000 192.163 C 85.212 200.553,91.117 203.968,102.234 206.759 C 110.454 208.823,129.762 208.933,139.996 206.975 C 145.773 205.869,146.212 206.183,145.818 211.132 C 145.204 218.834,145.596 218.419,137.800 219.616 C 132.573 220.419,111.719 220.840,107.600 220.227 C 90.112 217.620,77.338 211.105,67.623 199.838 C 62.362 193.736,62.132 189.122,66.980 186.947 C 69.934 185.621,71.283 186.323,77.000 192.163 M260.800 267.377 C 256.290 267.885,251.160 268.580,249.400 268.920 C 247.640 269.260,245.390 269.644,244.400 269.773 C 243.410 269.902,240.980 270.357,239.000 270.783 C 237.020 271.210,233.510 271.959,231.200 272.448 C 228.890 272.937,224.570 273.956,221.600 274.712 C 218.630 275.467,214.850 276.406,213.200 276.798 C 207.987 278.035,203.426 279.281,202.681 279.671 C 202.286 279.878,201.026 280.218,199.881 280.427 C 198.737 280.635,195.820 281.354,193.400 282.024 C 190.980 282.695,187.650 283.585,186.000 284.003 C 184.350 284.422,181.290 285.241,179.200 285.825 C 177.110 286.409,173.960 287.216,172.200 287.618 C 170.440 288.020,167.560 288.704,165.800 289.138 C 164.040 289.573,161.340 290.225,159.800 290.589 C 158.260 290.952,155.830 291.530,154.400 291.874 C 152.970 292.217,150.540 292.649,149.000 292.833 C 147.460 293.018,145.120 293.437,143.800 293.764 C 141.663 294.295,136.966 294.947,127.600 296.015 C 123.663 296.464,113.690 296.467,110.400 296.021 C 101.362 294.796,93.071 292.549,89.600 290.386 C 89.270 290.180,88.460 289.766,87.800 289.465 C 85.240 288.299,77.981 282.651,76.579 280.734 C 72.441 275.077,71.109 274.153,67.570 274.493 C 61.907 275.037,59.698 280.660,63.256 285.476 C 79.228 307.097,110.232 314.985,148.097 307.062 C 149.694 306.728,152.080 306.251,153.400 306.003 C 154.720 305.754,157.780 305.101,160.200 304.550 C 162.620 304.000,166.180 303.204,168.112 302.783 C 170.043 302.361,171.933 301.853,172.312 301.654 C 172.690 301.456,173.810 301.171,174.800 301.021 C 175.790 300.872,177.410 300.493,178.400 300.179 C 179.390 299.865,181.280 299.338,182.600 299.007 C 183.920 298.676,186.620 297.943,188.600 297.377 C 190.580 296.812,193.307 296.093,194.659 295.780 C 196.012 295.467,197.629 295.017,198.253 294.780 C 198.878 294.542,200.471 294.096,201.794 293.789 C 203.117 293.481,205.910 292.760,208.000 292.188 C 214.649 290.365,217.721 289.560,220.810 288.832 C 222.466 288.441,224.446 287.920,225.210 287.674 C 230.054 286.113,249.691 282.250,257.200 281.380 C 268.712 280.046,270.817 279.915,277.200 280.135 C 297.359 280.829,311.352 287.117,320.518 299.600 C 323.969 304.300,324.420 304.794,326.002 305.601 C 331.305 308.306,337.282 303.857,335.652 298.417 C 334.378 294.163,325.436 283.850,318.720 278.889 C 313.586 275.096,305.925 271.717,296.356 269.026 C 287.785 266.615,273.459 265.951,260.800 267.377 M284.200 268.032 C 302.132 269.370,316.459 275.893,327.384 287.693 C 333.246 294.024,335.644 298.473,334.825 301.500 C 333.134 307.758,327.050 307.544,322.527 301.066 C 306.381 277.942,279.583 273.922,226.400 286.646 C 222.330 287.620,217.830 288.750,216.400 289.157 C 214.970 289.565,212.360 290.278,210.600 290.742 C 206.036 291.946,191.220 295.940,187.200 297.050 C 181.650 298.583,169.655 301.636,166.000 302.447 C 164.130 302.861,162.330 303.303,162.000 303.428 C 159.644 304.322,142.140 307.344,133.200 308.400 C 101.970 312.090,75.440 303.071,63.590 284.736 C 60.445 279.871,62.773 275.200,68.343 275.200 L 70.568 275.200 75.584 280.332 C 88.061 293.096,97.395 296.593,119.000 296.597 C 131.302 296.599,132.396 296.508,143.600 294.535 C 145.470 294.206,148.068 293.769,149.374 293.564 C 153.830 292.864,170.166 288.920,187.400 284.383 C 188.940 283.978,193.260 282.844,197.000 281.864 C 200.740 280.884,205.870 279.505,208.400 278.800 C 228.064 273.321,250.953 268.862,263.800 268.009 C 274.691 267.286,274.196 267.285,284.200 268.032 " stroke="none" fill="#a2a2a2" fill-rule="evenodd"></path><path id="path2" d="M275.717 91.897 C 277.211 91.974,279.551 91.974,280.917 91.896 C 282.282 91.818,281.060 91.755,278.200 91.755 C 275.340 91.756,274.222 91.820,275.717 91.897 M266.500 92.276 C 266.885 92.376,267.515 92.376,267.900 92.276 C 268.285 92.175,267.970 92.093,267.200 92.093 C 266.430 92.093,266.115 92.175,266.500 92.276 M287.905 92.283 C 288.402 92.379,289.122 92.375,289.505 92.275 C 289.887 92.175,289.480 92.096,288.600 92.101 C 287.720 92.105,287.407 92.187,287.905 92.283 M286.500 103.876 C 286.885 103.976,287.515 103.976,287.900 103.876 C 288.285 103.775,287.970 103.693,287.200 103.693 C 286.430 103.693,286.115 103.775,286.500 103.876 M325.200 106.525 C 325.200 106.594,325.785 107.179,326.500 107.825 L 327.800 109.000 326.625 107.700 C 325.530 106.488,325.200 106.216,325.200 106.525 M330.200 111.600 C 331.059 112.480,331.852 113.200,331.962 113.200 C 332.072 113.200,331.459 112.480,330.600 111.600 C 329.741 110.720,328.948 110.000,328.838 110.000 C 328.728 110.000,329.341 110.720,330.200 111.600 M72.400 115.400 C 73.595 116.610,74.663 117.600,74.773 117.600 C 74.883 117.600,73.995 116.610,72.800 115.400 C 71.605 114.190,70.537 113.200,70.427 113.200 C 70.317 113.200,71.205 114.190,72.400 115.400 M317.200 115.710 C 317.200 115.771,318.595 117.166,320.300 118.810 L 323.400 121.800 320.410 118.700 C 317.633 115.821,317.200 115.417,317.200 115.710 M137.800 120.010 C 137.266 120.247,137.598 120.286,138.800 120.127 C 139.790 119.996,140.675 119.824,140.767 119.744 C 141.114 119.443,138.564 119.672,137.800 120.010 M110.900 120.676 C 111.285 120.776,111.915 120.776,112.300 120.676 C 112.685 120.575,112.370 120.493,111.600 120.493 C 110.830 120.493,110.515 120.575,110.900 120.676 M338.093 124.000 C 338.093 124.770,338.175 125.085,338.276 124.700 C 338.376 124.315,338.376 123.685,338.276 123.300 C 338.175 122.915,338.093 123.230,338.093 124.000 M112.105 132.287 C 112.714 132.379,113.614 132.377,114.105 132.282 C 114.597 132.187,114.100 132.111,113.000 132.114 C 111.900 132.117,111.497 132.195,112.105 132.287 M131.505 132.283 C 132.002 132.379,132.722 132.375,133.105 132.275 C 133.487 132.175,133.080 132.096,132.200 132.101 C 131.320 132.105,131.007 132.187,131.505 132.283 M115.905 132.683 C 116.402 132.779,117.122 132.775,117.505 132.675 C 117.887 132.575,117.480 132.496,116.600 132.501 C 115.720 132.505,115.407 132.587,115.905 132.683 M122.316 132.697 C 123.699 132.775,125.859 132.774,127.116 132.695 C 128.372 132.616,127.240 132.552,124.600 132.553 C 121.960 132.553,120.932 132.618,122.316 132.697 M274.300 179.493 C 275.235 179.577,276.765 179.577,277.700 179.493 C 278.635 179.409,277.870 179.340,276.000 179.340 C 274.130 179.340,273.365 179.409,274.300 179.493 M263.300 179.876 C 263.685 179.976,264.315 179.976,264.700 179.876 C 265.085 179.775,264.770 179.693,264.000 179.693 C 263.230 179.693,262.915 179.775,263.300 179.876 M273.712 191.495 C 274.764 191.577,276.384 191.576,277.312 191.492 C 278.240 191.408,277.380 191.341,275.400 191.342 C 273.420 191.343,272.660 191.412,273.712 191.495 M267.305 191.887 C 267.914 191.979,268.814 191.977,269.305 191.882 C 269.797 191.787,269.300 191.711,268.200 191.714 C 267.100 191.717,266.697 191.795,267.305 191.887 M261.905 192.283 C 262.402 192.379,263.122 192.375,263.505 192.275 C 263.887 192.175,263.480 192.096,262.600 192.101 C 261.720 192.105,261.407 192.187,261.905 192.283 M250.900 193.876 C 251.285 193.976,251.915 193.976,252.300 193.876 C 252.685 193.775,252.370 193.693,251.600 193.693 C 250.830 193.693,250.515 193.775,250.900 193.876 M326.800 197.400 C 327.995 198.610,329.063 199.600,329.173 199.600 C 329.283 199.600,328.395 198.610,327.200 197.400 C 326.005 196.190,324.937 195.200,324.827 195.200 C 324.717 195.200,325.605 196.190,326.800 197.400 M70.600 203.200 C 71.459 204.080,72.252 204.800,72.362 204.800 C 72.472 204.800,71.859 204.080,71.000 203.200 C 70.141 202.320,69.348 201.600,69.238 201.600 C 69.128 201.600,69.741 202.320,70.600 203.200 M319.400 207.200 C 320.928 208.740,322.269 210.000,322.379 210.000 C 322.489 210.000,321.328 208.740,319.800 207.200 C 318.272 205.660,316.931 204.400,316.821 204.400 C 316.711 204.400,317.872 205.660,319.400 207.200 M128.500 208.276 C 128.885 208.376,129.515 208.376,129.900 208.276 C 130.285 208.175,129.970 208.093,129.200 208.093 C 128.430 208.093,128.115 208.175,128.500 208.276 M117.317 208.697 C 118.811 208.774,121.151 208.774,122.517 208.696 C 123.882 208.618,122.660 208.555,119.800 208.555 C 116.940 208.556,115.822 208.620,117.317 208.697 M145.309 214.400 C 145.309 215.390,145.387 215.795,145.482 215.300 C 145.578 214.805,145.578 213.995,145.482 213.500 C 145.387 213.005,145.309 213.410,145.309 214.400 M233.737 217.800 C 233.739 219.560,233.809 220.230,233.893 219.289 C 233.978 218.349,233.977 216.909,233.891 216.089 C 233.805 215.270,233.736 216.040,233.737 217.800 M177.301 218.200 C 177.305 219.080,177.387 219.393,177.483 218.895 C 177.579 218.398,177.575 217.678,177.475 217.295 C 177.375 216.913,177.296 217.320,177.301 218.200 M330.500 217.876 C 330.885 217.976,331.515 217.976,331.900 217.876 C 332.285 217.775,331.970 217.693,331.200 217.693 C 330.430 217.693,330.115 217.775,330.500 217.876 M124.505 220.687 C 125.114 220.779,126.014 220.777,126.505 220.682 C 126.997 220.587,126.500 220.511,125.400 220.514 C 124.300 220.517,123.897 220.595,124.505 220.687 M164.893 222.000 C 164.893 222.770,164.975 223.085,165.076 222.700 C 165.176 222.315,165.176 221.685,165.076 221.300 C 164.975 220.915,164.893 221.230,164.893 222.000 M183.600 233.400 C 184.795 234.610,185.863 235.600,185.973 235.600 C 186.083 235.600,185.195 234.610,184.000 233.400 C 182.805 232.190,181.737 231.200,181.627 231.200 C 181.517 231.200,182.405 232.190,183.600 233.400 M173.200 240.600 C 173.946 241.370,174.647 242.000,174.757 242.000 C 174.867 242.000,174.346 241.370,173.600 240.600 C 172.854 239.830,172.153 239.200,172.043 239.200 C 171.933 239.200,172.454 239.830,173.200 240.600 M197.700 240.276 C 198.085 240.376,198.715 240.376,199.100 240.276 C 199.485 240.175,199.170 240.093,198.400 240.093 C 197.630 240.093,197.315 240.175,197.700 240.276 M224.175 241.700 L 223.000 243.000 224.300 241.825 C 225.015 241.179,225.600 240.594,225.600 240.525 C 225.600 240.216,225.270 240.488,224.175 241.700 M175.600 242.925 C 175.600 242.994,176.185 243.579,176.900 244.225 L 178.200 245.400 177.025 244.100 C 175.930 242.888,175.600 242.616,175.600 242.925 M198.305 252.683 C 198.802 252.779,199.522 252.775,199.905 252.675 C 200.287 252.575,199.880 252.496,199.000 252.501 C 198.120 252.505,197.807 252.587,198.305 252.683 M267.491 267.889 C 268.201 267.977,269.461 267.979,270.291 267.892 C 271.121 267.805,270.540 267.733,269.000 267.731 C 267.460 267.729,266.781 267.800,267.491 267.889 M278.300 267.889 C 279.015 267.978,280.185 267.978,280.900 267.889 C 281.615 267.801,281.030 267.728,279.600 267.728 C 278.170 267.728,277.585 267.801,278.300 267.889 M261.300 268.276 C 261.685 268.376,262.315 268.376,262.700 268.276 C 263.085 268.175,262.770 268.093,262.000 268.093 C 261.230 268.093,260.915 268.175,261.300 268.276 M284.900 268.276 C 285.285 268.376,285.915 268.376,286.300 268.276 C 286.685 268.175,286.370 268.093,285.600 268.093 C 284.830 268.093,284.515 268.175,284.900 268.276 M69.600 275.486 C 69.930 275.608,70.560 275.874,71.000 276.076 C 71.787 276.438,71.788 276.434,71.024 275.822 C 70.596 275.480,69.966 275.214,69.624 275.232 C 69.085 275.259,69.082 275.293,69.600 275.486 M73.600 278.525 C 73.600 278.594,74.185 279.179,74.900 279.825 L 76.200 281.000 75.025 279.700 C 73.930 278.488,73.600 278.216,73.600 278.525 M272.316 279.497 C 273.699 279.575,275.859 279.574,277.116 279.495 C 278.372 279.416,277.240 279.352,274.600 279.353 C 271.960 279.353,270.932 279.418,272.316 279.497 M259.300 280.276 C 259.685 280.376,260.315 280.376,260.700 280.276 C 261.085 280.175,260.770 280.093,260.000 280.093 C 259.230 280.093,258.915 280.175,259.300 280.276 M287.300 280.276 C 287.685 280.376,288.315 280.376,288.700 280.276 C 289.085 280.175,288.770 280.093,288.000 280.093 C 287.230 280.093,286.915 280.175,287.300 280.276 M325.400 286.000 C 326.928 287.540,328.269 288.800,328.379 288.800 C 328.489 288.800,327.328 287.540,325.800 286.000 C 324.272 284.460,322.931 283.200,322.821 283.200 C 322.711 283.200,323.872 284.460,325.400 286.000 M69.000 291.200 C 70.083 292.300,71.060 293.200,71.170 293.200 C 71.280 293.200,70.483 292.300,69.400 291.200 C 68.317 290.100,67.340 289.200,67.230 289.200 C 67.120 289.200,67.917 290.100,69.000 291.200 M108.500 296.676 C 108.885 296.776,109.515 296.776,109.900 296.676 C 110.285 296.575,109.970 296.493,109.200 296.493 C 108.430 296.493,108.115 296.575,108.500 296.676 M127.905 296.683 C 128.402 296.779,129.122 296.775,129.505 296.675 C 129.887 296.575,129.480 296.496,128.600 296.501 C 127.720 296.505,127.407 296.587,127.905 296.683 M107.300 308.676 C 107.685 308.776,108.315 308.776,108.700 308.676 C 109.085 308.575,108.770 308.493,108.000 308.493 C 107.230 308.493,106.915 308.575,107.300 308.676 M126.100 309.076 C 126.485 309.176,127.115 309.176,127.500 309.076 C 127.885 308.975,127.570 308.893,126.800 308.893 C 126.030 308.893,125.715 308.975,126.100 309.076 " stroke="none" fill="#848484" fill-rule="evenodd"></path><path id="path3" d="M264.754 92.430 C 254.622 93.269,240.297 95.964,223.000 100.285 C 218.160 101.494,213.210 102.712,212.000 102.992 C 210.790 103.273,207.837 104.079,205.439 104.785 C 203.040 105.490,199.980 106.307,198.639 106.600 C 196.466 107.075,193.233 107.907,183.800 110.420 C 176.131 112.463,161.437 115.993,155.000 117.340 C 154.560 117.432,154.969 117.528,155.908 117.554 C 156.848 117.579,158.918 117.247,160.508 116.817 C 164.107 115.841,168.184 114.875,171.685 114.167 C 173.161 113.868,175.028 113.348,175.834 113.012 C 176.639 112.675,177.725 112.400,178.247 112.400 C 178.770 112.400,180.233 112.059,181.498 111.643 C 183.790 110.889,186.294 110.218,192.000 108.831 C 198.156 107.334,205.814 105.335,209.000 104.394 C 211.862 103.548,216.025 102.504,219.600 101.737 C 221.030 101.430,222.830 100.935,223.600 100.637 C 224.370 100.339,225.990 99.964,227.200 99.803 C 228.410 99.643,229.943 99.288,230.607 99.015 C 231.270 98.742,232.710 98.393,233.807 98.238 C 234.903 98.084,236.636 97.689,237.659 97.360 C 238.681 97.032,241.021 96.524,242.859 96.231 C 244.696 95.939,248.090 95.402,250.400 95.037 C 252.710 94.673,256.310 94.065,258.400 93.687 C 263.283 92.804,292.864 92.656,295.170 93.503 C 295.923 93.780,297.723 94.193,299.170 94.421 C 305.269 95.380,313.014 98.647,320.200 103.289 C 327.645 108.100,337.600 119.978,337.600 124.051 C 337.600 129.945,330.415 131.111,327.000 125.773 C 324.097 121.234,316.203 113.376,312.725 111.561 C 312.133 111.252,310.333 110.257,308.725 109.349 C 307.116 108.440,304.810 107.377,303.600 106.985 C 302.390 106.594,300.590 105.958,299.600 105.573 C 298.610 105.187,296.900 104.749,295.800 104.598 C 294.700 104.447,292.720 104.027,291.400 103.665 C 287.914 102.707,266.882 102.739,262.200 103.708 C 260.440 104.073,257.650 104.484,256.000 104.623 C 254.350 104.761,252.298 105.052,251.440 105.269 C 250.582 105.486,247.972 106.006,245.640 106.425 C 240.802 107.295,237.348 108.094,233.572 109.218 C 232.126 109.648,230.558 110.000,230.088 110.000 C 229.085 110.000,222.137 111.675,218.400 112.817 C 216.970 113.254,215.620 113.606,215.400 113.600 C 215.180 113.594,213.830 113.936,212.400 114.362 C 209.686 115.169,205.226 116.346,200.800 117.421 C 199.370 117.769,196.850 118.392,195.200 118.807 C 193.550 119.221,191.030 119.852,189.600 120.209 C 188.170 120.565,186.230 121.204,185.289 121.629 C 184.348 122.053,183.141 122.400,182.605 122.400 C 182.070 122.400,179.780 122.859,177.516 123.420 C 175.252 123.981,172.050 124.774,170.400 125.183 C 164.686 126.599,160.191 127.582,158.200 127.850 C 156.139 128.127,151.751 129.519,152.774 129.571 C 153.089 129.587,154.349 129.338,155.574 129.017 C 156.798 128.697,159.240 128.147,161.000 127.796 C 162.760 127.444,165.730 126.826,167.600 126.422 C 171.206 125.643,173.745 125.026,183.800 122.485 C 184.680 122.262,187.110 121.599,189.200 121.011 C 194.106 119.632,221.885 112.528,233.200 109.759 C 243.684 107.194,249.276 106.156,263.200 104.189 C 268.656 103.418,287.513 103.532,292.200 104.364 C 306.168 106.844,318.852 114.674,326.036 125.253 C 329.377 130.173,333.494 131.242,336.604 127.996 C 340.343 124.093,336.470 116.774,325.424 106.868 C 311.966 94.800,292.393 90.142,264.754 92.430 M68.400 99.901 C 62.877 102.660,65.383 108.908,75.650 117.980 C 90.266 130.894,115.071 135.492,144.800 130.800 C 147.550 130.366,150.250 129.943,150.800 129.860 C 151.350 129.777,150.871 129.684,149.735 129.654 C 148.600 129.625,146.260 129.872,144.535 130.204 C 135.668 131.912,110.252 132.089,103.600 130.489 C 101.730 130.039,99.390 129.485,98.400 129.258 C 94.167 128.284,87.981 125.669,82.400 122.492 C 78.270 120.142,70.099 112.354,67.065 107.875 C 64.463 104.036,66.385 100.340,71.121 100.072 L 73.851 99.918 77.025 103.424 C 82.427 109.391,90.770 116.000,92.899 116.000 C 93.187 116.000,93.788 116.257,94.236 116.570 C 95.341 117.344,99.057 118.666,103.400 119.829 C 110.301 121.678,134.820 122.049,141.400 120.404 C 142.280 120.184,144.800 119.742,147.000 119.421 C 149.200 119.100,151.720 118.556,152.600 118.211 L 154.200 117.585 152.800 117.823 C 152.030 117.954,148.250 118.607,144.400 119.275 C 135.404 120.836,114.953 121.382,108.249 120.239 C 95.695 118.099,87.837 113.939,79.078 104.796 C 73.482 98.955,71.819 98.193,68.400 99.901 M198.763 145.867 C 198.303 146.930,197.592 148.639,197.183 149.664 C 196.081 152.429,191.198 163.157,190.202 165.000 C 189.726 165.880,188.608 167.950,187.715 169.600 C 186.823 171.250,184.879 174.580,183.395 177.000 C 168.227 201.735,166.098 206.112,165.162 214.500 C 161.740 245.144,198.427 264.146,221.746 243.808 C 234.733 232.482,237.382 214.816,228.448 199.124 C 223.260 190.013,222.229 188.086,221.976 187.031 L 221.682 185.800 221.642 187.000 C 221.621 187.660,221.996 188.830,222.477 189.600 C 222.957 190.370,223.644 191.540,224.003 192.200 C 224.362 192.860,225.256 194.480,225.989 195.800 C 232.180 206.942,232.600 208.354,232.600 218.000 C 232.600 227.170,232.404 228.026,228.904 234.147 C 226.222 238.837,218.716 246.800,216.976 246.800 C 216.719 246.800,216.079 247.123,215.554 247.519 C 210.810 251.094,199.654 252.779,192.592 250.988 C 175.338 246.611,165.800 235.010,165.800 218.400 C 165.800 209.358,166.613 206.655,172.386 196.494 C 174.043 193.576,175.677 190.696,176.015 190.094 C 176.353 189.492,177.433 187.750,178.415 186.223 C 179.397 184.696,180.650 182.682,181.200 181.747 C 181.750 180.813,183.270 178.282,184.577 176.124 C 189.628 167.786,193.375 160.163,198.840 147.107 C 200.036 144.251,199.987 144.243,201.362 147.500 C 204.186 154.191,209.488 165.504,210.782 167.600 C 210.986 167.930,212.198 170.059,213.476 172.332 C 214.754 174.605,216.160 177.061,216.600 177.791 C 217.040 178.521,218.181 180.486,219.135 182.157 C 220.089 183.829,221.065 185.317,221.303 185.464 C 221.955 185.867,221.465 184.816,219.564 181.736 C 212.929 170.987,208.448 162.345,202.707 149.221 C 200.201 143.493,199.901 143.238,198.763 145.867 M195.287 179.373 C 193.024 183.416,190.909 186.943,190.587 187.211 C 190.264 187.479,190.000 187.922,190.000 188.195 C 190.000 188.468,189.639 189.152,189.197 189.713 C 188.755 190.275,187.738 191.874,186.936 193.267 C 186.134 194.660,185.053 196.520,184.533 197.400 C 182.488 200.863,177.612 211.161,177.227 212.832 C 174.138 226.235,184.343 239.993,197.800 240.567 L 202.200 240.755 198.220 240.352 C 184.966 239.013,176.115 228.173,177.574 215.066 C 178.108 210.266,185.213 195.887,191.441 187.000 C 191.903 186.340,193.946 182.875,195.981 179.300 C 200.772 170.881,200.271 170.823,205.479 180.400 C 206.703 182.651,209.839 187.889,214.218 195.000 C 223.185 209.559,224.918 218.822,220.369 227.878 C 217.384 233.819,210.816 238.999,205.045 239.964 L 203.000 240.306 204.818 240.353 C 211.650 240.529,221.161 231.142,222.998 222.411 C 224.333 216.064,223.552 212.255,218.897 202.400 C 217.093 198.581,216.657 197.814,213.770 193.400 C 212.906 192.080,212.056 190.640,211.880 190.200 C 211.704 189.760,211.145 188.770,210.638 188.000 C 209.755 186.660,208.660 184.840,206.330 180.837 C 205.742 179.827,204.662 177.855,203.930 176.455 C 200.679 170.235,200.335 170.351,195.287 179.373 M263.000 180.042 C 261.680 180.225,258.710 180.628,256.400 180.937 L 252.200 181.500 255.200 181.544 C 256.860 181.569,259.362 181.288,260.800 180.917 C 264.644 179.924,287.439 179.930,291.058 180.924 C 292.409 181.296,294.389 181.581,295.458 181.557 C 297.700 181.507,294.538 180.837,288.200 180.019 C 284.476 179.538,266.516 179.555,263.000 180.042 M247.600 182.514 C 244.383 183.610,244.348 183.980,247.008 188.800 C 249.952 194.135,249.972 194.144,255.400 193.019 C 259.730 192.121,274.445 191.095,278.800 191.387 C 301.900 192.935,313.550 198.337,324.247 212.461 C 327.642 216.946,328.856 217.773,331.644 217.505 C 347.107 216.020,326.200 190.823,303.189 183.212 C 300.507 182.326,298.198 181.603,298.057 181.606 C 297.351 181.623,299.328 182.511,302.000 183.376 C 308.215 185.390,315.030 188.457,317.139 190.189 C 317.723 190.668,319.240 191.742,320.510 192.576 C 323.388 194.463,332.556 204.016,334.382 207.029 C 339.800 215.969,331.181 221.220,325.078 212.697 C 322.674 209.341,314.863 201.832,311.400 199.550 C 304.231 194.825,296.835 192.545,283.800 191.041 C 277.424 190.306,274.430 190.245,271.000 190.781 C 269.680 190.988,265.728 191.368,262.217 191.625 C 258.706 191.883,255.129 192.343,254.267 192.647 C 251.374 193.668,250.126 193.416,249.214 191.627 C 248.773 190.762,248.229 189.941,248.006 189.804 C 247.783 189.666,247.600 189.217,247.600 188.807 C 247.600 188.397,247.137 187.511,246.571 186.839 C 244.827 184.766,245.295 183.972,249.000 182.712 C 250.760 182.113,251.750 181.625,251.200 181.626 C 250.650 181.627,249.030 182.027,247.600 182.514 M65.851 187.682 C 61.974 190.572,63.086 194.878,69.436 201.555 C 78.502 211.091,88.163 216.116,103.800 219.429 C 109.767 220.694,129.415 220.699,137.597 219.439 C 145.214 218.266,144.985 218.424,145.325 214.105 C 145.460 212.397,145.666 210.370,145.784 209.600 C 145.929 208.648,145.809 208.840,145.407 210.200 C 145.082 211.300,144.698 213.323,144.553 214.697 C 144.218 217.877,143.966 218.059,139.061 218.660 C 136.828 218.933,133.653 219.362,132.006 219.613 C 130.119 219.899,125.239 220.009,118.806 219.909 C 107.418 219.732,105.595 219.491,95.017 216.766 C 94.146 216.542,92.886 216.111,92.217 215.808 C 91.548 215.505,89.560 214.694,87.800 214.006 C 86.040 213.318,83.970 212.341,83.200 211.834 C 82.430 211.327,81.111 210.504,80.270 210.005 C 72.316 205.288,64.400 196.289,64.400 191.963 C 64.400 185.598,70.331 185.443,75.485 191.673 C 79.737 196.812,86.770 202.022,92.496 204.275 C 93.873 204.816,95.540 205.498,96.200 205.788 C 96.860 206.079,98.210 206.447,99.200 206.606 C 100.190 206.765,101.476 207.138,102.058 207.436 C 102.640 207.734,105.101 208.164,107.528 208.393 C 109.954 208.622,112.878 208.987,114.024 209.205 C 116.699 209.712,122.715 209.709,125.800 209.198 C 127.120 208.980,130.903 208.628,134.207 208.416 C 137.578 208.199,140.979 207.760,141.957 207.415 C 144.113 206.654,144.198 206.655,144.971 207.429 C 145.317 207.774,145.600 207.886,145.600 207.678 C 145.600 206.492,144.376 206.282,141.349 206.947 C 131.697 209.068,109.625 209.096,102.400 206.996 C 88.807 203.047,81.979 198.760,74.186 189.286 C 72.048 186.686,68.184 185.943,65.851 187.682 M265.600 268.032 C 262.190 268.228,258.230 268.561,256.800 268.772 C 245.286 270.469,242.853 270.860,241.800 271.179 C 241.140 271.380,239.790 271.659,238.800 271.800 C 234.448 272.419,219.233 276.067,203.000 280.383 C 197.940 281.729,192.090 283.278,190.000 283.825 C 187.910 284.373,185.390 285.077,184.400 285.390 C 178.889 287.129,154.916 292.733,147.000 294.132 C 132.616 296.675,133.461 296.600,119.200 296.600 L 105.800 296.600 100.000 295.091 C 89.554 292.373,84.730 289.588,76.913 281.763 C 69.721 274.564,67.697 273.783,64.197 276.856 C 60.511 280.093,61.610 283.181,69.154 290.790 C 86.304 308.087,110.002 312.785,147.000 306.222 C 155.836 304.655,159.180 303.992,162.400 303.170 C 164.050 302.749,169.450 301.392,174.400 300.155 C 183.827 297.798,184.453 297.633,195.400 294.615 C 205.660 291.787,207.399 291.333,224.400 287.048 C 268.472 275.939,294.535 276.641,311.388 289.388 C 314.773 291.949,320.552 297.839,322.389 300.600 C 325.585 305.403,329.173 307.020,332.214 305.028 C 336.894 301.961,335.190 296.222,327.078 287.737 C 312.188 272.161,294.175 266.388,265.600 268.032 M284.400 268.797 C 290.407 269.185,298.646 270.686,300.752 271.775 C 301.417 272.119,302.190 272.400,302.470 272.400 C 303.246 272.400,308.344 274.462,310.598 275.689 C 311.699 276.287,313.449 277.232,314.486 277.788 C 322.467 282.067,334.000 295.157,334.000 299.937 C 334.000 305.842,327.366 307.423,324.132 302.289 C 321.532 298.161,316.266 292.511,311.409 288.641 C 308.967 286.695,301.612 282.944,299.400 282.517 C 298.740 282.390,297.674 282.021,297.032 281.698 C 290.632 278.474,270.013 277.854,252.800 280.368 C 249.830 280.802,246.612 281.437,245.650 281.779 C 244.687 282.120,243.241 282.400,242.437 282.400 C 241.632 282.400,239.990 282.671,238.787 283.002 C 237.584 283.334,235.200 283.866,233.489 284.186 C 231.778 284.505,230.198 284.878,229.977 285.014 C 229.757 285.150,228.007 285.589,226.088 285.990 C 220.796 287.096,216.231 288.327,214.950 288.995 C 214.318 289.325,213.273 289.596,212.628 289.598 C 211.984 289.599,210.274 289.947,208.828 290.371 C 207.383 290.795,204.670 291.530,202.800 292.005 C 198.783 293.026,193.155 294.584,189.800 295.605 C 188.480 296.007,186.770 296.452,186.000 296.595 C 185.230 296.739,183.520 297.198,182.200 297.616 C 179.620 298.434,170.215 300.847,165.000 302.030 C 163.240 302.429,161.080 302.937,160.200 303.158 C 159.320 303.379,157.520 303.726,156.200 303.929 C 154.880 304.133,152.360 304.583,150.600 304.930 C 143.709 306.290,138.043 307.169,134.600 307.414 C 132.620 307.555,129.380 307.924,127.400 308.234 C 122.789 308.955,114.653 308.959,110.800 308.241 C 109.150 307.934,106.360 307.564,104.600 307.420 C 100.454 307.080,93.167 305.083,86.000 302.323 C 79.603 299.860,68.512 290.758,64.108 284.357 C 61.399 280.420,63.341 276.000,67.779 276.000 C 70.375 276.000,70.752 276.262,76.400 281.989 C 81.656 287.318,83.237 288.565,87.800 290.985 C 89.340 291.802,90.781 292.619,91.002 292.802 C 91.521 293.232,98.139 295.296,102.000 296.232 C 105.628 297.112,129.098 297.559,133.843 296.839 C 135.359 296.609,139.120 296.056,142.200 295.611 C 145.280 295.166,148.070 294.695,148.400 294.564 C 148.730 294.434,150.800 293.984,153.000 293.566 C 157.286 292.750,163.094 291.409,170.400 289.549 C 171.390 289.297,173.550 288.764,175.200 288.365 C 180.965 286.971,183.416 286.303,185.515 285.554 C 186.678 285.140,187.983 284.800,188.413 284.800 C 188.844 284.800,190.233 284.463,191.498 284.051 C 192.764 283.639,195.870 282.817,198.400 282.224 C 200.930 281.631,204.080 280.812,205.400 280.402 C 209.758 279.051,213.062 278.192,222.000 276.088 C 223.870 275.647,226.210 275.097,227.200 274.864 C 235.481 272.916,237.910 272.391,238.625 272.395 C 239.078 272.398,240.788 272.054,242.425 271.632 C 244.061 271.209,246.660 270.750,248.200 270.612 C 249.740 270.473,252.344 270.077,253.986 269.733 C 259.421 268.594,274.216 268.138,284.400 268.797 " stroke="none" fill="#7c7c7c" fill-rule="evenodd"></path></g></svg>