<svg id="svg" version="1.1" xmlns="http://www.w3.org/2000/svg" xmlns:xlink="http://www.w3.org/1999/xlink" width="400" height="375" viewBox="0, 0, 400,375"><g id="svgg"><path id="path0" d="M222.764 15.635 C 222.627 15.772,222.513 16.828,222.511 17.980 C 222.502 24.239,221.729 27.408,219.646 29.738 C 218.626 30.879,218.386 31.457,218.386 32.778 C 218.386 35.681,217.245 38.007,215.492 38.678 C 215.036 38.852,214.234 39.672,213.712 40.500 C 212.622 42.227,211.087 43.151,209.306 43.154 C 207.282 43.157,205.140 43.902,203.940 45.018 C 202.315 46.529,200.724 46.938,194.423 47.463 C 190.208 47.814,189.432 48.219,191.179 49.154 C 191.693 49.429,192.698 50.286,193.412 51.057 C 194.699 52.449,194.739 52.462,198.387 52.698 C 205.619 53.166,209.103 54.068,209.589 55.599 C 209.729 56.042,210.441 56.471,211.507 56.756 C 214.858 57.653,217.976 61.777,218.501 66.009 C 218.614 66.920,219.062 68.102,219.497 68.635 C 220.971 70.446,221.701 72.598,222.118 76.360 C 222.802 82.524,223.398 83.274,225.320 80.394 C 225.836 79.620,226.530 78.614,226.861 78.158 C 227.295 77.560,227.550 75.936,227.774 72.341 C 228.178 65.853,228.631 64.098,230.274 62.655 C 230.984 62.032,231.794 60.973,232.074 60.303 C 232.712 58.777,233.442 58.131,235.946 56.876 C 237.040 56.328,238.031 55.627,238.149 55.318 C 238.651 54.012,242.094 53.182,249.013 52.699 C 252.273 52.472,252.534 52.388,254.547 50.905 C 258.056 48.322,257.500 47.286,252.596 47.270 C 248.738 47.258,246.710 46.740,244.459 45.192 C 243.138 44.284,241.768 43.744,239.863 43.381 C 235.958 42.637,233.612 40.821,232.063 37.341 C 231.603 36.306,230.773 35.070,230.219 34.593 C 228.644 33.238,228.157 31.547,227.903 26.553 L 227.670 21.951 226.230 20.056 C 225.438 19.014,224.529 17.536,224.210 16.773 C 223.644 15.419,223.273 15.126,222.764 15.635 M293.954 73.745 C 293.536 74.383,293.238 76.010,293.044 78.717 C 292.679 83.808,292.136 86.287,290.767 89.118 C 289.614 91.502,288.964 95.173,288.940 99.437 C 288.922 102.706,288.379 104.468,286.878 106.130 C 286.142 106.944,285.371 108.392,285.008 109.641 C 284.282 112.138,283.297 113.522,282.018 113.843 C 281.474 113.979,280.760 114.674,280.272 115.542 C 279.350 117.183,278.044 117.961,275.151 118.592 C 273.880 118.869,272.825 119.394,272.149 120.084 C 270.638 121.628,269.619 121.898,263.684 122.328 C 255.641 122.909,255.079 122.996,253.965 123.819 C 252.689 124.762,250.150 125.437,244.737 126.270 C 239.197 127.123,238.933 127.329,240.482 129.581 C 242.037 131.841,242.318 131.966,246.532 132.264 C 250.712 132.560,253.705 133.301,255.540 134.495 C 257.359 135.679,257.723 135.761,263.039 136.195 C 268.976 136.679,270.284 137.058,272.128 138.830 C 273.247 139.905,274.057 140.329,275.365 140.524 C 278.051 140.925,279.518 141.678,280.042 142.923 C 280.299 143.535,281.343 144.597,282.362 145.283 C 283.807 146.255,284.352 146.916,284.838 148.286 C 285.181 149.253,286.047 150.772,286.763 151.663 C 288.507 153.835,288.571 154.066,288.941 159.529 C 289.252 164.114,289.825 166.424,290.972 167.716 C 291.955 168.823,292.733 172.452,292.945 176.923 C 293.231 182.941,293.710 183.785,297.241 184.494 C 298.454 184.738,298.498 184.571,299.058 177.617 C 299.495 172.199,300.138 169.496,301.363 167.939 C 302.009 167.119,302.264 165.956,302.675 161.978 C 303.349 155.434,303.392 155.278,305.103 153.000 C 305.927 151.903,306.849 150.076,307.188 148.865 C 307.755 146.846,309.326 144.841,310.340 144.841 C 310.526 144.841,311.022 144.169,311.441 143.347 C 312.261 141.740,313.293 141.051,315.947 140.338 C 316.876 140.089,318.408 139.319,319.353 138.627 C 321.482 137.066,323.057 136.706,330.081 136.176 C 335.251 135.786,335.767 135.678,337.328 134.655 C 339.527 133.216,341.813 132.634,347.191 132.146 C 352.483 131.666,352.345 131.737,352.345 129.497 C 352.345 127.295,351.954 127.052,347.467 126.461 C 343.525 125.942,342.230 125.541,339.970 124.136 C 338.369 123.141,337.721 122.996,333.356 122.665 C 326.328 122.132,324.783 121.785,321.986 120.108 C 320.625 119.292,318.837 118.507,318.011 118.364 C 316.159 118.041,314.715 117.277,312.730 115.572 C 311.890 114.850,310.427 113.630,309.480 112.861 C 308.216 111.834,307.595 110.969,307.141 109.603 C 306.801 108.580,305.946 107.014,305.241 106.123 C 303.735 104.221,302.991 101.371,302.614 96.060 C 302.405 93.116,302.195 92.249,301.405 91.079 C 300.073 89.107,299.485 86.557,299.005 80.675 C 298.562 75.237,298.073 73.722,296.580 73.155 C 295.128 72.603,294.629 72.715,293.954 73.745 M132.139 76.898 C 131.448 77.075,130.266 77.818,129.512 78.550 C 127.991 80.027,126.590 80.675,124.917 80.675 C 123.304 80.675,121.313 81.610,120.260 82.861 C 119.676 83.556,118.696 84.115,117.552 84.408 C 114.702 85.136,114.145 85.449,113.511 86.675 C 113.109 87.451,112.276 88.113,110.960 88.700 C 109.885 89.180,108.161 90.287,107.129 91.161 C 106.098 92.035,104.549 93.061,103.689 93.441 C 102.609 93.917,101.930 94.541,101.497 95.453 C 101.033 96.431,100.442 96.938,99.224 97.403 C 98.120 97.825,97.332 98.450,96.827 99.305 C 96.414 100.006,95.497 100.921,94.789 101.338 C 93.978 101.817,93.279 102.653,92.902 103.596 C 92.533 104.518,91.826 105.375,91.064 105.825 C 90.383 106.227,89.435 107.251,88.957 108.100 C 88.419 109.058,87.620 109.841,86.853 110.161 C 85.994 110.520,85.490 111.062,85.201 111.938 C 84.972 112.632,84.012 114.105,83.067 115.211 C 82.123 116.318,80.959 118.107,80.481 119.187 C 79.857 120.599,79.181 121.424,78.080 122.119 C 77.237 122.651,76.548 123.360,76.548 123.695 C 76.548 125.178,75.558 127.342,74.096 129.054 C 73.188 130.119,72.405 131.482,72.261 132.251 C 72.096 133.131,71.452 134.137,70.385 135.182 C 68.896 136.640,68.741 136.971,68.529 139.153 C 68.250 142.011,67.377 144.092,65.535 146.283 C 64.344 147.701,64.165 148.167,64.165 149.863 C 64.165 153.418,63.077 156.536,60.898 159.222 C 60.144 160.152,60.038 160.698,60.038 163.646 C 60.038 170.624,58.561 179.227,56.997 181.361 C 55.840 182.940,55.826 210.891,56.982 212.163 C 58.726 214.084,59.090 215.866,59.834 226.159 C 60.349 233.284,60.369 233.385,61.493 234.789 C 63.160 236.871,63.848 238.832,64.075 242.148 C 64.267 244.948,64.358 245.192,65.856 246.948 C 66.967 248.249,67.626 249.502,68.077 251.168 C 68.520 252.805,69.219 254.149,70.339 255.513 C 71.588 257.036,72.015 257.916,72.207 259.361 C 72.413 260.913,72.745 261.528,74.141 262.944 C 75.413 264.234,75.978 265.200,76.447 266.889 C 76.966 268.756,77.300 269.272,78.467 270.009 C 79.236 270.494,79.984 271.277,80.130 271.750 C 80.275 272.222,81.272 273.705,82.346 275.047 C 83.420 276.388,84.696 278.061,85.181 278.765 C 87.120 281.573,99.083 292.957,102.562 295.305 C 103.512 295.946,104.656 296.985,105.103 297.614 C 105.551 298.242,106.660 299.075,107.568 299.464 C 108.554 299.887,109.478 300.625,109.863 301.298 C 110.528 302.460,111.435 302.958,113.696 303.399 C 115.592 303.769,116.984 304.568,117.263 305.447 C 117.582 306.454,118.805 307.207,120.556 307.475 C 122.763 307.813,124.634 308.732,125.878 310.091 C 126.827 311.127,127.452 311.411,129.610 311.787 C 132.659 312.317,134.190 313.026,134.518 314.059 C 134.811 314.984,136.240 315.361,141.628 315.935 C 146.174 316.419,147.422 316.822,149.313 318.416 L 150.595 319.497 157.943 319.795 C 161.984 319.959,167.148 320.234,169.418 320.407 C 176.323 320.932,188.696 320.881,200.751 320.278 C 215.764 319.527,215.819 319.520,217.199 318.202 C 218.601 316.862,219.981 316.470,225.891 315.738 C 230.407 315.178,230.632 315.108,231.925 313.849 C 233.092 312.714,233.708 312.463,236.615 311.934 C 239.498 311.410,240.122 311.158,241.115 310.116 C 242.505 308.657,244.277 307.692,245.565 307.692 C 247.185 307.692,249.311 306.613,249.971 305.455 C 250.472 304.578,251.141 304.190,253.269 303.543 C 255.805 302.773,257.036 302.040,257.036 301.301 C 257.036 300.720,258.649 299.437,259.380 299.437 C 259.766 299.437,260.959 298.626,262.030 297.635 C 263.101 296.644,264.484 295.519,265.103 295.135 C 265.722 294.750,267.139 293.662,268.251 292.715 C 269.363 291.769,270.883 290.820,271.628 290.607 C 272.561 290.341,273.144 289.874,273.501 289.106 C 274.220 287.558,275.335 286.407,276.367 286.148 C 276.948 286.002,277.389 285.477,277.687 284.574 C 278.106 283.305,281.676 278.759,284.580 275.797 C 285.288 275.075,286.143 273.809,286.479 272.983 C 286.845 272.087,287.726 271.012,288.668 270.314 C 289.970 269.349,290.355 268.758,290.885 266.912 C 291.302 265.461,291.987 264.190,292.841 263.285 C 294.066 261.985,294.927 259.988,294.932 258.435 C 294.935 257.677,296.749 254.784,297.222 254.784 C 297.856 254.784,298.362 253.163,299.071 248.868 C 300.643 239.333,300.061 238.370,292.978 238.786 C 285.980 239.198,284.398 239.582,282.825 241.249 C 281.366 242.795,278.706 243.301,269.794 243.728 C 266.401 243.891,264.480 244.145,263.977 244.497 C 263.565 244.786,262.836 245.305,262.358 245.651 C 259.781 247.512,235.738 247.103,231.981 245.133 C 229.849 244.016,229.546 243.965,223.422 243.711 C 216.293 243.415,211.603 242.746,210.386 241.852 C 209.936 241.521,209.028 240.857,208.368 240.375 C 207.446 239.703,206.443 239.439,204.053 239.237 C 201.042 238.983,198.124 237.788,198.124 236.808 C 198.124 236.338,195.301 235.272,194.055 235.272 C 192.231 235.272,189.491 234.107,188.207 232.784 C 187.465 232.021,186.231 231.290,185.129 230.963 C 183.928 230.607,182.776 229.892,181.812 228.904 C 181.000 228.073,180.065 227.392,179.735 227.392 C 178.945 227.392,176.077 225.542,174.734 224.166 C 174.149 223.567,172.968 222.739,172.108 222.326 C 171.095 221.840,170.313 221.112,169.890 220.262 C 169.450 219.379,168.742 218.739,167.728 218.306 C 166.846 217.930,165.910 217.151,165.474 216.430 C 165.064 215.752,164.064 214.790,163.250 214.292 C 162.158 213.623,161.689 213.034,161.454 212.040 C 161.206 210.993,160.782 210.499,159.545 209.817 C 158.549 209.267,157.681 208.403,157.222 207.503 C 156.819 206.713,155.976 205.701,155.347 205.253 C 154.719 204.806,153.849 203.736,153.414 202.876 C 152.980 202.017,151.886 200.325,150.983 199.118 C 150.081 197.910,149.076 196.006,148.750 194.886 C 148.363 193.555,147.836 192.638,147.228 192.240 C 146.028 191.453,145.042 189.486,144.477 186.750 C 144.184 185.328,143.647 184.136,142.932 183.322 C 141.386 181.561,140.857 180.063,140.342 175.985 C 139.990 173.201,139.704 172.215,139.035 171.482 C 136.922 169.169,136.260 166.185,135.955 157.610 L 135.721 151.055 134.465 149.942 L 133.208 148.830 133.208 136.568 C 133.208 123.821,133.449 121.029,134.686 119.456 C 135.563 118.341,135.712 117.326,136.218 109.007 C 136.669 101.599,136.959 100.268,138.506 98.506 C 139.417 97.469,139.750 96.589,140.174 94.102 C 140.957 89.515,140.964 89.495,142.627 87.574 L 144.162 85.800 144.032 82.714 C 143.891 79.351,143.460 78.519,141.279 77.390 C 139.980 76.719,134.087 76.401,132.139 76.898 " stroke="none" fill="#c4c4c4" fill-rule="evenodd"></path><path id="path1" d="M222.593 14.202 C 222.327 14.371,221.689 16.584,221.174 19.119 C 220.660 21.655,219.664 25.219,218.961 27.040 C 218.257 28.860,217.507 31.299,217.292 32.460 C 216.508 36.704,212.208 40.818,207.093 42.218 C 205.152 42.749,202.720 43.533,201.689 43.961 C 199.616 44.820,193.891 46.393,191.570 46.741 C 185.136 47.708,189.270 52.376,197.690 53.652 C 202.192 54.334,205.254 55.139,206.159 55.878 C 206.383 56.061,207.960 56.746,209.662 57.401 C 211.365 58.056,212.761 58.706,212.764 58.845 C 212.767 58.985,213.450 59.859,214.281 60.788 C 216.275 63.017,216.693 63.848,217.596 67.386 C 218.015 69.025,218.630 71.124,218.963 72.050 C 219.296 72.976,219.626 73.987,219.695 74.296 C 219.764 74.606,219.994 75.307,220.206 75.855 C 220.418 76.402,220.781 77.894,221.012 79.169 C 221.811 83.572,222.734 84.346,225.501 82.935 C 227.539 81.895,228.040 80.657,228.499 75.536 C 229.338 66.171,233.233 59.135,238.658 57.184 C 239.685 56.814,240.525 56.397,240.525 56.257 C 240.525 55.664,244.509 54.360,247.374 54.015 C 249.076 53.810,250.976 53.559,251.595 53.457 C 252.214 53.356,253.517 53.167,254.491 53.039 C 256.562 52.767,257.276 52.100,257.972 49.787 C 258.650 47.536,258.146 47.096,253.590 45.967 C 251.667 45.490,248.912 44.689,247.467 44.186 C 246.023 43.683,243.574 42.971,242.026 42.605 C 240.478 42.238,238.872 41.727,238.456 41.468 C 233.612 38.460,230.114 32.679,229.090 25.985 C 227.739 17.159,226.214 13.890,223.452 13.895 C 223.246 13.895,222.859 14.033,222.593 14.202 M224.210 16.773 C 224.529 17.536,225.438 19.014,226.230 20.056 L 227.670 21.951 227.903 26.553 C 228.157 31.547,228.644 33.238,230.219 34.593 C 230.773 35.070,231.603 36.306,232.063 37.341 C 233.612 40.821,235.958 42.637,239.863 43.381 C 241.768 43.744,243.138 44.284,244.459 45.192 C 246.710 46.740,248.738 47.258,252.596 47.270 C 257.500 47.286,258.056 48.322,254.547 50.905 C 252.534 52.388,252.273 52.472,249.013 52.699 C 242.094 53.182,238.651 54.012,238.149 55.318 C 238.031 55.627,237.040 56.328,235.946 56.876 C 233.442 58.131,232.712 58.777,232.074 60.303 C 231.794 60.973,230.984 62.032,230.274 62.655 C 228.631 64.098,228.178 65.853,227.774 72.341 C 227.550 75.936,227.295 77.560,226.861 78.158 C 226.530 78.614,225.836 79.620,225.320 80.394 C 223.398 83.274,222.802 82.524,222.118 76.360 C 221.701 72.598,220.971 70.446,219.497 68.635 C 219.062 68.102,218.614 66.920,218.501 66.009 C 217.976 61.777,214.858 57.653,211.507 56.756 C 210.441 56.471,209.729 56.042,209.589 55.599 C 209.103 54.068,205.619 53.166,198.387 52.698 C 194.739 52.462,194.699 52.449,193.412 51.057 C 192.698 50.286,191.693 49.429,191.179 49.154 C 189.432 48.219,190.208 47.814,194.423 47.463 C 200.724 46.938,202.315 46.529,203.940 45.018 C 205.140 43.902,207.282 43.157,209.306 43.154 C 211.087 43.151,212.622 42.227,213.712 40.500 C 214.234 39.672,215.036 38.852,215.492 38.678 C 217.245 38.007,218.386 35.681,218.386 32.778 C 218.386 31.457,218.626 30.879,219.646 29.738 C 221.729 27.408,222.502 24.239,222.511 17.980 C 222.515 14.965,223.239 14.450,224.210 16.773 M293.460 72.576 C 292.349 73.192,291.658 75.266,291.198 79.362 C 291.013 81.013,290.492 83.191,290.041 84.202 C 289.231 86.018,288.825 88.336,288.360 93.811 C 287.987 98.189,287.173 101.606,285.939 103.978 C 285.316 105.175,284.451 107.105,284.016 108.267 C 282.447 112.461,278.271 116.064,272.919 117.841 C 270.890 118.514,268.891 119.286,268.476 119.555 C 267.337 120.293,263.447 121.084,257.598 121.767 C 254.709 122.105,251.798 122.445,251.129 122.524 C 248.594 122.822,247.049 123.200,245.779 123.833 C 245.056 124.194,243.452 124.801,242.214 125.183 C 239.326 126.074,238.926 126.494,238.732 128.843 C 238.481 131.868,238.969 132.228,245.216 133.619 C 248.105 134.263,250.929 135.027,251.492 135.317 C 252.439 135.806,258.747 137.023,262.664 137.472 C 266.101 137.866,268.242 138.450,269.579 139.357 C 270.333 139.869,271.830 140.575,272.905 140.926 C 276.645 142.148,281.209 145.597,283.008 148.560 C 283.457 149.300,283.920 149.991,284.035 150.094 C 284.150 150.197,284.475 150.957,284.757 151.782 C 285.040 152.608,285.481 153.537,285.739 153.846 C 286.719 155.025,287.785 158.803,288.155 162.411 C 288.532 166.079,288.720 167.056,290.083 172.420 C 290.451 173.865,291.037 176.535,291.387 178.353 C 292.002 181.556,292.789 184.015,293.685 185.542 C 294.037 186.142,294.534 186.284,296.309 186.293 L 298.499 186.304 299.334 184.615 C 299.793 183.687,300.279 182.083,300.413 181.051 C 300.956 176.888,301.285 175.246,301.881 173.734 C 302.357 172.528,303.329 167.058,303.718 163.397 C 303.994 160.801,305.067 157.126,306.179 154.962 C 306.766 153.822,307.304 152.555,307.375 152.148 C 307.991 148.625,313.793 142.540,317.874 141.135 C 318.995 140.750,320.920 139.973,322.151 139.410 C 324.727 138.231,327.700 137.602,334.383 136.822 C 337.271 136.485,339.843 135.959,340.967 135.476 C 341.981 135.040,344.825 134.282,347.286 133.793 C 352.576 132.741,353.471 132.081,353.471 129.229 C 353.471 126.849,352.210 125.806,348.030 124.726 C 347.824 124.673,346.726 124.277,345.591 123.847 C 344.456 123.417,343.189 122.992,342.777 122.903 C 342.364 122.813,341.604 122.646,341.088 122.532 C 340.572 122.417,338.630 122.150,336.773 121.940 C 334.916 121.729,333.143 121.485,332.833 121.398 C 332.523 121.310,331.579 121.141,330.734 121.023 C 328.592 120.722,326.888 120.200,325.872 119.534 C 325.395 119.222,323.829 118.641,322.391 118.242 C 315.950 116.457,309.647 111.708,307.699 107.172 C 307.246 106.117,306.537 104.603,306.124 103.807 C 304.870 101.391,304.022 98.527,303.758 95.819 C 303.415 92.300,302.178 85.715,301.491 83.747 C 301.180 82.857,300.844 81.421,300.744 80.557 C 300.025 74.308,299.235 72.597,296.920 72.280 C 294.671 71.972,294.530 71.984,293.460 72.576 M296.580 73.155 C 298.073 73.722,298.562 75.237,299.005 80.675 C 299.485 86.557,300.073 89.107,301.405 91.079 C 302.195 92.249,302.405 93.116,302.614 96.060 C 302.991 101.371,303.735 104.221,305.241 106.123 C 305.946 107.014,306.801 108.580,307.141 109.603 C 307.595 110.969,308.216 111.834,309.480 112.861 C 310.427 113.630,311.890 114.850,312.730 115.572 C 314.715 117.277,316.159 118.041,318.011 118.364 C 318.837 118.507,320.625 119.292,321.986 120.108 C 324.783 121.785,326.328 122.132,333.356 122.665 C 337.721 122.996,338.369 123.141,339.970 124.136 C 342.230 125.541,343.525 125.942,347.467 126.461 C 351.954 127.052,352.345 127.295,352.345 129.497 C 352.345 131.737,352.483 131.666,347.191 132.146 C 341.813 132.634,339.527 133.216,337.328 134.655 C 335.767 135.678,335.251 135.786,330.081 136.176 C 323.057 136.706,321.482 137.066,319.353 138.627 C 318.408 139.319,316.876 140.089,315.947 140.338 C 313.293 141.051,312.261 141.740,311.441 143.347 C 311.022 144.169,310.526 144.841,310.340 144.841 C 309.326 144.841,307.755 146.846,307.188 148.865 C 306.849 150.076,305.927 151.903,305.103 153.000 C 303.392 155.278,303.349 155.434,302.675 161.978 C 302.264 165.956,302.009 167.119,301.363 167.939 C 300.138 169.496,299.495 172.199,299.058 177.617 C 298.498 184.571,298.454 184.738,297.241 184.494 C 293.710 183.785,293.231 182.941,292.945 176.923 C 292.733 172.452,291.955 168.823,290.972 167.716 C 289.825 166.424,289.252 164.114,288.941 159.529 C 288.571 154.066,288.507 153.835,286.763 151.663 C 286.047 150.772,285.181 149.253,284.838 148.286 C 284.352 146.916,283.807 146.255,282.362 145.283 C 281.343 144.597,280.299 143.535,280.042 142.923 C 279.518 141.678,278.051 140.925,275.365 140.524 C 274.057 140.329,273.247 139.905,272.128 138.830 C 270.284 137.058,268.976 136.679,263.039 136.195 C 257.723 135.761,257.359 135.679,255.540 134.495 C 253.705 133.301,250.712 132.560,246.532 132.264 C 242.318 131.966,242.037 131.841,240.482 129.581 C 238.933 127.329,239.197 127.123,244.737 126.270 C 250.150 125.437,252.689 124.762,253.965 123.819 C 255.079 122.996,255.641 122.909,263.684 122.328 C 269.619 121.898,270.638 121.628,272.149 120.084 C 272.825 119.394,273.880 118.869,275.151 118.592 C 278.044 117.961,279.350 117.183,280.272 115.542 C 280.760 114.674,281.474 113.979,282.018 113.843 C 283.297 113.522,284.282 112.138,285.008 109.641 C 285.371 108.392,286.142 106.944,286.878 106.130 C 288.379 104.468,288.922 102.706,288.940 99.437 C 288.964 95.173,289.614 91.502,290.767 89.118 C 292.136 86.287,292.679 83.808,293.044 78.717 C 293.430 73.328,294.132 72.224,296.580 73.155 M134.709 75.278 C 131.278 75.873,127.931 77.070,126.454 78.232 C 126.144 78.475,124.540 79.156,122.889 79.745 C 119.716 80.877,117.448 82.048,117.448 82.555 C 117.448 82.723,116.646 83.238,115.666 83.700 C 114.686 84.162,113.298 84.979,112.581 85.516 C 110.551 87.036,107.565 88.931,107.198 88.931 C 106.839 88.931,103.797 91.483,100.988 94.140 C 100.032 95.045,98.659 96.163,97.936 96.625 C 96.509 97.538,93.479 100.574,90.451 104.128 C 89.396 105.366,87.805 107.139,86.915 108.068 C 86.025 108.996,84.715 110.516,84.004 111.445 C 83.293 112.373,82.125 113.746,81.409 114.496 C 80.694 115.245,79.874 116.512,79.587 117.310 C 79.301 118.108,78.572 119.268,77.969 119.887 C 77.366 120.507,76.376 121.942,75.769 123.077 C 75.163 124.212,74.169 125.724,73.561 126.437 C 72.952 127.150,72.083 128.727,71.628 129.943 C 71.174 131.158,70.248 132.815,69.572 133.624 C 68.893 134.437,68.070 136.059,67.734 137.248 C 67.399 138.431,67.028 139.737,66.910 140.150 C 66.576 141.319,65.231 143.859,64.725 144.276 C 64.474 144.483,63.885 146.088,63.417 147.842 C 62.036 153.013,61.506 154.575,60.945 155.137 C 60.382 155.699,59.458 159.291,59.153 162.101 C 59.052 163.030,58.540 165.816,58.014 168.293 C 57.489 170.769,56.981 173.257,56.886 173.821 C 56.790 174.385,56.634 174.976,56.539 175.135 C 56.444 175.293,56.244 176.266,56.095 177.298 C 55.946 178.330,55.764 179.597,55.689 180.113 C 54.109 191.054,54.961 216.761,57.031 220.630 C 57.440 221.393,58.705 227.916,59.144 231.520 C 59.470 234.199,60.021 235.999,61.141 238.052 C 61.715 239.103,62.469 241.144,62.818 242.589 C 63.990 247.450,64.161 247.921,65.240 249.279 C 65.831 250.024,66.490 251.103,66.704 251.677 C 68.140 255.541,68.791 257.036,69.035 257.036 C 69.312 257.036,71.088 260.472,72.147 263.054 C 72.446 263.785,72.926 264.629,73.212 264.930 C 73.499 265.232,74.198 266.196,74.765 267.073 C 77.206 270.845,77.789 271.670,78.014 271.670 C 78.146 271.670,78.587 272.296,78.995 273.061 C 79.403 273.827,80.809 275.811,82.120 277.470 C 83.430 279.130,84.650 280.868,84.831 281.332 C 85.012 281.796,85.664 282.483,86.281 282.858 C 86.898 283.233,87.921 284.192,88.554 284.989 C 89.188 285.786,90.002 286.646,90.364 286.899 C 90.726 287.153,92.816 289.106,95.009 291.241 C 98.747 294.879,101.160 296.844,105.373 299.682 C 106.339 300.332,107.636 301.376,108.255 302.001 C 108.874 302.627,110.212 303.494,111.229 303.929 C 112.245 304.364,114.212 305.474,115.599 306.397 C 116.986 307.319,118.849 308.330,119.739 308.644 C 120.628 308.958,122.204 309.759,123.240 310.424 C 124.275 311.088,126.461 312.096,128.097 312.663 C 129.733 313.230,131.612 314.107,132.273 314.611 C 133.047 315.201,135.132 315.940,138.126 316.684 C 140.684 317.319,143.790 318.250,145.028 318.753 C 148.271 320.069,157.251 321.478,166.604 322.138 C 168.358 322.262,170.976 322.651,172.420 323.002 C 176.380 323.964,191.234 323.901,194.934 322.907 C 196.379 322.518,198.082 322.232,198.718 322.271 C 199.354 322.310,201.127 322.162,202.658 321.942 C 206.531 321.387,210.298 320.908,213.150 320.611 C 215.998 320.313,219.292 319.450,223.452 317.912 C 225.103 317.302,227.355 316.687,228.456 316.545 C 230.445 316.290,234.538 314.954,234.897 314.443 C 235.185 314.033,237.211 313.081,238.409 312.793 C 239.932 312.427,242.702 311.111,244.501 309.898 C 245.347 309.328,246.529 308.743,247.128 308.598 C 248.652 308.231,251.471 306.779,252.761 305.699 C 253.358 305.199,254.610 304.442,255.544 304.018 C 256.478 303.595,257.575 302.879,257.983 302.429 C 258.390 301.979,259.483 301.172,260.412 300.636 C 262.561 299.395,268.079 295.315,269.794 293.698 C 270.516 293.017,271.776 291.968,272.593 291.367 C 274.261 290.139,279.162 285.158,279.170 284.682 C 279.174 284.382,281.168 282.182,284.281 279.041 C 285.129 278.186,286.192 276.761,286.642 275.874 C 287.093 274.988,288.022 273.637,288.707 272.872 C 289.392 272.108,290.665 270.216,291.535 268.668 C 292.405 267.120,293.442 265.504,293.840 265.077 C 294.237 264.650,294.919 263.215,295.356 261.888 C 295.792 260.561,296.596 258.884,297.141 258.161 C 298.551 256.295,300.188 252.687,300.188 251.446 C 300.188 251.104,300.689 249.816,301.302 248.583 C 303.447 244.266,302.834 240.796,299.323 237.383 L 297.441 235.554 295.085 235.743 C 293.585 235.864,292.246 236.232,291.396 236.757 C 290.663 237.210,288.584 237.894,286.776 238.277 C 282.642 239.154,281.612 239.473,279.592 240.504 C 271.590 244.586,223.138 244.600,213.508 240.523 C 212.167 239.955,209.749 239.218,208.135 238.885 C 203.594 237.948,201.278 237.188,200.565 236.400 C 200.206 236.003,198.275 235.170,196.276 234.548 C 194.250 233.919,191.923 232.899,191.021 232.246 C 190.131 231.601,188.874 230.892,188.228 230.671 C 187.583 230.450,186.425 229.875,185.655 229.393 C 184.885 228.912,184.083 228.518,183.872 228.518 C 183.662 228.518,183.490 228.364,183.490 228.175 C 183.490 227.987,182.150 227.060,180.513 226.116 C 178.875 225.171,177.429 224.227,177.299 224.017 C 177.170 223.807,175.934 222.894,174.554 221.987 C 173.174 221.081,171.538 219.804,170.919 219.149 C 170.300 218.494,169.272 217.636,168.634 217.241 C 167.169 216.334,163.831 213.033,162.395 211.069 C 161.791 210.244,160.669 208.893,159.902 208.068 C 158.058 206.084,154.113 200.860,153.368 199.416 C 153.043 198.786,152.177 197.604,151.444 196.790 C 150.711 195.976,150.007 194.779,149.881 194.131 C 149.754 193.482,148.829 191.669,147.824 190.102 C 146.820 188.534,145.746 186.447,145.438 185.465 C 144.511 182.509,143.944 181.118,143.101 179.737 C 142.431 178.640,141.809 177.188,141.653 176.360 C 141.171 173.808,140.804 172.469,139.594 168.856 C 138.142 164.520,137.532 161.799,137.155 157.974 C 137.043 156.839,136.773 154.390,136.553 152.533 C 135.914 147.108,135.695 128.904,136.195 122.729 C 136.889 114.156,136.964 113.332,137.353 109.944 C 137.827 105.818,138.395 103.338,139.260 101.615 C 139.643 100.852,140.465 98.243,141.087 95.818 C 141.760 93.189,142.605 90.845,143.179 90.018 C 145.690 86.393,146.024 78.241,143.723 76.738 C 142.187 75.735,136.959 74.889,134.709 75.278 M141.279 77.390 C 143.460 78.519,143.891 79.351,144.032 82.714 L 144.162 85.800 142.627 87.574 C 140.964 89.495,140.957 89.515,140.174 94.102 C 139.750 96.589,139.417 97.469,138.506 98.506 C 136.959 100.268,136.669 101.599,136.218 109.007 C 135.712 117.326,135.563 118.341,134.686 119.456 C 133.449 121.029,133.208 123.821,133.208 136.568 L 133.208 148.830 134.465 149.942 L 135.721 151.055 135.955 157.610 C 136.260 166.185,136.922 169.169,139.035 171.482 C 139.704 172.215,139.990 173.201,140.342 175.985 C 140.857 180.063,141.386 181.561,142.932 183.322 C 143.647 184.136,144.184 185.328,144.477 186.750 C 145.042 189.486,146.028 191.453,147.228 192.240 C 147.836 192.638,148.363 193.555,148.750 194.886 C 149.076 196.006,150.081 197.910,150.983 199.118 C 151.886 200.325,152.980 202.017,153.414 202.876 C 153.849 203.736,154.719 204.806,155.347 205.253 C 155.976 205.701,156.819 206.713,157.222 207.503 C 157.681 208.403,158.549 209.267,159.545 209.817 C 160.782 210.499,161.206 210.993,161.454 212.040 C 161.689 213.034,162.158 213.623,163.250 214.292 C 164.064 214.790,165.064 215.752,165.474 216.430 C 165.910 217.151,166.846 217.930,167.728 218.306 C 168.742 218.739,169.450 219.379,169.890 220.262 C 170.313 221.112,171.095 221.840,172.108 222.326 C 172.968 222.739,174.149 223.567,174.734 224.166 C 176.077 225.542,178.945 227.392,179.735 227.392 C 180.065 227.392,181.000 228.073,181.812 228.904 C 182.776 229.892,183.928 230.607,185.129 230.963 C 186.231 231.290,187.465 232.021,188.207 232.784 C 189.491 234.107,192.231 235.272,194.055 235.272 C 195.301 235.272,198.124 236.338,198.124 236.808 C 198.124 237.788,201.042 238.983,204.053 239.237 C 206.443 239.439,207.446 239.703,208.368 240.375 C 209.028 240.857,209.936 241.521,210.386 241.852 C 211.603 242.746,216.293 243.415,223.422 243.711 C 229.546 243.965,229.849 244.016,231.981 245.133 C 235.738 247.103,259.781 247.512,262.358 245.651 C 262.836 245.305,263.565 244.786,263.977 244.497 C 264.480 244.145,266.401 243.891,269.794 243.728 C 278.706 243.301,281.366 242.795,282.825 241.249 C 284.398 239.582,285.980 239.198,292.978 238.786 C 300.061 238.370,300.643 239.333,299.071 248.868 C 298.362 253.163,297.856 254.784,297.222 254.784 C 296.749 254.784,294.935 257.677,294.932 258.435 C 294.927 259.988,294.066 261.985,292.841 263.285 C 291.987 264.190,291.302 265.461,290.885 266.912 C 290.355 268.758,289.970 269.349,288.668 270.314 C 287.726 271.012,286.845 272.087,286.479 272.983 C 286.143 273.809,285.288 275.075,284.580 275.797 C 281.676 278.759,278.106 283.305,277.687 284.574 C 277.389 285.477,276.948 286.002,276.367 286.148 C 275.335 286.407,274.220 287.558,273.501 289.106 C 273.144 289.874,272.561 290.341,271.628 290.607 C 270.883 290.820,269.363 291.769,268.251 292.715 C 267.139 293.662,265.722 294.750,265.103 295.135 C 264.484 295.519,263.101 296.644,262.030 297.635 C 260.959 298.626,259.766 299.437,259.380 299.437 C 258.649 299.437,257.036 300.720,257.036 301.301 C 257.036 302.040,255.805 302.773,253.269 303.543 C 251.141 304.190,250.472 304.578,249.971 305.455 C 249.311 306.613,247.185 307.692,245.565 307.692 C 244.277 307.692,242.505 308.657,241.115 310.116 C 240.122 311.158,239.498 311.410,236.615 311.934 C 233.708 312.463,233.092 312.714,231.925 313.849 C 230.632 315.108,230.407 315.178,225.891 315.738 C 219.981 316.470,218.601 316.862,217.199 318.202 C 215.819 319.520,215.764 319.527,200.751 320.278 C 188.696 320.881,176.323 320.932,169.418 320.407 C 167.148 320.234,161.984 319.959,157.943 319.795 L 150.595 319.497 149.313 318.416 C 147.422 316.822,146.174 316.419,141.628 315.935 C 136.240 315.361,134.811 314.984,134.518 314.059 C 134.190 313.026,132.659 312.317,129.610 311.787 C 127.452 311.411,126.827 311.127,125.878 310.091 C 124.634 308.732,122.763 307.813,120.556 307.475 C 118.805 307.207,117.582 306.454,117.263 305.447 C 116.984 304.568,115.592 303.769,113.696 303.399 C 111.435 302.958,110.528 302.460,109.863 301.298 C 109.478 300.625,108.554 299.887,107.568 299.464 C 106.660 299.075,105.551 298.242,105.103 297.614 C 104.656 296.985,103.512 295.946,102.562 295.305 C 99.083 292.957,87.120 281.573,85.181 278.765 C 84.696 278.061,83.420 276.388,82.346 275.047 C 81.272 273.705,80.275 272.222,80.130 271.750 C 79.984 271.277,79.236 270.494,78.467 270.009 C 77.300 269.272,76.966 268.756,76.447 266.889 C 75.978 265.200,75.413 264.234,74.141 262.944 C 72.745 261.528,72.413 260.913,72.207 259.361 C 72.015 257.916,71.588 257.036,70.339 255.513 C 69.219 254.149,68.520 252.805,68.077 251.168 C 67.626 249.502,66.967 248.249,65.856 246.948 C 64.358 245.192,64.267 244.948,64.075 242.148 C 63.848 238.832,63.160 236.871,61.493 234.789 C 60.369 233.385,60.349 233.284,59.834 226.159 C 59.090 215.866,58.726 214.084,56.982 212.163 C 55.826 210.891,55.840 182.940,56.997 181.361 C 58.561 179.227,60.038 170.624,60.038 163.646 C 60.038 160.698,60.144 160.152,60.898 159.222 C 63.077 156.536,64.165 153.418,64.165 149.863 C 64.165 148.167,64.344 147.701,65.535 146.283 C 67.377 144.092,68.250 142.011,68.529 139.153 C 68.741 136.971,68.896 136.640,70.385 135.182 C 71.452 134.137,72.096 133.131,72.261 132.251 C 72.405 131.482,73.188 130.119,74.096 129.054 C 75.558 127.342,76.548 125.178,76.548 123.695 C 76.548 123.360,77.237 122.651,78.080 122.119 C 79.181 121.424,79.857 120.599,80.481 119.187 C 80.959 118.107,82.123 116.318,83.067 115.211 C 84.012 114.105,84.972 112.632,85.201 111.938 C 85.490 111.062,85.994 110.520,86.853 110.161 C 87.620 109.841,88.419 109.058,88.957 108.100 C 89.435 107.251,90.383 106.227,91.064 105.825 C 91.826 105.375,92.533 104.518,92.902 103.596 C 93.279 102.653,93.978 101.817,94.789 101.338 C 95.497 100.921,96.414 100.006,96.827 99.305 C 97.332 98.450,98.120 97.825,99.224 97.403 C 100.442 96.938,101.033 96.431,101.497 95.453 C 101.930 94.541,102.609 93.917,103.689 93.441 C 104.549 93.061,106.098 92.035,107.129 91.161 C 108.161 90.287,109.885 89.180,110.960 88.700 C 112.276 88.113,113.109 87.451,113.511 86.675 C 114.145 85.449,114.702 85.136,117.552 84.408 C 118.696 84.115,119.676 83.556,120.260 82.861 C 121.313 81.610,123.304 80.675,124.917 80.675 C 126.590 80.675,127.991 80.027,129.512 78.550 C 131.614 76.508,138.299 75.850,141.279 77.390 " stroke="none" fill="#d4d4d4" fill-rule="evenodd"></path><path id="path2" d="M222.274 13.681 C 221.740 14.055,221.347 14.977,221.035 16.589 C 220.783 17.887,220.157 20.216,219.643 21.764 C 219.130 23.311,218.620 25.082,218.511 25.699 C 218.402 26.316,218.104 27.245,217.849 27.763 C 217.485 28.502,216.833 30.919,216.329 33.396 C 215.693 36.527,210.538 40.540,205.269 42.007 C 202.799 42.694,200.714 43.190,200.635 43.110 C 200.556 43.030,200.254 43.153,199.964 43.384 C 199.457 43.789,197.504 44.506,196.021 44.831 C 194.301 45.209,189.985 46.555,189.244 46.945 C 187.425 47.902,188.151 50.702,190.697 52.546 C 192.102 53.564,192.811 53.759,196.811 54.227 C 199.536 54.545,203.313 55.462,204.453 56.081 C 204.996 56.376,206.836 57.156,208.541 57.814 C 213.104 59.575,215.880 62.928,216.907 67.917 C 217.141 69.053,217.755 71.303,218.272 72.918 C 218.789 74.533,219.254 76.053,219.305 76.295 C 219.357 76.537,219.496 76.989,219.614 77.298 C 219.732 77.608,220.028 78.748,220.271 79.831 C 222.109 88.027,228.968 84.692,229.240 75.470 C 229.285 73.949,229.474 72.303,229.661 71.812 C 229.848 71.321,229.922 70.919,229.827 70.919 C 229.200 70.919,233.451 61.931,234.854 60.290 C 235.342 59.720,239.147 57.645,239.775 57.607 C 239.878 57.601,240.722 57.151,241.651 56.608 C 243.563 55.490,245.843 54.954,252.699 54.012 C 256.519 53.488,257.619 52.897,258.623 50.831 C 259.979 48.040,258.919 46.628,254.409 45.222 C 253.188 44.841,250.823 44.208,250.749 44.242 C 250.696 44.266,250.063 44.040,249.342 43.738 C 248.620 43.437,248.030 43.265,248.030 43.356 C 248.030 43.447,247.397 43.277,246.623 42.978 C 245.849 42.679,244.371 42.273,243.340 42.075 C 242.308 41.878,241.089 41.628,240.632 41.520 C 238.521 41.022,234.106 37.154,233.149 34.963 C 232.637 33.792,231.896 32.146,231.502 31.307 C 231.108 30.468,230.723 29.455,230.646 29.056 C 230.569 28.657,230.406 28.077,230.283 27.767 C 230.161 27.458,229.712 25.263,229.286 22.889 C 228.021 15.830,227.295 14.311,224.837 13.574 C 223.026 13.032,223.212 13.024,222.274 13.681 M224.683 14.123 C 226.474 14.603,227.960 18.603,229.090 25.985 C 230.114 32.679,233.612 38.460,238.456 41.468 C 238.872 41.727,240.478 42.238,242.026 42.605 C 243.574 42.971,246.023 43.683,247.467 44.186 C 248.912 44.689,251.667 45.490,253.590 45.967 C 258.146 47.096,258.650 47.536,257.972 49.787 C 257.276 52.100,256.562 52.767,254.491 53.039 C 253.517 53.167,252.214 53.356,251.595 53.457 C 250.976 53.559,249.076 53.810,247.374 54.015 C 244.509 54.360,240.525 55.664,240.525 56.257 C 240.525 56.397,239.685 56.814,238.658 57.184 C 233.233 59.135,229.338 66.171,228.499 75.536 C 228.040 80.657,227.539 81.895,225.501 82.935 C 222.734 84.346,221.811 83.572,221.012 79.169 C 220.781 77.894,220.418 76.402,220.206 75.855 C 219.994 75.307,219.764 74.606,219.695 74.296 C 219.626 73.987,219.296 72.976,218.963 72.050 C 218.630 71.124,218.015 69.025,217.596 67.386 C 216.693 63.848,216.275 63.017,214.281 60.788 C 213.450 59.859,212.767 58.985,212.764 58.845 C 212.761 58.706,211.365 58.056,209.662 57.401 C 207.960 56.746,206.383 56.061,206.159 55.878 C 205.254 55.139,202.192 54.334,197.690 53.652 C 189.270 52.376,185.136 47.708,191.570 46.741 C 193.891 46.393,199.616 44.820,201.689 43.961 C 202.720 43.533,205.152 42.749,207.093 42.218 C 212.208 40.818,216.508 36.704,217.292 32.460 C 217.507 31.299,218.257 28.860,218.961 27.040 C 219.664 25.219,220.660 21.655,221.174 19.119 C 222.227 13.929,222.501 13.539,224.683 14.123 M292.905 72.139 C 291.724 73.193,290.448 76.409,290.039 79.362 C 289.867 80.600,289.640 81.951,289.536 82.364 C 288.864 85.010,288.161 88.836,287.813 91.745 C 287.072 97.936,286.247 101.841,285.509 102.651 C 285.121 103.077,284.803 103.707,284.803 104.051 C 284.803 104.395,284.150 106.073,283.351 107.779 C 281.959 110.754,281.354 111.474,277.298 114.970 C 276.221 115.899,269.187 118.571,265.291 119.531 C 265.188 119.556,264.850 119.680,264.540 119.807 C 263.743 120.132,258.022 121.099,255.347 121.361 C 247.363 122.142,246.043 122.466,240.150 125.097 C 238.159 125.986,237.423 128.192,238.266 130.744 C 238.926 132.744,239.654 133.092,246.904 134.876 C 247.214 134.952,248.396 135.357,249.531 135.777 C 250.666 136.196,254.043 136.900,257.036 137.341 C 264.015 138.370,266.731 139.021,269.679 140.371 C 270.991 140.972,272.271 141.467,272.523 141.472 C 273.150 141.483,276.024 142.807,276.735 143.412 C 279.904 146.106,282.666 149.202,283.435 150.923 C 283.923 152.015,284.836 154.006,285.466 155.347 C 286.095 156.689,286.804 159.053,287.041 160.600 C 287.920 166.333,288.965 172.135,289.677 175.235 C 290.079 176.989,290.606 179.379,290.847 180.547 C 292.470 188.402,298.527 189.877,300.942 183.005 C 301.353 181.837,301.689 180.449,301.689 179.920 C 301.689 179.391,302.178 176.558,302.777 173.625 C 303.375 170.692,303.976 167.280,304.113 166.041 C 304.249 164.803,304.430 163.452,304.515 163.039 C 304.599 162.627,304.758 161.648,304.868 160.865 C 304.977 160.081,305.556 158.393,306.155 157.112 C 306.753 155.832,307.534 153.891,307.891 152.799 C 309.538 147.756,315.425 142.029,319.743 141.268 C 320.425 141.148,321.158 140.907,321.373 140.732 C 322.462 139.847,327.901 138.440,332.270 137.914 C 337.368 137.299,342.125 136.349,342.792 135.813 C 343.007 135.640,343.936 135.330,344.856 135.124 C 346.433 134.772,347.192 134.623,349.906 134.135 C 352.459 133.675,353.832 131.844,353.841 128.889 C 353.846 126.949,352.628 124.953,351.437 124.953 C 351.161 124.953,350.028 124.538,348.920 124.031 C 346.164 122.770,343.326 122.089,337.148 121.206 C 331.172 120.352,330.346 120.163,326.454 118.752 C 324.906 118.191,322.664 117.501,321.470 117.217 C 318.918 116.610,316.905 115.622,315.495 114.284 C 314.936 113.754,314.269 113.321,314.011 113.321 C 313.102 113.321,308.854 108.379,308.237 106.603 C 307.907 105.654,307.056 103.691,306.345 102.240 C 305.223 99.950,304.930 98.714,304.117 92.859 C 303.602 89.151,302.853 84.850,302.451 83.302 C 302.049 81.754,301.620 79.539,301.496 78.379 C 301.373 77.220,300.939 75.700,300.532 75.002 C 300.125 74.304,299.700 73.467,299.588 73.142 C 298.952 71.300,294.579 70.643,292.905 72.139 M296.920 72.280 C 299.235 72.597,300.025 74.308,300.744 80.557 C 300.844 81.421,301.180 82.857,301.491 83.747 C 302.178 85.715,303.415 92.300,303.758 95.819 C 304.022 98.527,304.870 101.391,306.124 103.807 C 306.537 104.603,307.246 106.117,307.699 107.172 C 309.647 111.708,315.950 116.457,322.391 118.242 C 323.829 118.641,325.395 119.222,325.872 119.534 C 326.888 120.200,328.592 120.722,330.734 121.023 C 331.579 121.141,332.523 121.310,332.833 121.398 C 333.143 121.485,334.916 121.729,336.773 121.940 C 338.630 122.150,340.572 122.417,341.088 122.532 C 341.604 122.646,342.364 122.813,342.777 122.903 C 343.189 122.992,344.456 123.417,345.591 123.847 C 346.726 124.277,347.824 124.673,348.030 124.726 C 352.210 125.806,353.471 126.849,353.471 129.229 C 353.471 132.081,352.576 132.741,347.286 133.793 C 344.825 134.282,341.981 135.040,340.967 135.476 C 339.843 135.959,337.271 136.485,334.383 136.822 C 327.700 137.602,324.727 138.231,322.151 139.410 C 320.920 139.973,318.995 140.750,317.874 141.135 C 313.793 142.540,307.991 148.625,307.375 152.148 C 307.304 152.555,306.766 153.822,306.179 154.962 C 305.067 157.126,303.994 160.801,303.718 163.397 C 303.329 167.058,302.357 172.528,301.881 173.734 C 301.285 175.246,300.956 176.888,300.413 181.051 C 300.279 182.083,299.793 183.687,299.334 184.615 L 298.499 186.304 296.309 186.293 C 294.534 186.284,294.037 186.142,293.685 185.542 C 292.789 184.015,292.002 181.556,291.387 178.353 C 291.037 176.535,290.451 173.865,290.083 172.420 C 288.720 167.056,288.532 166.079,288.155 162.411 C 287.785 158.803,286.719 155.025,285.739 153.846 C 285.481 153.537,285.040 152.608,284.757 151.782 C 284.475 150.957,284.150 150.197,284.035 150.094 C 283.920 149.991,283.457 149.300,283.008 148.560 C 281.209 145.597,276.645 142.148,272.905 140.926 C 271.830 140.575,270.333 139.869,269.579 139.357 C 268.242 138.450,266.101 137.866,262.664 137.472 C 258.747 137.023,252.439 135.806,251.492 135.317 C 250.929 135.027,248.105 134.263,245.216 133.619 C 238.969 132.228,238.481 131.868,238.732 128.843 C 238.926 126.494,239.326 126.074,242.214 125.183 C 243.452 124.801,245.056 124.194,245.779 123.833 C 247.049 123.200,248.594 122.822,251.129 122.524 C 251.798 122.445,254.709 122.105,257.598 121.767 C 263.447 121.084,267.337 120.293,268.476 119.555 C 268.891 119.286,270.890 118.514,272.919 117.841 C 278.271 116.064,282.447 112.461,284.016 108.267 C 284.451 107.105,285.316 105.175,285.939 103.978 C 287.173 101.606,287.987 98.189,288.360 93.811 C 288.825 88.336,289.231 86.018,290.041 84.202 C 290.492 83.191,291.013 81.013,291.198 79.362 C 291.931 72.830,292.828 71.719,296.920 72.280 M134.146 74.537 C 133.527 74.631,132.176 74.989,131.144 75.331 C 130.113 75.674,129.184 75.973,129.081 75.996 C 128.530 76.120,126.498 77.172,125.516 77.841 C 124.897 78.263,124.347 78.565,124.295 78.512 C 124.242 78.459,123.588 78.671,122.842 78.983 C 122.095 79.295,121.330 79.550,121.142 79.550 C 120.432 79.550,117.029 81.479,116.832 81.994 C 116.718 82.290,115.671 82.982,114.504 83.533 C 113.337 84.083,111.446 85.253,110.302 86.132 C 109.157 87.011,107.638 87.976,106.925 88.276 C 106.212 88.575,104.939 89.478,104.096 90.283 C 101.808 92.465,98.691 95.148,96.998 96.390 C 95.015 97.845,92.274 100.666,88.383 105.253 C 86.633 107.317,84.985 109.190,84.721 109.416 C 83.929 110.093,79.785 115.505,79.105 116.750 C 78.758 117.386,78.046 118.387,77.524 118.973 C 77.002 119.558,76.027 121.017,75.357 122.214 C 74.688 123.411,74.006 124.447,73.843 124.515 C 73.680 124.584,73.546 124.806,73.546 125.009 C 73.546 125.212,73.142 125.916,72.649 126.573 C 72.156 127.230,71.404 128.542,70.979 129.490 C 70.553 130.437,69.601 132.125,68.864 133.242 C 68.126 134.359,67.338 135.947,67.112 136.773 C 66.098 140.487,65.526 141.979,64.862 142.643 C 64.051 143.454,62.834 146.550,62.450 148.780 C 62.307 149.606,62.024 150.492,61.819 150.750 C 61.614 151.008,61.557 151.220,61.692 151.220 C 61.827 151.220,61.513 151.981,60.993 152.911 C 60.474 153.842,60.026 154.728,59.998 154.881 C 59.970 155.034,59.802 155.544,59.623 156.013 C 59.444 156.483,59.121 157.978,58.904 159.337 C 58.497 161.884,57.985 164.336,56.641 170.169 C 55.338 175.828,55.239 176.431,54.788 181.426 C 54.305 186.773,54.302 206.126,54.783 211.445 C 55.368 217.920,55.587 219.224,56.955 224.390 C 57.365 225.938,57.795 227.880,57.910 228.705 C 58.470 232.715,59.456 236.732,60.212 238.086 C 61.050 239.587,61.362 240.464,63.248 246.623 C 63.801 248.429,64.376 249.906,64.525 249.906 C 64.901 249.906,66.602 253.155,67.176 254.972 C 67.437 255.797,68.136 257.183,68.729 258.051 C 69.322 258.920,70.396 260.861,71.116 262.367 C 71.836 263.872,72.848 265.694,73.366 266.417 C 74.287 267.701,75.023 268.773,78.646 274.109 C 79.627 275.553,81.118 277.644,81.960 278.756 C 84.084 281.560,97.004 294.552,99.062 295.953 C 99.991 296.585,101.257 297.581,101.876 298.167 C 102.495 298.754,104.015 299.893,105.253 300.699 C 106.492 301.505,108.001 302.648,108.608 303.240 C 109.215 303.831,109.978 304.315,110.305 304.315 C 110.632 304.315,111.824 304.932,112.954 305.686 C 115.328 307.270,119.658 309.568,120.268 309.568 C 120.497 309.568,121.012 309.864,121.414 310.225 C 122.540 311.239,124.890 312.395,127.674 313.305 C 129.067 313.760,130.206 314.298,130.206 314.499 C 130.206 314.701,130.365 314.768,130.559 314.648 C 130.752 314.529,131.078 314.730,131.283 315.095 C 131.487 315.461,131.752 315.716,131.870 315.662 C 131.989 315.608,132.697 315.819,133.443 316.131 C 134.190 316.443,134.939 316.698,135.108 316.698 C 135.460 316.698,143.986 319.229,144.841 319.587 C 146.248 320.176,151.158 321.158,155.804 321.778 C 158.223 322.101,160.587 322.445,161.058 322.542 C 161.528 322.640,163.687 322.821,165.854 322.944 C 168.021 323.067,169.993 323.328,170.237 323.523 C 171.859 324.818,188.809 325.037,194.692 323.839 C 196.753 323.419,200.183 322.904,202.315 322.695 C 204.447 322.485,207.373 322.157,208.818 321.965 C 210.263 321.772,212.372 321.516,213.505 321.395 C 215.781 321.151,219.458 320.292,221.201 319.595 C 221.820 319.348,222.411 319.130,222.514 319.110 C 222.617 319.090,223.208 318.863,223.827 318.604 C 224.447 318.346,226.388 317.817,228.143 317.429 C 232.284 316.512,235.188 315.636,235.442 315.226 C 235.754 314.721,238.421 313.411,240.023 312.977 C 240.815 312.763,242.801 311.823,244.436 310.890 C 246.070 309.957,247.558 309.193,247.742 309.193 C 248.408 309.193,252.379 307.125,253.846 306.014 C 254.672 305.389,255.769 304.646,256.285 304.363 C 256.801 304.080,257.899 303.358,258.724 302.760 C 260.951 301.147,264.119 299.062,264.344 299.062 C 264.452 299.062,264.844 298.766,265.216 298.405 C 265.588 298.044,266.471 297.326,267.179 296.811 C 268.259 296.023,270.466 294.118,272.719 292.026 C 272.997 291.768,273.356 291.557,273.517 291.557 C 273.962 291.557,279.174 286.416,279.174 285.978 C 279.174 285.589,281.693 282.688,284.826 279.468 C 285.773 278.494,286.873 277.091,287.270 276.349 C 287.668 275.608,288.637 274.220,289.424 273.265 C 290.212 272.310,291.358 270.516,291.972 269.279 C 292.586 268.041,293.388 266.819,293.755 266.562 C 294.379 266.125,294.728 265.431,296.323 261.445 C 296.674 260.568,297.412 259.174,297.962 258.349 C 299.010 256.777,300.563 253.571,300.563 252.979 C 300.563 252.789,301.146 251.387,301.859 249.863 C 306.474 239.993,298.819 231.371,289.893 236.384 C 289.100 236.829,286.744 237.582,284.657 238.058 C 282.570 238.533,280.188 239.209,279.362 239.559 C 269.720 243.655,220.321 244.085,215.185 240.118 C 214.973 239.954,214.382 239.740,213.872 239.644 C 213.362 239.548,212.439 239.270,211.820 239.028 C 211.201 238.785,209.061 238.274,207.065 237.891 C 204.878 237.471,202.866 236.836,202.000 236.290 C 200.134 235.116,197.405 233.918,195.818 233.578 C 195.125 233.429,194.390 233.206,194.184 233.081 C 193.977 232.956,193.572 232.818,193.283 232.775 C 192.994 232.731,192.657 232.557,192.533 232.389 C 192.117 231.824,190.068 230.545,188.743 230.024 C 187.412 229.500,183.459 227.135,183.114 226.656 C 183.011 226.512,181.998 225.902,180.863 225.299 C 179.728 224.696,178.630 224.014,178.424 223.783 C 178.218 223.552,176.951 222.639,175.610 221.754 C 174.268 220.870,172.880 219.847,172.525 219.481 C 172.170 219.116,171.252 218.340,170.486 217.757 C 169.719 217.175,168.153 215.795,167.004 214.690 C 165.855 213.586,164.536 212.427,164.071 212.114 C 163.607 211.802,163.227 211.312,163.227 211.026 C 163.227 210.740,163.058 210.507,162.852 210.507 C 162.645 210.507,162.477 210.326,162.477 210.105 C 162.477 209.883,162.265 209.489,162.008 209.227 C 159.570 206.756,154.264 199.969,153.054 197.775 C 152.648 197.038,151.910 195.877,151.415 195.194 C 150.920 194.511,150.217 193.160,149.854 192.192 C 149.491 191.224,149.095 190.347,148.974 190.244 C 148.132 189.529,146.216 185.966,145.749 184.248 C 145.439 183.108,144.559 180.850,143.794 179.230 C 143.028 177.609,142.394 176.174,142.385 176.040 C 142.309 174.961,141.558 172.066,140.326 168.105 C 137.245 158.199,136.973 155.204,137.127 132.833 C 137.266 112.676,137.889 106.463,140.346 100.731 C 140.757 99.771,141.333 97.840,141.625 96.439 C 142.139 93.973,142.388 93.359,144.664 88.931 C 146.537 85.288,146.458 78.681,144.517 76.603 C 142.994 74.973,137.926 73.963,134.146 74.537 M141.693 75.918 C 144.636 76.820,145.216 77.844,145.216 82.134 C 145.216 85.487,144.560 88.024,143.179 90.018 C 142.605 90.845,141.760 93.189,141.087 95.818 C 140.465 98.243,139.643 100.852,139.260 101.615 C 138.395 103.338,137.827 105.818,137.353 109.944 C 136.964 113.332,136.889 114.156,136.195 122.729 C 135.695 128.904,135.914 147.108,136.553 152.533 C 136.773 154.390,137.043 156.839,137.155 157.974 C 137.532 161.799,138.142 164.520,139.594 168.856 C 140.804 172.469,141.171 173.808,141.653 176.360 C 141.809 177.188,142.431 178.640,143.101 179.737 C 143.944 181.118,144.511 182.509,145.438 185.465 C 145.746 186.447,146.820 188.534,147.824 190.102 C 148.829 191.669,149.754 193.482,149.881 194.131 C 150.007 194.779,150.711 195.976,151.444 196.790 C 152.177 197.604,153.043 198.786,153.368 199.416 C 154.113 200.860,158.058 206.084,159.902 208.068 C 160.669 208.893,161.791 210.244,162.395 211.069 C 163.831 213.033,167.169 216.334,168.634 217.241 C 169.272 217.636,170.300 218.494,170.919 219.149 C 171.538 219.804,173.174 221.081,174.554 221.987 C 175.934 222.894,177.170 223.807,177.299 224.017 C 177.429 224.227,178.875 225.171,180.513 226.116 C 182.150 227.060,183.490 227.987,183.490 228.175 C 183.490 228.364,183.662 228.518,183.872 228.518 C 184.083 228.518,184.885 228.912,185.655 229.393 C 186.425 229.875,187.583 230.450,188.228 230.671 C 188.874 230.892,190.131 231.601,191.021 232.246 C 191.923 232.899,194.250 233.919,196.276 234.548 C 198.275 235.170,200.206 236.003,200.565 236.400 C 201.278 237.188,203.594 237.948,208.135 238.885 C 209.749 239.218,212.167 239.955,213.508 240.523 C 218.880 242.797,225.167 243.340,246.154 243.340 C 267.427 243.340,275.350 242.668,279.592 240.504 C 281.612 239.473,282.642 239.154,286.776 238.277 C 288.584 237.894,290.663 237.210,291.396 236.757 C 292.246 236.232,293.585 235.864,295.085 235.743 L 297.441 235.554 299.323 237.383 C 302.834 240.796,303.447 244.266,301.302 248.583 C 300.689 249.816,300.188 251.104,300.188 251.446 C 300.188 252.687,298.551 256.295,297.141 258.161 C 296.596 258.884,295.792 260.561,295.356 261.888 C 294.919 263.215,294.237 264.650,293.840 265.077 C 293.442 265.504,292.405 267.120,291.535 268.668 C 290.665 270.216,289.392 272.108,288.707 272.872 C 288.022 273.637,287.093 274.988,286.642 275.874 C 286.192 276.761,285.129 278.186,284.281 279.041 C 281.168 282.182,279.174 284.382,279.170 284.682 C 279.162 285.158,274.261 290.139,272.593 291.367 C 271.776 291.968,270.516 293.017,269.794 293.698 C 268.079 295.315,262.561 299.395,260.412 300.636 C 259.483 301.172,258.390 301.979,257.983 302.429 C 257.575 302.879,256.478 303.595,255.544 304.018 C 254.610 304.442,253.358 305.199,252.761 305.699 C 251.471 306.779,248.652 308.231,247.128 308.598 C 246.529 308.743,245.347 309.328,244.501 309.898 C 242.702 311.111,239.932 312.427,238.409 312.793 C 237.211 313.081,235.185 314.033,234.897 314.443 C 234.538 314.954,230.445 316.290,228.456 316.545 C 227.355 316.687,225.103 317.302,223.452 317.912 C 219.292 319.450,215.998 320.313,213.150 320.611 C 210.298 320.908,206.531 321.387,202.658 321.942 C 201.127 322.162,199.354 322.310,198.718 322.271 C 198.082 322.232,196.379 322.518,194.934 322.907 C 191.234 323.901,176.380 323.964,172.420 323.002 C 170.976 322.651,168.358 322.262,166.604 322.138 C 157.251 321.478,148.271 320.069,145.028 318.753 C 143.790 318.250,140.684 317.319,138.126 316.684 C 135.132 315.940,133.047 315.201,132.273 314.611 C 131.612 314.107,129.733 313.230,128.097 312.663 C 126.461 312.096,124.275 311.088,123.240 310.424 C 122.204 309.759,120.628 308.958,119.739 308.644 C 118.849 308.330,116.986 307.319,115.599 306.397 C 114.212 305.474,112.245 304.364,111.229 303.929 C 110.212 303.494,108.874 302.627,108.255 302.001 C 107.636 301.376,106.339 300.332,105.373 299.682 C 101.160 296.844,98.747 294.879,95.009 291.241 C 92.816 289.106,90.726 287.153,90.364 286.899 C 90.002 286.646,89.188 285.786,88.554 284.989 C 87.921 284.192,86.898 283.233,86.281 282.858 C 85.664 282.483,85.012 281.796,84.831 281.332 C 84.650 280.868,83.430 279.130,82.120 277.470 C 80.809 275.811,79.403 273.827,78.995 273.061 C 78.587 272.296,78.146 271.670,78.014 271.670 C 77.789 271.670,77.206 270.845,74.765 267.073 C 74.198 266.196,73.499 265.232,73.212 264.930 C 72.926 264.629,72.446 263.785,72.147 263.054 C 71.088 260.472,69.312 257.036,69.035 257.036 C 68.791 257.036,68.140 255.541,66.704 251.677 C 66.490 251.103,65.831 250.024,65.240 249.279 C 64.161 247.921,63.990 247.450,62.818 242.589 C 62.469 241.144,61.715 239.103,61.141 238.052 C 60.021 235.999,59.470 234.199,59.144 231.520 C 58.705 227.916,57.440 221.393,57.031 220.630 C 54.961 216.761,54.109 191.054,55.689 180.113 C 55.764 179.597,55.946 178.330,56.095 177.298 C 56.244 176.266,56.444 175.293,56.539 175.135 C 56.634 174.976,56.790 174.385,56.886 173.821 C 56.981 173.257,57.489 170.769,58.014 168.293 C 58.540 165.816,59.052 163.030,59.153 162.101 C 59.458 159.291,60.382 155.699,60.945 155.137 C 61.506 154.575,62.036 153.013,63.417 147.842 C 63.885 146.088,64.474 144.483,64.725 144.276 C 65.231 143.859,66.576 141.319,66.910 140.150 C 67.028 139.737,67.399 138.431,67.734 137.248 C 68.070 136.059,68.893 134.437,69.572 133.624 C 70.248 132.815,71.174 131.158,71.628 129.943 C 72.083 128.727,72.952 127.150,73.561 126.437 C 74.169 125.724,75.163 124.212,75.769 123.077 C 76.376 121.942,77.366 120.507,77.969 119.887 C 78.572 119.268,79.301 118.108,79.587 117.310 C 79.874 116.512,80.694 115.245,81.409 114.496 C 82.125 113.746,83.293 112.373,84.004 111.445 C 84.715 110.516,86.025 108.996,86.915 108.068 C 87.805 107.139,89.396 105.366,90.451 104.128 C 93.479 100.574,96.509 97.538,97.936 96.625 C 98.659 96.163,100.032 95.045,100.988 94.140 C 103.797 91.483,106.839 88.931,107.198 88.931 C 107.565 88.931,110.551 87.036,112.581 85.516 C 113.298 84.979,114.686 84.162,115.666 83.700 C 116.646 83.238,117.448 82.723,117.448 82.555 C 117.448 82.048,119.716 80.877,122.889 79.745 C 124.540 79.156,126.144 78.475,126.454 78.232 C 127.931 77.070,131.278 75.873,134.709 75.278 C 136.078 75.041,140.007 75.401,141.693 75.918 " stroke="none" fill="#dcdcdc" fill-rule="evenodd"></path><path id="path3" d="M221.400 13.039 C 220.463 13.981,219.910 14.943,219.730 15.947 C 219.582 16.773,218.943 18.523,218.309 19.836 C 217.497 21.518,216.910 23.688,216.320 27.179 C 215.313 33.143,215.428 32.913,211.691 36.484 C 208.028 39.983,207.384 40.328,203.134 41.065 C 199.160 41.755,196.218 42.588,194.290 43.570 C 193.523 43.961,192.049 44.462,191.016 44.683 C 184.979 45.978,185.910 54.173,192.182 54.955 C 197.304 55.593,200.989 56.372,202.080 57.046 C 203.586 57.976,206.039 58.855,208.406 59.310 C 210.615 59.736,210.925 59.973,212.630 62.542 C 213.360 63.641,214.089 64.540,214.250 64.540 C 214.822 64.540,215.406 66.674,216.302 72.045 C 217.902 81.639,221.139 87.581,224.377 86.870 C 228.059 86.061,229.478 83.705,230.368 76.922 C 230.961 72.408,231.235 71.356,232.412 69.082 C 233.159 67.637,233.771 66.188,233.771 65.861 C 233.771 63.895,236.350 60.584,238.540 59.736 C 239.116 59.513,241.561 58.563,243.972 57.625 C 247.364 56.305,249.192 55.829,252.040 55.522 C 257.980 54.882,259.383 54.174,260.988 51.007 C 262.303 48.413,261.775 46.762,259.230 45.512 C 253.637 42.764,251.558 42.038,247.620 41.458 C 242.150 40.653,240.417 40.096,238.700 38.589 C 237.915 37.900,236.765 37.064,236.145 36.731 C 235.191 36.220,234.859 35.615,233.984 32.791 C 233.416 30.957,232.460 28.331,231.861 26.955 C 231.096 25.202,230.659 23.378,230.397 20.851 C 229.805 15.143,228.657 13.163,225.376 12.188 C 222.894 11.451,223.005 11.428,221.400 13.039 M224.837 13.574 C 227.295 14.311,228.021 15.830,229.286 22.889 C 229.712 25.263,230.161 27.458,230.283 27.767 C 230.406 28.077,230.569 28.657,230.646 29.056 C 230.723 29.455,231.108 30.468,231.502 31.307 C 231.896 32.146,232.637 33.792,233.149 34.963 C 234.106 37.154,238.521 41.022,240.632 41.520 C 241.089 41.628,242.308 41.878,243.340 42.075 C 244.371 42.273,245.849 42.679,246.623 42.978 C 247.397 43.277,248.030 43.447,248.030 43.356 C 248.030 43.265,248.620 43.437,249.342 43.738 C 250.063 44.040,250.696 44.266,250.749 44.242 C 250.823 44.208,253.188 44.841,254.409 45.222 C 261.745 47.509,260.693 52.914,252.699 54.012 C 245.843 54.954,243.563 55.490,241.651 56.608 C 240.722 57.151,239.878 57.601,239.775 57.607 C 239.147 57.645,235.342 59.720,234.854 60.290 C 233.451 61.931,229.200 70.919,229.827 70.919 C 229.922 70.919,229.848 71.321,229.661 71.812 C 229.474 72.303,229.285 73.949,229.240 75.470 C 228.968 84.692,222.109 88.027,220.271 79.831 C 220.028 78.748,219.732 77.608,219.614 77.298 C 219.496 76.989,219.357 76.537,219.305 76.295 C 219.254 76.053,218.789 74.533,218.272 72.918 C 217.755 71.303,217.141 69.053,216.907 67.917 C 215.880 62.928,213.104 59.575,208.541 57.814 C 206.836 57.156,204.996 56.376,204.453 56.081 C 203.313 55.462,199.536 54.545,196.811 54.227 C 192.811 53.759,192.102 53.564,190.697 52.546 C 188.151 50.702,187.425 47.902,189.244 46.945 C 189.985 46.555,194.301 45.209,196.021 44.831 C 197.504 44.506,199.457 43.789,199.964 43.384 C 200.254 43.153,200.556 43.030,200.635 43.110 C 200.714 43.190,202.799 42.694,205.269 42.007 C 210.538 40.540,215.693 36.527,216.329 33.396 C 216.833 30.919,217.485 28.502,217.849 27.763 C 218.104 27.245,218.402 26.316,218.511 25.699 C 218.620 25.082,219.130 23.311,219.643 21.764 C 220.157 20.216,220.783 17.887,221.035 16.589 C 221.651 13.408,222.373 12.836,224.837 13.574 M292.385 70.973 C 291.705 71.408,290.831 72.388,290.442 73.149 C 290.054 73.911,289.471 74.754,289.148 75.022 C 288.256 75.762,287.894 77.628,287.248 84.803 C 286.328 95.020,286.030 96.712,284.609 99.812 C 283.899 101.360,283.143 103.551,282.928 104.682 C 281.804 110.615,274.649 116.075,266.879 116.930 C 265.696 117.060,263.590 117.657,262.198 118.258 C 259.184 119.558,257.308 119.922,250.844 120.460 C 240.129 121.352,237.005 123.299,237.009 129.081 C 237.012 133.010,237.694 133.861,241.839 135.104 C 242.664 135.352,244.232 135.970,245.323 136.479 C 247.530 137.507,252.071 138.428,255.033 138.448 C 257.788 138.467,262.333 139.403,264.138 140.324 C 264.984 140.755,267.320 141.541,269.330 142.070 C 275.316 143.645,281.245 148.537,282.734 153.128 C 283.096 154.245,283.877 156.281,284.469 157.653 C 285.991 161.176,286.616 164.226,287.044 170.211 C 287.634 178.453,290.482 186.978,292.960 187.914 C 296.995 189.440,299.812 188.621,301.730 185.366 C 303.885 181.709,303.898 181.663,304.504 174.928 C 305.594 162.824,305.663 162.406,307.059 159.620 C 307.771 158.199,308.644 155.818,308.998 154.329 C 310.213 149.225,316.176 143.320,321.013 142.431 C 321.839 142.279,324.505 141.487,326.938 140.671 C 330.150 139.593,332.463 139.081,335.381 138.799 C 343.865 137.981,347.900 137.001,352.684 134.599 C 356.478 132.694,356.203 126.206,352.229 123.840 C 351.158 123.202,349.770 122.353,349.144 121.954 C 348.312 121.423,346.297 121.020,341.639 120.454 C 334.334 119.566,334.779 119.664,330.582 118.010 C 328.827 117.319,326.126 116.578,324.578 116.365 C 319.907 115.722,319.515 115.525,313.612 110.882 C 310.677 108.573,309.671 107.089,308.841 103.842 C 308.432 102.243,307.661 100.190,307.127 99.280 C 305.708 96.858,305.468 95.725,305.043 89.420 C 304.060 74.859,301.774 70.159,295.685 70.176 C 294.234 70.180,293.254 70.416,292.385 70.973 M298.321 71.923 C 298.905 72.268,299.476 72.817,299.588 73.142 C 299.700 73.467,300.125 74.304,300.532 75.002 C 300.939 75.700,301.373 77.220,301.496 78.379 C 301.620 79.539,302.049 81.754,302.451 83.302 C 302.853 84.850,303.602 89.151,304.117 92.859 C 304.930 98.714,305.223 99.950,306.345 102.240 C 307.056 103.691,307.907 105.654,308.237 106.603 C 308.854 108.379,313.102 113.321,314.011 113.321 C 314.269 113.321,314.936 113.754,315.495 114.284 C 316.905 115.622,318.918 116.610,321.470 117.217 C 322.664 117.501,324.906 118.191,326.454 118.752 C 330.346 120.163,331.172 120.352,337.148 121.206 C 343.326 122.089,346.164 122.770,348.920 124.031 C 350.028 124.538,351.161 124.953,351.437 124.953 C 352.628 124.953,353.846 126.949,353.841 128.889 C 353.832 131.844,352.459 133.675,349.906 134.135 C 347.192 134.623,346.433 134.772,344.856 135.124 C 343.936 135.330,343.007 135.640,342.792 135.813 C 342.125 136.349,337.368 137.299,332.270 137.914 C 327.901 138.440,322.462 139.847,321.373 140.732 C 321.158 140.907,320.425 141.148,319.743 141.268 C 315.425 142.029,309.538 147.756,307.891 152.799 C 307.534 153.891,306.753 155.832,306.155 157.112 C 305.556 158.393,304.977 160.081,304.868 160.865 C 304.758 161.648,304.599 162.627,304.515 163.039 C 304.430 163.452,304.249 164.803,304.113 166.041 C 303.976 167.280,303.375 170.692,302.777 173.625 C 302.178 176.558,301.689 179.391,301.689 179.920 C 301.689 180.449,301.353 181.837,300.942 183.005 C 298.527 189.877,292.470 188.402,290.847 180.547 C 290.606 179.379,290.079 176.989,289.677 175.235 C 288.965 172.135,287.920 166.333,287.041 160.600 C 286.804 159.053,286.095 156.689,285.466 155.347 C 284.836 154.006,283.923 152.015,283.435 150.923 C 282.666 149.202,279.904 146.106,276.735 143.412 C 276.024 142.807,273.150 141.483,272.523 141.472 C 272.271 141.467,270.991 140.972,269.679 140.371 C 266.731 139.021,264.015 138.370,257.036 137.341 C 254.043 136.900,250.666 136.196,249.531 135.777 C 248.396 135.357,247.214 134.952,246.904 134.876 C 239.654 133.092,238.926 132.744,238.266 130.744 C 237.423 128.192,238.159 125.986,240.150 125.097 C 246.043 122.466,247.363 122.142,255.347 121.361 C 258.022 121.099,263.743 120.132,264.540 119.807 C 264.850 119.680,265.188 119.556,265.291 119.531 C 269.187 118.571,276.221 115.899,277.298 114.970 C 281.354 111.474,281.959 110.754,283.351 107.779 C 284.150 106.073,284.803 104.395,284.803 104.051 C 284.803 103.707,285.121 103.077,285.509 102.651 C 286.247 101.841,287.072 97.936,287.813 91.745 C 288.161 88.836,288.864 85.010,289.536 82.364 C 289.640 81.951,289.867 80.600,290.039 79.362 C 290.970 72.646,294.372 69.590,298.321 71.923 M134.967 72.426 C 134.386 72.601,133.710 72.905,133.466 73.101 C 133.221 73.298,131.615 73.812,129.897 74.242 C 128.180 74.672,125.562 75.685,124.081 76.492 C 122.600 77.299,120.529 78.237,119.479 78.577 C 118.413 78.922,117.087 79.708,116.477 80.356 C 115.876 80.995,114.343 81.990,113.070 82.568 C 111.798 83.145,109.807 84.391,108.647 85.336 C 107.487 86.281,106.377 87.054,106.181 87.054 C 105.985 87.054,104.903 87.856,103.777 88.837 C 100.728 91.492,97.253 94.381,94.964 96.164 C 93.845 97.035,91.519 99.353,89.794 101.313 C 88.070 103.274,85.843 105.807,84.847 106.942 C 83.850 108.077,82.760 109.541,82.424 110.196 C 82.087 110.850,81.300 111.751,80.673 112.197 C 80.046 112.644,79.210 113.628,78.816 114.384 C 78.422 115.141,77.392 116.604,76.527 117.636 C 75.662 118.668,74.469 120.513,73.875 121.735 C 73.282 122.958,72.446 124.285,72.017 124.684 C 71.589 125.083,70.687 126.616,70.013 128.090 C 69.340 129.563,68.370 131.276,67.859 131.895 C 66.845 133.122,66.396 134.169,65.510 137.371 C 65.190 138.525,64.612 139.876,64.225 140.372 C 63.064 141.862,62.349 143.488,61.510 146.547 C 61.072 148.144,60.142 150.565,59.443 151.929 C 58.411 153.944,58.062 155.254,57.580 158.912 C 57.160 162.098,56.668 164.128,55.899 165.854 C 52.243 174.056,52.285 220.500,55.954 227.829 C 56.333 228.585,56.990 231.202,57.414 233.645 C 57.974 236.863,58.545 238.810,59.488 240.713 C 60.205 242.158,61.206 244.853,61.714 246.703 C 62.222 248.553,62.983 250.495,63.406 251.018 C 64.318 252.148,65.380 254.286,66.268 256.778 C 66.622 257.772,67.380 259.174,67.952 259.894 C 68.525 260.614,69.430 262.348,69.965 263.749 C 70.516 265.190,71.440 266.768,72.095 267.387 C 72.731 267.988,73.667 269.350,74.176 270.414 C 74.684 271.478,75.651 272.997,76.325 273.791 C 76.998 274.585,78.166 276.205,78.920 277.392 C 79.674 278.579,80.456 279.550,80.659 279.550 C 80.861 279.550,81.698 280.458,82.518 281.568 C 84.168 283.801,97.007 296.811,97.562 296.811 C 97.754 296.811,98.743 297.549,99.760 298.453 C 100.777 299.356,102.513 300.713,103.619 301.469 C 104.724 302.226,106.411 303.386,107.368 304.049 C 108.325 304.711,109.929 305.722,110.933 306.295 C 111.937 306.868,113.311 307.740,113.986 308.233 C 114.662 308.727,116.227 309.472,117.464 309.890 C 118.711 310.311,120.221 311.157,120.853 311.790 C 121.619 312.556,122.950 313.224,124.907 313.825 C 126.509 314.317,128.554 315.251,129.450 315.900 C 131.084 317.084,134.110 318.199,135.688 318.199 C 136.152 318.199,137.635 318.774,138.984 319.478 C 141.803 320.947,145.021 321.818,148.780 322.129 C 153.207 322.495,154.542 322.723,156.769 323.496 C 165.737 326.612,196.662 327.190,205.515 324.409 C 209.765 323.073,211.361 322.747,215.760 322.313 C 220.664 321.829,221.985 321.500,225.516 319.887 C 227.100 319.163,229.544 318.414,231.108 318.174 C 234.169 317.705,236.550 316.808,238.385 315.435 C 239.046 314.940,240.833 314.147,242.355 313.673 C 244.235 313.088,245.499 312.429,246.295 311.618 C 247.073 310.825,248.121 310.270,249.414 309.965 C 250.485 309.712,252.155 308.970,253.126 308.317 C 254.097 307.664,255.934 306.454,257.209 305.629 C 264.270 301.057,265.657 300.114,267.514 298.628 C 268.634 297.731,270.322 296.213,271.266 295.253 C 272.211 294.293,273.490 293.254,274.109 292.945 C 275.134 292.432,277.468 290.064,281.949 284.991 C 282.861 283.959,284.518 282.101,285.632 280.863 C 286.746 279.625,287.973 278.105,288.358 277.486 C 288.743 276.867,289.713 275.580,290.513 274.627 C 291.313 273.673,292.311 271.988,292.732 270.882 C 293.152 269.776,294.045 268.337,294.717 267.685 C 295.430 266.993,296.297 265.506,296.802 264.113 C 297.278 262.800,298.181 261.063,298.810 260.253 C 299.439 259.443,300.356 257.670,300.848 256.313 C 301.340 254.956,302.448 252.580,303.310 251.032 C 309.501 239.920,298.450 228.355,288.189 235.206 C 286.392 236.407,285.509 236.718,282.846 237.090 C 278.705 237.670,275.567 238.499,274.114 239.397 C 271.858 240.791,267.051 241.088,246.904 241.083 C 226.039 241.078,222.830 240.850,218.306 239.051 C 216.802 238.454,214.221 237.769,212.570 237.529 C 208.270 236.905,205.325 236.096,203.533 235.046 C 202.674 234.543,200.481 233.627,198.658 233.011 C 196.835 232.395,194.742 231.473,194.006 230.963 C 193.270 230.454,191.574 229.597,190.236 229.060 C 188.899 228.523,187.203 227.608,186.467 227.025 C 184.930 225.809,182.391 224.390,181.753 224.390 C 181.515 224.390,180.499 223.665,179.496 222.779 C 178.494 221.893,176.820 220.630,175.776 219.972 C 174.732 219.314,173.468 218.340,172.968 217.807 C 172.467 217.275,171.484 216.484,170.782 216.050 C 168.375 214.563,162.365 208.011,159.518 203.771 C 159.026 203.039,157.989 201.764,157.214 200.938 C 156.438 200.113,155.510 198.846,155.152 198.124 C 154.793 197.402,153.949 196.051,153.277 195.122 C 152.604 194.193,151.532 192.277,150.894 190.864 C 150.255 189.452,149.231 187.724,148.617 187.025 C 147.518 185.773,146.964 184.310,146.523 181.497 C 146.400 180.711,145.640 178.817,144.835 177.287 C 143.699 175.130,143.191 173.516,142.570 170.087 C 142.130 167.655,141.425 164.822,141.003 163.790 C 138.656 158.048,138.703 158.630,138.675 135.084 C 138.649 113.648,138.828 110.047,139.986 108.612 C 140.459 108.027,142.057 101.978,142.757 98.124 C 143.195 95.713,143.727 94.157,144.619 92.683 C 151.149 81.887,145.180 69.361,134.967 72.426 M142.005 75.077 C 146.087 76.237,147.474 83.465,144.664 88.931 C 142.388 93.359,142.139 93.973,141.625 96.439 C 141.333 97.840,140.757 99.771,140.346 100.731 C 137.889 106.463,137.266 112.676,137.127 132.833 C 136.973 155.204,137.245 158.199,140.326 168.105 C 141.558 172.066,142.309 174.961,142.385 176.040 C 142.394 176.174,143.028 177.609,143.794 179.230 C 144.559 180.850,145.439 183.108,145.749 184.248 C 146.216 185.966,148.132 189.529,148.974 190.244 C 149.095 190.347,149.491 191.224,149.854 192.192 C 150.217 193.160,150.920 194.511,151.415 195.194 C 151.910 195.877,152.648 197.038,153.054 197.775 C 154.264 199.969,159.570 206.756,162.008 209.227 C 162.265 209.489,162.477 209.883,162.477 210.105 C 162.477 210.326,162.645 210.507,162.852 210.507 C 163.058 210.507,163.227 210.740,163.227 211.026 C 163.227 211.312,163.607 211.802,164.071 212.114 C 164.536 212.427,165.855 213.586,167.004 214.690 C 168.153 215.795,169.719 217.175,170.486 217.757 C 171.252 218.340,172.170 219.116,172.525 219.481 C 172.880 219.847,174.268 220.870,175.610 221.754 C 176.951 222.639,178.218 223.552,178.424 223.783 C 178.630 224.014,179.728 224.696,180.863 225.299 C 181.998 225.902,183.011 226.512,183.114 226.656 C 183.459 227.135,187.412 229.500,188.743 230.024 C 190.068 230.545,192.117 231.824,192.533 232.389 C 192.657 232.557,192.994 232.731,193.283 232.775 C 193.572 232.818,193.977 232.956,194.184 233.081 C 194.390 233.206,195.125 233.429,195.818 233.578 C 197.405 233.918,200.134 235.116,202.000 236.290 C 202.866 236.836,204.878 237.471,207.065 237.891 C 209.061 238.274,211.201 238.785,211.820 239.028 C 212.439 239.270,213.362 239.548,213.872 239.644 C 214.382 239.740,214.973 239.954,215.185 240.118 C 220.321 244.085,269.720 243.655,279.362 239.559 C 280.188 239.209,282.570 238.533,284.657 238.058 C 286.744 237.582,289.100 236.829,289.893 236.384 C 298.819 231.371,306.474 239.993,301.859 249.863 C 301.146 251.387,300.563 252.789,300.563 252.979 C 300.563 253.571,299.010 256.777,297.962 258.349 C 297.412 259.174,296.674 260.568,296.323 261.445 C 294.728 265.431,294.379 266.125,293.755 266.562 C 293.388 266.819,292.586 268.041,291.972 269.279 C 291.358 270.516,290.212 272.310,289.424 273.265 C 288.637 274.220,287.668 275.608,287.270 276.349 C 286.873 277.091,285.773 278.494,284.826 279.468 C 281.693 282.688,279.174 285.589,279.174 285.978 C 279.174 286.416,273.962 291.557,273.517 291.557 C 273.356 291.557,272.997 291.768,272.719 292.026 C 270.466 294.118,268.259 296.023,267.179 296.811 C 266.471 297.326,265.588 298.044,265.216 298.405 C 264.844 298.766,264.452 299.062,264.344 299.062 C 264.119 299.062,260.951 301.147,258.724 302.760 C 257.899 303.358,256.801 304.080,256.285 304.363 C 255.769 304.646,254.672 305.389,253.846 306.014 C 252.379 307.125,248.408 309.193,247.742 309.193 C 247.558 309.193,246.070 309.957,244.436 310.890 C 242.801 311.823,240.815 312.763,240.023 312.977 C 238.421 313.411,235.754 314.721,235.442 315.226 C 235.188 315.636,232.284 316.512,228.143 317.429 C 226.388 317.817,224.447 318.346,223.827 318.604 C 223.208 318.863,222.617 319.090,222.514 319.110 C 222.411 319.130,221.820 319.348,221.201 319.595 C 219.458 320.292,215.781 321.151,213.505 321.395 C 212.372 321.516,210.263 321.772,208.818 321.965 C 207.373 322.157,204.447 322.485,202.315 322.695 C 200.183 322.904,196.753 323.419,194.692 323.839 C 188.809 325.037,171.859 324.818,170.237 323.523 C 169.993 323.328,168.021 323.067,165.854 322.944 C 163.687 322.821,161.528 322.640,161.058 322.542 C 160.587 322.445,158.223 322.101,155.804 321.778 C 151.158 321.158,146.248 320.176,144.841 319.587 C 143.986 319.229,135.460 316.698,135.108 316.698 C 134.939 316.698,134.190 316.443,133.443 316.131 C 132.697 315.819,131.989 315.608,131.870 315.662 C 131.752 315.716,131.487 315.461,131.283 315.095 C 131.078 314.730,130.752 314.529,130.559 314.648 C 130.365 314.768,130.206 314.701,130.206 314.499 C 130.206 314.298,129.067 313.760,127.674 313.305 C 124.890 312.395,122.540 311.239,121.414 310.225 C 121.012 309.864,120.497 309.568,120.268 309.568 C 119.658 309.568,115.328 307.270,112.954 305.686 C 111.824 304.932,110.632 304.315,110.305 304.315 C 109.978 304.315,109.215 303.831,108.608 303.240 C 108.001 302.648,106.492 301.505,105.253 300.699 C 104.015 299.893,102.495 298.754,101.876 298.167 C 101.257 297.581,99.991 296.585,99.062 295.953 C 97.004 294.552,84.084 281.560,81.960 278.756 C 81.118 277.644,79.627 275.553,78.646 274.109 C 75.023 268.773,74.287 267.701,73.366 266.417 C 72.848 265.694,71.836 263.872,71.116 262.367 C 70.396 260.861,69.322 258.920,68.729 258.051 C 68.136 257.183,67.437 255.797,67.176 254.972 C 66.602 253.155,64.901 249.906,64.525 249.906 C 64.376 249.906,63.801 248.429,63.248 246.623 C 61.362 240.464,61.050 239.587,60.212 238.086 C 59.456 236.732,58.470 232.715,57.910 228.705 C 57.795 227.880,57.365 225.938,56.955 224.390 C 55.587 219.224,55.368 217.920,54.783 211.445 C 54.302 206.126,54.305 186.773,54.788 181.426 C 55.239 176.431,55.338 175.828,56.641 170.169 C 57.985 164.336,58.497 161.884,58.904 159.337 C 59.121 157.978,59.444 156.483,59.623 156.013 C 59.802 155.544,59.970 155.034,59.998 154.881 C 60.026 154.728,60.474 153.842,60.993 152.911 C 61.513 151.981,61.827 151.220,61.692 151.220 C 61.557 151.220,61.614 151.008,61.819 150.750 C 62.024 150.492,62.307 149.606,62.450 148.780 C 62.834 146.550,64.051 143.454,64.862 142.643 C 65.526 141.979,66.098 140.487,67.112 136.773 C 67.338 135.947,68.126 134.359,68.864 133.242 C 69.601 132.125,70.553 130.437,70.979 129.490 C 71.404 128.542,72.156 127.230,72.649 126.573 C 73.142 125.916,73.546 125.212,73.546 125.009 C 73.546 124.806,73.680 124.584,73.843 124.515 C 74.006 124.447,74.688 123.411,75.357 122.214 C 76.027 121.017,77.002 119.558,77.524 118.973 C 78.046 118.387,78.758 117.386,79.105 116.750 C 79.785 115.505,83.929 110.093,84.721 109.416 C 84.985 109.190,86.633 107.317,88.383 105.253 C 92.274 100.666,95.015 97.845,96.998 96.390 C 98.691 95.148,101.808 92.465,104.096 90.283 C 104.939 89.478,106.212 88.575,106.925 88.276 C 107.638 87.976,109.157 87.011,110.302 86.132 C 111.446 85.253,113.337 84.083,114.504 83.533 C 115.671 82.982,116.718 82.290,116.832 81.994 C 117.029 81.479,120.432 79.550,121.142 79.550 C 121.330 79.550,122.095 79.295,122.842 78.983 C 123.588 78.671,124.242 78.459,124.295 78.512 C 124.347 78.565,124.897 78.263,125.516 77.841 C 126.498 77.172,128.530 76.120,129.081 75.996 C 129.184 75.973,130.113 75.674,131.144 75.331 C 134.411 74.247,138.726 74.146,142.005 75.077 " stroke="none" fill="#e4e4e4" fill-rule="evenodd"></path></g></svg>