<svg id="svg" version="1.1" xmlns="http://www.w3.org/2000/svg" xmlns:xlink="http://www.w3.org/1999/xlink" width="400" height="375" viewBox="0, 0, 400,375"><g id="svgg"><path id="path0" d="M135.647 97.972 C 134.615 98.150,132.413 98.468,130.754 98.679 C 129.095 98.891,126.731 99.418,125.501 99.850 C 124.271 100.283,121.829 100.773,120.075 100.939 C 115.101 101.409,114.070 101.676,111.228 103.224 C 109.768 104.020,107.404 104.932,105.975 105.250 C 104.546 105.569,103.039 105.905,102.627 105.997 C 102.214 106.090,100.992 106.833,99.911 107.648 C 98.830 108.463,97.057 109.416,95.971 109.766 C 94.795 110.145,93.523 110.904,92.826 111.641 C 92.182 112.323,90.916 113.253,90.012 113.709 C 89.107 114.164,87.692 115.081,86.867 115.747 C 86.041 116.412,84.606 117.428,83.677 118.005 C 82.749 118.582,81.216 119.769,80.272 120.644 C 79.327 121.519,78.200 122.347,77.766 122.485 C 77.332 122.622,76.631 123.322,76.208 124.040 C 75.784 124.757,74.837 125.699,74.103 126.132 C 73.369 126.565,72.499 127.448,72.170 128.094 C 71.842 128.740,70.792 130.140,69.839 131.206 C 67.838 133.441,65.743 136.189,63.594 139.398 C 62.764 140.637,61.664 142.097,61.150 142.642 C 60.636 143.187,59.911 144.480,59.538 145.517 C 59.165 146.553,58.211 148.271,57.417 149.335 C 56.344 150.774,55.811 152.007,55.337 154.152 C 54.615 157.421,54.305 158.147,53.059 159.486 C 52.191 160.419,51.781 161.985,50.689 168.548 C 50.460 169.927,49.684 172.579,48.964 174.442 C 48.245 176.305,47.495 178.967,47.298 180.358 C 46.899 183.180,46.150 184.444,44.223 185.553 C 43.506 185.966,42.339 186.686,41.629 187.153 C 40.919 187.621,39.221 188.339,37.855 188.749 C 36.490 189.159,34.717 190.019,33.915 190.659 C 33.114 191.299,31.162 192.476,29.578 193.275 C 27.994 194.073,26.603 195.028,26.486 195.398 C 26.369 195.767,25.353 196.619,24.229 197.291 C 23.105 197.964,22.081 198.841,21.954 199.241 C 21.827 199.642,21.043 200.508,20.212 201.166 C 19.381 201.824,18.268 203.055,17.739 203.902 C 17.210 204.748,16.239 206.044,15.580 206.781 C 14.922 207.517,14.068 208.997,13.682 210.069 C 13.297 211.140,12.366 212.762,11.614 213.672 C 10.595 214.906,10.129 215.933,9.789 217.701 C 9.047 221.549,8.219 224.480,7.437 226.018 C 4.955 230.904,4.982 248.714,7.479 252.976 C 7.880 253.661,8.480 255.403,8.812 256.848 C 10.169 262.754,10.578 263.959,11.629 265.157 C 12.224 265.834,13.054 267.164,13.473 268.113 C 15.559 272.829,28.705 285.422,33.135 286.948 C 33.929 287.222,35.601 288.110,36.851 288.922 C 38.234 289.821,39.949 290.562,41.231 290.816 C 46.619 291.882,50.273 292.899,52.283 293.894 L 54.472 294.977 146.279 294.823 C 242.249 294.662,241.019 294.682,244.201 293.197 C 246.345 292.196,249.248 291.448,253.585 290.780 C 255.918 290.420,256.575 290.142,257.998 288.909 C 259.021 288.024,260.215 287.373,261.073 287.233 C 261.845 287.107,262.936 286.918,263.499 286.814 C 264.061 286.709,265.376 285.855,266.421 284.915 C 267.466 283.975,269.240 282.833,270.363 282.377 C 271.486 281.920,272.762 281.092,273.200 280.536 C 273.637 279.980,274.819 279.107,275.826 278.597 C 276.914 278.046,277.890 277.217,278.233 276.554 C 278.551 275.940,279.463 275.062,280.262 274.603 C 281.060 274.143,282.026 273.187,282.407 272.478 C 282.789 271.770,283.734 270.681,284.508 270.059 C 285.281 269.438,286.025 268.575,286.161 268.142 C 286.297 267.709,287.271 266.414,288.326 265.264 C 289.503 263.982,290.499 262.435,290.905 261.260 C 291.269 260.208,292.138 258.663,292.835 257.829 C 293.608 256.904,294.423 255.256,294.923 253.611 C 295.374 252.125,296.302 250.179,296.985 249.285 C 297.892 248.096,298.344 246.978,298.667 245.124 C 298.910 243.730,299.712 239.634,300.449 236.023 L 301.788 229.456 301.390 220.450 C 301.100 213.898,300.786 210.576,300.238 208.255 C 299.824 206.501,299.207 203.293,298.868 201.126 C 298.529 198.959,298.012 196.848,297.721 196.435 C 297.429 196.023,296.924 195.317,296.597 194.867 C 296.270 194.417,295.588 192.820,295.080 191.320 C 294.470 189.517,293.723 188.157,292.878 187.312 C 292.175 186.609,291.342 185.277,291.027 184.352 C 290.674 183.317,289.585 181.742,288.191 180.252 C 286.947 178.922,285.929 177.606,285.929 177.328 C 285.929 177.049,285.506 176.545,284.989 176.206 C 284.473 175.868,283.628 174.923,283.113 174.107 C 282.598 173.291,281.543 172.294,280.769 171.892 C 279.995 171.490,278.890 170.557,278.312 169.818 C 277.735 169.080,276.709 168.244,276.033 167.962 C 275.356 167.679,274.309 166.861,273.706 166.144 C 273.102 165.428,271.607 164.389,270.383 163.836 C 269.159 163.284,267.470 162.276,266.630 161.598 C 265.680 160.831,264.142 160.108,262.560 159.687 C 261.161 159.315,259.472 158.615,258.807 158.133 C 256.577 156.514,255.739 156.180,252.345 155.559 C 248.367 154.830,245.878 154.074,243.441 152.854 C 241.355 151.809,236.795 151.236,230.498 151.226 L 226.288 151.220 225.058 149.876 C 224.381 149.137,223.211 147.913,222.458 147.155 C 221.087 145.777,219.137 142.348,219.137 141.314 C 219.137 141.011,218.626 140.400,218.001 139.955 C 217.376 139.510,216.425 138.274,215.888 137.209 C 215.350 136.144,214.246 134.597,213.434 133.771 C 200.629 120.754,197.652 117.824,197.234 117.824 C 196.962 117.824,195.896 117.014,194.863 116.024 C 193.748 114.955,192.353 114.035,191.426 113.757 C 190.521 113.486,189.148 112.593,188.158 111.630 C 186.990 110.495,186.011 109.899,185.063 109.745 C 183.062 109.421,182.038 108.937,179.925 107.317 C 178.844 106.489,177.413 105.770,176.548 105.622 C 175.722 105.480,173.509 104.623,171.629 103.716 C 168.090 102.010,165.336 101.336,158.770 100.571 C 156.835 100.345,154.308 99.829,153.155 99.424 C 152.002 99.018,150.461 98.681,149.732 98.673 C 149.002 98.666,147.392 98.415,146.154 98.116 C 143.711 97.527,138.641 97.457,135.647 97.972 " stroke="none" fill="#b4b4b4" fill-rule="evenodd"></path><path id="path1" d="M285.741 43.782 C 285.328 43.893,284.050 44.377,282.899 44.858 C 281.749 45.339,279.048 46.082,276.896 46.509 C 273.695 47.145,272.608 47.545,270.919 48.710 C 269.784 49.494,267.956 50.502,266.857 50.950 C 265.758 51.398,264.238 52.244,263.480 52.829 C 262.722 53.415,261.452 54.267,260.658 54.723 C 259.864 55.179,257.446 57.026,255.286 58.827 C 253.125 60.628,250.614 62.608,249.707 63.227 C 247.284 64.880,241.115 71.969,237.961 76.725 C 237.273 77.763,236.321 79.034,235.846 79.550 C 235.371 80.066,234.717 81.014,234.393 81.657 C 234.069 82.301,233.193 83.626,232.447 84.604 C 231.702 85.581,230.578 87.672,229.952 89.250 C 229.325 90.829,228.424 92.637,227.949 93.270 C 226.763 94.848,226.120 96.497,225.366 99.884 C 225.013 101.472,224.286 103.414,223.751 104.200 C 220.828 108.493,220.940 115.896,223.978 119.136 C 224.559 119.755,225.731 121.221,226.580 122.393 C 227.430 123.565,228.294 124.627,228.500 124.755 C 228.706 124.882,229.497 126.118,230.258 127.502 C 232.650 131.856,233.760 132.588,238.883 133.194 C 244.782 133.892,247.419 134.405,249.719 135.302 C 250.957 135.785,253.737 136.622,255.898 137.161 C 258.086 137.707,260.828 138.697,262.089 139.397 C 263.334 140.088,265.321 140.931,266.504 141.271 C 267.688 141.611,269.491 142.463,270.512 143.165 C 271.532 143.867,273.480 144.967,274.841 145.610 C 276.201 146.253,277.775 147.164,278.338 147.634 C 278.901 148.105,280.038 148.833,280.863 149.253 C 285.462 151.588,301.684 167.060,305.211 172.475 C 306.172 173.949,307.220 175.373,307.540 175.639 C 307.860 175.905,308.603 177.182,309.190 178.476 C 309.777 179.770,310.764 181.470,311.384 182.253 C 312.047 183.091,312.919 185.029,313.501 186.958 C 314.045 188.762,314.878 190.704,315.352 191.273 C 316.410 192.543,316.880 193.991,317.591 198.161 C 317.894 199.935,318.558 202.383,319.067 203.602 C 320.127 206.135,320.675 208.615,321.158 213.060 C 321.582 216.951,322.198 217.802,324.389 217.519 C 332.575 216.463,336.052 215.704,338.243 214.495 C 339.498 213.802,341.728 212.876,343.198 212.437 C 344.669 211.998,346.731 211.048,347.782 210.325 C 348.833 209.602,350.359 208.781,351.173 208.501 C 352.739 207.961,354.935 206.685,357.411 204.875 C 358.236 204.271,359.215 203.772,359.585 203.765 C 359.955 203.758,361.052 203.028,362.024 202.143 C 362.995 201.258,364.381 200.097,365.103 199.563 C 366.960 198.190,378.479 186.534,379.320 185.178 C 379.703 184.559,380.559 183.546,381.221 182.927 C 381.884 182.308,382.644 181.282,382.911 180.648 C 383.177 180.014,383.925 178.893,384.571 178.157 C 385.217 177.421,386.344 175.505,387.076 173.901 C 387.807 172.296,388.789 170.527,389.258 169.969 C 389.727 169.412,390.496 167.540,390.966 165.810 C 391.437 164.080,392.511 160.807,393.353 158.537 C 395.909 151.650,395.609 146.232,392.456 142.323 C 391.755 141.455,390.905 140.357,390.566 139.884 C 389.519 138.422,385.487 138.760,381.318 140.660 C 379.520 141.480,376.951 142.441,375.610 142.796 C 374.268 143.151,372.451 143.848,371.572 144.346 C 368.317 146.190,365.933 146.725,356.871 147.646 C 354.072 147.930,351.155 148.428,350.387 148.753 C 348.597 149.511,346.395 149.508,345.555 148.748 C 345.098 148.334,343.603 148.045,340.648 147.799 C 329.406 146.862,326.110 146.182,321.707 143.886 C 320.338 143.173,319.016 142.589,318.770 142.589 C 318.524 142.589,316.920 141.737,315.205 140.695 C 313.490 139.654,311.562 138.580,310.922 138.310 C 307.041 136.673,294.934 122.480,294.934 119.567 C 294.934 119.275,294.281 118.045,293.483 116.835 C 292.199 114.888,291.898 113.958,290.868 108.762 C 290.227 105.532,289.433 102.155,289.103 101.257 C 287.776 97.652,288.026 87.059,289.539 82.814 C 289.848 81.947,290.585 79.100,291.177 76.487 C 291.815 73.668,292.794 70.616,293.582 68.982 C 294.313 67.468,295.104 65.385,295.339 64.353 C 295.761 62.507,296.359 61.115,298.155 57.800 C 299.272 55.739,299.456 50.156,298.487 47.734 C 297.246 44.631,290.445 42.523,285.741 43.782 M130.206 96.778 C 127.184 96.970,124.980 97.346,122.852 98.033 C 121.180 98.573,117.634 99.516,114.972 100.130 C 112.310 100.744,109.118 101.746,107.880 102.356 C 106.642 102.966,104.531 103.827,103.189 104.270 C 101.848 104.712,99.737 105.666,98.499 106.389 C 97.261 107.112,95.403 108.127,94.371 108.644 C 91.157 110.257,81.980 116.645,79.028 119.325 C 74.423 123.504,68.254 129.930,66.826 132.032 C 65.966 133.298,65.106 134.334,64.915 134.334 C 64.463 134.334,60.652 139.955,58.724 143.466 C 57.899 144.969,56.747 146.891,56.164 147.737 C 55.581 148.583,54.631 150.800,54.051 152.664 C 53.472 154.528,52.641 156.507,52.204 157.062 C 51.444 158.028,50.243 161.564,49.726 164.353 C 49.592 165.075,48.899 167.394,48.185 169.506 C 47.415 171.785,46.662 175.063,46.332 177.573 C 45.672 182.603,45.247 183.318,42.181 184.547 C 40.961 185.036,39.742 185.618,39.472 185.840 C 39.202 186.062,37.566 186.871,35.836 187.638 C 29.981 190.232,18.940 198.767,16.749 202.393 C 16.360 203.038,15.459 204.212,14.748 205.002 C 14.038 205.792,13.118 207.228,12.705 208.191 C 12.292 209.155,11.569 210.450,11.098 211.069 C 9.827 212.742,9.170 214.149,7.748 218.247 C 7.041 220.285,6.025 223.133,5.491 224.578 C 4.520 227.202,4.519 227.217,4.532 239.024 C 4.547 252.004,4.662 252.885,7.039 258.349 C 7.668 259.794,8.453 261.924,8.785 263.082 C 9.116 264.241,9.802 265.761,10.308 266.460 C 10.815 267.158,11.738 268.689,12.361 269.861 C 15.421 275.623,28.662 288.180,31.678 288.180 C 31.944 288.180,32.947 288.780,33.907 289.512 C 35.206 290.504,37.359 291.404,42.338 293.037 C 53.789 296.793,44.852 296.518,148.992 296.324 C 245.916 296.144,243.746 296.190,248.133 294.222 C 249.472 293.621,251.812 292.846,253.333 292.499 C 256.486 291.779,258.637 290.974,260.139 289.952 C 260.710 289.563,262.173 288.854,263.389 288.378 C 264.605 287.901,266.383 286.972,267.340 286.314 C 268.298 285.655,270.044 284.571,271.220 283.904 C 275.103 281.704,287.054 271.015,287.054 269.743 C 287.054 269.591,287.990 268.400,289.133 267.097 C 290.277 265.794,291.541 263.994,291.943 263.096 C 292.345 262.198,293.271 260.650,294.001 259.655 C 294.732 258.660,295.643 256.946,296.027 255.846 C 296.410 254.746,297.424 252.495,298.280 250.844 C 299.249 248.976,300.037 246.780,300.369 245.028 C 300.662 243.480,301.353 241.116,301.905 239.775 C 304.082 234.482,304.200 212.100,302.082 206.191 C 301.416 204.334,300.644 201.435,300.365 199.749 C 299.874 196.778,299.126 194.879,297.361 192.128 C 296.895 191.402,296.311 190.163,296.062 189.376 C 295.335 187.072,291.543 181.434,287.002 175.909 C 283.853 172.077,277.918 166.782,273.358 163.737 C 272.533 163.186,270.760 162.003,269.418 161.109 C 268.077 160.215,266.121 159.181,265.071 158.812 C 264.021 158.443,262.755 157.874,262.257 157.549 C 260.263 156.245,258.074 155.327,253.994 154.084 C 251.643 153.367,248.705 152.423,247.467 151.987 C 244.662 150.998,241.971 150.615,234.288 150.110 C 228.477 149.729,225.891 149.256,225.891 148.576 C 225.891 148.400,225.022 147.213,223.961 145.937 C 222.899 144.661,221.554 142.668,220.971 141.508 C 220.389 140.349,219.274 138.618,218.493 137.662 C 217.712 136.707,216.313 134.866,215.385 133.572 C 212.109 129.007,199.380 116.875,194.335 113.508 C 193.717 113.096,192.217 112.049,191.002 111.183 C 189.788 110.317,187.622 109.109,186.190 108.500 C 184.758 107.890,182.877 106.878,182.010 106.250 C 181.143 105.622,179.559 104.821,178.491 104.471 C 177.422 104.121,175.215 103.169,173.587 102.356 C 171.573 101.349,169.414 100.642,166.833 100.142 C 164.746 99.738,161.942 99.067,160.600 98.652 C 154.961 96.904,141.404 96.069,130.206 96.778 M146.154 98.116 C 147.392 98.415,149.002 98.666,149.732 98.673 C 150.461 98.681,152.002 99.018,153.155 99.424 C 154.308 99.829,156.835 100.345,158.770 100.571 C 165.336 101.336,168.090 102.010,171.629 103.716 C 173.509 104.623,175.722 105.480,176.548 105.622 C 177.413 105.770,178.844 106.489,179.925 107.317 C 182.038 108.937,183.062 109.421,185.063 109.745 C 186.011 109.899,186.990 110.495,188.158 111.630 C 189.148 112.593,190.521 113.486,191.426 113.757 C 192.353 114.035,193.748 114.955,194.863 116.024 C 195.896 117.014,196.962 117.824,197.234 117.824 C 197.652 117.824,200.629 120.754,213.434 133.771 C 214.246 134.597,215.350 136.144,215.888 137.209 C 216.425 138.274,217.376 139.510,218.001 139.955 C 218.626 140.400,219.137 141.011,219.137 141.314 C 219.137 142.348,221.087 145.777,222.458 147.155 C 223.211 147.913,224.381 149.137,225.058 149.876 L 226.288 151.220 230.498 151.226 C 236.795 151.236,241.355 151.809,243.441 152.854 C 245.878 154.074,248.367 154.830,252.345 155.559 C 255.739 156.180,256.577 156.514,258.807 158.133 C 259.472 158.615,261.161 159.315,262.560 159.687 C 264.142 160.108,265.680 160.831,266.630 161.598 C 267.470 162.276,269.159 163.284,270.383 163.836 C 271.607 164.389,273.102 165.428,273.706 166.144 C 274.309 166.861,275.356 167.679,276.033 167.962 C 276.709 168.244,277.735 169.080,278.312 169.818 C 278.890 170.557,279.995 171.490,280.769 171.892 C 281.543 172.294,282.598 173.291,283.113 174.107 C 283.628 174.923,284.473 175.868,284.989 176.206 C 285.506 176.545,285.929 177.049,285.929 177.328 C 285.929 177.606,286.947 178.922,288.191 180.252 C 289.585 181.742,290.674 183.317,291.027 184.352 C 291.342 185.277,292.175 186.609,292.878 187.312 C 293.723 188.157,294.470 189.517,295.080 191.320 C 295.588 192.820,296.270 194.417,296.597 194.867 C 296.924 195.317,297.429 196.023,297.721 196.435 C 298.012 196.848,298.529 198.959,298.868 201.126 C 299.207 203.293,299.824 206.501,300.238 208.255 C 300.786 210.576,301.100 213.898,301.390 220.450 L 301.788 229.456 300.449 236.023 C 299.712 239.634,298.910 243.730,298.667 245.124 C 298.344 246.978,297.892 248.096,296.985 249.285 C 296.302 250.179,295.374 252.125,294.923 253.611 C 294.423 255.256,293.608 256.904,292.835 257.829 C 292.138 258.663,291.269 260.208,290.905 261.260 C 290.499 262.435,289.503 263.982,288.326 265.264 C 287.271 266.414,286.297 267.709,286.161 268.142 C 286.025 268.575,285.281 269.438,284.508 270.059 C 283.734 270.681,282.789 271.770,282.407 272.478 C 282.026 273.187,281.060 274.143,280.262 274.603 C 279.463 275.062,278.551 275.940,278.233 276.554 C 277.890 277.217,276.914 278.046,275.826 278.597 C 274.819 279.107,273.637 279.980,273.200 280.536 C 272.762 281.092,271.486 281.920,270.363 282.377 C 269.240 282.833,267.466 283.975,266.421 284.915 C 265.376 285.855,264.061 286.709,263.499 286.814 C 262.936 286.918,261.845 287.107,261.073 287.233 C 260.215 287.373,259.021 288.024,257.998 288.909 C 256.575 290.142,255.918 290.420,253.585 290.780 C 249.248 291.448,246.345 292.196,244.201 293.197 C 241.019 294.682,242.249 294.662,146.279 294.823 L 54.472 294.977 52.283 293.894 C 50.273 292.899,46.619 291.882,41.231 290.816 C 39.949 290.562,38.234 289.821,36.851 288.922 C 35.601 288.110,33.929 287.222,33.135 286.948 C 28.705 285.422,15.559 272.829,13.473 268.113 C 13.054 267.164,12.224 265.834,11.629 265.157 C 10.578 263.959,10.169 262.754,8.812 256.848 C 8.480 255.403,7.880 253.661,7.479 252.976 C 4.982 248.714,4.955 230.904,7.437 226.018 C 8.219 224.480,9.047 221.549,9.789 217.701 C 10.129 215.933,10.595 214.906,11.614 213.672 C 12.366 212.762,13.297 211.140,13.682 210.069 C 14.068 208.997,14.922 207.517,15.580 206.781 C 16.239 206.044,17.210 204.748,17.739 203.902 C 18.268 203.055,19.381 201.824,20.212 201.166 C 21.043 200.508,21.827 199.642,21.954 199.241 C 22.081 198.841,23.105 197.964,24.229 197.291 C 25.353 196.619,26.369 195.767,26.486 195.398 C 26.603 195.028,27.994 194.073,29.578 193.275 C 31.162 192.476,33.114 191.299,33.915 190.659 C 34.717 190.019,36.490 189.159,37.855 188.749 C 39.221 188.339,40.919 187.621,41.629 187.153 C 42.339 186.686,43.506 185.966,44.223 185.553 C 46.150 184.444,46.899 183.180,47.298 180.358 C 47.495 178.967,48.245 176.305,48.964 174.442 C 49.684 172.579,50.460 169.927,50.689 168.548 C 51.781 161.985,52.191 160.419,53.059 159.486 C 54.305 158.147,54.615 157.421,55.337 154.152 C 55.811 152.007,56.344 150.774,57.417 149.335 C 58.211 148.271,59.165 146.553,59.538 145.517 C 59.911 144.480,60.636 143.187,61.150 142.642 C 61.664 142.097,62.764 140.637,63.594 139.398 C 65.743 136.189,67.838 133.441,69.839 131.206 C 70.792 130.140,71.842 128.740,72.170 128.094 C 72.499 127.448,73.369 126.565,74.103 126.132 C 74.837 125.699,75.784 124.757,76.208 124.040 C 76.631 123.322,77.332 122.622,77.766 122.485 C 78.200 122.347,79.327 121.519,80.272 120.644 C 81.216 119.769,82.749 118.582,83.677 118.005 C 84.606 117.428,86.041 116.412,86.867 115.747 C 87.692 115.081,89.107 114.164,90.012 113.709 C 90.916 113.253,92.182 112.323,92.826 111.641 C 93.523 110.904,94.795 110.145,95.971 109.766 C 97.057 109.416,98.830 108.463,99.911 107.648 C 100.992 106.833,102.214 106.090,102.627 105.997 C 103.039 105.905,104.546 105.569,105.975 105.250 C 107.404 104.932,109.768 104.020,111.228 103.224 C 114.070 101.676,115.101 101.409,120.075 100.939 C 121.829 100.773,124.271 100.283,125.501 99.850 C 126.731 99.418,129.095 98.891,130.754 98.679 C 132.413 98.468,134.615 98.150,135.647 97.972 C 138.641 97.457,143.711 97.527,146.154 98.116 " stroke="none" fill="#cccccc" fill-rule="evenodd"></path><path id="path2" d="M282.552 42.687 C 281.829 43.012,280.563 43.578,279.737 43.945 C 278.912 44.313,276.661 45.031,274.736 45.541 C 272.810 46.051,270.615 46.880,269.858 47.384 C 267.631 48.865,265.919 49.802,264.916 50.089 C 264.400 50.237,263.386 50.813,262.664 51.370 C 261.942 51.927,260.453 52.929,259.355 53.596 C 257.537 54.701,255.907 55.982,250.508 60.548 C 246.936 63.569,243.956 66.490,242.345 68.551 C 241.447 69.699,240.158 71.156,239.479 71.790 C 238.800 72.424,237.747 73.813,237.138 74.877 C 236.530 75.941,235.515 77.385,234.885 78.087 C 234.254 78.788,233.394 80.016,232.973 80.816 C 232.552 81.615,231.699 82.966,231.078 83.818 C 230.457 84.669,229.200 86.886,228.285 88.743 C 227.369 90.600,226.288 92.750,225.881 93.520 C 225.475 94.290,224.952 95.725,224.720 96.709 C 224.487 97.694,223.736 99.681,223.049 101.126 C 220.474 106.544,219.256 114.365,220.583 116.966 C 221.371 118.510,224.973 123.249,227.225 125.704 C 227.888 126.426,228.642 127.682,228.901 128.494 C 230.105 132.265,233.489 134.173,240.338 134.941 C 241.370 135.056,243.480 135.557,245.028 136.053 C 246.576 136.548,249.883 137.360,252.377 137.855 C 255.854 138.547,257.589 139.116,259.819 140.298 C 261.419 141.145,263.094 141.841,263.540 141.844 C 263.987 141.847,265.450 142.409,266.792 143.093 C 271.277 145.381,276.261 148.181,276.940 148.796 C 277.310 149.131,278.597 149.875,279.801 150.450 C 281.004 151.025,282.411 151.961,282.927 152.528 C 283.443 153.096,284.520 153.979,285.321 154.490 C 288.366 156.432,302.043 170.431,304.139 173.751 C 304.613 174.503,305.523 175.689,306.161 176.387 C 306.798 177.085,307.605 178.420,307.953 179.354 C 308.689 181.327,309.411 182.555,310.603 183.865 C 311.410 184.751,312.188 186.765,312.193 187.980 C 312.194 188.283,313.057 190.282,314.111 192.423 C 315.498 195.242,316.115 197.006,316.346 198.815 C 316.522 200.189,317.261 203.708,317.989 206.635 C 318.717 209.562,319.427 212.939,319.567 214.140 C 319.852 216.587,320.498 218.381,321.430 219.312 C 322.067 219.950,325.446 220.082,326.266 219.502 C 326.879 219.068,330.279 218.043,331.895 217.804 C 335.061 217.335,339.363 216.057,341.218 215.034 C 342.282 214.447,344.308 213.591,345.720 213.132 C 347.132 212.674,348.821 211.844,349.472 211.290 C 350.124 210.735,351.798 209.806,353.193 209.225 C 354.588 208.643,356.351 207.673,357.112 207.069 C 357.873 206.464,359.011 205.722,359.642 205.419 C 360.272 205.117,361.906 203.985,363.272 202.904 C 364.639 201.823,366.665 200.229,367.775 199.362 C 370.515 197.222,378.134 189.422,380.044 186.800 C 380.898 185.629,381.783 184.555,382.012 184.414 C 382.240 184.273,383.025 183.205,383.757 182.041 C 384.489 180.877,385.547 179.418,386.108 178.799 C 386.668 178.180,387.522 176.660,388.004 175.422 C 388.487 174.184,389.267 172.655,389.738 172.026 C 390.698 170.743,392.242 167.378,392.656 165.666 C 392.806 165.047,393.433 163.391,394.048 161.987 C 395.955 157.636,396.934 148.409,395.898 144.560 C 394.174 138.159,386.648 135.853,379.589 139.564 C 378.123 140.335,375.657 141.268,374.109 141.639 C 372.561 142.009,370.257 142.874,368.989 143.561 C 364.983 145.731,360.438 146.435,350.094 146.486 C 336.374 146.553,330.920 145.819,324.122 142.990 C 322.141 142.165,320.102 141.415,319.591 141.322 C 319.080 141.230,317.664 140.472,316.444 139.640 C 315.224 138.807,313.473 137.800,312.554 137.401 C 311.634 137.002,310.114 135.938,309.175 135.036 C 308.237 134.134,306.971 132.954,306.361 132.413 C 304.167 130.468,300.563 126.625,300.563 126.230 C 300.563 126.009,299.857 124.829,298.994 123.608 C 297.085 120.907,295.688 118.252,295.686 117.319 C 295.686 116.938,295.359 116.168,294.960 115.609 C 293.567 113.651,292.356 109.460,291.746 104.481 C 291.621 103.461,291.362 101.360,291.170 99.812 C 290.736 96.307,290.741 86.036,291.177 84.360 C 291.355 83.675,291.599 82.355,291.718 81.426 C 292.246 77.316,292.804 75.268,294.216 72.254 C 295.047 70.481,295.947 67.977,296.217 66.688 C 296.677 64.489,297.696 62.210,299.478 59.395 C 301.546 56.127,300.677 46.603,298.104 44.339 C 295.481 42.030,286.211 41.046,282.552 42.687 M295.783 45.006 C 299.219 47.090,300.427 53.607,298.155 57.800 C 296.359 61.115,295.761 62.507,295.339 64.353 C 295.104 65.385,294.313 67.468,293.582 68.982 C 292.794 70.616,291.815 73.668,291.177 76.487 C 290.585 79.100,289.848 81.947,289.539 82.814 C 288.026 87.059,287.776 97.652,289.103 101.257 C 289.433 102.155,290.227 105.532,290.868 108.762 C 291.898 113.958,292.199 114.888,293.483 116.835 C 294.281 118.045,294.934 119.275,294.934 119.567 C 294.934 122.480,307.041 136.673,310.922 138.310 C 311.562 138.580,313.490 139.654,315.205 140.695 C 316.920 141.737,318.524 142.589,318.770 142.589 C 319.016 142.589,320.338 143.173,321.707 143.886 C 326.110 146.182,329.406 146.862,340.648 147.799 C 343.603 148.045,345.098 148.334,345.555 148.748 C 346.395 149.508,348.597 149.511,350.387 148.753 C 351.155 148.428,354.072 147.930,356.871 147.646 C 365.933 146.725,368.317 146.190,371.572 144.346 C 372.451 143.848,374.268 143.151,375.610 142.796 C 376.951 142.441,379.520 141.480,381.318 140.660 C 385.487 138.760,389.519 138.422,390.566 139.884 C 390.905 140.357,391.755 141.455,392.456 142.323 C 395.609 146.232,395.909 151.650,393.353 158.537 C 392.511 160.807,391.437 164.080,390.966 165.810 C 390.496 167.540,389.727 169.412,389.258 169.969 C 388.789 170.527,387.807 172.296,387.076 173.901 C 386.344 175.505,385.217 177.421,384.571 178.157 C 383.925 178.893,383.177 180.014,382.911 180.648 C 382.644 181.282,381.884 182.308,381.221 182.927 C 380.559 183.546,379.703 184.559,379.320 185.178 C 378.479 186.534,366.960 198.190,365.103 199.563 C 364.381 200.097,362.995 201.258,362.024 202.143 C 361.052 203.028,359.955 203.758,359.585 203.765 C 359.215 203.772,358.236 204.271,357.411 204.875 C 354.935 206.685,352.739 207.961,351.173 208.501 C 350.359 208.781,348.833 209.602,347.782 210.325 C 346.731 211.048,344.669 211.998,343.198 212.437 C 341.728 212.876,339.498 213.802,338.243 214.495 C 336.052 215.704,332.575 216.463,324.389 217.519 C 322.198 217.802,321.582 216.951,321.158 213.060 C 320.675 208.615,320.127 206.135,319.067 203.602 C 318.558 202.383,317.894 199.935,317.591 198.161 C 316.880 193.991,316.410 192.543,315.352 191.273 C 314.878 190.704,314.045 188.762,313.501 186.958 C 312.919 185.029,312.047 183.091,311.384 182.253 C 310.764 181.470,309.777 179.770,309.190 178.476 C 308.603 177.182,307.860 175.905,307.540 175.639 C 307.220 175.373,306.172 173.949,305.211 172.475 C 301.684 167.060,285.462 151.588,280.863 149.253 C 280.038 148.833,278.901 148.105,278.338 147.634 C 277.775 147.164,276.201 146.253,274.841 145.610 C 273.480 144.967,271.532 143.867,270.512 143.165 C 269.491 142.463,267.688 141.611,266.504 141.271 C 265.321 140.931,263.334 140.088,262.089 139.397 C 260.828 138.697,258.086 137.707,255.898 137.161 C 253.737 136.622,250.957 135.785,249.719 135.302 C 247.419 134.405,244.782 133.892,238.883 133.194 C 233.760 132.588,232.650 131.856,230.258 127.502 C 229.497 126.118,228.706 124.882,228.500 124.755 C 228.294 124.627,227.430 123.565,226.580 122.393 C 225.731 121.221,224.559 119.755,223.978 119.136 C 220.940 115.896,220.828 108.493,223.751 104.200 C 224.286 103.414,225.013 101.472,225.366 99.884 C 226.120 96.497,226.763 94.848,227.949 93.270 C 228.424 92.637,229.325 90.829,229.952 89.250 C 230.578 87.672,231.702 85.581,232.447 84.604 C 233.193 83.626,234.069 82.301,234.393 81.657 C 234.717 81.014,235.371 80.066,235.846 79.550 C 236.321 79.034,237.273 77.763,237.961 76.725 C 241.115 71.969,247.284 64.880,249.707 63.227 C 250.614 62.608,253.125 60.628,255.286 58.827 C 257.446 57.026,259.864 55.179,260.658 54.723 C 261.452 54.267,262.722 53.415,263.480 52.829 C 264.238 52.244,265.758 51.398,266.857 50.950 C 267.956 50.502,269.784 49.494,270.919 48.710 C 272.608 47.545,273.695 47.145,276.896 46.509 C 279.048 46.082,281.749 45.339,282.899 44.858 C 287.392 42.979,292.538 43.039,295.783 45.006 M128.893 95.729 C 124.419 96.157,120.458 96.992,118.349 97.953 C 117.404 98.384,114.721 99.132,112.387 99.616 C 108.085 100.508,107.099 100.866,105.476 102.126 C 104.979 102.512,103.628 103.089,102.474 103.409 C 99.223 104.309,98.235 104.738,96.721 105.911 C 95.950 106.509,94.151 107.566,92.723 108.261 C 91.296 108.956,90.020 109.699,89.887 109.914 C 89.755 110.128,88.644 110.891,87.419 111.609 C 84.841 113.119,81.361 115.756,78.638 118.260 C 77.592 119.222,75.174 121.406,73.265 123.113 C 71.356 124.821,69.794 126.341,69.794 126.493 C 69.794 126.644,69.189 127.331,68.451 128.018 C 67.712 128.706,66.798 129.859,66.420 130.582 C 66.041 131.304,65.115 132.486,64.361 133.208 C 63.607 133.931,62.635 135.113,62.201 135.835 C 61.768 136.557,60.840 137.864,60.141 138.739 C 59.441 139.613,58.367 141.435,57.754 142.786 C 57.142 144.138,56.145 145.762,55.540 146.395 C 54.559 147.421,53.283 150.623,53.283 152.057 C 53.283 152.352,52.533 153.910,51.615 155.519 C 50.525 157.433,49.734 159.437,49.332 161.306 C 48.994 162.878,48.374 165.009,47.953 166.041 C 46.200 170.342,45.736 172.234,45.418 176.360 C 44.967 182.225,44.822 182.531,42.142 183.292 C 40.943 183.633,39.034 184.466,37.899 185.145 C 36.764 185.823,34.896 186.760,33.748 187.225 C 32.600 187.691,30.996 188.657,30.183 189.372 C 29.370 190.087,27.984 191.018,27.102 191.441 C 26.221 191.864,25.207 192.578,24.851 193.027 C 24.494 193.476,23.244 194.549,22.073 195.412 C 20.902 196.274,19.839 197.310,19.711 197.712 C 19.583 198.115,18.911 198.779,18.218 199.189 C 17.524 199.598,16.479 200.747,15.896 201.743 C 15.312 202.739,14.293 204.029,13.632 204.610 C 12.970 205.191,12.236 206.249,12.001 206.961 C 11.766 207.673,11.418 208.255,11.228 208.255 C 11.038 208.255,10.882 208.407,10.882 208.593 C 10.882 208.778,10.305 209.787,9.600 210.834 C 8.896 211.882,8.199 213.292,8.051 213.968 C 7.904 214.644,7.035 216.791,6.120 218.740 C 3.765 223.756,3.681 224.456,3.683 239.268 C 3.684 253.686,3.880 255.591,5.638 258.246 C 6.241 259.157,7.008 260.988,7.341 262.315 C 7.928 264.649,9.341 267.549,10.418 268.631 C 10.706 268.920,11.333 270.043,11.813 271.127 C 13.151 274.153,23.301 285.178,24.748 285.178 C 24.941 285.178,25.319 285.481,25.588 285.850 C 26.345 286.887,28.148 288.007,30.125 288.668 C 31.112 288.999,32.614 289.862,33.461 290.588 C 34.936 291.850,36.272 292.412,40.277 293.453 C 41.276 293.712,42.688 294.329,43.416 294.823 C 46.626 297.001,46.465 296.998,147.842 296.998 C 252.557 296.998,246.929 297.109,250.134 294.986 C 251.120 294.333,253.184 293.551,255.255 293.046 C 258.655 292.217,260.791 291.356,262.664 290.059 C 263.180 289.702,264.278 289.192,265.103 288.926 C 266.788 288.382,268.038 287.651,269.415 286.401 C 269.928 285.935,270.486 285.553,270.655 285.553 C 271.187 285.553,275.356 282.585,275.885 281.829 C 276.164 281.431,276.892 280.894,277.502 280.636 C 278.112 280.378,279.392 279.395,280.346 278.451 C 281.300 277.508,282.651 276.207,283.348 275.561 C 285.024 274.007,287.686 270.932,288.533 269.571 C 288.906 268.971,289.755 267.974,290.419 267.355 C 291.084 266.735,292.105 265.290,292.688 264.143 C 293.271 262.995,294.027 261.825,294.368 261.541 C 295.115 260.921,296.157 258.934,297.211 256.117 C 297.639 254.973,298.561 253.088,299.260 251.927 C 299.958 250.766,300.638 249.035,300.770 248.079 C 301.143 245.374,301.921 242.967,303.038 241.060 C 304.375 238.780,304.855 231.377,304.547 217.824 C 304.298 206.902,304.264 206.644,302.625 203.189 C 301.919 201.702,301.204 199.409,300.976 197.902 C 300.498 194.735,299.925 193.305,298.143 190.835 C 297.410 189.818,296.811 188.718,296.811 188.390 C 296.811 187.538,295.405 185.022,294.089 183.517 C 293.470 182.810,292.746 181.712,292.479 181.078 C 292.212 180.444,291.456 179.418,290.799 178.799 C 290.141 178.180,289.044 176.829,288.361 175.797 C 286.326 172.726,281.259 167.892,277.848 165.769 C 276.909 165.185,276.043 164.451,275.923 164.139 C 275.803 163.826,275.047 163.234,274.242 162.824 C 273.437 162.413,271.643 161.259,270.254 160.258 C 268.866 159.256,267.054 158.226,266.229 157.968 C 264.373 157.387,262.680 156.542,261.990 155.853 C 261.222 155.084,259.622 154.320,258.345 154.111 C 254.987 153.563,253.995 153.265,251.634 152.094 C 248.466 150.522,245.719 149.856,242.026 149.762 C 232.899 149.532,226.900 148.497,226.449 147.075 C 226.347 146.756,225.401 145.489,224.346 144.260 C 223.291 143.032,221.997 141.105,221.470 139.979 C 220.943 138.853,220.028 137.525,219.436 137.026 C 218.844 136.528,218.108 135.635,217.801 135.041 C 216.845 133.192,211.469 126.765,208.578 124.015 C 203.493 119.178,200.179 116.323,199.651 116.323 C 199.463 116.323,198.410 115.504,197.310 114.504 C 196.210 113.503,194.634 112.251,193.809 111.722 C 192.983 111.193,191.886 110.357,191.370 109.866 C 190.854 109.374,189.079 108.428,187.425 107.763 C 185.772 107.098,183.830 106.047,183.110 105.428 C 182.390 104.808,181.126 104.115,180.300 103.888 C 176.890 102.949,176.295 102.712,175.319 101.900 C 173.688 100.544,173.008 100.294,168.743 99.486 C 166.526 99.065,163.745 98.304,162.562 97.794 C 161.380 97.283,159.737 96.748,158.912 96.603 C 157.476 96.352,156.644 96.240,153.283 95.852 C 150.284 95.506,132.183 95.414,128.893 95.729 M154.597 97.335 C 156.557 97.644,159.259 98.236,160.600 98.652 C 161.942 99.067,164.746 99.738,166.833 100.142 C 169.414 100.642,171.573 101.349,173.587 102.356 C 175.215 103.169,177.422 104.121,178.491 104.471 C 179.559 104.821,181.143 105.622,182.010 106.250 C 182.877 106.878,184.758 107.890,186.190 108.500 C 187.622 109.109,189.788 110.317,191.002 111.183 C 192.217 112.049,193.717 113.096,194.335 113.508 C 199.380 116.875,212.109 129.007,215.385 133.572 C 216.313 134.866,217.712 136.707,218.493 137.662 C 219.274 138.618,220.389 140.349,220.971 141.508 C 221.554 142.668,222.899 144.661,223.961 145.937 C 225.022 147.213,225.891 148.400,225.891 148.576 C 225.891 149.256,228.477 149.729,234.288 150.110 C 241.971 150.615,244.662 150.998,247.467 151.987 C 248.705 152.423,251.643 153.367,253.994 154.084 C 258.074 155.327,260.263 156.245,262.257 157.549 C 262.755 157.874,264.021 158.443,265.071 158.812 C 266.121 159.181,268.077 160.215,269.418 161.109 C 270.760 162.003,272.533 163.186,273.358 163.737 C 277.918 166.782,283.853 172.077,287.002 175.909 C 291.543 181.434,295.335 187.072,296.062 189.376 C 296.311 190.163,296.895 191.402,297.361 192.128 C 299.126 194.879,299.874 196.778,300.365 199.749 C 300.644 201.435,301.416 204.334,302.082 206.191 C 304.200 212.100,304.082 234.482,301.905 239.775 C 301.353 241.116,300.662 243.480,300.369 245.028 C 300.037 246.780,299.249 248.976,298.280 250.844 C 297.424 252.495,296.410 254.746,296.027 255.846 C 295.643 256.946,294.732 258.660,294.001 259.655 C 293.271 260.650,292.345 262.198,291.943 263.096 C 291.541 263.994,290.277 265.794,289.133 267.097 C 287.990 268.400,287.054 269.591,287.054 269.743 C 287.054 271.015,275.103 281.704,271.220 283.904 C 270.044 284.571,268.298 285.655,267.340 286.314 C 266.383 286.972,264.605 287.901,263.389 288.378 C 262.173 288.854,260.710 289.563,260.139 289.952 C 258.637 290.974,256.486 291.779,253.333 292.499 C 251.812 292.846,249.472 293.621,248.133 294.222 C 243.746 296.190,245.916 296.144,148.992 296.324 C 44.852 296.518,53.789 296.793,42.338 293.037 C 37.359 291.404,35.206 290.504,33.907 289.512 C 32.947 288.780,31.944 288.180,31.678 288.180 C 28.662 288.180,15.421 275.623,12.361 269.861 C 11.738 268.689,10.815 267.158,10.308 266.460 C 9.802 265.761,9.116 264.241,8.785 263.082 C 8.453 261.924,7.668 259.794,7.039 258.349 C 4.662 252.885,4.547 252.004,4.532 239.024 C 4.519 227.217,4.520 227.202,5.491 224.578 C 6.025 223.133,7.041 220.285,7.748 218.247 C 9.170 214.149,9.827 212.742,11.098 211.069 C 11.569 210.450,12.292 209.155,12.705 208.191 C 13.118 207.228,14.038 205.792,14.748 205.002 C 15.459 204.212,16.360 203.038,16.749 202.393 C 18.940 198.767,29.981 190.232,35.836 187.638 C 37.566 186.871,39.202 186.062,39.472 185.840 C 39.742 185.618,40.961 185.036,42.181 184.547 C 45.247 183.318,45.672 182.603,46.332 177.573 C 46.662 175.063,47.415 171.785,48.185 169.506 C 48.899 167.394,49.592 165.075,49.726 164.353 C 50.243 161.564,51.444 158.028,52.204 157.062 C 52.641 156.507,53.472 154.528,54.051 152.664 C 54.631 150.800,55.581 148.583,56.164 147.737 C 56.747 146.891,57.899 144.969,58.724 143.466 C 60.652 139.955,64.463 134.334,64.915 134.334 C 65.106 134.334,65.966 133.298,66.826 132.032 C 68.254 129.930,74.423 123.504,79.028 119.325 C 81.980 116.645,91.157 110.257,94.371 108.644 C 95.403 108.127,97.261 107.112,98.499 106.389 C 99.737 105.666,101.848 104.712,103.189 104.270 C 104.531 103.827,106.642 102.966,107.880 102.356 C 109.118 101.746,112.310 100.744,114.972 100.130 C 117.634 99.516,121.180 98.573,122.852 98.033 C 127.881 96.410,146.159 96.008,154.597 97.335 " stroke="none" fill="#e4e4e4" fill-rule="evenodd"></path><path id="path3" d="M281.665 41.308 C 280.869 41.500,279.256 42.250,278.081 42.975 C 276.817 43.755,275.111 44.431,273.901 44.632 C 271.399 45.048,268.886 46.140,267.022 47.621 C 266.251 48.234,264.828 49.000,263.860 49.322 C 262.893 49.645,261.552 50.423,260.882 51.052 C 260.211 51.681,259.113 52.452,258.443 52.766 C 255.934 53.937,255.172 54.464,254.385 55.568 C 253.941 56.192,252.878 57.142,252.023 57.681 C 249.973 58.972,245.409 63.099,244.478 64.505 C 244.072 65.118,243.355 65.795,242.885 66.009 C 242.415 66.223,241.523 67.223,240.903 68.231 C 240.283 69.239,239.344 70.383,238.817 70.773 C 238.289 71.163,237.497 72.073,237.056 72.795 C 236.615 73.518,235.548 74.953,234.685 75.985 C 233.040 77.953,231.895 79.916,231.895 80.767 C 231.895 81.044,231.233 81.899,230.424 82.665 C 229.609 83.437,228.659 84.854,228.295 85.838 C 227.934 86.817,227.197 88.293,226.659 89.118 C 225.193 91.367,224.514 92.968,223.795 95.872 C 223.438 97.317,222.666 99.204,222.081 100.065 C 220.557 102.308,220.288 103.201,219.691 108.010 C 219.398 110.373,218.985 112.831,218.774 113.472 C 218.140 115.391,220.467 120.470,222.519 121.648 C 223.130 121.999,223.968 123.034,224.420 123.994 C 224.864 124.939,225.719 126.003,226.320 126.358 C 227.169 126.859,227.576 127.553,228.148 129.473 C 229.202 133.014,230.839 134.262,235.575 135.137 C 236.737 135.352,238.317 135.849,239.086 136.242 C 240.450 136.938,244.859 137.847,252.244 138.956 C 255.296 139.414,256.228 139.726,257.928 140.854 C 259.263 141.740,260.983 142.441,262.933 142.896 C 265.201 143.424,266.392 143.955,267.961 145.140 C 269.291 146.144,270.711 146.841,271.983 147.114 C 273.474 147.433,274.150 147.812,274.779 148.679 C 275.310 149.409,276.716 150.334,278.676 151.240 C 280.362 152.020,281.930 153.010,282.159 153.439 C 282.389 153.868,283.289 154.577,284.159 155.015 C 285.029 155.452,286.531 156.593,287.497 157.549 C 288.462 158.505,289.612 159.625,290.053 160.038 C 290.493 160.450,291.428 161.379,292.130 162.101 C 292.833 162.824,293.793 163.785,294.265 164.238 C 294.736 164.690,296.220 166.265,297.561 167.738 C 298.902 169.210,300.653 171.103,301.450 171.944 C 302.248 172.785,303.149 174.080,303.454 174.823 C 303.758 175.565,304.572 176.764,305.262 177.486 C 305.953 178.208,306.892 179.812,307.349 181.051 C 307.845 182.392,308.710 183.804,309.489 184.544 C 310.620 185.620,310.884 186.227,311.453 189.063 C 311.959 191.582,312.467 192.890,313.654 194.727 C 314.502 196.040,315.197 197.254,315.197 197.424 C 315.197 201.312,318.046 216.682,319.206 219.056 C 320.566 221.838,324.706 222.435,328.393 220.380 C 330.613 219.142,332.738 218.522,335.835 218.206 C 338.744 217.910,341.155 217.040,342.570 215.777 C 343.268 215.153,344.608 214.499,345.720 214.238 C 348.202 213.654,349.565 212.961,351.314 211.394 C 352.089 210.699,353.102 210.130,353.566 210.128 C 354.748 210.123,358.013 208.528,358.912 207.517 C 359.325 207.053,360.448 206.275,361.408 205.788 C 362.368 205.301,363.550 204.417,364.034 203.822 C 364.519 203.228,365.876 202.115,367.050 201.350 C 369.676 199.637,377.073 192.620,379.362 189.670 C 380.291 188.473,381.662 186.804,382.409 185.961 C 383.156 185.118,384.148 183.668,384.613 182.739 C 385.078 181.811,385.989 180.607,386.638 180.064 C 387.307 179.504,388.202 178.124,388.708 176.874 C 389.198 175.663,390.168 173.924,390.864 173.010 C 391.933 171.604,393.621 167.275,393.621 165.936 C 393.621 165.716,394.022 165.059,394.513 164.475 C 396.547 162.055,397.743 151.607,396.825 144.263 C 395.981 137.511,383.336 133.892,377.909 138.849 C 376.678 139.973,375.129 140.525,371.598 141.100 C 370.477 141.282,369.021 141.717,368.363 142.066 C 367.705 142.415,366.576 143.007,365.854 143.382 C 361.167 145.814,331.131 145.794,328.537 143.357 C 327.442 142.329,325.643 141.655,321.951 140.889 C 319.160 140.310,318.598 140.053,317.448 138.832 C 316.617 137.949,315.264 137.109,313.761 136.543 C 312.024 135.888,311.047 135.234,310.121 134.106 C 309.425 133.258,308.331 132.347,307.691 132.082 C 306.979 131.787,306.240 131.038,305.788 130.152 C 305.319 129.232,304.546 128.465,303.670 128.048 C 302.530 127.506,302.142 127.002,301.431 125.141 C 300.926 123.817,300.037 122.393,299.275 121.684 C 297.660 120.183,297.419 119.726,296.652 116.710 C 296.312 115.376,295.529 113.497,294.912 112.536 C 292.885 109.377,292.531 106.425,292.578 93.058 C 292.626 79.175,292.894 76.688,294.564 74.610 C 295.648 73.260,297.542 67.304,297.557 65.198 C 297.559 64.838,298.128 63.909,298.821 63.134 C 301.480 60.164,302.218 46.724,299.897 43.543 C 298.302 41.357,287.143 39.989,281.665 41.308 M295.118 42.498 C 297.256 43.155,299.642 45.471,300.129 47.363 C 300.824 50.068,300.398 57.940,299.478 59.395 C 297.696 62.210,296.677 64.489,296.217 66.688 C 295.947 67.977,295.047 70.481,294.216 72.254 C 292.804 75.268,292.246 77.316,291.718 81.426 C 291.599 82.355,291.355 83.675,291.177 84.360 C 290.741 86.036,290.736 96.307,291.170 99.812 C 291.362 101.360,291.621 103.461,291.746 104.481 C 292.356 109.460,293.567 113.651,294.960 115.609 C 295.359 116.168,295.686 116.938,295.686 117.319 C 295.688 118.252,297.085 120.907,298.994 123.608 C 299.857 124.829,300.563 126.009,300.563 126.230 C 300.563 126.625,304.167 130.468,306.361 132.413 C 306.971 132.954,308.237 134.134,309.175 135.036 C 310.114 135.938,311.634 137.002,312.554 137.401 C 313.473 137.800,315.224 138.807,316.444 139.640 C 317.664 140.472,319.080 141.230,319.591 141.322 C 320.102 141.415,322.141 142.165,324.122 142.990 C 330.920 145.819,336.374 146.553,350.094 146.486 C 360.438 146.435,364.983 145.731,368.989 143.561 C 370.257 142.874,372.561 142.009,374.109 141.639 C 375.657 141.268,378.123 140.335,379.589 139.564 C 386.648 135.853,394.174 138.159,395.898 144.560 C 396.934 148.409,395.955 157.636,394.048 161.987 C 393.433 163.391,392.806 165.047,392.656 165.666 C 392.242 167.378,390.698 170.743,389.738 172.026 C 389.267 172.655,388.487 174.184,388.004 175.422 C 387.522 176.660,386.668 178.180,386.108 178.799 C 385.547 179.418,384.489 180.877,383.757 182.041 C 383.025 183.205,382.240 184.273,382.012 184.414 C 381.783 184.555,380.898 185.629,380.044 186.800 C 378.134 189.422,370.515 197.222,367.775 199.362 C 366.665 200.229,364.639 201.823,363.272 202.904 C 361.906 203.985,360.272 205.117,359.642 205.419 C 359.011 205.722,357.873 206.464,357.112 207.069 C 356.351 207.673,354.588 208.643,353.193 209.225 C 351.798 209.806,350.124 210.735,349.472 211.290 C 348.821 211.844,347.132 212.674,345.720 213.132 C 344.308 213.591,342.282 214.447,341.218 215.034 C 339.363 216.057,335.061 217.335,331.895 217.804 C 330.279 218.043,326.879 219.068,326.266 219.502 C 325.446 220.082,322.067 219.950,321.430 219.312 C 320.498 218.381,319.852 216.587,319.567 214.140 C 319.427 212.939,318.717 209.562,317.989 206.635 C 317.261 203.708,316.522 200.189,316.346 198.815 C 316.115 197.006,315.498 195.242,314.111 192.423 C 313.057 190.282,312.194 188.283,312.193 187.980 C 312.188 186.765,311.410 184.751,310.603 183.865 C 309.411 182.555,308.689 181.327,307.953 179.354 C 307.605 178.420,306.798 177.085,306.161 176.387 C 305.523 175.689,304.613 174.503,304.139 173.751 C 302.043 170.431,288.366 156.432,285.321 154.490 C 284.520 153.979,283.443 153.096,282.927 152.528 C 282.411 151.961,281.004 151.025,279.801 150.450 C 278.597 149.875,277.310 149.131,276.940 148.796 C 276.261 148.181,271.277 145.381,266.792 143.093 C 265.450 142.409,263.987 141.847,263.540 141.844 C 263.094 141.841,261.419 141.145,259.819 140.298 C 257.589 139.116,255.854 138.547,252.377 137.855 C 249.883 137.360,246.576 136.548,245.028 136.053 C 243.480 135.557,241.370 135.056,240.338 134.941 C 233.489 134.173,230.105 132.265,228.901 128.494 C 228.642 127.682,227.888 126.426,227.225 125.704 C 224.973 123.249,221.371 118.510,220.583 116.966 C 219.256 114.365,220.474 106.544,223.049 101.126 C 223.736 99.681,224.487 97.694,224.720 96.709 C 224.952 95.725,225.475 94.290,225.881 93.520 C 226.288 92.750,227.369 90.600,228.285 88.743 C 229.200 86.886,230.457 84.669,231.078 83.818 C 231.699 82.966,232.552 81.615,232.973 80.816 C 233.394 80.016,234.254 78.788,234.885 78.087 C 235.515 77.385,236.530 75.941,237.138 74.877 C 237.747 73.813,238.800 72.424,239.479 71.790 C 240.158 71.156,241.447 69.699,242.345 68.551 C 243.956 66.490,246.936 63.569,250.508 60.548 C 255.907 55.982,257.537 54.701,259.355 53.596 C 260.453 52.929,261.942 51.927,262.664 51.370 C 263.386 50.813,264.400 50.237,264.916 50.089 C 265.919 49.802,267.631 48.865,269.858 47.384 C 270.615 46.880,272.810 46.051,274.736 45.541 C 276.661 45.031,278.912 44.313,279.737 43.945 C 280.563 43.578,281.829 43.012,282.552 42.687 C 284.146 41.972,292.970 41.839,295.118 42.498 M133.177 94.698 C 133.091 94.775,130.403 94.928,127.205 95.040 C 120.884 95.260,118.360 95.828,116.677 97.410 C 116.150 97.906,115.279 98.311,114.740 98.311 C 111.228 98.311,106.159 99.926,104.077 101.709 C 103.325 102.352,102.240 102.809,101.075 102.973 C 98.093 103.393,96.935 103.903,95.619 105.376 C 94.721 106.380,93.740 106.966,92.120 107.465 C 90.860 107.854,89.284 108.685,88.542 109.353 C 87.812 110.010,86.289 111.077,85.158 111.724 C 84.026 112.372,82.719 113.417,82.253 114.049 C 81.786 114.680,80.840 115.432,80.151 115.720 C 79.462 116.007,78.432 116.854,77.862 117.602 C 77.292 118.349,76.271 119.224,75.593 119.545 C 74.915 119.867,73.904 120.788,73.347 121.592 C 72.790 122.396,72.031 123.150,71.661 123.267 C 71.291 123.385,70.295 124.398,69.449 125.519 C 68.603 126.640,67.575 127.737,67.165 127.956 C 66.755 128.176,66.039 129.152,65.574 130.125 C 65.064 131.192,64.316 132.090,63.691 132.387 C 63.077 132.678,62.272 133.633,61.718 134.725 C 61.203 135.741,60.393 136.827,59.918 137.138 C 58.845 137.841,57.623 139.990,57.031 142.214 C 56.734 143.328,56.098 144.349,55.159 145.216 C 54.195 146.107,53.603 147.072,53.318 148.218 C 52.386 151.973,52.121 152.610,50.714 154.478 C 49.450 156.157,49.188 156.852,48.806 159.544 C 48.469 161.909,48.059 163.164,47.110 164.728 C 45.310 167.696,44.994 169.124,44.758 175.381 C 44.514 181.856,44.394 182.103,41.273 182.517 C 39.117 182.803,37.578 183.458,36.767 184.435 C 36.229 185.084,34.226 186.079,31.750 186.929 C 30.948 187.204,29.766 188.039,29.123 188.783 C 28.481 189.528,27.177 190.479,26.226 190.896 C 25.272 191.315,24.032 192.265,23.461 193.014 C 22.891 193.760,22.205 194.371,21.935 194.371 C 21.221 194.371,19.137 196.222,19.137 196.857 C 19.137 197.155,18.538 197.752,17.806 198.184 C 17.005 198.657,16.124 199.660,15.595 200.704 C 15.111 201.658,14.045 202.977,13.225 203.635 C 12.336 204.349,11.648 205.267,11.519 205.913 C 11.400 206.509,10.814 207.490,10.217 208.095 C 8.631 209.700,7.642 211.555,7.169 213.814 C 6.912 215.043,6.249 216.467,5.440 217.527 C 3.214 220.441,3.189 220.677,3.189 239.024 C 3.189 257.132,3.328 258.604,5.172 260.054 C 5.878 260.609,6.292 261.560,6.840 263.886 C 7.385 266.201,7.928 267.451,8.996 268.856 C 9.782 269.887,10.949 271.783,11.592 273.068 C 12.366 274.616,13.137 275.599,13.881 275.983 C 14.497 276.302,15.340 277.226,15.754 278.037 C 16.167 278.847,17.255 280.026,18.171 280.657 C 19.088 281.287,19.944 282.140,20.075 282.553 C 20.206 282.965,20.935 283.757,21.695 284.311 C 22.455 284.866,23.668 285.866,24.390 286.533 C 26.019 288.037,29.086 289.681,30.262 289.681 C 31.144 289.681,32.645 290.857,32.645 291.548 C 32.645 292.149,34.529 292.932,37.617 293.616 C 39.930 294.127,40.779 294.513,41.762 295.496 C 43.671 297.404,41.933 297.373,147.092 297.373 C 252.248 297.373,249.369 297.425,251.871 295.476 C 253.165 294.468,254.187 294.068,256.674 293.596 C 260.585 292.854,262.153 292.214,263.545 290.790 C 264.142 290.180,264.905 289.681,265.242 289.681 C 266.393 289.680,270.488 287.489,271.109 286.541 C 271.480 285.975,272.475 285.346,273.583 284.978 C 275.064 284.486,275.606 284.063,276.274 282.875 C 276.852 281.847,277.443 281.318,278.184 281.164 C 279.075 280.978,281.680 278.816,284.428 275.981 C 284.737 275.662,285.778 274.600,286.741 273.622 C 287.704 272.643,288.776 271.135,289.122 270.269 C 289.468 269.404,290.066 268.596,290.450 268.474 C 291.431 268.163,293.058 266.134,293.058 265.221 C 293.058 264.802,293.796 263.760,294.697 262.905 C 296.245 261.437,297.561 258.947,297.561 257.487 C 297.561 257.124,298.233 255.933,299.055 254.839 C 300.686 252.669,301.089 251.514,301.684 247.318 C 302.016 244.973,302.276 244.321,303.362 243.119 C 305.208 241.076,305.256 240.537,305.226 222.326 C 305.197 204.446,305.110 203.543,303.201 201.453 C 302.529 200.718,302.024 199.668,301.887 198.722 C 301.074 193.117,300.834 192.315,299.623 191.164 C 298.202 189.814,297.561 188.715,297.561 187.627 C 297.561 186.440,296.190 183.987,294.767 182.630 C 294.073 181.968,293.259 180.827,292.958 180.095 C 292.656 179.363,291.850 178.294,291.167 177.718 C 290.483 177.143,289.551 175.885,289.096 174.922 C 287.928 172.450,282.271 166.979,279.201 165.352 C 278.464 164.961,277.395 164.083,276.826 163.400 C 276.255 162.716,275.267 162.044,274.621 161.903 C 273.978 161.761,272.467 160.740,271.263 159.633 C 270.059 158.526,268.687 157.541,268.214 157.443 C 267.741 157.346,266.764 157.172,266.041 157.057 C 265.177 156.919,264.271 156.362,263.392 155.428 C 261.979 153.925,259.939 153.096,257.656 153.096 C 256.045 153.096,253.420 152.116,253.150 151.415 C 252.731 150.323,248.917 149.361,244.186 149.156 C 235.802 148.791,233.733 148.587,232.339 147.990 C 231.579 147.664,230.159 147.155,229.185 146.858 C 227.916 146.472,227.121 145.922,226.385 144.923 C 225.819 144.155,224.652 142.753,223.791 141.808 C 222.930 140.862,222.108 139.549,221.963 138.890 C 221.804 138.165,221.181 137.289,220.386 136.670 C 219.663 136.107,218.651 134.742,218.136 133.635 C 217.341 131.926,214.956 128.895,212.041 125.891 C 206.638 120.323,202.779 116.772,200.938 115.677 C 199.700 114.940,198.090 113.748,197.360 113.029 C 196.631 112.311,195.451 111.533,194.738 111.302 C 193.961 111.050,193.252 110.485,192.968 109.891 C 192.460 108.829,190.451 107.747,187.500 106.946 C 186.226 106.600,185.413 106.087,184.738 105.201 C 183.763 103.923,181.371 102.954,178.916 102.843 C 178.567 102.827,177.534 102.167,176.620 101.376 C 174.897 99.884,173.832 99.510,168.661 98.575 C 166.793 98.238,165.132 97.679,164.280 97.100 C 162.425 95.842,159.768 95.383,151.782 94.945 C 145.143 94.580,133.484 94.425,133.177 94.698 M153.283 95.852 C 156.644 96.240,157.476 96.352,158.912 96.603 C 159.737 96.748,161.380 97.283,162.562 97.794 C 163.745 98.304,166.526 99.065,168.743 99.486 C 173.008 100.294,173.688 100.544,175.319 101.900 C 176.295 102.712,176.890 102.949,180.300 103.888 C 181.126 104.115,182.390 104.808,183.110 105.428 C 183.830 106.047,185.772 107.098,187.425 107.763 C 189.079 108.428,190.854 109.374,191.370 109.866 C 191.886 110.357,192.983 111.193,193.809 111.722 C 194.634 112.251,196.210 113.503,197.310 114.504 C 198.410 115.504,199.463 116.323,199.651 116.323 C 200.179 116.323,203.493 119.178,208.578 124.015 C 211.469 126.765,216.845 133.192,217.801 135.041 C 218.108 135.635,218.844 136.528,219.436 137.026 C 220.028 137.525,220.943 138.853,221.470 139.979 C 221.997 141.105,223.291 143.032,224.346 144.260 C 225.401 145.489,226.347 146.756,226.449 147.075 C 226.900 148.497,232.899 149.532,242.026 149.762 C 245.719 149.856,248.466 150.522,251.634 152.094 C 253.995 153.265,254.987 153.563,258.345 154.111 C 259.622 154.320,261.222 155.084,261.990 155.853 C 262.680 156.542,264.373 157.387,266.229 157.968 C 267.054 158.226,268.866 159.256,270.254 160.258 C 271.643 161.259,273.437 162.413,274.242 162.824 C 275.047 163.234,275.803 163.826,275.923 164.139 C 276.043 164.451,276.909 165.185,277.848 165.769 C 281.259 167.892,286.326 172.726,288.361 175.797 C 289.044 176.829,290.141 178.180,290.799 178.799 C 291.456 179.418,292.212 180.444,292.479 181.078 C 292.746 181.712,293.470 182.810,294.089 183.517 C 295.405 185.022,296.811 187.538,296.811 188.390 C 296.811 188.718,297.410 189.818,298.143 190.835 C 299.925 193.305,300.498 194.735,300.976 197.902 C 301.204 199.409,301.919 201.702,302.625 203.189 C 304.264 206.644,304.298 206.902,304.547 217.824 C 304.855 231.377,304.375 238.780,303.038 241.060 C 301.921 242.967,301.143 245.374,300.770 248.079 C 300.638 249.035,299.958 250.766,299.260 251.927 C 298.561 253.088,297.639 254.973,297.211 256.117 C 296.157 258.934,295.115 260.921,294.368 261.541 C 294.027 261.825,293.271 262.995,292.688 264.143 C 292.105 265.290,291.084 266.735,290.419 267.355 C 289.755 267.974,288.906 268.971,288.533 269.571 C 287.686 270.932,285.024 274.007,283.348 275.561 C 282.651 276.207,281.300 277.508,280.346 278.451 C 279.392 279.395,278.112 280.378,277.502 280.636 C 276.892 280.894,276.164 281.431,275.885 281.829 C 275.356 282.585,271.187 285.553,270.655 285.553 C 270.486 285.553,269.928 285.935,269.415 286.401 C 268.038 287.651,266.788 288.382,265.103 288.926 C 264.278 289.192,263.180 289.702,262.664 290.059 C 260.791 291.356,258.655 292.217,255.255 293.046 C 253.184 293.551,251.120 294.333,250.134 294.986 C 246.929 297.109,252.557 296.998,147.842 296.998 C 46.465 296.998,46.626 297.001,43.416 294.823 C 42.688 294.329,41.276 293.712,40.277 293.453 C 36.272 292.412,34.936 291.850,33.461 290.588 C 32.614 289.862,31.112 288.999,30.125 288.668 C 28.148 288.007,26.345 286.887,25.588 285.850 C 25.319 285.481,24.941 285.178,24.748 285.178 C 23.301 285.178,13.151 274.153,11.813 271.127 C 11.333 270.043,10.706 268.920,10.418 268.631 C 9.341 267.549,7.928 264.649,7.341 262.315 C 7.008 260.988,6.241 259.157,5.638 258.246 C 3.880 255.591,3.684 253.686,3.683 239.268 C 3.681 224.456,3.765 223.756,6.120 218.740 C 7.035 216.791,7.904 214.644,8.051 213.968 C 8.199 213.292,8.896 211.882,9.600 210.834 C 10.305 209.787,10.882 208.778,10.882 208.593 C 10.882 208.407,11.038 208.255,11.228 208.255 C 11.418 208.255,11.766 207.673,12.001 206.961 C 12.236 206.249,12.970 205.191,13.632 204.610 C 14.293 204.029,15.312 202.739,15.896 201.743 C 16.479 200.747,17.524 199.598,18.218 199.189 C 18.911 198.779,19.583 198.115,19.711 197.712 C 19.839 197.310,20.902 196.274,22.073 195.412 C 23.244 194.549,24.494 193.476,24.851 193.027 C 25.207 192.578,26.221 191.864,27.102 191.441 C 27.984 191.018,29.370 190.087,30.183 189.372 C 30.996 188.657,32.600 187.691,33.748 187.225 C 34.896 186.760,36.764 185.823,37.899 185.145 C 39.034 184.466,40.943 183.633,42.142 183.292 C 44.822 182.531,44.967 182.225,45.418 176.360 C 45.736 172.234,46.200 170.342,47.953 166.041 C 48.374 165.009,48.994 162.878,49.332 161.306 C 49.734 159.437,50.525 157.433,51.615 155.519 C 52.533 153.910,53.283 152.352,53.283 152.057 C 53.283 150.623,54.559 147.421,55.540 146.395 C 56.145 145.762,57.142 144.138,57.754 142.786 C 58.367 141.435,59.441 139.613,60.141 138.739 C 60.840 137.864,61.768 136.557,62.201 135.835 C 62.635 135.113,63.607 133.931,64.361 133.208 C 65.115 132.486,66.041 131.304,66.420 130.582 C 66.798 129.859,67.712 128.706,68.451 128.018 C 69.189 127.331,69.794 126.644,69.794 126.493 C 69.794 126.341,71.356 124.821,73.265 123.113 C 75.174 121.406,77.592 119.222,78.638 118.260 C 81.361 115.756,84.841 113.119,87.419 111.609 C 88.644 110.891,89.755 110.128,89.887 109.914 C 90.020 109.699,91.296 108.956,92.723 108.261 C 94.151 107.566,95.950 106.509,96.721 105.911 C 98.235 104.738,99.223 104.309,102.474 103.409 C 103.628 103.089,104.979 102.512,105.476 102.126 C 107.099 100.866,108.085 100.508,112.387 99.616 C 114.721 99.132,117.404 98.384,118.349 97.953 C 123.107 95.786,142.575 94.615,153.283 95.852 " stroke="none" fill="#ececec" fill-rule="evenodd"></path></g></svg>