<svg id="svg" version="1.1" xmlns="http://www.w3.org/2000/svg" xmlns:xlink="http://www.w3.org/1999/xlink" width="400" height="340" viewBox="0, 0, 400,340"><g id="svgg"><path id="path0" d="M116.497 121.460 C 111.573 121.911,107.478 122.670,105.582 123.482 C 104.671 123.873,102.658 124.488,101.108 124.849 C 99.559 125.210,97.226 126.042,95.925 126.698 C 94.623 127.353,92.525 128.278,91.261 128.754 C 89.997 129.230,88.266 130.066,87.414 130.613 C 86.562 131.160,84.843 132.070,83.595 132.636 C 82.347 133.202,80.821 134.104,80.204 134.640 C 79.587 135.176,78.393 136.044,77.551 136.568 C 73.113 139.332,60.593 151.758,57.164 156.803 C 56.719 157.457,55.925 158.454,55.401 159.017 C 54.876 159.580,53.920 161.111,53.277 162.418 C 52.634 163.726,51.557 165.561,50.884 166.496 C 50.211 167.430,49.660 168.457,49.660 168.778 C 49.660 169.098,48.961 170.705,48.106 172.350 C 47.233 174.032,46.132 176.902,45.591 178.912 C 45.061 180.876,44.151 183.807,43.568 185.425 C 42.864 187.378,42.399 189.492,42.184 191.717 C 41.569 198.079,40.769 199.444,36.735 201.015 C 35.706 201.416,34.321 202.116,33.658 202.571 C 32.995 203.025,31.533 203.758,30.409 204.198 C 25.575 206.093,11.224 219.576,11.224 222.224 C 11.224 222.449,10.788 223.166,10.254 223.817 C 9.109 225.212,8.411 226.533,7.833 228.401 C 7.602 229.150,6.835 230.910,6.128 232.313 C 2.836 238.850,2.552 263.574,5.713 268.367 C 6.583 269.686,7.723 272.238,7.994 273.475 C 8.130 274.091,8.844 275.451,9.583 276.498 C 10.321 277.545,11.566 279.352,12.350 280.514 C 15.418 285.061,16.164 285.963,17.998 287.344 C 19.043 288.131,21.495 290.014,23.447 291.529 C 25.400 293.043,27.772 294.654,28.719 295.108 C 29.667 295.563,31.266 296.460,32.273 297.102 C 33.280 297.745,34.964 298.444,36.015 298.657 C 37.066 298.869,39.432 299.646,41.274 300.382 C 46.274 302.381,45.583 302.366,132.313 302.373 C 218.224 302.379,218.848 302.367,224.279 300.518 C 226.172 299.873,228.946 299.040,230.442 298.666 C 233.256 297.963,240.285 294.648,243.575 292.474 C 244.583 291.808,245.963 290.894,246.642 290.444 C 250.710 287.745,257.623 281.340,260.496 277.608 C 263.684 273.466,267.347 268.074,267.347 267.522 C 267.347 267.343,268.184 265.508,269.208 263.445 C 270.448 260.944,271.250 258.787,271.613 256.973 C 271.912 255.476,272.609 252.894,273.160 251.236 C 274.978 245.769,275.920 235.318,275.047 230.297 C 274.741 228.534,274.490 226.541,274.490 225.869 C 274.490 225.196,274.172 223.501,273.783 222.102 C 273.393 220.703,272.547 217.568,271.902 215.136 C 271.056 211.951,270.404 210.239,269.569 209.014 C 268.932 208.078,268.043 206.294,267.592 205.049 C 267.142 203.804,266.312 202.196,265.747 201.477 C 265.181 200.758,264.484 199.709,264.196 199.146 C 262.819 196.452,255.431 188.513,251.425 185.422 C 246.366 181.517,242.091 178.732,239.856 177.883 C 238.872 177.509,237.320 176.689,236.407 176.061 C 235.417 175.380,233.603 174.610,231.914 174.156 C 230.356 173.736,228.010 172.968,226.701 172.450 C 222.741 170.884,215.806 169.734,210.253 169.725 C 206.434 169.718,202.159 166.530,199.868 161.980 C 199.202 160.657,198.498 159.477,198.305 159.357 C 197.873 159.091,194.506 154.685,192.770 152.116 C 190.655 148.986,183.294 141.762,179.779 139.367 C 179.021 138.851,177.100 137.437,175.510 136.224 C 173.920 135.012,171.624 133.496,170.408 132.854 C 169.192 132.213,167.682 131.302,167.053 130.830 C 166.424 130.358,164.485 129.421,162.745 128.746 C 161.005 128.072,159.402 127.304,159.182 127.039 C 158.584 126.318,155.590 125.295,152.832 124.869 C 151.490 124.661,149.162 124.038,147.660 123.484 C 142.046 121.414,127.386 120.462,116.497 121.460 " stroke="none" fill="#c4c4c4" fill-rule="evenodd"></path><path id="path1" d="M252.891 31.637 C 250.304 31.956,249.929 32.123,249.021 33.350 C 248.613 33.902,248.050 34.354,247.771 34.354 C 247.491 34.354,247.108 34.760,246.919 35.257 C 246.464 36.454,246.471 73.889,246.927 75.472 C 247.675 78.071,249.668 78.740,255.990 78.514 C 261.661 78.311,262.432 77.902,263.573 74.490 L 264.425 71.939 264.547 56.060 C 264.726 32.643,263.615 30.314,252.891 31.637 M159.905 69.394 C 157.722 69.853,156.938 70.515,156.196 72.523 C 153.557 79.667,154.602 83.942,160.316 89.374 C 160.658 89.700,161.535 90.578,162.265 91.327 C 162.994 92.075,163.824 92.917,164.109 93.197 C 164.393 93.478,165.200 94.281,165.901 94.983 C 166.603 95.685,167.429 96.503,167.738 96.803 C 168.430 97.473,170.450 99.508,171.305 100.395 C 171.653 100.757,172.551 101.646,173.299 102.370 C 174.048 103.095,174.934 103.968,175.270 104.310 C 175.606 104.652,176.696 105.736,177.692 106.718 L 179.504 108.503 184.259 108.503 C 190.300 108.503,190.946 108.292,191.681 106.078 C 191.990 105.148,192.776 103.689,193.428 102.835 C 195.007 100.766,195.161 99.552,194.087 97.619 C 193.620 96.777,192.768 95.132,192.194 93.964 C 191.155 91.847,170.749 70.820,168.638 69.690 C 167.668 69.171,161.894 68.975,159.905 69.394 M342.274 69.262 C 341.564 69.422,339.796 71.185,339.796 71.732 C 339.796 71.870,339.222 72.307,338.520 72.703 C 337.819 73.099,336.964 73.948,336.621 74.590 C 336.278 75.232,335.417 76.083,334.707 76.482 C 333.998 76.881,333.242 77.630,333.028 78.147 C 332.814 78.664,331.954 79.521,331.117 80.050 C 330.249 80.599,329.355 81.519,329.036 82.190 C 328.708 82.882,327.971 83.628,327.249 83.999 C 326.553 84.357,325.733 85.172,325.356 85.881 C 324.965 86.617,324.162 87.402,323.401 87.790 C 322.690 88.153,322.109 88.623,322.109 88.836 C 322.109 89.049,321.210 90.087,320.111 91.142 C 316.310 94.793,315.948 103.877,319.464 107.368 C 320.901 108.794,326.325 109.172,330.360 108.127 C 331.844 107.742,352.202 87.773,354.000 84.939 C 354.549 84.071,355.482 82.912,356.071 82.361 C 357.956 80.600,357.481 76.297,355.102 73.588 C 354.540 72.948,353.858 71.893,353.587 71.244 C 353.291 70.536,352.728 69.925,352.180 69.716 C 351.187 69.339,343.497 68.986,342.274 69.262 M253.231 103.753 C 252.109 103.924,250.272 104.363,249.150 104.728 C 246.647 105.544,243.080 106.253,237.140 107.115 C 234.650 107.477,232.354 107.968,232.038 108.206 C 231.722 108.444,231.080 108.976,230.612 109.388 C 230.141 109.802,228.634 110.406,227.233 110.741 C 225.254 111.215,224.431 111.611,223.446 112.561 C 222.754 113.229,221.234 114.150,220.069 114.607 C 218.538 115.208,217.607 115.849,216.716 116.915 C 216.027 117.739,215.039 118.505,214.476 118.651 C 213.856 118.812,213.069 119.468,212.431 120.356 C 211.861 121.151,210.905 122.093,210.306 122.450 C 209.707 122.807,208.975 123.566,208.680 124.136 C 208.385 124.707,207.538 125.556,206.797 126.024 C 206.009 126.521,205.244 127.366,204.955 128.058 C 204.683 128.709,203.856 129.818,203.118 130.522 C 200.417 133.099,200.373 137.202,203.028 139.092 C 203.613 139.509,204.318 140.286,204.593 140.819 C 204.869 141.352,205.855 142.658,206.785 143.720 C 207.715 144.783,208.740 146.362,209.063 147.231 C 209.387 148.099,210.235 149.360,210.948 150.033 C 211.670 150.714,212.245 151.581,212.245 151.989 C 212.245 153.398,213.297 153.968,216.363 154.219 C 220.779 154.581,223.098 155.074,225.355 156.129 C 226.792 156.801,228.623 157.266,231.317 157.641 C 236.530 158.368,237.711 158.724,238.809 159.900 C 239.506 160.645,240.242 160.986,241.724 161.249 C 244.758 161.786,245.948 162.234,247.668 163.483 C 248.536 164.114,249.858 164.846,250.605 165.110 C 252.681 165.842,254.203 166.699,254.714 167.423 C 254.968 167.783,256.283 168.583,257.636 169.199 C 259.218 169.920,260.367 170.702,260.857 171.391 C 261.277 171.980,262.328 172.803,263.193 173.221 C 264.100 173.658,264.995 174.402,265.307 174.978 C 265.604 175.528,266.433 176.305,267.148 176.705 C 267.864 177.106,268.803 178.019,269.235 178.735 C 269.667 179.451,270.497 180.339,271.080 180.708 C 271.662 181.077,272.435 181.958,272.796 182.667 C 273.158 183.376,273.906 184.278,274.458 184.671 C 275.010 185.065,275.804 185.958,276.221 186.656 C 276.638 187.354,277.557 188.691,278.262 189.627 C 278.968 190.563,280.008 192.361,280.575 193.623 C 281.141 194.886,281.757 195.918,281.944 195.918 C 282.531 195.918,283.949 198.722,284.437 200.850 C 284.735 202.147,285.344 203.465,286.108 204.464 C 287.342 206.079,287.820 207.758,288.275 212.075 C 288.418 213.434,288.941 215.035,289.838 216.866 C 290.827 218.885,291.255 220.267,291.447 222.057 C 291.802 225.378,292.199 225.694,293.802 223.933 C 294.498 223.168,295.491 222.287,296.007 221.975 C 296.523 221.663,297.289 220.881,297.708 220.237 C 298.127 219.593,298.902 218.885,299.431 218.665 C 299.960 218.444,300.638 217.866,300.937 217.380 C 301.236 216.894,302.257 215.704,303.206 214.736 C 307.139 210.724,307.993 209.729,308.531 208.526 C 308.842 207.831,309.637 206.554,310.298 205.689 C 310.959 204.823,311.904 203.232,312.398 202.152 C 312.892 201.073,313.804 199.725,314.425 199.156 C 315.448 198.219,315.593 197.838,315.984 195.065 C 316.511 191.327,316.734 190.709,318.208 188.911 L 319.369 187.494 319.764 181.077 C 320.636 166.921,319.784 154.193,317.674 149.859 C 316.825 148.115,316.184 146.175,315.924 144.558 C 315.576 142.395,315.323 141.795,314.265 140.619 C 313.144 139.372,311.565 136.036,311.565 134.915 C 311.565 134.677,311.106 134.142,310.545 133.728 C 309.984 133.313,309.157 132.251,308.707 131.368 C 307.993 129.968,303.561 124.918,300.510 122.031 C 299.949 121.499,298.954 120.547,298.299 119.915 C 297.645 119.283,296.448 118.438,295.641 118.038 C 294.810 117.626,293.881 116.815,293.499 116.168 C 292.966 115.264,292.482 114.944,291.175 114.630 C 290.100 114.372,288.927 113.724,287.806 112.767 C 286.613 111.749,285.537 111.172,284.285 110.879 C 281.555 110.241,280.219 109.603,279.266 108.483 C 278.468 107.544,278.152 107.441,275.170 107.140 C 273.393 106.962,270.255 106.511,268.197 106.139 C 266.139 105.768,264.072 105.459,263.603 105.453 C 263.134 105.447,262.019 105.053,261.126 104.578 C 259.247 103.578,256.367 103.277,253.231 103.753 M355.442 160.191 C 349.954 160.498,349.953 160.498,348.483 162.710 C 347.844 163.670,346.777 164.983,346.110 165.628 C 344.898 166.800,344.898 166.801,344.898 169.844 L 344.898 172.889 346.461 174.625 C 352.116 180.904,349.667 180.363,371.782 180.210 L 387.271 180.102 389.243 178.401 C 390.569 177.258,391.546 176.032,392.226 174.660 C 392.781 173.537,393.541 172.083,393.913 171.429 C 394.785 169.897,394.598 168.678,393.147 166.432 C 392.520 165.461,391.571 163.965,391.038 163.106 C 389.160 160.078,389.258 160.096,373.639 160.009 C 366.156 159.968,357.968 160.050,355.442 160.191 M321.203 231.932 C 317.762 232.537,315.727 239.263,317.390 244.534 C 318.434 247.842,318.606 248.159,319.790 248.929 C 320.465 249.369,321.294 250.241,321.632 250.868 C 321.969 251.495,322.761 252.283,323.391 252.619 C 324.021 252.956,324.862 253.808,325.259 254.512 C 325.656 255.216,326.479 256.086,327.088 256.445 C 327.697 256.804,328.585 257.716,329.061 258.471 C 329.538 259.227,330.391 260.084,330.957 260.377 C 331.523 260.669,332.444 261.540,333.003 262.312 C 333.562 263.084,334.356 263.883,334.766 264.088 C 335.177 264.293,336.036 265.145,336.674 265.983 C 337.313 266.820,338.296 267.785,338.858 268.127 C 339.421 268.469,340.377 269.276,340.984 269.919 L 342.087 271.088 346.225 271.088 C 351.723 271.088,352.304 270.836,353.779 267.805 C 354.403 266.524,355.338 264.879,355.858 264.150 C 357.033 262.500,357.046 261.460,355.918 259.326 C 355.431 258.406,354.670 256.936,354.227 256.060 C 353.444 254.512,333.203 233.797,331.259 232.554 C 330.314 231.950,323.497 231.528,321.203 231.932 " stroke="none" fill="#fcd434" fill-rule="evenodd"></path><path id="path2" d="M252.221 30.274 C 248.973 30.857,247.709 31.552,246.452 33.447 C 244.477 36.423,244.488 36.339,244.123 50.170 C 243.446 75.723,244.166 78.450,252.128 80.492 C 255.972 81.478,261.309 80.498,263.204 78.459 C 266.916 74.463,266.989 74.019,266.997 55.442 C 267.004 37.973,267.024 38.163,264.818 34.741 C 262.162 30.621,258.171 29.205,252.221 30.274 M260.189 32.098 C 264.125 33.912,264.692 37.030,264.547 56.060 L 264.425 71.939 263.573 74.490 C 262.432 77.902,261.661 78.311,255.990 78.514 C 249.668 78.740,247.675 78.071,246.927 75.472 C 246.471 73.889,246.464 36.454,246.919 35.257 C 247.108 34.760,247.491 34.354,247.771 34.354 C 248.050 34.354,248.613 33.902,249.021 33.350 C 250.406 31.476,257.188 30.716,260.189 32.098 M161.224 67.699 C 156.820 68.481,156.097 69.041,154.030 73.269 C 152.015 77.389,151.730 80.456,153.180 82.421 C 153.620 83.016,154.335 84.257,154.770 85.178 C 155.642 87.027,176.553 108.310,178.472 109.302 C 183.264 111.781,190.637 110.601,193.081 106.965 C 195.622 103.185,195.750 102.824,195.731 99.490 C 195.701 94.108,193.476 91.193,177.339 75.390 C 169.369 67.584,167.335 66.614,161.224 67.699 M341.726 68.161 C 340.281 68.699,338.784 70.079,328.388 80.465 C 320.976 87.869,316.982 92.279,316.084 94.048 C 315.800 94.609,315.256 95.408,314.877 95.823 C 313.069 97.801,315.225 105.453,318.397 108.320 C 320.771 110.465,327.952 111.213,331.293 109.664 C 334.856 108.012,355.427 87.162,357.236 83.369 C 359.729 78.143,357.346 70.479,352.618 68.514 C 350.665 67.702,343.577 67.472,341.726 68.161 M168.638 69.690 C 170.749 70.820,191.155 91.847,192.194 93.964 C 192.768 95.132,193.620 96.777,194.087 97.619 C 195.161 99.552,195.007 100.766,193.428 102.835 C 192.776 103.689,191.990 105.148,191.681 106.078 C 190.946 108.292,190.300 108.503,184.259 108.503 L 179.504 108.503 177.692 106.718 C 176.696 105.736,175.606 104.652,175.270 104.310 C 174.934 103.968,174.048 103.095,173.299 102.370 C 172.551 101.646,171.653 100.757,171.305 100.395 C 170.450 99.508,168.430 97.473,167.738 96.803 C 167.429 96.503,166.603 95.685,165.901 94.983 C 165.200 94.281,164.393 93.478,164.109 93.197 C 163.824 92.917,162.994 92.075,162.265 91.327 C 161.535 90.578,160.658 89.700,160.316 89.374 C 154.602 83.942,153.557 79.667,156.196 72.523 C 156.938 70.515,157.722 69.853,159.905 69.394 C 161.894 68.975,167.668 69.171,168.638 69.690 M352.180 69.716 C 352.728 69.925,353.291 70.536,353.587 71.244 C 353.858 71.893,354.540 72.948,355.102 73.588 C 357.481 76.297,357.956 80.600,356.071 82.361 C 355.482 82.912,354.549 84.071,354.000 84.939 C 352.202 87.773,331.844 107.742,330.360 108.127 C 326.325 109.172,320.901 108.794,319.464 107.368 C 315.948 103.877,316.310 94.793,320.111 91.142 C 321.210 90.087,322.109 89.049,322.109 88.836 C 322.109 88.623,322.690 88.153,323.401 87.790 C 324.162 87.402,324.965 86.617,325.356 85.881 C 325.733 85.172,326.553 84.357,327.249 83.999 C 327.971 83.628,328.708 82.882,329.036 82.190 C 329.355 81.519,330.249 80.599,331.117 80.050 C 331.954 79.521,332.814 78.664,333.028 78.147 C 333.242 77.630,333.998 76.881,334.707 76.482 C 335.417 76.083,336.278 75.232,336.621 74.590 C 336.964 73.948,337.819 73.099,338.520 72.703 C 339.222 72.307,339.796 71.870,339.796 71.732 C 339.796 71.185,341.564 69.422,342.274 69.262 C 343.497 68.986,351.187 69.339,352.180 69.716 M251.871 102.541 C 251.684 102.626,249.694 102.839,247.449 103.015 C 244.194 103.271,242.485 103.618,239.014 104.729 C 236.620 105.495,234.305 106.122,233.870 106.122 C 232.717 106.122,230.652 106.916,228.726 108.098 C 227.799 108.667,226.122 109.470,225.000 109.883 C 223.878 110.295,221.855 111.378,220.505 112.289 C 219.155 113.200,217.911 113.946,217.740 113.946 C 216.519 113.946,201.406 128.939,200.085 131.461 C 198.882 133.755,199.625 137.556,201.743 139.954 C 203.059 141.444,205.713 145.063,207.069 147.217 C 212.703 156.168,212.427 156.020,228.061 158.504 C 233.389 159.350,233.253 159.313,236.224 160.719 C 237.534 161.338,239.591 162.100,240.796 162.411 C 243.051 162.994,245.337 164.005,246.290 164.840 C 246.588 165.101,247.775 165.684,248.927 166.136 C 251.448 167.124,254.427 168.971,261.395 173.868 C 265.299 176.612,273.823 185.700,275.898 189.332 C 276.311 190.055,277.165 191.292,277.795 192.082 C 278.425 192.872,279.237 194.186,279.598 195.003 C 279.959 195.819,280.789 197.374,281.441 198.457 C 282.094 199.541,282.879 201.212,283.187 202.170 C 283.495 203.128,284.421 205.299,285.245 206.995 C 286.438 209.449,286.819 210.688,287.109 213.060 C 287.309 214.700,287.766 217.024,288.124 218.225 C 288.483 219.426,289.067 221.387,289.424 222.583 C 291.114 228.248,291.586 228.210,298.469 221.867 C 303.965 216.803,304.700 215.995,310.743 208.370 C 311.617 207.267,312.706 205.446,313.162 204.322 C 313.619 203.198,314.513 201.597,315.149 200.765 C 315.784 199.932,316.676 198.080,317.130 196.649 C 317.584 195.218,318.495 192.747,319.154 191.156 C 319.820 189.549,320.508 187.132,320.704 185.714 C 320.897 184.311,321.329 181.403,321.664 179.252 C 323.204 169.347,321.742 154.545,318.438 146.599 C 317.855 145.196,317.117 143.157,316.798 142.068 C 316.479 140.980,315.764 139.461,315.207 138.693 C 314.651 137.926,313.847 136.507,313.420 135.542 C 311.282 130.707,302.927 120.942,297.959 117.470 C 296.743 116.620,294.371 114.946,292.687 113.749 C 291.003 112.552,288.478 111.027,287.075 110.360 C 285.672 109.692,283.299 108.554,281.803 107.830 C 280.306 107.107,277.857 106.254,276.361 105.936 C 274.864 105.619,272.335 104.930,270.740 104.407 C 267.064 103.201,253.399 101.850,251.871 102.541 M261.126 104.578 C 262.019 105.053,263.134 105.447,263.603 105.453 C 264.072 105.459,266.139 105.768,268.197 106.139 C 270.255 106.511,273.393 106.962,275.170 107.140 C 278.152 107.441,278.468 107.544,279.266 108.483 C 280.219 109.603,281.555 110.241,284.285 110.879 C 285.537 111.172,286.613 111.749,287.806 112.767 C 288.927 113.724,290.100 114.372,291.175 114.630 C 292.482 114.944,292.966 115.264,293.499 116.168 C 293.881 116.815,294.810 117.626,295.641 118.038 C 296.448 118.438,297.645 119.283,298.299 119.915 C 298.954 120.547,299.949 121.499,300.510 122.031 C 303.561 124.918,307.993 129.968,308.707 131.368 C 309.157 132.251,309.984 133.313,310.545 133.728 C 311.106 134.142,311.565 134.677,311.565 134.915 C 311.565 136.036,313.144 139.372,314.265 140.619 C 315.323 141.795,315.576 142.395,315.924 144.558 C 316.184 146.175,316.825 148.115,317.674 149.859 C 319.784 154.193,320.636 166.921,319.764 181.077 L 319.369 187.494 318.208 188.911 C 316.734 190.709,316.511 191.327,315.984 195.065 C 315.593 197.838,315.448 198.219,314.425 199.156 C 313.804 199.725,312.892 201.073,312.398 202.152 C 311.904 203.232,310.959 204.823,310.298 205.689 C 309.637 206.554,308.842 207.831,308.531 208.526 C 307.993 209.729,307.139 210.724,303.206 214.736 C 302.257 215.704,301.236 216.894,300.937 217.380 C 300.638 217.866,299.960 218.444,299.431 218.665 C 298.902 218.885,298.127 219.593,297.708 220.237 C 297.289 220.881,296.523 221.663,296.007 221.975 C 295.491 222.287,294.498 223.168,293.802 223.933 C 292.199 225.694,291.802 225.378,291.447 222.057 C 291.255 220.267,290.827 218.885,289.838 216.866 C 288.941 215.035,288.418 213.434,288.275 212.075 C 287.820 207.758,287.342 206.079,286.108 204.464 C 285.344 203.465,284.735 202.147,284.437 200.850 C 283.949 198.722,282.531 195.918,281.944 195.918 C 281.757 195.918,281.141 194.886,280.575 193.623 C 280.008 192.361,278.968 190.563,278.262 189.627 C 277.557 188.691,276.638 187.354,276.221 186.656 C 275.804 185.958,275.010 185.065,274.458 184.671 C 273.906 184.278,273.158 183.376,272.796 182.667 C 272.435 181.958,271.662 181.077,271.080 180.708 C 270.497 180.339,269.667 179.451,269.235 178.735 C 268.803 178.019,267.864 177.106,267.148 176.705 C 266.433 176.305,265.604 175.528,265.307 174.978 C 264.995 174.402,264.100 173.658,263.193 173.221 C 262.328 172.803,261.277 171.980,260.857 171.391 C 260.367 170.702,259.218 169.920,257.636 169.199 C 256.283 168.583,254.968 167.783,254.714 167.423 C 254.203 166.699,252.681 165.842,250.605 165.110 C 249.858 164.846,248.536 164.114,247.668 163.483 C 245.948 162.234,244.758 161.786,241.724 161.249 C 240.242 160.986,239.506 160.645,238.809 159.900 C 237.711 158.724,236.530 158.368,231.317 157.641 C 228.623 157.266,226.792 156.801,225.355 156.129 C 223.098 155.074,220.779 154.581,216.363 154.219 C 213.297 153.968,212.245 153.398,212.245 151.989 C 212.245 151.581,211.670 150.714,210.948 150.033 C 210.235 149.360,209.387 148.099,209.063 147.231 C 208.740 146.362,207.715 144.783,206.785 143.720 C 205.855 142.658,204.869 141.352,204.593 140.819 C 204.318 140.286,203.613 139.509,203.028 139.092 C 200.373 137.202,200.417 133.099,203.118 130.522 C 203.856 129.818,204.683 128.709,204.955 128.058 C 205.244 127.366,206.009 126.521,206.797 126.024 C 207.538 125.556,208.385 124.707,208.680 124.136 C 208.975 123.566,209.707 122.807,210.306 122.450 C 210.905 122.093,211.861 121.151,212.431 120.356 C 213.069 119.468,213.856 118.812,214.476 118.651 C 215.039 118.505,216.027 117.739,216.716 116.915 C 217.607 115.849,218.538 115.208,220.069 114.607 C 221.234 114.150,222.754 113.229,223.446 112.561 C 224.431 111.611,225.254 111.215,227.233 110.741 C 228.634 110.406,230.141 109.802,230.612 109.388 C 231.080 108.976,231.722 108.444,232.038 108.206 C 232.354 107.968,234.650 107.477,237.140 107.115 C 243.080 106.253,246.647 105.544,249.150 104.728 C 253.848 103.198,258.426 103.140,261.126 104.578 M356.973 158.825 C 349.334 159.125,349.616 159.033,346.825 162.131 C 342.236 167.226,342.417 173.187,347.316 178.281 C 349.849 180.916,349.191 180.756,359.694 181.295 C 374.994 182.080,387.453 181.593,389.981 180.111 C 395.606 176.815,397.410 168.205,393.509 163.270 C 392.777 162.343,392.177 161.451,392.177 161.287 C 392.177 159.030,377.649 158.013,356.973 158.825 M388.657 160.815 C 389.542 161.272,390.432 162.128,391.038 163.106 C 391.571 163.965,392.520 165.461,393.147 166.432 C 394.598 168.678,394.785 169.897,393.913 171.429 C 393.541 172.083,392.781 173.537,392.226 174.660 C 391.546 176.032,390.569 177.258,389.243 178.401 L 387.271 180.102 371.782 180.210 C 349.667 180.363,352.116 180.904,346.461 174.625 L 344.898 172.889 344.898 169.844 C 344.898 166.801,344.898 166.800,346.110 165.628 C 346.777 164.983,347.844 163.670,348.483 162.710 C 349.121 161.749,349.915 160.847,350.247 160.706 C 352.803 159.613,386.518 159.709,388.657 160.815 M322.279 229.993 C 318.855 230.876,318.115 231.408,316.092 234.447 L 314.456 236.905 314.456 240.306 L 314.456 243.707 315.986 246.341 C 318.171 250.099,338.300 270.399,341.139 271.707 C 344.626 273.313,351.839 272.774,353.710 270.768 C 356.744 267.514,357.823 264.684,357.823 259.980 L 357.823 257.178 356.076 255.035 C 353.427 251.784,333.662 232.142,332.385 231.492 C 328.218 229.368,325.988 229.037,322.279 229.993 M331.259 232.554 C 333.203 233.797,353.444 254.512,354.227 256.060 C 354.670 256.936,355.431 258.406,355.918 259.326 C 357.046 261.460,357.033 262.500,355.858 264.150 C 355.338 264.879,354.403 266.524,353.779 267.805 C 352.304 270.836,351.723 271.088,346.225 271.088 L 342.087 271.088 340.984 269.919 C 340.377 269.276,339.421 268.469,338.858 268.127 C 338.296 267.785,337.313 266.820,336.674 265.983 C 336.036 265.145,335.177 264.293,334.766 264.088 C 334.356 263.883,333.562 263.084,333.003 262.312 C 332.444 261.540,331.523 260.669,330.957 260.377 C 330.391 260.084,329.538 259.227,329.061 258.471 C 328.585 257.716,327.697 256.804,327.088 256.445 C 326.479 256.086,325.656 255.216,325.259 254.512 C 324.862 253.808,324.021 252.956,323.391 252.619 C 322.761 252.283,321.969 251.495,321.632 250.868 C 321.294 250.241,320.465 249.369,319.790 248.929 C 318.606 248.159,318.434 247.842,317.390 244.534 C 316.272 240.990,317.333 234.217,319.257 232.621 C 320.556 231.542,329.597 231.492,331.259 232.554 " stroke="none" fill="#fce46e" fill-rule="evenodd"></path><path id="path3" d="M254.690 28.076 C 254.595 28.171,253.157 28.484,251.494 28.773 C 246.892 29.570,246.115 30.161,243.627 34.754 L 241.541 38.605 241.319 52.381 C 241.077 67.448,241.345 72.897,242.403 74.369 C 242.746 74.847,243.564 76.178,244.221 77.327 C 245.445 79.468,246.659 80.384,251.361 82.713 C 253.893 83.968,258.617 83.847,260.383 82.483 C 261.110 81.922,262.385 81.080,263.218 80.612 C 264.108 80.113,264.990 79.271,265.358 78.571 C 265.701 77.917,266.455 76.992,267.032 76.517 C 268.607 75.221,268.775 72.784,268.648 53.141 C 268.531 35.268,268.525 35.195,266.949 34.077 C 266.603 33.831,265.792 32.806,265.148 31.798 C 263.873 29.805,263.784 29.763,258.844 28.754 C 257.440 28.468,255.971 28.159,255.578 28.068 C 255.185 27.978,254.785 27.981,254.690 28.076 M260.586 30.797 C 262.885 31.608,265.772 35.194,266.638 38.313 C 267.100 39.977,267.126 70.669,266.667 72.657 C 266.354 74.015,264.594 76.962,263.204 78.459 C 261.309 80.498,255.972 81.478,252.128 80.492 C 244.166 78.450,243.446 75.723,244.123 50.170 C 244.488 36.339,244.477 36.423,246.452 33.447 C 248.551 30.283,255.459 28.988,260.586 30.797 M160.204 65.838 C 154.897 68.347,154.631 68.526,153.721 70.181 C 153.242 71.053,152.449 72.188,151.959 72.703 C 149.808 74.962,149.930 83.287,152.133 84.574 C 152.406 84.734,152.864 85.325,153.152 85.887 C 154.958 89.425,175.275 109.813,178.016 110.838 C 179.094 111.242,180.692 111.953,181.567 112.419 C 183.806 113.611,186.109 113.574,188.114 112.316 C 188.945 111.794,190.329 111.101,191.188 110.778 C 197.577 108.369,199.655 96.085,194.594 90.646 C 194.072 90.085,193.302 89.052,192.883 88.350 C 192.464 87.649,191.995 87.075,191.841 87.075 C 191.616 87.075,180.868 76.423,177.170 72.536 C 176.680 72.020,175.838 71.195,175.299 70.701 C 174.761 70.207,173.891 69.329,173.368 68.750 C 172.743 68.059,171.747 67.503,170.476 67.134 C 169.410 66.825,167.760 66.134,166.809 65.599 C 164.551 64.327,163.305 64.372,160.204 65.838 M343.358 65.760 C 342.054 66.384,340.565 66.999,340.050 67.127 C 338.751 67.451,333.255 72.601,324.502 81.697 C 313.177 93.467,312.359 94.772,312.652 100.599 C 312.810 103.757,313.069 104.437,315.137 107.143 C 315.780 107.985,316.617 109.080,316.996 109.577 C 317.375 110.073,318.336 110.702,319.132 110.973 C 319.927 111.245,321.174 111.872,321.901 112.366 C 323.809 113.663,326.628 113.630,329.422 112.278 C 330.544 111.735,332.151 111.018,332.993 110.683 C 335.382 109.734,357.065 88.150,358.581 85.212 C 359.766 82.918,360.052 76.255,359.100 73.129 C 358.624 71.562,354.983 67.475,353.805 67.184 C 353.302 67.061,351.724 66.434,350.297 65.792 C 347.078 64.345,346.324 64.341,343.358 65.760 M167.281 67.863 C 170.155 68.540,170.960 69.142,177.339 75.390 C 193.476 91.193,195.701 94.108,195.731 99.490 C 195.750 102.824,195.622 103.185,193.081 106.965 C 190.637 110.601,183.264 111.781,178.472 109.302 C 176.553 108.310,155.642 87.027,154.770 85.178 C 154.335 84.257,153.620 83.016,153.180 82.421 C 150.742 79.118,154.019 70.023,158.193 68.514 C 161.453 67.334,164.204 67.137,167.281 67.863 M352.618 68.514 C 357.346 70.479,359.729 78.143,357.236 83.369 C 355.427 87.162,334.856 108.012,331.293 109.664 C 327.952 111.213,320.771 110.465,318.397 108.320 C 315.225 105.453,313.069 97.801,314.877 95.823 C 315.256 95.408,315.800 94.609,316.084 94.048 C 316.982 92.279,320.976 87.869,328.388 80.465 C 338.784 70.079,340.281 68.699,341.726 68.161 C 343.577 67.472,350.665 67.702,352.618 68.514 M246.088 101.373 C 240.810 101.648,238.977 102.031,237.019 103.266 C 235.757 104.063,234.197 104.533,229.814 105.436 C 228.381 105.731,227.493 106.159,226.637 106.967 C 225.875 107.686,224.586 108.360,223.047 108.846 C 221.427 109.357,220.193 110.018,219.252 110.880 C 218.485 111.582,217.226 112.476,216.454 112.866 C 215.683 113.256,214.687 114.003,214.241 114.526 C 213.794 115.049,212.774 115.903,211.973 116.425 C 211.172 116.947,210.343 117.757,210.130 118.224 C 209.917 118.691,209.215 119.324,208.569 119.630 C 207.899 119.948,207.024 120.800,206.535 121.610 C 206.063 122.392,205.187 123.295,204.590 123.617 C 203.993 123.938,203.100 124.841,202.606 125.622 C 202.113 126.403,201.403 127.233,201.028 127.467 C 200.654 127.701,199.828 128.925,199.191 130.187 C 198.555 131.450,197.711 132.775,197.316 133.131 C 196.325 134.026,196.420 135.272,197.619 137.075 C 198.179 137.917,198.637 138.807,198.638 139.053 C 198.639 139.299,199.371 140.217,200.265 141.094 C 201.159 141.970,202.326 143.452,202.859 144.388 C 203.392 145.323,204.414 146.701,205.131 147.449 C 205.848 148.197,206.671 149.482,206.961 150.305 C 207.251 151.127,208.099 152.463,208.846 153.273 C 209.593 154.084,210.204 154.901,210.204 155.090 C 210.204 155.279,210.837 155.856,211.610 156.373 C 212.384 156.890,213.410 157.575,213.892 157.895 C 215.137 158.723,217.309 159.120,222.863 159.533 C 229.282 160.010,230.918 160.364,233.860 161.913 C 235.218 162.629,237.071 163.316,237.977 163.441 C 240.915 163.845,242.120 164.282,243.770 165.542 C 244.661 166.222,246.332 167.061,247.483 167.406 C 248.633 167.751,250.168 168.512,250.893 169.096 C 251.618 169.681,253.029 170.525,254.029 170.974 C 255.029 171.422,256.330 172.298,256.920 172.921 C 257.510 173.544,258.874 174.550,259.951 175.156 C 261.027 175.761,262.224 176.659,262.610 177.149 C 262.995 177.640,263.927 178.449,264.679 178.947 C 265.432 179.445,266.341 180.336,266.700 180.926 C 267.059 181.516,267.894 182.319,268.555 182.709 C 269.226 183.104,270.073 184.038,270.473 184.820 C 270.866 185.592,271.865 187.054,272.693 188.070 C 273.521 189.086,274.480 190.464,274.824 191.132 C 275.169 191.800,275.996 192.871,276.663 193.511 C 277.470 194.286,278.116 195.401,278.597 196.846 C 278.994 198.039,279.824 199.677,280.441 200.485 C 281.205 201.487,281.791 202.862,282.280 204.804 C 282.674 206.371,283.303 208.036,283.677 208.503 C 285.256 210.476,285.391 210.866,285.755 214.487 C 286.841 225.288,287.410 226.973,290.351 228.096 C 293.369 229.249,294.653 228.398,303.667 219.265 C 307.924 214.953,310.061 212.529,310.503 211.513 C 310.857 210.699,311.642 209.575,312.247 209.014 C 312.853 208.452,313.769 207.075,314.284 205.952 C 314.799 204.830,315.698 203.317,316.283 202.590 C 316.867 201.864,317.648 200.254,318.017 199.013 C 318.387 197.773,319.137 196.148,319.684 195.403 C 320.911 193.731,321.175 192.745,322.250 185.809 C 322.833 182.052,323.350 179.827,323.873 178.836 C 325.559 175.635,324.980 160.806,322.998 156.463 C 322.415 155.185,322.035 153.516,321.801 151.199 C 321.494 148.173,321.275 147.438,319.774 144.396 C 318.849 142.521,317.906 140.266,317.679 139.385 C 317.452 138.504,316.772 137.203,316.167 136.494 C 315.562 135.784,314.762 134.511,314.389 133.664 C 311.713 127.588,300.310 115.689,294.166 112.560 C 293.352 112.146,292.070 111.302,291.315 110.685 C 290.561 110.068,289.201 109.245,288.293 108.855 C 287.385 108.466,285.783 107.620,284.732 106.975 C 283.682 106.330,281.828 105.570,280.612 105.285 C 279.396 105.001,277.729 104.608,276.907 104.413 C 276.085 104.218,274.992 103.759,274.479 103.393 C 271.765 101.461,260.199 100.638,246.088 101.373 M264.618 103.104 C 266.391 103.298,269.146 103.884,270.740 104.407 C 272.335 104.930,274.864 105.619,276.361 105.936 C 277.857 106.254,280.306 107.107,281.803 107.830 C 283.299 108.554,285.672 109.692,287.075 110.360 C 288.478 111.027,291.003 112.552,292.687 113.749 C 294.371 114.946,296.743 116.620,297.959 117.470 C 302.927 120.942,311.282 130.707,313.420 135.542 C 313.847 136.507,314.651 137.926,315.207 138.693 C 315.764 139.461,316.479 140.980,316.798 142.068 C 317.117 143.157,317.855 145.196,318.438 146.599 C 321.742 154.545,323.204 169.347,321.664 179.252 C 321.329 181.403,320.897 184.311,320.704 185.714 C 320.508 187.132,319.820 189.549,319.154 191.156 C 318.495 192.747,317.584 195.218,317.130 196.649 C 316.676 198.080,315.784 199.932,315.149 200.765 C 314.513 201.597,313.619 203.198,313.162 204.322 C 312.706 205.446,311.617 207.267,310.743 208.370 C 304.700 215.995,303.965 216.803,298.469 221.867 C 291.586 228.210,291.114 228.248,289.424 222.583 C 289.067 221.387,288.483 219.426,288.124 218.225 C 287.766 217.024,287.309 214.700,287.109 213.060 C 286.819 210.688,286.438 209.449,285.245 206.995 C 284.421 205.299,283.495 203.128,283.187 202.170 C 282.879 201.212,282.094 199.541,281.441 198.457 C 280.789 197.374,279.959 195.819,279.598 195.003 C 279.237 194.186,278.425 192.872,277.795 192.082 C 277.165 191.292,276.311 190.055,275.898 189.332 C 273.823 185.700,265.299 176.612,261.395 173.868 C 254.427 168.971,251.448 167.124,248.927 166.136 C 247.775 165.684,246.588 165.101,246.290 164.840 C 245.337 164.005,243.051 162.994,240.796 162.411 C 239.591 162.100,237.534 161.338,236.224 160.719 C 233.253 159.313,233.389 159.350,228.061 158.504 C 212.427 156.020,212.703 156.168,207.069 147.217 C 205.713 145.063,203.059 141.444,201.743 139.954 C 199.625 137.556,198.882 133.755,200.085 131.461 C 201.406 128.939,216.519 113.946,217.740 113.946 C 217.911 113.946,219.155 113.200,220.505 112.289 C 221.855 111.378,223.878 110.295,225.000 109.883 C 226.122 109.470,227.799 108.667,228.726 108.098 C 230.652 106.916,232.717 106.122,233.870 106.122 C 234.305 106.122,236.620 105.495,239.014 104.729 C 242.485 103.618,244.194 103.271,247.449 103.015 C 249.694 102.839,251.684 102.626,251.871 102.541 C 252.364 102.318,260.849 102.693,264.618 103.104 M353.587 157.025 C 349.714 157.625,347.164 158.763,346.258 160.298 C 345.885 160.931,345.183 161.661,344.699 161.920 C 342.963 162.849,342.687 163.943,342.687 169.898 C 342.687 176.028,342.928 177.005,344.785 178.422 C 345.432 178.915,346.097 179.678,346.264 180.118 C 347.152 182.453,349.866 182.715,371.839 182.583 C 391.709 182.464,390.214 182.688,393.648 179.318 C 396.822 176.204,396.958 175.875,397.177 170.799 C 397.405 165.528,397.092 164.198,395.149 162.166 C 394.356 161.338,393.225 160.126,392.634 159.475 C 390.995 157.666,388.526 157.210,378.184 156.809 C 366.720 156.363,357.330 156.446,353.587 157.025 M388.884 159.325 C 390.725 159.753,392.177 160.618,392.177 161.287 C 392.177 161.451,392.777 162.343,393.509 163.270 C 397.410 168.205,395.606 176.815,389.981 180.111 C 387.042 181.833,364.323 182.211,351.361 180.753 C 346.185 180.171,342.179 171.855,344.191 165.873 C 344.676 164.429,348.595 159.870,349.765 159.386 C 351.956 158.481,385.031 158.430,388.884 159.325 M322.959 227.115 C 322.585 227.206,321.820 227.626,321.259 228.048 C 320.697 228.470,319.437 229.221,318.458 229.716 C 317.480 230.212,316.416 231.037,316.094 231.550 C 315.773 232.063,314.835 233.222,314.010 234.125 L 312.509 235.766 312.647 240.417 C 312.738 243.476,312.944 245.359,313.250 245.918 C 314.550 248.291,319.545 253.840,328.281 262.616 C 338.654 273.038,337.879 272.444,343.320 274.128 L 345.654 274.850 349.101 274.124 C 353.284 273.243,354.842 272.491,355.935 270.826 C 356.393 270.129,357.237 269.109,357.810 268.561 C 359.303 267.134,359.615 265.693,359.475 260.857 C 359.311 255.151,358.861 254.500,346.786 242.517 C 346.503 242.236,344.078 239.847,341.396 237.207 C 338.714 234.567,336.224 232.002,335.862 231.506 C 335.438 230.926,334.296 230.264,332.653 229.646 C 331.250 229.119,329.507 228.279,328.779 227.779 C 327.472 226.882,325.055 226.606,322.959 227.115 M328.814 230.089 C 330.163 230.547,331.770 231.178,332.385 231.492 C 333.662 232.142,353.427 251.784,356.076 255.035 L 357.823 257.178 357.823 259.980 C 357.823 264.684,356.744 267.514,353.710 270.768 C 351.839 272.774,344.626 273.313,341.139 271.707 C 338.300 270.399,318.171 250.099,315.986 246.341 L 314.456 243.707 314.456 240.306 L 314.456 236.905 316.092 234.447 C 318.115 231.408,318.855 230.876,322.279 229.993 C 325.760 229.096,325.892 229.098,328.814 230.089 " stroke="none" fill="#fcf2a8" fill-rule="evenodd"></path></g></svg>