<svg id="svg" version="1.1" xmlns="http://www.w3.org/2000/svg" xmlns:xlink="http://www.w3.org/1999/xlink" width="400" height="375" viewBox="0, 0, 400,375"><g id="svgg"><path id="path0" d="M82.176 142.463 C 78.064 143.581,77.035 144.019,76.721 144.781 C 76.291 145.824,76.058 152.095,76.349 154.806 L 76.622 157.360 80.244 161.010 C 84.797 165.601,87.467 168.652,89.099 171.131 C 89.802 172.198,90.902 173.390,91.545 173.781 C 92.187 174.171,93.064 175.086,93.493 175.814 C 93.923 176.542,94.764 177.391,95.362 177.701 C 95.960 178.010,96.956 178.961,97.574 179.814 C 98.192 180.667,99.196 181.669,99.806 182.040 C 100.416 182.410,101.300 183.302,101.771 184.022 C 102.253 184.758,103.589 185.870,104.829 186.567 C 106.040 187.248,107.422 188.269,107.900 188.837 C 110.161 191.521,115.062 191.359,118.033 188.504 C 118.863 187.707,120.276 186.384,121.175 185.565 C 124.643 182.403,124.835 177.164,121.614 173.600 C 120.841 172.745,119.729 171.402,119.142 170.616 C 118.556 169.830,117.596 168.938,117.010 168.635 C 116.423 168.332,115.533 167.434,115.031 166.639 C 114.530 165.844,113.512 164.819,112.770 164.360 C 112.028 163.902,111.098 162.892,110.702 162.117 C 110.274 161.278,109.521 160.517,108.841 160.235 C 108.213 159.975,107.357 159.209,106.939 158.533 C 106.522 157.857,105.549 156.830,104.778 156.252 C 104.008 155.674,103.219 154.938,103.025 154.617 C 102.831 154.296,101.649 152.994,100.398 151.723 C 99.147 150.452,97.871 149.140,97.561 148.808 C 97.251 148.476,96.365 147.684,95.591 147.047 C 94.817 146.410,94.184 145.643,94.184 145.344 C 94.184 144.723,91.379 143.396,87.802 142.325 L 85.366 141.596 82.176 142.463 M306.166 143.252 C 305.610 143.512,302.365 146.473,301.001 147.964 C 300.657 148.341,299.729 149.269,298.939 150.028 C 298.149 150.787,293.422 155.534,288.433 160.579 C 283.444 165.623,278.748 170.351,277.998 171.085 C 277.248 171.820,276.425 172.842,276.169 173.358 C 275.913 173.874,275.049 175.156,274.249 176.207 C 272.375 178.670,272.257 180.593,273.867 182.445 C 274.456 183.123,275.220 184.280,275.566 185.016 C 275.924 185.780,276.874 186.785,277.779 187.357 C 278.650 187.908,279.571 188.691,279.825 189.097 C 280.942 190.886,285.854 190.987,287.472 189.255 C 287.965 188.728,289.509 187.617,290.905 186.786 C 292.300 185.955,293.959 184.622,294.591 183.824 C 295.223 183.027,296.227 182.086,296.822 181.734 C 297.417 181.383,298.099 180.624,298.338 180.049 C 298.576 179.473,299.479 178.555,300.344 178.008 C 301.208 177.461,302.291 176.361,302.750 175.564 C 303.233 174.724,304.194 173.803,305.034 173.375 C 305.943 172.911,306.625 172.230,306.862 171.550 C 307.076 170.935,307.866 170.085,308.686 169.587 C 309.481 169.104,310.288 168.447,310.479 168.126 C 310.670 167.805,312.668 165.722,314.918 163.498 C 319.935 158.540,320.829 156.781,320.820 151.884 C 320.813 148.334,320.065 144.670,319.163 143.768 C 318.501 143.106,307.422 142.666,306.166 143.252 M186.607 186.446 C 184.914 187.594,181.360 188.426,175.537 189.038 C 172.675 189.340,171.951 189.577,169.628 190.981 C 168.171 191.861,165.634 192.993,163.989 193.497 C 161.738 194.186,160.812 194.673,160.250 195.462 C 159.779 196.124,158.692 196.808,157.313 197.310 C 155.892 197.829,154.830 198.506,154.285 199.243 C 153.824 199.868,152.312 200.956,150.926 201.661 C 149.510 202.382,147.957 203.519,147.383 204.254 C 146.821 204.975,145.762 205.762,145.029 206.003 C 144.072 206.319,143.488 206.854,142.951 207.907 C 142.486 208.817,141.671 209.642,140.797 210.088 C 139.821 210.586,139.240 211.220,138.902 212.157 C 138.633 212.899,137.820 213.959,137.095 214.512 C 136.322 215.102,135.251 216.562,134.506 218.043 C 133.806 219.432,132.745 220.917,132.147 221.342 C 131.431 221.852,130.894 222.712,130.571 223.864 C 130.302 224.826,129.486 226.478,128.759 227.534 C 128.031 228.591,126.994 230.638,126.454 232.083 C 125.914 233.527,124.931 235.454,124.271 236.365 C 122.798 238.395,121.951 241.122,121.951 243.830 C 121.951 246.831,120.560 252.345,119.478 253.630 L 118.574 254.705 118.574 265.205 C 118.574 274.278,118.654 275.772,119.162 276.193 C 120.502 277.306,121.506 281.090,122.139 287.414 C 122.423 290.251,122.954 291.664,124.367 293.340 L 125.395 294.559 197.688 294.522 C 237.449 294.501,270.388 294.370,270.885 294.231 C 272.456 293.792,273.140 292.354,273.885 287.923 C 274.470 284.446,274.863 283.235,276.188 280.835 L 277.786 277.941 277.958 268.145 C 278.176 255.811,277.838 252.486,276.006 248.944 C 274.888 246.781,274.534 245.486,273.911 241.276 C 273.214 236.568,273.083 236.143,272.058 235.260 C 270.722 234.108,269.438 231.406,269.427 229.721 C 269.420 228.793,269.014 228.046,267.796 226.719 C 266.903 225.748,265.945 224.382,265.666 223.683 C 265.387 222.985,264.496 221.577,263.688 220.553 C 262.879 219.530,261.817 217.787,261.327 216.679 C 260.726 215.320,260.069 214.476,259.307 214.081 C 258.686 213.760,257.806 212.852,257.352 212.063 C 256.898 211.274,255.926 210.305,255.192 209.911 C 254.422 209.496,253.487 208.519,252.980 207.598 C 252.497 206.721,251.855 206.004,251.553 206.004 C 250.657 206.004,249.157 204.843,248.558 203.685 C 248.201 202.994,247.293 202.282,246.044 201.714 C 244.969 201.224,243.332 200.134,242.405 199.291 C 241.478 198.447,239.972 197.503,239.059 197.192 C 237.232 196.569,236.023 195.651,236.023 194.887 C 236.023 194.604,235.099 194.138,233.865 193.798 C 229.269 192.532,228.003 192.036,226.204 190.799 C 224.191 189.414,224.131 189.399,217.448 188.561 C 211.818 187.856,210.489 187.484,209.381 186.305 L 208.500 185.366 198.340 185.373 L 188.180 185.380 186.607 186.446 M35.084 251.755 C 31.755 252.171,31.192 252.442,30.569 253.934 C 30.260 254.675,29.249 256.167,28.324 257.250 L 26.642 259.219 26.642 262.351 C 26.642 265.431,26.659 265.491,27.707 265.955 C 28.293 266.214,29.301 267.162,29.946 268.061 C 31.081 269.641,31.251 269.728,35.061 270.682 L 39.002 271.670 58.056 271.662 L 77.111 271.654 81.206 270.239 C 86.203 268.513,86.421 268.168,86.458 261.914 C 86.483 257.640,86.000 256.090,84.294 254.973 C 83.817 254.660,83.211 254.002,82.948 253.510 C 81.944 251.635,81.976 251.637,58.912 251.553 C 47.045 251.510,36.323 251.601,35.084 251.755 M317.636 251.656 C 314.464 252.041,314.113 252.190,313.316 253.479 C 312.876 254.191,312.028 255.062,311.433 255.414 C 309.878 256.332,309.381 257.862,309.381 261.726 C 309.381 270.633,311.304 271.381,334.709 271.580 C 356.478 271.764,363.649 271.152,365.406 268.959 C 365.756 268.523,366.691 267.440,367.486 266.552 C 370.444 263.247,370.218 258.946,366.925 255.874 C 366.126 255.129,365.478 254.168,365.478 253.729 C 365.478 251.692,361.972 251.397,338.528 251.463 C 327.657 251.494,318.255 251.581,317.636 251.656 " stroke="none" fill="#fcd434" fill-rule="evenodd"></path><path id="path1" d="M193.895 25.338 C 192.133 25.985,188.524 29.096,182.012 35.583 C 179.238 38.346,176.030 41.299,174.882 42.144 C 173.734 42.990,169.735 46.666,165.994 50.313 C 162.253 53.960,158.285 57.624,157.176 58.456 C 154.544 60.431,142.371 72.707,141.841 73.921 C 141.615 74.437,141.177 75.281,140.867 75.797 C 139.994 77.251,140.331 82.925,141.442 85.459 C 143.370 89.856,150.070 91.826,154.850 89.400 C 157.928 87.837,181.642 64.669,183.937 60.982 C 185.132 59.062,186.096 58.851,186.532 60.415 C 187.069 62.345,186.878 71.981,186.233 75.516 C 185.103 81.708,185.285 131.374,186.456 136.210 C 187.517 140.593,188.489 142.337,191.272 144.848 L 193.433 146.797 198.261 146.580 C 205.110 146.271,207.482 144.686,210.347 138.503 L 211.632 135.729 211.632 105.810 C 211.632 81.669,211.535 75.611,211.126 74.437 C 210.847 73.638,210.511 71.038,210.379 68.661 C 210.246 66.283,210.028 63.286,209.894 62.000 C 209.594 59.132,210.049 58.966,212.195 61.163 C 213.001 61.989,213.801 62.664,213.972 62.664 C 214.143 62.664,219.805 68.238,226.554 75.051 C 239.945 88.567,241.962 90.148,246.512 90.687 C 251.881 91.323,258.895 83.225,257.423 78.092 C 256.629 75.324,244.199 61.408,240.251 58.868 C 239.289 58.249,231.631 51.014,215.619 35.597 C 212.054 32.164,208.643 29.100,208.039 28.788 C 207.434 28.475,206.603 27.840,206.190 27.377 C 204.084 25.010,197.680 23.948,193.895 25.338 M14.468 313.880 C 6.229 316.821,4.133 330.677,11.366 334.386 C 12.149 334.787,13.141 335.467,13.571 335.897 C 15.203 337.530,12.172 337.503,200.197 337.514 L 379.944 337.523 382.749 335.853 C 385.614 334.147,388.368 331.681,388.368 330.821 C 388.368 330.557,388.768 329.994,389.256 329.569 C 392.520 326.732,388.910 317.008,383.627 314.407 L 381.801 313.508 198.874 313.430 C 42.423 313.363,15.733 313.428,14.468 313.880 " stroke="none" fill="#c4c4c4" fill-rule="evenodd"></path><path id="path2" d="M81.614 138.498 C 80.817 138.951,78.748 140.262,76.498 141.736 C 74.199 143.244,71.870 148.256,72.155 151.085 C 72.826 157.742,75.004 160.672,92.664 178.671 C 96.472 182.553,99.718 185.961,99.878 186.246 C 100.510 187.376,106.468 191.311,108.425 191.893 C 113.753 193.475,118.307 192.464,122.251 188.824 L 124.990 186.297 125.384 183.486 C 125.915 179.696,125.640 174.630,124.819 173.067 C 123.529 170.611,94.284 141.818,91.193 139.959 C 88.178 138.147,83.485 137.431,81.614 138.498 M309.455 138.873 C 304.787 139.971,302.381 141.956,287.596 156.898 C 271.631 173.034,271.166 173.655,270.682 179.477 C 270.006 187.600,277.403 193.665,286.131 192.145 C 290.304 191.418,291.681 190.474,298.339 183.771 C 300.748 181.346,302.907 179.362,303.137 179.362 C 303.367 179.362,303.989 178.676,304.518 177.837 C 305.048 176.998,306.063 175.968,306.774 175.548 C 307.486 175.128,308.068 174.628,308.068 174.437 C 308.068 174.245,311.065 171.073,314.728 167.387 C 324.190 157.868,325.126 156.379,324.891 151.220 C 324.524 143.120,316.995 137.098,309.455 138.873 M92.211 143.927 C 93.296 144.407,94.184 145.044,94.184 145.344 C 94.184 145.643,94.817 146.410,95.591 147.047 C 96.365 147.684,97.251 148.476,97.561 148.808 C 97.871 149.140,99.147 150.452,100.398 151.723 C 101.649 152.994,102.831 154.296,103.025 154.617 C 103.219 154.938,104.008 155.674,104.778 156.252 C 105.549 156.830,106.522 157.857,106.939 158.533 C 107.357 159.209,108.213 159.975,108.841 160.235 C 109.521 160.517,110.274 161.278,110.702 162.117 C 111.098 162.892,112.028 163.902,112.770 164.360 C 113.512 164.819,114.530 165.844,115.031 166.639 C 115.533 167.434,116.423 168.332,117.010 168.635 C 117.596 168.938,118.556 169.830,119.142 170.616 C 119.729 171.402,120.841 172.745,121.614 173.600 C 124.835 177.164,124.643 182.403,121.175 185.565 C 120.276 186.384,118.863 187.707,118.033 188.504 C 115.062 191.359,110.161 191.521,107.900 188.837 C 107.422 188.269,106.040 187.248,104.829 186.567 C 103.589 185.870,102.253 184.758,101.771 184.022 C 101.300 183.302,100.416 182.410,99.806 182.040 C 99.196 181.669,98.192 180.667,97.574 179.814 C 96.956 178.961,95.960 178.010,95.362 177.701 C 94.764 177.391,93.923 176.542,93.493 175.814 C 93.064 175.086,92.187 174.171,91.545 173.781 C 90.902 173.390,89.802 172.198,89.099 171.131 C 87.467 168.652,84.797 165.601,80.244 161.010 L 76.622 157.360 76.349 154.806 C 76.058 152.095,76.291 145.824,76.721 144.781 C 77.035 144.019,78.064 143.581,82.176 142.463 L 85.366 141.596 87.802 142.325 C 89.143 142.726,91.127 143.447,92.211 143.927 M319.163 143.768 C 320.065 144.670,320.813 148.334,320.820 151.884 C 320.829 156.781,319.935 158.540,314.918 163.498 C 312.668 165.722,310.670 167.805,310.479 168.126 C 310.288 168.447,309.481 169.104,308.686 169.587 C 307.866 170.085,307.076 170.935,306.862 171.550 C 306.625 172.230,305.943 172.911,305.034 173.375 C 304.194 173.803,303.233 174.724,302.750 175.564 C 302.291 176.361,301.208 177.461,300.344 178.008 C 299.479 178.555,298.576 179.473,298.338 180.049 C 298.099 180.624,297.417 181.383,296.822 181.734 C 296.227 182.086,295.223 183.027,294.591 183.824 C 293.959 184.622,292.300 185.955,290.905 186.786 C 289.509 187.617,287.965 188.728,287.472 189.255 C 285.854 190.987,280.942 190.886,279.825 189.097 C 279.571 188.691,278.650 187.908,277.779 187.357 C 276.874 186.785,275.924 185.780,275.566 185.016 C 275.220 184.280,274.456 183.123,273.867 182.445 C 272.257 180.593,272.375 178.670,274.249 176.207 C 275.049 175.156,275.913 173.874,276.169 173.358 C 276.425 172.842,277.248 171.820,277.998 171.085 C 278.748 170.351,283.444 165.623,288.433 160.579 C 293.422 155.534,298.149 150.787,298.939 150.028 C 299.729 149.269,300.657 148.341,301.001 147.964 C 302.365 146.473,305.610 143.512,306.166 143.252 C 307.422 142.666,318.501 143.106,319.163 143.768 M188.336 183.262 C 188.250 183.343,186.439 183.597,184.311 183.826 C 181.630 184.114,179.672 184.568,177.932 185.306 C 176.552 185.891,173.818 186.761,171.857 187.240 C 169.620 187.787,166.999 188.787,164.816 189.928 C 162.904 190.927,161.111 191.745,160.831 191.745 C 160.332 191.745,155.655 194.718,150.094 198.570 C 142.230 204.018,131.856 215.213,128.428 221.951 C 127.903 222.983,127.093 224.334,126.629 224.953 C 126.164 225.572,125.249 227.374,124.596 228.956 C 123.942 230.538,122.915 232.577,122.313 233.486 C 121.663 234.467,120.902 236.469,120.441 238.412 C 120.014 240.212,119.163 242.936,118.550 244.465 C 116.842 248.731,116.615 251.650,116.797 267.038 C 116.971 281.834,117.020 282.255,119.074 286.679 C 119.600 287.814,120.235 289.924,120.483 291.368 C 120.844 293.468,121.168 294.225,122.100 295.154 L 123.265 296.314 129.268 296.561 C 132.570 296.697,166.182 296.809,203.960 296.809 L 272.648 296.811 273.835 295.586 C 274.750 294.642,275.229 293.565,275.922 290.896 C 276.417 288.990,277.260 286.770,277.794 285.963 C 279.446 283.466,279.619 281.094,279.454 263.193 C 279.297 246.123,279.196 244.985,277.662 243.035 C 277.249 242.509,276.569 240.675,276.152 238.957 C 275.192 235.005,274.766 233.874,273.671 232.385 C 273.186 231.726,272.263 229.869,271.619 228.258 C 270.975 226.647,270.037 224.839,269.535 224.241 C 269.033 223.642,268.121 222.160,267.508 220.946 C 266.896 219.732,265.837 218.111,265.156 217.343 C 264.475 216.576,263.400 215.188,262.768 214.259 C 261.782 212.811,258.387 209.298,251.032 202.115 C 250.103 201.208,248.921 200.249,248.405 199.985 C 247.889 199.720,246.707 198.884,245.779 198.127 C 244.850 197.370,242.894 196.056,241.433 195.207 C 239.971 194.357,238.566 193.410,238.310 193.101 C 238.053 192.793,236.632 192.088,235.151 191.535 C 233.670 190.982,231.802 190.089,231.001 189.551 C 230.152 188.980,227.650 188.079,224.998 187.388 C 222.497 186.736,219.268 185.774,217.824 185.249 C 213.298 183.606,189.662 182.013,188.336 183.262 M209.381 186.305 C 210.489 187.484,211.818 187.856,217.448 188.561 C 224.131 189.399,224.191 189.414,226.204 190.799 C 228.003 192.036,229.269 192.532,233.865 193.798 C 235.099 194.138,236.023 194.604,236.023 194.887 C 236.023 195.651,237.232 196.569,239.059 197.192 C 239.972 197.503,241.478 198.447,242.405 199.291 C 243.332 200.134,244.969 201.224,246.044 201.714 C 247.293 202.282,248.201 202.994,248.558 203.685 C 249.157 204.843,250.657 206.004,251.553 206.004 C 251.855 206.004,252.497 206.721,252.980 207.598 C 253.487 208.519,254.422 209.496,255.192 209.911 C 255.926 210.305,256.898 211.274,257.352 212.063 C 257.806 212.852,258.686 213.760,259.307 214.081 C 260.069 214.476,260.726 215.320,261.327 216.679 C 261.817 217.787,262.879 219.530,263.688 220.553 C 264.496 221.577,265.387 222.985,265.666 223.683 C 265.945 224.382,266.903 225.748,267.796 226.719 C 269.014 228.046,269.420 228.793,269.427 229.721 C 269.438 231.406,270.722 234.108,272.058 235.260 C 273.083 236.143,273.214 236.568,273.911 241.276 C 274.534 245.486,274.888 246.781,276.006 248.944 C 277.838 252.486,278.176 255.811,277.958 268.145 L 277.786 277.941 276.188 280.835 C 274.863 283.235,274.470 284.446,273.885 287.923 C 273.140 292.354,272.456 293.792,270.885 294.231 C 270.388 294.370,237.449 294.501,197.688 294.522 L 125.395 294.559 124.367 293.340 C 122.954 291.664,122.423 290.251,122.139 287.414 C 121.506 281.090,120.502 277.306,119.162 276.193 C 118.654 275.772,118.574 274.278,118.574 265.205 L 118.574 254.705 119.478 253.630 C 120.560 252.345,121.951 246.831,121.951 243.830 C 121.951 241.122,122.798 238.395,124.271 236.365 C 124.931 235.454,125.914 233.527,126.454 232.083 C 126.994 230.638,128.031 228.591,128.759 227.534 C 129.486 226.478,130.302 224.826,130.571 223.864 C 130.894 222.712,131.431 221.852,132.147 221.342 C 132.745 220.917,133.806 219.432,134.506 218.043 C 135.251 216.562,136.322 215.102,137.095 214.512 C 137.820 213.959,138.633 212.899,138.902 212.157 C 139.240 211.220,139.821 210.586,140.797 210.088 C 141.671 209.642,142.486 208.817,142.951 207.907 C 143.488 206.854,144.072 206.319,145.029 206.003 C 145.762 205.762,146.821 204.975,147.383 204.254 C 147.957 203.519,149.510 202.382,150.926 201.661 C 152.312 200.956,153.824 199.868,154.285 199.243 C 154.830 198.506,155.892 197.829,157.313 197.310 C 158.692 196.808,159.779 196.124,160.250 195.462 C 160.812 194.673,161.738 194.186,163.989 193.497 C 165.634 192.993,168.171 191.861,169.628 190.981 C 171.951 189.577,172.675 189.340,175.537 189.038 C 181.360 188.426,184.914 187.594,186.607 186.446 L 188.180 185.380 198.340 185.373 L 208.500 185.366 209.381 186.305 M44.090 247.271 C 39.691 247.522,38.471 247.729,36.585 248.542 C 35.347 249.076,33.996 249.518,33.583 249.524 C 27.789 249.609,22.807 259.533,25.088 266.446 C 25.695 268.284,29.266 271.603,32.866 273.675 L 35.901 275.422 55.192 275.402 C 77.647 275.378,79.680 275.244,81.917 273.638 C 82.782 273.017,84.081 272.256,84.803 271.948 C 86.738 271.121,87.915 269.592,89.202 266.229 C 91.000 261.529,91.008 261.332,89.504 258.347 C 88.777 256.903,88.182 255.542,88.181 255.321 C 88.175 253.183,83.800 250.495,77.264 248.613 L 72.609 247.273 60.976 247.122 C 54.578 247.039,46.979 247.106,44.090 247.271 M326.266 247.252 C 323.790 247.370,321.549 247.606,321.286 247.776 C 321.023 247.946,319.419 248.471,317.721 248.942 C 311.259 250.738,309.639 252.020,307.094 257.358 C 305.186 261.359,305.129 262.316,306.602 265.647 C 308.261 269.395,309.484 270.804,312.834 272.820 C 317.002 275.328,317.707 275.391,341.782 275.409 L 360.300 275.422 362.608 274.046 C 363.877 273.289,365.558 272.267,366.344 271.775 C 370.778 268.998,373.112 260.926,370.824 256.285 C 369.514 253.629,366.158 250.383,364.257 249.931 C 363.381 249.723,361.318 249.100,359.673 248.546 C 355.619 247.182,340.227 246.586,326.266 247.252 M81.478 252.124 C 82.023 252.394,82.684 253.018,82.948 253.510 C 83.211 254.002,83.817 254.660,84.294 254.973 C 86.000 256.090,86.483 257.640,86.458 261.914 C 86.421 268.168,86.203 268.513,81.206 270.239 L 77.111 271.654 58.056 271.662 L 39.002 271.670 35.061 270.682 C 31.251 269.728,31.081 269.641,29.946 268.061 C 29.301 267.162,28.293 266.214,27.707 265.955 C 26.659 265.491,26.642 265.431,26.642 262.351 L 26.642 259.219 28.324 257.250 C 29.249 256.167,30.260 254.675,30.569 253.934 C 31.569 251.541,32.569 251.457,58.912 251.553 C 75.826 251.615,80.702 251.738,81.478 252.124 M361.220 251.814 C 364.671 252.294,365.478 252.657,365.478 253.729 C 365.478 254.168,366.126 255.129,366.925 255.874 C 370.218 258.946,370.444 263.247,367.486 266.552 C 366.691 267.440,365.756 268.523,365.406 268.959 C 363.649 271.152,356.478 271.764,334.709 271.580 C 311.304 271.381,309.381 270.633,309.381 261.726 C 309.381 257.862,309.878 256.332,311.433 255.414 C 312.028 255.062,312.876 254.191,313.316 253.479 C 314.113 252.190,314.464 252.041,317.636 251.656 C 320.549 251.303,358.531 251.440,361.220 251.814 " stroke="none" fill="#fce46c" fill-rule="evenodd"></path><path id="path3" d="M84.334 137.976 C 84.798 138.065,85.558 138.065,86.023 137.976 C 86.487 137.886,86.107 137.813,85.178 137.813 C 84.250 137.813,83.870 137.886,84.334 137.976 M96.060 143.832 C 96.060 143.897,96.609 144.446,97.280 145.052 L 98.499 146.154 97.397 144.934 C 96.370 143.798,96.060 143.542,96.060 143.832 M275.777 168.762 L 274.484 170.169 275.891 168.876 C 277.201 167.672,277.471 167.355,277.184 167.355 C 277.122 167.355,276.488 167.988,275.777 168.762 M94.559 181.051 C 96.304 182.805,97.816 184.240,97.920 184.240 C 98.023 184.240,96.679 182.805,94.934 181.051 C 93.189 179.296,91.677 177.861,91.574 177.861 C 91.471 177.861,92.814 179.296,94.559 181.051 M196.172 183.019 C 197.884 183.088,200.586 183.088,202.175 183.018 C 203.765 182.948,202.364 182.891,199.062 182.891 C 195.760 182.892,194.459 182.949,196.172 183.019 M139.942 207.036 L 138.649 208.443 140.056 207.150 C 141.366 205.946,141.636 205.629,141.349 205.629 C 141.287 205.629,140.653 206.262,139.942 207.036 M46.248 247.173 C 46.815 247.259,47.744 247.259,48.311 247.173 C 48.879 247.087,48.415 247.017,47.280 247.017 C 46.144 247.017,45.680 247.087,46.248 247.173 M65.760 247.173 C 66.327 247.259,67.256 247.259,67.824 247.173 C 68.391 247.087,67.927 247.017,66.792 247.017 C 65.657 247.017,65.192 247.087,65.760 247.173 M327.111 247.176 C 327.781 247.259,328.879 247.259,329.550 247.176 C 330.220 247.093,329.672 247.024,328.330 247.024 C 326.989 247.024,326.440 247.093,327.111 247.176 M343.256 247.180 C 344.138 247.259,345.489 247.258,346.258 247.177 C 347.026 247.096,346.304 247.032,344.653 247.033 C 343.002 247.034,342.373 247.100,343.256 247.180 M279.708 264.916 C 279.708 269.146,279.763 270.877,279.830 268.762 C 279.896 266.646,279.896 263.185,279.830 261.069 C 279.763 258.954,279.708 260.685,279.708 264.916 M116.479 264.728 C 116.479 268.649,116.535 270.202,116.603 268.179 C 116.670 266.156,116.670 262.948,116.602 261.050 C 116.534 259.152,116.479 260.807,116.479 264.728 M320.169 275.306 C 320.530 275.400,321.121 275.400,321.482 275.306 C 321.843 275.211,321.548 275.134,320.826 275.134 C 320.103 275.134,319.808 275.211,320.169 275.306 M127.861 296.707 C 128.532 296.790,129.629 296.790,130.300 296.707 C 130.971 296.623,130.422 296.555,129.081 296.555 C 127.739 296.555,127.190 296.623,127.861 296.707 " stroke="none" fill="#fcec9e" fill-rule="evenodd"></path></g></svg>