<svg id="svg" version="1.1" xmlns="http://www.w3.org/2000/svg" xmlns:xlink="http://www.w3.org/1999/xlink" width="400" height="375" viewBox="0, 0, 400,375"><g id="svgg"><path id="path0" d="M85.741 142.379 C 84.296 142.871,82.658 143.374,82.099 143.497 C 80.800 143.783,80.335 145.282,80.053 150.094 C 79.724 155.722,80.311 156.902,86.681 163.415 C 89.507 166.304,92.525 169.638,93.387 170.824 C 94.250 172.010,95.341 173.232,95.812 173.541 C 96.283 173.850,97.053 174.786,97.523 175.623 C 97.993 176.459,99.012 177.543,99.786 178.032 C 100.561 178.522,101.412 179.445,101.677 180.085 C 101.966 180.783,102.679 181.495,103.458 181.865 C 104.173 182.204,105.184 183.126,105.705 183.913 C 106.226 184.701,107.435 185.796,108.392 186.347 C 109.349 186.898,110.842 187.922,111.711 188.622 C 115.426 191.615,118.402 191.583,122.176 188.509 C 123.303 187.591,124.652 186.677,125.173 186.479 C 128.546 185.197,128.656 175.376,125.325 172.926 C 124.667 172.441,123.805 171.415,123.411 170.646 C 123.017 169.876,122.189 168.985,121.571 168.665 C 120.953 168.346,120.012 167.427,119.481 166.624 C 118.949 165.820,117.857 164.728,117.054 164.197 C 116.250 163.665,115.339 162.739,115.029 162.139 C 114.719 161.539,113.878 160.686,113.161 160.242 C 112.444 159.799,111.495 158.850,111.052 158.133 C 110.609 157.416,109.756 156.576,109.155 156.266 C 108.555 155.955,107.624 155.036,107.086 154.223 C 106.548 153.411,105.532 152.406,104.829 151.990 C 104.125 151.575,103.201 150.646,102.776 149.926 C 102.352 149.206,101.416 148.254,100.697 147.809 C 99.978 147.365,98.988 146.366,98.498 145.589 C 96.655 142.669,89.889 140.967,85.741 142.379 M311.107 143.014 C 308.284 143.684,281.185 171.185,279.135 175.459 C 276.882 180.159,277.909 184.230,282.282 187.924 C 285.737 190.844,292.302 191.801,292.309 189.386 C 292.310 189.136,293.593 188.086,295.160 187.054 C 296.727 186.023,298.158 184.798,298.340 184.332 C 298.521 183.867,299.437 182.945,300.376 182.283 C 301.315 181.622,302.403 180.538,302.795 179.874 C 303.186 179.210,304.153 178.295,304.943 177.841 C 305.733 177.386,306.647 176.487,306.974 175.843 C 307.301 175.199,308.190 174.248,308.949 173.731 C 309.708 173.213,310.666 172.236,311.078 171.558 C 311.490 170.881,312.406 169.986,313.113 169.568 C 313.821 169.151,314.735 168.241,315.145 167.547 C 315.554 166.852,316.367 165.977,316.950 165.601 C 325.183 160.296,328.531 147.067,322.581 143.351 C 321.544 142.704,313.418 142.465,311.107 143.014 M195.611 185.392 C 192.584 185.625,191.447 185.880,190.170 186.613 C 188.580 187.526,185.012 188.297,178.913 189.045 C 176.816 189.302,175.548 189.694,174.281 190.478 C 171.323 192.308,170.984 192.480,168.797 193.263 C 167.630 193.682,165.942 194.611,165.045 195.329 C 164.148 196.048,162.532 196.897,161.453 197.216 C 160.103 197.616,159.244 198.145,158.698 198.911 C 158.262 199.524,156.754 200.605,155.347 201.313 C 153.910 202.037,152.431 203.105,151.972 203.750 C 151.522 204.382,150.366 205.300,149.404 205.790 C 148.418 206.292,147.349 207.205,146.954 207.882 C 146.569 208.543,145.665 209.430,144.945 209.855 C 144.103 210.352,143.386 211.212,142.933 212.268 C 142.525 213.221,141.772 214.172,141.139 214.535 C 140.448 214.932,139.682 215.960,139.048 217.343 C 138.497 218.543,137.320 220.272,136.433 221.185 C 135.420 222.226,134.645 223.467,134.352 224.514 C 134.095 225.431,133.244 226.958,132.460 227.907 C 131.555 229.001,130.863 230.353,130.564 231.607 C 129.922 234.297,128.960 236.445,128.018 237.287 C 127.052 238.151,126.591 239.604,126.275 242.777 C 125.913 246.417,124.682 251.728,123.816 253.390 C 122.660 255.608,122.198 260.181,122.445 266.979 C 122.669 273.144,122.770 273.742,124.343 278.236 C 125.145 280.528,125.628 282.902,126.648 289.568 C 126.814 290.656,127.354 291.672,128.392 292.852 L 129.895 294.559 203.007 294.559 C 267.623 294.559,276.185 294.493,276.684 293.994 C 277.416 293.262,277.502 292.950,278.423 287.668 C 278.975 284.507,279.515 282.650,280.285 281.266 C 282.511 277.264,283.038 251.297,280.925 249.719 C 279.843 248.910,278.511 244.029,277.866 238.510 C 277.653 236.687,277.389 236.088,276.334 235.033 C 274.654 233.353,273.929 231.883,273.660 229.612 C 273.471 228.020,273.228 227.579,272.004 226.609 C 270.946 225.771,270.398 224.932,269.921 223.416 C 269.550 222.240,268.620 220.596,267.748 219.575 C 266.910 218.593,265.919 217.113,265.546 216.286 C 265.133 215.368,264.308 214.436,263.430 213.893 C 262.638 213.404,261.726 212.448,261.402 211.769 C 261.046 211.021,260.218 210.231,259.302 209.764 C 258.308 209.256,257.609 208.557,257.259 207.719 C 256.929 206.930,256.249 206.219,255.472 205.850 C 254.743 205.504,253.787 204.542,253.191 203.557 C 252.455 202.338,251.855 201.797,251.065 201.639 C 250.459 201.518,249.036 200.635,247.901 199.677 C 246.766 198.720,244.961 197.627,243.889 197.249 C 242.817 196.871,241.369 195.991,240.672 195.294 C 239.933 194.555,238.739 193.858,237.808 193.623 C 235.034 192.922,233.027 192.077,231.914 191.141 C 230.439 189.899,228.448 189.258,225.132 188.956 C 220.216 188.508,216.011 187.604,214.356 186.640 C 211.952 185.240,204.249 184.727,195.611 185.392 M38.649 251.633 C 38.133 251.723,37.152 251.888,36.469 251.999 C 35.422 252.168,35.111 252.471,34.488 253.924 C 34.082 254.872,33.257 256.209,32.655 256.895 C 30.030 259.884,30.158 263.542,32.996 266.621 C 33.788 267.480,34.550 268.540,34.688 268.977 C 35.442 271.351,42.443 272.080,63.336 271.962 L 81.614 271.857 85.587 270.426 L 89.560 268.994 90.408 266.410 C 91.150 264.146,91.222 263.390,90.992 260.319 L 90.729 256.813 88.610 254.602 C 86.894 252.811,86.171 252.329,84.803 252.062 C 83.091 251.727,40.376 251.330,38.649 251.633 M319.037 251.969 C 318.364 252.262,317.704 252.804,317.572 253.174 C 317.440 253.544,316.583 254.522,315.668 255.347 C 313.241 257.536,312.994 259.235,314.129 265.924 C 315.006 271.092,319.678 272.012,345.148 272.032 C 363.540 272.047,369.245 271.192,370.758 268.195 C 370.992 267.733,371.708 266.908,372.350 266.361 C 374.205 264.783,374.212 258.035,372.361 256.568 C 370.831 255.357,369.644 253.932,369.537 253.177 C 369.315 251.622,366.511 251.442,342.402 251.439 C 324.105 251.437,320.050 251.529,319.037 251.969 " stroke="none" fill="#fcd434" fill-rule="evenodd"></path><path id="path1" d="M199.437 24.552 C 199.231 24.633,198.606 24.800,198.049 24.923 C 195.299 25.528,191.497 30.322,190.372 34.604 C 189.551 37.727,189.159 85.282,189.885 93.676 C 190.569 101.586,190.746 109.580,190.264 110.837 L 189.850 111.919 188.539 110.236 C 187.818 109.310,186.660 108.248,185.966 107.874 C 185.272 107.500,184.416 106.706,184.063 106.108 C 182.924 104.179,165.410 86.484,162.664 84.488 C 152.594 77.166,140.149 85.357,144.893 96.185 C 146.062 98.851,155.093 108.514,159.445 111.753 C 160.184 112.303,163.606 115.583,167.050 119.041 C 170.494 122.499,173.501 125.328,173.732 125.328 C 173.963 125.328,176.634 127.735,179.666 130.675 C 192.642 143.258,195.656 145.719,199.651 146.995 L 202.285 147.836 204.933 147.102 C 208.739 146.047,210.154 145.082,215.791 139.698 C 218.560 137.052,221.657 134.214,222.672 133.391 C 223.688 132.568,226.598 129.782,229.139 127.199 C 231.680 124.616,235.112 121.323,236.765 119.882 C 238.418 118.440,242.436 114.635,245.693 111.426 C 248.950 108.217,252.410 105.045,253.380 104.378 C 255.065 103.219,259.662 98.161,259.662 97.466 C 259.662 97.284,260.104 96.557,260.643 95.850 C 261.524 94.695,261.608 94.308,261.474 92.029 C 260.952 83.172,251.091 78.751,243.277 83.871 C 242.799 84.184,239.294 87.604,235.487 91.470 C 231.680 95.336,228.184 98.837,227.719 99.250 C 225.851 100.906,221.171 105.945,220.726 106.778 C 220.465 107.267,219.494 108.111,218.567 108.654 C 217.641 109.197,216.457 110.174,215.936 110.824 C 214.530 112.581,213.767 111.485,214.016 108.068 C 214.956 95.149,215.038 91.192,214.926 64.165 L 214.805 35.084 213.610 32.302 C 211.444 27.261,207.890 24.731,202.679 24.521 C 201.102 24.457,199.644 24.471,199.437 24.552 M18.574 313.719 C 13.439 315.231,9.390 324.048,11.544 329.025 C 11.960 329.984,12.483 331.233,12.708 331.800 C 12.944 332.397,14.004 333.399,15.221 334.178 C 16.378 334.918,17.631 335.830,18.005 336.204 C 19.493 337.692,22.335 337.714,211.820 337.703 C 391.629 337.691,384.482 337.779,387.805 335.536 C 393.700 331.556,396.237 325.667,393.900 321.388 C 393.562 320.769,393.097 319.841,392.868 319.325 C 392.208 317.841,389.849 315.597,387.805 314.508 L 385.929 313.508 202.814 313.448 C 97.704 313.413,19.220 313.528,18.574 313.719 " stroke="none" fill="#c4c4c4" fill-rule="evenodd"></path><path id="path2" d="M86.434 138.141 C 85.577 138.334,84.479 138.884,83.995 139.364 C 83.511 139.844,82.405 140.596,81.539 141.036 C 79.843 141.895,79.469 142.327,77.432 145.779 C 74.205 151.247,76.406 157.509,84.422 165.666 C 87.058 168.349,90.629 172.123,92.356 174.053 C 96.092 178.226,105.408 187.583,107.867 189.631 C 113.038 193.938,120.969 193.726,126.276 189.137 C 129.638 186.230,129.595 186.336,129.764 180.488 C 129.962 173.663,129.777 173.110,126.056 169.418 C 124.392 167.767,122.576 165.930,122.022 165.336 C 121.467 164.741,120.527 163.813,119.932 163.272 C 119.338 162.731,118.409 161.821,117.869 161.250 C 117.328 160.678,114.556 157.892,111.708 155.058 C 108.860 152.225,106.159 149.529,105.704 149.067 C 99.798 143.070,97.979 141.410,95.803 140.029 C 92.423 137.884,89.870 137.370,86.434 138.141 M310.838 139.773 C 307.575 141.430,302.037 145.888,300.543 148.060 C 299.915 148.972,299.247 149.719,299.059 149.719 C 298.871 149.719,297.114 151.365,295.154 153.377 C 293.195 155.389,288.350 160.321,284.389 164.337 C 278.361 170.446,277.003 172.029,276.064 174.036 C 271.966 182.793,277.459 191.943,287.096 192.414 C 293.703 192.737,294.174 192.424,308.103 178.424 C 313.442 173.058,318.186 168.330,318.646 167.917 C 319.106 167.505,319.995 166.584,320.623 165.873 C 321.250 165.161,322.167 164.232,322.660 163.809 C 330.078 157.443,331.498 151.206,327.052 144.518 C 325.037 141.487,325.113 141.556,321.873 139.815 C 318.249 137.866,314.621 137.853,310.838 139.773 M94.301 142.970 C 97.139 144.007,97.733 144.377,98.498 145.589 C 98.988 146.366,99.978 147.365,100.697 147.809 C 101.416 148.254,102.352 149.206,102.776 149.926 C 103.201 150.646,104.125 151.575,104.829 151.990 C 105.532 152.406,106.548 153.411,107.086 154.223 C 107.624 155.036,108.555 155.955,109.155 156.266 C 109.756 156.576,110.609 157.416,111.052 158.133 C 111.495 158.850,112.444 159.799,113.161 160.242 C 113.878 160.686,114.719 161.539,115.029 162.139 C 115.339 162.739,116.250 163.665,117.054 164.197 C 117.857 164.728,118.949 165.820,119.481 166.624 C 120.012 167.427,120.953 168.346,121.571 168.665 C 122.189 168.985,123.017 169.876,123.411 170.646 C 123.805 171.415,124.667 172.441,125.325 172.926 C 128.656 175.376,128.546 185.197,125.173 186.479 C 124.652 186.677,123.303 187.591,122.176 188.509 C 118.402 191.583,115.426 191.615,111.711 188.622 C 110.842 187.922,109.349 186.898,108.392 186.347 C 107.435 185.796,106.226 184.701,105.705 183.913 C 105.184 183.126,104.173 182.204,103.458 181.865 C 102.679 181.495,101.966 180.783,101.677 180.085 C 101.412 179.445,100.561 178.522,99.786 178.032 C 99.012 177.543,97.993 176.459,97.523 175.623 C 97.053 174.786,96.283 173.850,95.812 173.541 C 95.341 173.232,94.250 172.010,93.387 170.824 C 92.525 169.638,89.507 166.304,86.681 163.415 C 80.311 156.902,79.724 155.722,80.053 150.094 C 80.335 145.282,80.800 143.783,82.099 143.497 C 82.658 143.374,84.296 142.871,85.741 142.379 C 88.889 141.307,89.949 141.381,94.301 142.970 M322.581 143.351 C 328.531 147.067,325.183 160.296,316.950 165.601 C 316.367 165.977,315.554 166.852,315.145 167.547 C 314.735 168.241,313.821 169.151,313.113 169.568 C 312.406 169.986,311.490 170.881,311.078 171.558 C 310.666 172.236,309.708 173.213,308.949 173.731 C 308.190 174.248,307.301 175.199,306.974 175.843 C 306.647 176.487,305.733 177.386,304.943 177.841 C 304.153 178.295,303.186 179.210,302.795 179.874 C 302.403 180.538,301.315 181.622,300.376 182.283 C 299.437 182.945,298.521 183.867,298.340 184.332 C 298.158 184.798,296.727 186.023,295.160 187.054 C 293.593 188.086,292.310 189.136,292.309 189.386 C 292.302 191.801,285.737 190.844,282.282 187.924 C 277.909 184.230,276.882 180.159,279.135 175.459 C 281.185 171.185,308.284 143.684,311.107 143.014 C 313.418 142.465,321.544 142.704,322.581 143.351 M194.174 183.138 C 188.475 183.502,185.626 184.019,181.614 185.417 C 179.859 186.029,177.021 186.859,175.306 187.262 C 172.124 188.011,170.474 188.694,168.918 189.906 C 168.437 190.282,167.108 190.938,165.965 191.366 C 164.822 191.793,162.952 192.813,161.808 193.633 C 160.664 194.452,159.517 195.122,159.260 195.122 C 158.664 195.122,150.818 200.755,149.016 202.476 C 139.811 211.271,134.275 217.729,132.694 221.515 C 132.364 222.307,131.583 223.600,130.959 224.388 C 130.335 225.176,129.392 226.976,128.863 228.389 C 128.334 229.801,127.319 232.004,126.607 233.284 C 125.894 234.564,124.964 237.008,124.539 238.714 C 124.115 240.421,123.360 242.784,122.862 243.966 C 119.648 251.602,119.635 278.249,122.841 286.120 C 123.347 287.360,124.044 289.471,124.391 290.810 C 125.176 293.840,125.936 295.157,127.436 296.086 C 129.288 297.233,277.183 297.224,278.221 296.077 C 278.586 295.673,279.475 293.689,280.197 291.668 C 280.919 289.646,281.826 287.119,282.213 286.052 C 285.431 277.174,285.084 251.403,281.624 242.402 C 280.950 240.647,280.111 238.014,279.760 236.550 C 279.160 234.046,278.842 233.363,277.193 231.052 C 276.826 230.537,276.180 229.123,275.758 227.910 C 275.337 226.696,274.401 224.775,273.679 223.640 C 271.122 219.618,269.402 217.053,268.198 215.465 C 266.593 213.348,253.419 200.000,252.934 200.000 C 252.727 200.000,251.704 199.241,250.660 198.314 C 249.616 197.387,248.133 196.304,247.364 195.906 C 246.595 195.509,245.122 194.578,244.090 193.837 C 243.058 193.097,241.032 192.047,239.587 191.504 C 238.143 190.961,236.423 190.118,235.767 189.630 C 234.201 188.468,233.247 188.126,229.010 187.208 C 227.063 186.786,224.341 186.015,222.960 185.494 C 218.825 183.934,204.800 182.342,199.250 182.803 C 198.940 182.828,196.656 182.979,194.174 183.138 M207.977 185.363 C 211.997 185.657,213.019 185.862,214.356 186.640 C 216.011 187.604,220.216 188.508,225.132 188.956 C 228.448 189.258,230.439 189.899,231.914 191.141 C 233.027 192.077,235.034 192.922,237.808 193.623 C 238.739 193.858,239.933 194.555,240.672 195.294 C 241.369 195.991,242.817 196.871,243.889 197.249 C 244.961 197.627,246.766 198.720,247.901 199.677 C 249.036 200.635,250.459 201.518,251.065 201.639 C 251.855 201.797,252.455 202.338,253.191 203.557 C 253.787 204.542,254.743 205.504,255.472 205.850 C 256.249 206.219,256.929 206.930,257.259 207.719 C 257.609 208.557,258.308 209.256,259.302 209.764 C 260.218 210.231,261.046 211.021,261.402 211.769 C 261.726 212.448,262.638 213.404,263.430 213.893 C 264.308 214.436,265.133 215.368,265.546 216.286 C 265.919 217.113,266.910 218.593,267.748 219.575 C 268.620 220.596,269.550 222.240,269.921 223.416 C 270.398 224.932,270.946 225.771,272.004 226.609 C 273.228 227.579,273.471 228.020,273.660 229.612 C 273.929 231.883,274.654 233.353,276.334 235.033 C 277.389 236.088,277.653 236.687,277.866 238.510 C 278.511 244.029,279.843 248.910,280.925 249.719 C 283.038 251.297,282.511 277.264,280.285 281.266 C 279.515 282.650,278.975 284.507,278.423 287.668 C 277.502 292.950,277.416 293.262,276.684 293.994 C 276.185 294.493,267.623 294.559,203.007 294.559 L 129.895 294.559 128.392 292.852 C 127.354 291.672,126.814 290.656,126.648 289.568 C 125.628 282.902,125.145 280.528,124.343 278.236 C 122.770 273.742,122.669 273.144,122.445 266.979 C 122.198 260.181,122.660 255.608,123.816 253.390 C 124.682 251.728,125.913 246.417,126.275 242.777 C 126.591 239.604,127.052 238.151,128.018 237.287 C 128.960 236.445,129.922 234.297,130.564 231.607 C 130.863 230.353,131.555 229.001,132.460 227.907 C 133.244 226.958,134.095 225.431,134.352 224.514 C 134.645 223.467,135.420 222.226,136.433 221.185 C 137.320 220.272,138.497 218.543,139.048 217.343 C 139.682 215.960,140.448 214.932,141.139 214.535 C 141.772 214.172,142.525 213.221,142.933 212.268 C 143.386 211.212,144.103 210.352,144.945 209.855 C 145.665 209.430,146.569 208.543,146.954 207.882 C 147.349 207.205,148.418 206.292,149.404 205.790 C 150.366 205.300,151.522 204.382,151.972 203.750 C 152.431 203.105,153.910 202.037,155.347 201.313 C 156.754 200.605,158.262 199.524,158.698 198.911 C 159.244 198.145,160.103 197.616,161.453 197.216 C 162.532 196.897,164.148 196.048,165.045 195.329 C 165.942 194.611,167.630 193.682,168.797 193.263 C 170.984 192.480,171.323 192.308,174.281 190.478 C 175.548 189.694,176.816 189.302,178.913 189.045 C 185.012 188.297,188.580 187.526,190.170 186.613 C 192.581 185.229,199.502 184.743,207.977 185.363 M47.655 247.294 C 43.868 247.496,42.160 247.753,40.890 248.311 C 39.955 248.722,38.279 249.253,37.165 249.492 C 35.155 249.923,32.645 251.189,32.645 251.772 C 32.645 251.939,31.965 252.896,31.134 253.899 C 26.148 259.915,28.140 268.127,35.786 273.073 L 39.531 275.495 61.698 275.340 C 84.787 275.178,85.068 275.157,86.702 273.523 C 87.144 273.081,88.290 272.380,89.250 271.965 C 91.017 271.201,92.284 270.015,92.299 269.111 C 92.304 268.838,92.856 267.825,93.527 266.859 C 95.258 264.367,95.251 261.019,93.508 257.265 C 92.848 255.844,92.308 254.484,92.308 254.243 C 92.308 254.003,91.759 253.284,91.088 252.647 C 85.993 247.806,71.500 246.019,47.655 247.294 M330.582 247.288 C 320.846 247.788,312.290 251.959,311.245 256.714 C 311.113 257.315,310.586 258.557,310.073 259.474 L 309.141 261.141 310.061 263.310 C 310.567 264.503,311.444 266.622,312.010 268.020 C 312.962 270.375,314.343 272.045,315.338 272.045 C 315.567 272.045,316.643 272.658,317.730 273.406 C 320.510 275.321,322.828 275.482,345.759 275.347 L 364.916 275.235 369.231 272.741 C 375.154 269.320,376.496 266.065,375.447 257.670 C 375.053 254.513,370.858 250.214,367.508 249.534 C 366.288 249.287,364.531 248.747,363.602 248.336 C 360.800 247.094,344.462 246.575,330.582 247.288 M85.796 252.080 C 86.239 252.321,87.530 253.484,88.665 254.665 L 90.729 256.813 90.992 260.319 C 91.222 263.390,91.150 264.146,90.408 266.410 L 89.560 268.994 85.587 270.426 L 81.614 271.857 63.336 271.962 C 42.443 272.080,35.442 271.351,34.688 268.977 C 34.550 268.540,33.788 267.480,32.996 266.621 C 30.158 263.542,30.030 259.884,32.655 256.895 C 33.257 256.209,34.082 254.872,34.488 253.924 C 35.111 252.471,35.422 252.168,36.469 251.999 C 37.152 251.888,38.133 251.722,38.649 251.629 C 40.892 251.229,85.004 251.650,85.796 252.080 M366.979 251.895 C 369.041 252.278,369.437 252.477,369.537 253.177 C 369.644 253.932,370.831 255.357,372.361 256.568 C 374.212 258.035,374.205 264.783,372.350 266.361 C 371.708 266.908,370.992 267.733,370.758 268.195 C 369.245 271.192,363.540 272.047,345.148 272.032 C 319.678 272.012,315.006 271.092,314.129 265.924 C 312.994 259.235,313.241 257.536,315.668 255.347 C 316.583 254.522,317.440 253.544,317.572 253.174 C 318.173 251.491,318.959 251.436,342.402 251.439 C 358.092 251.441,365.251 251.574,366.979 251.895 " stroke="none" fill="#fce373" fill-rule="evenodd"></path><path id="path3" d="M315.291 138.355 C 315.858 138.441,316.787 138.441,317.355 138.355 C 317.922 138.269,317.458 138.199,316.323 138.199 C 315.188 138.199,314.723 138.269,315.291 138.355 M100.563 143.832 C 100.563 143.897,101.112 144.446,101.782 145.052 L 103.002 146.154 101.900 144.934 C 100.872 143.798,100.563 143.542,100.563 143.832 M279.154 169.512 L 277.861 170.919 279.268 169.626 C 280.578 168.423,280.848 168.105,280.561 168.105 C 280.499 168.105,279.866 168.738,279.154 169.512 M91.932 173.851 C 91.932 173.916,92.481 174.464,93.152 175.071 L 94.371 176.173 93.269 174.953 C 92.242 173.816,91.932 173.561,91.932 173.851 M195.591 183.008 C 196.159 183.094,197.087 183.094,197.655 183.008 C 198.222 182.922,197.758 182.852,196.623 182.852 C 195.488 182.852,195.023 182.922,195.591 183.008 M203.650 183.010 C 204.316 183.093,205.498 183.094,206.277 183.013 C 207.055 182.932,206.510 182.864,205.066 182.862 C 203.621 182.861,202.984 182.927,203.650 183.010 M263.415 210.249 C 263.415 210.313,263.963 210.862,264.634 211.468 L 265.854 212.570 264.752 211.351 C 263.724 210.214,263.415 209.959,263.415 210.249 M50.005 247.174 C 50.576 247.260,51.420 247.258,51.881 247.168 C 52.343 247.079,51.876 247.009,50.844 247.012 C 49.812 247.014,49.435 247.087,50.005 247.174 M70.268 247.174 C 70.838 247.260,71.682 247.258,72.144 247.168 C 72.606 247.079,72.139 247.009,71.107 247.012 C 70.075 247.014,69.697 247.087,70.268 247.174 M332.932 247.174 C 333.502 247.260,334.347 247.258,334.808 247.168 C 335.270 247.079,334.803 247.009,333.771 247.012 C 332.739 247.014,332.362 247.087,332.932 247.174 M352.444 247.174 C 353.015 247.260,353.859 247.258,354.320 247.168 C 354.782 247.079,354.315 247.009,353.283 247.012 C 352.251 247.014,351.874 247.087,352.444 247.174 M284.551 264.728 C 284.553 266.173,284.620 266.718,284.702 265.939 C 284.783 265.161,284.781 263.979,284.699 263.312 C 284.616 262.646,284.549 263.283,284.551 264.728 M79.460 275.312 C 79.927 275.402,80.602 275.399,80.961 275.305 C 81.320 275.211,80.938 275.137,80.113 275.142 C 79.287 275.146,78.994 275.223,79.460 275.312 M350.563 275.695 C 351.337 275.776,352.603 275.776,353.377 275.695 C 354.151 275.615,353.518 275.548,351.970 275.548 C 350.422 275.548,349.789 275.615,350.563 275.695 " stroke="none" fill="#fceca7" fill-rule="evenodd"></path></g></svg>