<svg id="svg" version="1.1" xmlns="http://www.w3.org/2000/svg" xmlns:xlink="http://www.w3.org/1999/xlink" width="400" height="375" viewBox="0, 0, 400,375"><g id="svgg"><path id="path0" d="M164.916 13.939 C 161.645 14.224,160.776 14.459,158.145 15.771 C 155.736 16.973,154.463 17.352,151.830 17.651 C 148.195 18.065,146.262 18.728,144.841 20.049 C 143.663 21.144,142.472 21.764,141.546 21.764 C 140.040 21.764,136.621 23.185,135.042 24.467 C 134.137 25.203,132.862 25.919,132.209 26.058 C 131.556 26.198,130.075 27.140,128.918 28.152 C 127.762 29.165,126.106 30.205,125.239 30.465 C 124.367 30.726,123.073 31.544,122.338 32.299 C 121.610 33.047,120.507 33.923,119.887 34.244 C 117.893 35.278,106.144 46.604,104.315 49.254 C 103.799 50.002,102.971 50.835,102.475 51.104 C 101.979 51.374,101.347 52.133,101.072 52.792 C 100.797 53.450,99.977 54.442,99.251 54.996 C 98.524 55.551,97.609 56.730,97.216 57.617 C 96.824 58.504,95.831 60.129,95.009 61.228 C 94.187 62.328,93.005 64.240,92.381 65.478 C 91.757 66.717,90.900 67.939,90.476 68.195 C 90.001 68.481,89.476 69.491,89.110 70.821 C 88.297 73.774,87.949 74.562,86.492 76.735 C 85.607 78.056,85.061 79.501,84.647 81.614 C 84.294 83.418,83.457 85.813,82.550 87.617 C 80.915 90.869,80.300 93.404,80.300 96.897 C 80.300 100.579,78.977 106.124,77.299 109.478 C 75.655 112.762,75.082 113.207,71.388 114.064 C 70.305 114.316,68.869 114.922,68.199 115.412 C 66.681 116.520,63.203 118.177,61.792 118.464 C 61.210 118.582,60.365 119.179,59.916 119.790 C 59.467 120.401,58.492 121.212,57.749 121.592 C 54.296 123.361,44.140 133.150,42.594 136.200 C 42.046 137.282,41.198 138.301,40.581 138.620 C 39.802 139.023,39.294 139.777,38.694 141.423 C 38.242 142.661,37.291 144.371,36.580 145.222 C 35.311 146.741,34.809 148.035,34.325 151.032 C 33.927 153.503,33.354 155.091,32.403 156.366 C 30.046 159.522,29.553 186.993,31.779 191.175 C 32.110 191.798,32.688 192.899,33.061 193.621 C 33.435 194.343,34.102 196.623,34.543 198.687 C 35.237 201.930,35.512 202.592,36.568 203.566 C 37.290 204.231,38.128 205.616,38.613 206.943 C 39.065 208.181,40.029 209.869,40.754 210.694 C 41.480 211.520,42.342 212.702,42.669 213.321 C 43.285 214.487,48.326 219.553,50.079 220.766 C 50.628 221.146,51.231 221.864,51.420 222.362 C 51.646 222.956,52.488 223.586,53.873 224.199 C 55.033 224.712,56.781 225.801,57.758 226.618 C 58.735 227.436,60.476 228.458,61.628 228.889 C 62.779 229.319,63.936 229.930,64.197 230.245 C 65.053 231.276,66.668 231.871,71.220 232.832 C 75.883 233.817,79.680 234.977,80.519 235.673 C 81.774 236.715,251.015 237.339,288.003 236.439 L 299.646 236.155 302.144 234.975 C 304.658 233.787,310.996 232.270,313.445 232.270 C 314.383 232.270,315.278 231.878,316.541 230.914 C 318.225 229.628,319.307 229.167,322.956 228.178 C 323.818 227.945,325.220 227.171,326.072 226.460 C 326.923 225.748,328.639 224.795,329.883 224.341 C 331.218 223.854,332.386 223.150,332.731 222.624 C 333.052 222.134,334.076 221.286,335.007 220.741 C 335.938 220.195,337.621 218.943,338.747 217.958 C 339.873 216.972,341.522 215.888,342.411 215.549 C 343.500 215.133,344.099 214.651,344.243 214.074 C 344.490 213.093,346.852 210.882,347.653 210.882 C 347.957 210.882,348.357 210.257,348.577 209.441 C 348.791 208.645,349.808 207.037,350.851 205.845 C 351.888 204.659,353.058 203.070,353.450 202.314 C 353.841 201.557,354.753 200.388,355.476 199.716 C 356.250 198.995,357.043 197.732,357.406 196.639 C 357.744 195.619,358.665 193.974,359.452 192.983 C 360.459 191.716,361.124 190.301,361.696 188.210 C 362.143 186.576,363.087 184.296,363.794 183.145 C 364.899 181.345,365.158 180.445,365.644 176.735 C 366.402 170.948,366.845 168.686,367.929 165.063 C 369.754 158.968,369.998 150.443,368.497 145.216 C 367.387 141.347,366.332 136.375,365.630 131.707 C 365.143 128.470,364.765 127.106,364.115 126.246 C 362.954 124.708,361.858 122.118,361.542 120.164 C 361.379 119.154,360.802 117.988,359.977 117.000 C 358.470 115.197,357.422 113.254,357.066 111.605 C 356.911 110.884,356.191 109.929,355.144 109.054 C 354.224 108.284,353.471 107.395,353.471 107.076 C 353.471 106.758,352.650 105.627,351.646 104.562 C 350.642 103.498,348.911 101.622,347.800 100.393 C 346.688 99.165,345.272 97.732,344.653 97.208 C 344.034 96.685,342.816 95.537,341.946 94.657 C 341.077 93.778,340.200 93.058,339.998 93.058 C 339.796 93.058,338.649 92.155,337.451 91.052 C 336.253 89.949,334.848 88.943,334.329 88.816 C 333.811 88.689,332.493 87.823,331.401 86.891 C 330.247 85.906,328.757 85.030,327.841 84.799 C 325.602 84.234,324.710 83.815,323.143 82.588 C 322.310 81.936,320.026 80.960,317.373 80.121 C 314.959 79.358,312.784 78.494,312.540 78.200 C 311.834 77.349,308.667 76.620,302.814 75.962 C 299.822 75.626,296.698 75.112,295.872 74.821 C 295.047 74.529,293.358 74.192,292.120 74.070 C 290.882 73.949,289.193 73.617,288.368 73.333 C 287.542 73.049,285.583 72.648,284.013 72.442 C 279.866 71.898,279.258 71.584,278.355 69.514 C 277.927 68.533,277.036 67.223,276.376 66.604 C 275.650 65.924,274.773 64.422,274.159 62.808 C 273.557 61.224,272.693 59.736,272.038 59.152 C 271.430 58.610,270.488 57.448,269.944 56.570 C 269.401 55.691,268.393 54.381,267.705 53.659 C 267.017 52.936,266.029 51.381,265.509 50.203 C 264.890 48.802,264.203 47.874,263.520 47.518 C 262.438 46.955,260.988 45.532,260.742 44.789 C 260.664 44.555,259.842 43.787,258.914 43.084 C 257.987 42.380,257.035 41.416,256.799 40.942 C 256.562 40.468,255.878 39.782,255.279 39.417 C 254.156 38.735,252.158 36.572,252.158 36.040 C 252.158 35.875,251.330 35.384,250.319 34.949 C 249.307 34.513,247.576 33.382,246.472 32.435 C 245.368 31.488,243.893 30.471,243.194 30.176 C 242.495 29.880,241.397 29.084,240.755 28.406 C 240.080 27.693,238.609 26.808,237.267 26.308 C 235.991 25.832,234.261 24.856,233.424 24.139 C 232.297 23.175,231.046 22.607,228.626 21.961 C 226.012 21.263,225.135 20.844,224.274 19.880 C 223.293 18.782,222.865 18.624,219.571 18.138 C 214.598 17.405,213.318 17.030,210.560 15.501 C 208.307 14.251,207.902 14.160,203.243 13.859 C 196.943 13.453,169.845 13.509,164.916 13.939 " stroke="none" fill="#b4b4b4" fill-rule="evenodd"></path><path id="path1" d="M177.298 11.657 C 176.060 11.816,172.936 12.135,170.356 12.365 C 160.814 13.218,158.773 13.597,154.870 15.240 C 153.613 15.769,151.813 16.343,150.870 16.515 C 147.511 17.130,145.743 17.782,143.084 19.387 C 141.603 20.281,140.155 21.013,139.868 21.013 C 138.697 21.013,135.561 22.297,134.268 23.305 C 133.509 23.897,132.412 24.589,131.829 24.842 C 130.349 25.486,121.436 31.347,120.835 32.071 C 120.564 32.398,119.583 33.178,118.655 33.804 C 114.780 36.419,107.039 43.629,104.388 47.092 C 103.441 48.330,101.578 50.525,100.248 51.970 C 98.919 53.415,97.231 55.525,96.497 56.660 C 95.763 57.795,94.722 59.231,94.183 59.850 C 93.645 60.469,92.796 61.904,92.296 63.039 C 91.797 64.174,90.666 65.966,89.784 67.020 C 88.902 68.074,88.180 69.300,88.180 69.744 C 88.180 70.188,87.167 72.517,85.929 74.921 C 84.690 77.324,83.677 79.665,83.677 80.123 C 83.677 81.220,82.763 83.827,81.640 85.929 C 80.542 87.985,79.709 91.237,79.381 94.747 C 79.093 97.833,78.763 99.293,77.061 105.000 C 75.201 111.238,74.488 112.127,70.544 113.135 C 68.401 113.683,64.696 115.337,64.165 115.982 C 63.808 116.416,62.336 117.073,61.721 117.073 C 61.382 117.073,60.146 117.885,58.976 118.876 C 57.806 119.868,56.173 121.112,55.347 121.642 C 51.218 124.288,44.447 130.755,42.259 134.144 C 41.459 135.383,40.150 137.181,39.351 138.138 C 38.552 139.096,37.899 140.138,37.899 140.455 C 37.899 140.772,37.274 141.846,36.510 142.842 C 35.204 144.545,33.425 148.215,33.405 149.246 C 33.400 149.502,32.718 151.494,31.890 153.672 C 28.264 163.207,28.176 186.356,31.734 194.881 C 32.786 197.403,33.456 199.341,34.114 201.768 C 34.350 202.636,35.153 204.146,35.898 205.123 C 36.643 206.099,37.665 207.837,38.168 208.984 C 38.671 210.131,39.566 211.576,40.157 212.195 C 40.747 212.814,41.452 213.746,41.722 214.265 C 42.377 215.523,50.553 223.319,52.601 224.640 C 53.492 225.214,54.897 226.220,55.722 226.875 C 56.548 227.531,58.306 228.589,59.630 229.228 C 60.954 229.867,62.305 230.624,62.632 230.912 C 63.809 231.945,67.025 233.294,69.399 233.749 C 70.730 234.005,73.025 234.692,74.498 235.278 C 79.763 237.369,74.777 237.273,185.366 237.420 C 300.397 237.574,299.425 237.590,305.816 235.375 C 308.189 234.552,311.114 233.757,312.316 233.607 C 314.778 233.301,316.165 232.786,318.938 231.151 C 319.995 230.528,321.179 230.019,321.570 230.019 C 321.962 230.019,322.378 229.863,322.496 229.672 C 322.614 229.482,323.228 229.212,323.861 229.073 C 324.494 228.934,326.109 228.069,327.451 227.150 C 328.793 226.232,330.764 225.065,331.831 224.558 C 332.898 224.051,334.869 222.796,336.210 221.769 C 337.552 220.742,339.724 219.097,341.039 218.112 C 344.043 215.863,348.529 211.466,350.006 209.325 C 350.625 208.427,351.507 207.355,351.966 206.942 C 352.425 206.529,353.102 205.600,353.472 204.878 C 353.841 204.156,354.931 202.552,355.894 201.313 C 356.857 200.075,357.981 198.302,358.392 197.373 C 358.803 196.445,359.536 195.263,360.019 194.747 C 360.503 194.231,361.347 192.627,361.894 191.182 C 362.442 189.737,363.550 187.204,364.357 185.553 C 365.368 183.486,366.070 181.281,366.612 178.475 C 367.044 176.233,367.796 172.856,368.283 170.970 C 370.095 163.946,371.051 152.975,370.265 148.218 C 370.112 147.289,369.831 144.925,369.642 142.964 C 369.425 140.727,368.802 137.863,367.966 135.272 C 367.234 133.002,366.527 130.385,366.395 129.456 C 366.092 127.322,364.907 124.008,363.987 122.714 C 363.598 122.168,362.972 120.660,362.597 119.363 C 362.195 117.975,361.405 116.407,360.677 115.552 C 359.997 114.753,358.959 113.038,358.370 111.739 C 357.782 110.441,356.925 109.042,356.468 108.629 C 356.010 108.217,355.118 107.120,354.486 106.191 C 353.476 104.706,350.551 101.109,348.077 98.311 C 346.437 96.456,337.115 88.864,335.337 87.935 C 334.753 87.630,333.556 86.831,332.677 86.160 C 331.797 85.489,330.080 84.544,328.860 84.060 C 327.640 83.577,326.375 82.955,326.049 82.679 C 325.723 82.403,325.328 82.176,325.170 82.176 C 325.013 82.176,324.468 81.849,323.960 81.450 C 323.452 81.050,321.906 80.351,320.524 79.896 C 319.142 79.441,316.882 78.505,315.502 77.816 C 312.741 76.436,310.902 75.886,307.505 75.424 C 304.265 74.982,299.576 73.954,297.186 73.162 C 296.051 72.785,293.011 72.286,290.432 72.053 C 280.165 71.124,278.799 70.636,278.799 67.893 C 278.799 67.652,278.237 66.673,277.551 65.716 C 276.864 64.760,275.744 62.964,275.062 61.726 C 274.379 60.488,273.210 58.692,272.464 57.736 C 271.718 56.780,270.854 55.615,270.544 55.147 C 270.235 54.680,269.438 53.605,268.775 52.758 C 268.111 51.912,267.103 50.460,266.533 49.531 C 265.234 47.412,253.379 35.535,250.802 33.771 C 249.747 33.049,247.636 31.630,246.112 30.618 C 244.587 29.606,242.664 28.237,241.839 27.575 C 241.013 26.914,239.493 25.940,238.462 25.411 C 237.430 24.882,236.011 24.019,235.309 23.493 C 234.606 22.967,232.918 22.171,231.556 21.723 C 230.195 21.275,227.898 20.264,226.453 19.476 C 224.988 18.679,221.998 17.555,219.698 16.937 C 217.429 16.328,213.799 15.225,211.632 14.485 C 208.425 13.391,206.751 13.064,202.627 12.728 C 199.841 12.502,195.133 12.078,192.165 11.787 C 186.455 11.226,181.019 11.179,177.298 11.657 M203.243 13.859 C 207.902 14.160,208.307 14.251,210.560 15.501 C 213.318 17.030,214.598 17.405,219.571 18.138 C 222.865 18.624,223.293 18.782,224.274 19.880 C 225.135 20.844,226.012 21.263,228.626 21.961 C 231.046 22.607,232.297 23.175,233.424 24.139 C 234.261 24.856,235.991 25.832,237.267 26.308 C 238.609 26.808,240.080 27.693,240.755 28.406 C 241.397 29.084,242.495 29.880,243.194 30.176 C 243.893 30.471,245.368 31.488,246.472 32.435 C 247.576 33.382,249.307 34.513,250.319 34.949 C 251.330 35.384,252.158 35.875,252.158 36.040 C 252.158 36.572,254.156 38.735,255.279 39.417 C 255.878 39.782,256.562 40.468,256.799 40.942 C 257.035 41.416,257.987 42.380,258.914 43.084 C 259.842 43.787,260.664 44.555,260.742 44.789 C 260.988 45.532,262.438 46.955,263.520 47.518 C 264.203 47.874,264.890 48.802,265.509 50.203 C 266.029 51.381,267.017 52.936,267.705 53.659 C 268.393 54.381,269.401 55.691,269.944 56.570 C 270.488 57.448,271.430 58.610,272.038 59.152 C 272.693 59.736,273.557 61.224,274.159 62.808 C 274.773 64.422,275.650 65.924,276.376 66.604 C 277.036 67.223,277.927 68.533,278.355 69.514 C 279.258 71.584,279.866 71.898,284.013 72.442 C 285.583 72.648,287.542 73.049,288.368 73.333 C 289.193 73.617,290.882 73.949,292.120 74.070 C 293.358 74.192,295.047 74.529,295.872 74.821 C 296.698 75.112,299.822 75.626,302.814 75.962 C 308.667 76.620,311.834 77.349,312.540 78.200 C 312.784 78.494,314.959 79.358,317.373 80.121 C 320.026 80.960,322.310 81.936,323.143 82.588 C 324.710 83.815,325.602 84.234,327.841 84.799 C 328.757 85.030,330.247 85.906,331.401 86.891 C 332.493 87.823,333.811 88.689,334.329 88.816 C 334.848 88.943,336.253 89.949,337.451 91.052 C 338.649 92.155,339.796 93.058,339.998 93.058 C 340.200 93.058,341.077 93.778,341.946 94.657 C 342.816 95.537,344.034 96.685,344.653 97.208 C 345.272 97.732,346.688 99.165,347.800 100.393 C 348.911 101.622,350.642 103.498,351.646 104.562 C 352.650 105.627,353.471 106.758,353.471 107.076 C 353.471 107.395,354.224 108.284,355.144 109.054 C 356.191 109.929,356.911 110.884,357.066 111.605 C 357.422 113.254,358.470 115.197,359.977 117.000 C 360.802 117.988,361.379 119.154,361.542 120.164 C 361.858 122.118,362.954 124.708,364.115 126.246 C 364.765 127.106,365.143 128.470,365.630 131.707 C 366.332 136.375,367.387 141.347,368.497 145.216 C 369.998 150.443,369.754 158.968,367.929 165.063 C 366.845 168.686,366.402 170.948,365.644 176.735 C 365.158 180.445,364.899 181.345,363.794 183.145 C 363.087 184.296,362.143 186.576,361.696 188.210 C 361.124 190.301,360.459 191.716,359.452 192.983 C 358.665 193.974,357.744 195.619,357.406 196.639 C 357.043 197.732,356.250 198.995,355.476 199.716 C 354.753 200.388,353.841 201.557,353.450 202.314 C 353.058 203.070,351.888 204.659,350.851 205.845 C 349.808 207.037,348.791 208.645,348.577 209.441 C 348.357 210.257,347.957 210.882,347.653 210.882 C 346.852 210.882,344.490 213.093,344.243 214.074 C 344.099 214.651,343.500 215.133,342.411 215.549 C 341.522 215.888,339.873 216.972,338.747 217.958 C 337.621 218.943,335.938 220.195,335.007 220.741 C 334.076 221.286,333.052 222.134,332.731 222.624 C 332.386 223.150,331.218 223.854,329.883 224.341 C 328.639 224.795,326.923 225.748,326.072 226.460 C 325.220 227.171,323.818 227.945,322.956 228.178 C 319.307 229.167,318.225 229.628,316.541 230.914 C 315.278 231.878,314.383 232.270,313.445 232.270 C 310.996 232.270,304.658 233.787,302.144 234.975 L 299.646 236.155 288.003 236.439 C 251.015 237.339,81.774 236.715,80.519 235.673 C 79.680 234.977,75.883 233.817,71.220 232.832 C 66.668 231.871,65.053 231.276,64.197 230.245 C 63.936 229.930,62.779 229.319,61.628 228.889 C 60.476 228.458,58.735 227.436,57.758 226.618 C 56.781 225.801,55.033 224.712,53.873 224.199 C 52.488 223.586,51.646 222.956,51.420 222.362 C 51.231 221.864,50.628 221.146,50.079 220.766 C 48.326 219.553,43.285 214.487,42.669 213.321 C 42.342 212.702,41.480 211.520,40.754 210.694 C 40.029 209.869,39.065 208.181,38.613 206.943 C 38.128 205.616,37.290 204.231,36.568 203.566 C 35.512 202.592,35.237 201.930,34.543 198.687 C 34.102 196.623,33.435 194.343,33.061 193.621 C 32.688 192.899,32.110 191.798,31.779 191.175 C 29.553 186.993,30.046 159.522,32.403 156.366 C 33.354 155.091,33.927 153.503,34.325 151.032 C 34.809 148.035,35.311 146.741,36.580 145.222 C 37.291 144.371,38.242 142.661,38.694 141.423 C 39.294 139.777,39.802 139.023,40.581 138.620 C 41.198 138.301,42.046 137.282,42.594 136.200 C 44.140 133.150,54.296 123.361,57.749 121.592 C 58.492 121.212,59.467 120.401,59.916 119.790 C 60.365 119.179,61.210 118.582,61.792 118.464 C 63.203 118.177,66.681 116.520,68.199 115.412 C 68.869 114.922,70.305 114.316,71.388 114.064 C 75.082 113.207,75.655 112.762,77.299 109.478 C 78.977 106.124,80.300 100.579,80.300 96.897 C 80.300 93.404,80.915 90.869,82.550 87.617 C 83.457 85.813,84.294 83.418,84.647 81.614 C 85.061 79.501,85.607 78.056,86.492 76.735 C 87.949 74.562,88.297 73.774,89.110 70.821 C 89.476 69.491,90.001 68.481,90.476 68.195 C 90.900 67.939,91.757 66.717,92.381 65.478 C 93.005 64.240,94.187 62.328,95.009 61.228 C 95.831 60.129,96.824 58.504,97.216 57.617 C 97.609 56.730,98.524 55.551,99.251 54.996 C 99.977 54.442,100.797 53.450,101.072 52.792 C 101.347 52.133,101.979 51.374,102.475 51.104 C 102.971 50.835,103.799 50.002,104.315 49.254 C 106.144 46.604,117.893 35.278,119.887 34.244 C 120.507 33.923,121.610 33.047,122.338 32.299 C 123.073 31.544,124.367 30.726,125.239 30.465 C 126.106 30.205,127.762 29.165,128.918 28.152 C 130.075 27.140,131.556 26.198,132.209 26.058 C 132.862 25.919,134.137 25.203,135.042 24.467 C 136.621 23.185,140.040 21.764,141.546 21.764 C 142.472 21.764,143.663 21.144,144.841 20.049 C 146.262 18.728,148.195 18.065,151.830 17.651 C 154.463 17.352,155.736 16.973,158.145 15.771 C 160.776 14.459,161.645 14.224,164.916 13.939 C 169.845 13.509,196.943 13.453,203.243 13.859 M180.145 261.257 C 179.967 261.721,179.147 262.704,178.323 263.441 C 177.174 264.468,176.759 265.168,176.544 266.438 C 176.080 269.188,175.270 271.037,173.926 272.420 C 172.917 273.457,172.572 274.207,172.285 275.985 C 171.816 278.882,171.339 280.087,169.985 281.796 C 169.325 282.630,168.561 284.371,168.075 286.151 C 167.241 289.206,166.403 291.049,165.105 292.683 C 164.695 293.199,164.195 294.503,163.993 295.580 C 163.649 297.416,162.926 299.012,160.801 302.627 C 159.615 304.643,158.449 310.324,158.937 311.710 C 159.543 313.435,160.318 313.566,171.581 313.850 L 182.176 314.117 183.392 315.290 C 185.792 317.605,184.992 326.595,182.181 328.899 C 181.526 329.436,181.048 330.497,180.533 332.559 C 179.814 335.435,178.447 338.259,177.320 339.194 C 176.998 339.461,176.735 340.134,176.735 340.691 C 176.735 342.503,175.588 345.736,174.235 347.734 C 173.372 349.010,172.620 350.836,172.072 352.988 C 171.183 356.484,170.675 357.699,169.594 358.912 C 168.094 360.596,167.321 365.103,168.294 366.492 L 168.858 367.297 171.139 366.313 C 172.913 365.548,173.571 365.032,174.102 363.990 C 174.514 363.183,175.327 362.392,176.149 362.000 C 177.132 361.532,177.709 360.892,178.215 359.712 C 178.601 358.812,179.442 357.701,180.083 357.244 C 180.725 356.787,181.505 355.919,181.817 355.315 C 182.130 354.711,183.018 353.818,183.791 353.330 C 184.564 352.842,185.687 351.734,186.288 350.867 C 186.889 350.000,187.839 349.054,188.401 348.763 C 188.962 348.473,189.795 347.630,190.253 346.889 C 190.711 346.149,191.728 345.137,192.515 344.641 C 193.301 344.144,194.167 343.281,194.439 342.722 C 194.712 342.163,195.660 341.186,196.547 340.552 C 197.433 339.918,198.481 338.859,198.875 338.198 C 199.269 337.538,200.076 336.747,200.668 336.441 C 201.260 336.134,202.195 335.202,202.747 334.369 C 203.298 333.536,204.257 332.591,204.878 332.270 C 205.500 331.949,206.428 331.020,206.942 330.206 C 207.456 329.393,208.354 328.480,208.937 328.178 C 209.521 327.876,210.440 326.963,210.978 326.150 C 211.516 325.336,212.551 324.303,213.277 323.855 C 214.002 323.406,214.955 322.459,215.393 321.750 C 215.832 321.040,216.688 320.166,217.297 319.806 C 217.906 319.447,218.845 318.515,219.385 317.736 C 219.925 316.957,220.923 315.976,221.602 315.556 C 222.308 315.120,223.196 314.049,223.679 313.053 C 224.220 311.935,226.580 309.235,230.280 305.500 C 236.177 299.549,236.728 298.740,236.122 296.920 L 235.774 295.872 221.733 295.474 C 206.615 295.046,206.596 295.042,205.287 292.925 C 204.184 291.141,204.306 290.035,205.812 288.139 C 206.533 287.233,207.125 286.154,207.129 285.741 C 207.140 284.624,208.726 281.424,210.271 279.399 C 211.020 278.418,211.633 277.249,211.634 276.801 C 211.636 275.951,212.123 275.108,214.156 272.427 C 214.822 271.549,215.469 270.217,215.593 269.468 C 215.717 268.718,216.058 267.357,216.352 266.443 C 217.003 264.416,217.047 261.475,216.435 260.863 C 216.098 260.526,211.538 260.413,198.227 260.413 L 180.469 260.413 180.145 261.257 " stroke="none" fill="#cccccc" fill-rule="evenodd"></path><path id="path2" d="M177.298 8.505 C 176.679 8.600,173.760 9.267,170.811 9.988 C 167.781 10.729,163.620 11.449,161.243 11.645 C 156.241 12.057,153.014 12.838,151.220 14.069 C 150.497 14.565,149.062 15.164,148.030 15.401 C 143.787 16.376,143.057 16.650,140.952 18.049 C 139.741 18.854,138.548 19.512,138.299 19.512 C 137.020 19.512,133.990 20.759,132.833 21.762 C 132.111 22.388,130.338 23.503,128.893 24.240 C 127.448 24.977,125.583 26.140,124.747 26.825 C 123.911 27.510,122.622 28.323,121.882 28.632 C 121.142 28.941,120.241 29.695,119.879 30.307 C 119.517 30.919,118.461 31.789,117.532 32.241 C 116.604 32.692,114.837 33.939,113.608 35.011 C 108.118 39.797,104.672 43.104,103.360 44.841 C 102.581 45.872,101.209 47.539,100.311 48.544 C 99.413 49.550,98.576 50.780,98.451 51.278 C 98.326 51.776,97.731 52.438,97.129 52.750 C 96.430 53.111,95.689 54.047,95.075 55.342 C 94.548 56.457,93.738 57.617,93.276 57.920 C 92.814 58.222,91.825 59.633,91.078 61.054 C 90.331 62.475,89.215 64.273,88.597 65.050 C 87.980 65.828,87.197 67.299,86.858 68.319 C 86.519 69.340,85.641 71.048,84.908 72.114 C 83.433 74.258,82.176 77.462,82.176 79.077 C 82.176 79.653,81.835 80.713,81.417 81.432 C 79.503 84.726,78.827 86.679,78.264 90.540 C 77.938 92.767,77.330 95.553,76.911 96.732 C 75.740 100.029,75.174 102.000,74.515 105.069 C 73.484 109.872,72.488 110.891,67.742 111.991 C 64.771 112.680,62.664 113.601,62.664 114.210 C 62.664 114.446,61.778 115.037,60.694 115.525 C 59.611 116.012,58.133 116.968,57.411 117.648 C 56.689 118.329,55.000 119.521,53.659 120.298 C 50.765 121.973,42.597 129.806,40.810 132.618 C 40.144 133.665,39.041 135.261,38.359 136.165 C 37.676 137.069,36.896 138.339,36.625 138.986 C 36.355 139.634,35.447 140.957,34.607 141.927 C 33.618 143.070,32.863 144.455,32.461 145.860 C 32.120 147.054,31.182 149.381,30.375 151.032 C 25.993 160.004,26.466 190.068,31.136 199.368 C 31.966 201.021,32.645 202.690,32.645 203.078 C 32.645 203.997,33.997 206.642,35.195 208.068 C 35.715 208.687,36.526 210.061,36.996 211.121 C 37.469 212.185,38.370 213.418,39.009 213.873 C 39.645 214.326,40.398 215.253,40.682 215.932 C 40.966 216.612,41.654 217.484,42.211 217.871 C 42.768 218.258,43.477 218.853,43.786 219.195 C 46.576 222.271,50.884 226.266,51.411 226.266 C 51.672 226.266,52.620 226.943,53.516 227.769 C 54.413 228.595,56.350 229.857,57.821 230.573 C 59.292 231.289,60.873 232.282,61.334 232.779 C 62.176 233.688,64.821 234.637,67.858 235.120 C 68.755 235.262,69.937 235.756,70.485 236.217 C 73.918 239.104,72.842 239.081,196.060 238.926 C 311.682 238.780,305.577 238.906,309.752 236.576 C 311.297 235.714,313.099 235.118,315.473 234.685 C 318.356 234.159,319.360 233.777,321.439 232.411 C 322.814 231.508,324.258 230.769,324.648 230.769 C 325.692 230.769,328.318 229.349,329.904 227.926 C 330.666 227.242,331.949 226.504,332.755 226.287 C 333.561 226.070,334.735 225.512,335.363 225.048 C 335.992 224.583,337.316 223.612,338.305 222.889 C 339.294 222.167,340.984 220.816,342.061 219.887 C 343.138 218.959,344.471 217.885,345.023 217.502 C 345.574 217.119,346.332 216.303,346.705 215.689 C 347.079 215.075,347.973 214.172,348.693 213.683 C 349.413 213.194,350.450 212.029,350.998 211.094 C 351.545 210.159,352.308 209.226,352.693 209.020 C 353.078 208.814,354.148 207.499,355.071 206.098 C 355.994 204.697,357.037 203.312,357.389 203.020 C 358.115 202.417,359.475 199.904,359.475 199.164 C 359.475 198.894,360.174 197.832,361.029 196.804 C 362.728 194.760,363.956 192.389,363.969 191.126 C 363.974 190.682,364.638 189.440,365.445 188.366 C 366.747 186.633,367.005 185.918,367.727 182.043 C 368.175 179.640,368.949 176.799,369.447 175.731 C 372.939 168.239,372.742 132.458,369.210 132.458 C 368.776 132.458,368.541 131.558,367.757 126.896 C 367.151 123.292,366.893 122.544,365.730 121.021 C 364.997 120.061,364.044 118.212,363.611 116.913 C 363.179 115.614,362.236 113.862,361.516 113.021 C 360.795 112.179,359.937 110.847,359.609 110.061 C 359.281 109.274,358.358 107.786,357.558 106.754 C 355.892 104.604,355.675 104.308,355.159 103.492 C 354.072 101.768,349.077 96.263,347.646 95.210 C 346.738 94.542,345.989 93.801,345.981 93.563 C 345.963 93.036,339.890 88.429,337.155 86.867 C 336.071 86.248,334.509 85.129,333.684 84.381 C 332.860 83.633,331.275 82.726,330.164 82.365 C 329.052 82.005,327.390 81.134,326.471 80.430 C 324.981 79.290,323.226 78.602,319.988 77.888 C 319.424 77.764,318.411 77.183,317.737 76.596 C 316.238 75.292,314.945 74.867,310.205 74.119 C 307.994 73.770,305.771 73.156,304.633 72.579 C 301.935 71.212,297.989 70.556,290.215 70.183 C 281.745 69.777,281.091 69.551,280.201 66.728 C 279.846 65.601,278.806 63.714,277.891 62.536 C 276.977 61.358,276.122 59.913,275.993 59.325 C 275.864 58.737,275.326 57.854,274.798 57.364 C 273.811 56.449,270.919 52.322,270.919 51.829 C 270.919 51.678,270.314 50.972,269.574 50.261 C 268.834 49.550,267.968 48.470,267.650 47.862 C 267.040 46.697,253.065 32.645,252.516 32.645 C 252.340 32.645,251.202 31.818,249.987 30.807 C 248.772 29.795,246.909 28.528,245.847 27.990 C 244.785 27.451,243.652 26.608,243.328 26.114 C 243.005 25.621,241.942 24.874,240.967 24.454 C 239.991 24.035,238.521 23.157,237.701 22.503 C 235.719 20.924,234.583 20.362,232.402 19.883 C 231.401 19.663,229.870 18.977,229.001 18.358 C 226.887 16.855,225.103 16.146,222.359 15.716 C 221.065 15.514,218.773 14.714,217.072 13.870 C 214.813 12.750,213.325 12.292,211.068 12.020 C 207.655 11.609,202.296 10.908,199.250 10.475 C 198.114 10.313,195.919 9.806,194.371 9.348 C 191.606 8.529,180.670 7.989,177.298 8.505 M191.372 10.883 C 192.766 11.284,200.067 12.228,204.128 12.533 C 208.850 12.888,211.753 13.532,215.299 15.014 C 217.268 15.837,219.207 16.510,219.607 16.510 C 221.043 16.510,224.626 17.759,227.205 19.158 C 228.649 19.941,230.788 20.915,231.958 21.322 C 233.128 21.728,234.816 22.561,235.710 23.174 C 236.604 23.786,238.096 24.673,239.024 25.143 C 239.953 25.614,241.388 26.543,242.214 27.209 C 243.039 27.874,244.137 28.634,244.653 28.898 C 249.641 31.448,264.394 45.377,268.480 51.395 C 269.512 52.915,271.186 55.270,272.201 56.629 C 273.215 57.988,274.637 60.113,275.360 61.351 C 276.083 62.589,277.049 64.109,277.507 64.728 C 277.965 65.347,278.776 66.818,279.308 67.997 C 280.525 70.690,281.671 71.086,289.869 71.653 C 294.320 71.961,296.910 72.388,302.251 73.692 C 305.966 74.599,309.765 75.455,310.694 75.595 C 313.139 75.964,314.751 76.523,316.192 77.500 C 316.890 77.974,318.888 78.816,320.634 79.371 C 322.379 79.927,324.191 80.724,324.661 81.142 C 325.131 81.560,326.614 82.395,327.955 82.998 C 331.475 84.579,338.026 88.673,338.649 89.680 C 338.778 89.889,339.844 90.716,341.018 91.517 C 343.858 93.456,350.110 99.663,352.908 103.322 C 354.146 104.941,355.786 107.012,356.551 107.923 C 357.317 108.833,358.284 110.350,358.701 111.292 C 359.118 112.234,359.946 113.625,360.542 114.383 C 361.138 115.140,361.755 116.182,361.913 116.698 C 362.071 117.214,362.919 119.072,363.797 120.826 C 364.674 122.581,365.572 124.692,365.792 125.517 C 367.750 132.866,368.268 134.648,368.689 135.480 C 371.825 141.677,371.406 162.594,367.892 175.242 C 366.978 178.536,366.229 181.612,366.229 182.079 C 366.228 182.948,364.288 187.357,363.462 188.368 C 363.208 188.677,362.790 189.775,362.532 190.807 C 362.273 191.839,361.250 193.949,360.259 195.497 C 359.267 197.045,358.136 198.850,357.745 199.509 C 357.355 200.168,355.769 202.413,354.221 204.498 C 352.674 206.583,350.901 208.999,350.281 209.867 C 348.792 211.954,345.130 215.625,342.904 217.261 C 341.921 217.983,339.456 219.863,337.426 221.439 C 335.396 223.014,332.730 224.839,331.502 225.494 C 330.273 226.149,328.350 227.264,327.227 227.973 C 326.105 228.681,324.585 229.365,323.850 229.493 C 323.115 229.621,321.923 230.104,321.201 230.567 C 318.229 232.473,316.885 233.052,314.141 233.610 C 312.555 233.932,309.822 234.705,308.068 235.327 C 306.313 235.950,303.949 236.696,302.814 236.986 C 301.065 237.432,283.983 237.511,190.852 237.503 C 71.525 237.492,79.009 237.620,73.171 235.490 C 69.686 234.218,66.942 233.396,66.183 233.396 C 65.609 233.396,63.648 232.315,57.036 228.353 C 50.884 224.668,42.667 216.905,38.797 211.124 C 37.149 208.662,33.771 202.364,33.771 201.753 C 33.771 201.402,33.609 200.822,33.410 200.464 C 32.833 199.422,31.149 195.131,30.356 192.683 C 28.045 185.544,28.170 161.915,30.553 155.591 C 31.483 153.121,32.311 150.807,33.481 147.409 C 34.189 145.351,36.933 140.751,39.470 137.367 C 40.154 136.456,41.279 134.772,41.971 133.626 C 43.337 131.362,47.965 126.628,51.734 123.640 C 53.035 122.608,54.326 121.553,54.603 121.295 C 54.879 121.037,55.234 120.826,55.391 120.826 C 55.547 120.826,56.615 120.103,57.763 119.220 C 58.911 118.337,60.779 117.126,61.914 116.529 C 63.049 115.932,64.062 115.346,64.165 115.227 C 64.656 114.658,66.867 113.698,69.418 112.944 C 73.447 111.753,74.036 111.366,74.936 109.318 C 76.432 105.913,78.043 99.919,79.016 94.141 C 79.690 90.135,80.341 87.564,81.143 85.741 C 82.793 81.990,83.677 79.493,83.677 78.587 C 83.677 78.154,84.120 76.970,84.662 75.955 C 87.409 70.807,88.180 69.229,88.180 68.761 C 88.180 68.479,88.769 67.476,89.489 66.533 C 90.209 65.590,91.290 63.778,91.892 62.505 C 92.493 61.232,93.284 59.945,93.649 59.645 C 94.013 59.345,94.782 58.361,95.356 57.459 C 96.528 55.618,99.143 52.307,101.718 49.404 C 102.662 48.339,104.368 46.283,105.509 44.836 C 106.649 43.389,108.282 41.720,109.138 41.127 C 109.994 40.533,110.694 39.927,110.694 39.778 C 110.694 39.536,113.632 37.062,119.783 32.126 C 122.631 29.840,126.652 27.173,130.033 25.328 C 131.545 24.503,133.090 23.564,133.465 23.241 C 134.809 22.085,136.182 21.402,137.625 21.171 C 138.432 21.042,139.921 20.456,140.934 19.868 C 143.722 18.252,144.819 17.769,147.280 17.075 C 151.622 15.852,152.178 15.664,154.718 14.565 C 157.268 13.462,159.063 13.133,166.653 12.382 C 168.847 12.165,172.309 11.670,174.345 11.284 C 178.515 10.492,189.141 10.242,191.372 10.883 M184.428 258.112 C 178.389 258.441,176.359 259.894,174.258 265.391 C 173.697 266.860,172.762 268.832,172.180 269.772 C 171.136 271.460,169.606 275.422,169.606 276.437 C 169.606 276.725,168.931 277.922,168.107 279.099 C 167.141 280.476,166.477 281.940,166.240 283.208 C 165.831 285.402,165.058 287.096,163.747 288.666 C 163.266 289.243,162.698 290.383,162.487 291.199 C 162.275 292.015,161.933 293.335,161.727 294.131 C 161.521 294.928,160.847 296.215,160.231 296.991 C 159.614 297.767,158.835 299.353,158.499 300.515 C 158.163 301.676,157.128 304.271,156.199 306.280 C 154.636 309.658,154.520 310.117,154.663 312.357 C 154.951 316.879,155.396 317.022,170.169 317.320 C 184.183 317.602,184.709 317.912,181.129 323.770 C 180.416 324.937,179.304 327.611,178.656 329.712 C 178.009 331.814,177.080 334.009,176.592 334.590 C 176.094 335.184,175.248 337.258,174.662 339.326 C 174.018 341.600,173.220 343.508,172.573 344.322 C 171.962 345.090,171.035 347.235,170.350 349.462 C 169.704 351.564,168.752 353.933,168.235 354.727 C 167.172 356.360,166.229 358.819,166.229 359.957 C 166.229 360.376,165.604 361.967,164.840 363.493 C 161.989 369.184,166.432 373.184,171.670 369.641 C 173.598 368.337,180.113 361.981,180.113 361.404 C 180.113 361.174,197.110 343.683,201.403 339.496 C 211.071 330.067,225.626 315.376,226.474 314.193 C 227.104 313.313,229.890 310.266,232.665 307.421 C 240.228 299.668,241.339 296.573,237.792 293.137 L 236.585 291.968 223.184 291.857 C 207.541 291.726,208.186 291.883,208.963 288.410 C 209.219 287.269,210.106 285.299,210.958 283.984 C 211.802 282.680,212.827 280.600,213.236 279.362 C 213.667 278.055,214.508 276.555,215.240 275.786 C 215.934 275.058,216.929 273.369,217.451 272.034 C 217.973 270.699,218.988 268.652,219.707 267.486 C 222.308 263.264,221.369 259.388,217.539 258.534 C 215.274 258.028,191.507 257.725,184.428 258.112 M217.730 260.360 C 219.124 260.913,219.193 263.540,217.875 265.821 C 217.387 266.664,216.689 268.283,216.323 269.418 C 215.464 272.085,214.853 273.271,213.697 274.518 C 213.181 275.075,212.395 276.529,211.950 277.750 C 211.505 278.970,210.668 280.563,210.090 281.290 C 209.512 282.018,208.501 284.039,207.843 285.783 C 207.185 287.527,206.502 289.042,206.325 289.152 C 205.832 289.456,205.942 290.725,206.567 291.934 C 207.459 293.657,208.729 293.804,222.750 293.807 C 236.918 293.809,235.972 293.634,236.961 296.436 C 237.794 298.798,237.001 300.049,230.401 306.777 C 227.353 309.885,224.560 313.005,224.196 313.709 C 223.832 314.413,222.165 316.304,220.491 317.910 C 218.818 319.516,217.280 321.004,217.073 321.217 C 216.753 321.547,205.604 332.666,204.210 334.046 C 195.459 342.705,178.612 359.929,178.612 360.217 C 178.612 360.939,172.813 366.503,171.226 367.303 C 170.363 367.738,169.551 368.266,169.422 368.475 C 168.988 369.177,168.518 368.866,167.574 367.255 L 166.636 365.654 167.363 362.816 C 168.224 359.453,168.914 357.723,170.078 356.009 C 170.549 355.314,171.240 353.450,171.614 351.865 C 171.987 350.280,172.700 348.385,173.197 347.652 C 174.543 345.668,175.048 344.532,175.779 341.839 C 176.143 340.497,176.999 338.386,177.681 337.148 C 178.363 335.910,179.427 333.449,180.046 331.680 C 180.664 329.911,181.681 327.657,182.307 326.672 C 184.261 323.590,184.897 318.343,183.523 316.646 L 182.806 315.760 171.303 315.528 L 159.800 315.296 158.720 314.027 C 156.905 311.895,156.678 310.999,157.525 309.328 C 157.929 308.532,158.611 306.593,159.040 305.020 C 159.470 303.447,160.336 301.332,160.965 300.320 C 161.594 299.308,162.687 296.862,163.394 294.883 C 164.101 292.905,165.116 290.644,165.649 289.858 C 166.182 289.072,167.056 286.980,167.591 285.209 C 168.126 283.438,168.942 281.482,169.404 280.863 C 170.673 279.165,171.311 277.708,171.817 275.353 C 172.099 274.042,172.719 272.668,173.428 271.788 C 174.766 270.125,175.610 268.305,175.610 267.079 C 175.610 265.946,176.560 264.300,178.511 262.053 L 180.098 260.225 184.702 259.985 C 191.955 259.606,216.535 259.885,217.730 260.360 " stroke="none" fill="#dcdcdc" fill-rule="evenodd"></path><path id="path3" d="M176.360 10.936 C 175.432 11.126,173.236 11.527,171.482 11.826 L 168.293 12.369 171.482 12.196 C 173.236 12.100,175.938 11.857,177.486 11.656 C 181.495 11.135,186.280 11.188,192.120 11.820 C 198.399 12.499,201.552 12.481,196.533 11.794 C 194.523 11.520,192.244 11.118,191.468 10.903 C 189.757 10.428,178.716 10.452,176.360 10.936 M162.852 12.758 C 161.517 13.186,163.488 13.198,165.854 12.777 L 167.542 12.477 165.666 12.467 C 164.634 12.462,163.368 12.593,162.852 12.758 M202.814 12.764 C 205.276 13.162,208.108 13.179,206.754 12.787 C 206.238 12.637,204.719 12.503,203.377 12.488 L 200.938 12.460 202.814 12.764 M156.660 13.855 C 151.823 15.653,150.329 16.321,150.896 16.430 C 151.235 16.496,153.046 15.950,154.922 15.216 C 156.798 14.483,158.632 13.881,158.998 13.878 C 159.363 13.875,159.916 13.709,160.225 13.508 C 161.238 12.854,158.687 13.102,156.660 13.855 M209.006 13.364 C 211.879 14.570,217.701 16.551,218.039 16.439 C 218.709 16.215,211.882 13.550,210.069 13.328 C 209.175 13.218,208.696 13.234,209.006 13.364 M147.280 17.075 L 146.154 17.605 147.280 17.382 C 147.899 17.260,148.659 17.019,148.968 16.846 C 149.979 16.284,148.546 16.478,147.280 17.075 M218.793 16.657 C 218.879 16.738,220.045 17.083,221.384 17.423 C 222.723 17.763,225.002 18.686,226.450 19.475 C 227.897 20.263,230.195 21.275,231.556 21.723 C 232.918 22.171,234.606 22.967,235.309 23.493 C 236.011 24.019,237.430 24.882,238.462 25.411 C 239.493 25.940,241.013 26.914,241.839 27.575 C 242.664 28.237,244.587 29.606,246.112 30.618 C 247.636 31.630,249.747 33.049,250.802 33.771 C 253.379 35.535,265.234 47.412,266.533 49.531 C 267.103 50.460,268.111 51.912,268.775 52.758 C 269.438 53.605,270.235 54.680,270.544 55.147 C 270.854 55.615,271.718 56.780,272.464 57.736 C 273.210 58.692,274.381 60.488,275.065 61.726 C 276.612 64.527,278.492 67.224,278.730 66.986 C 278.828 66.888,278.148 65.664,277.218 64.266 C 276.287 62.869,275.310 61.304,275.045 60.788 C 274.780 60.272,273.617 58.569,272.460 57.002 C 271.303 55.436,269.512 52.912,268.480 51.393 C 264.390 45.373,249.639 31.447,244.653 28.898 C 244.137 28.634,243.039 27.874,242.214 27.209 C 241.388 26.543,239.953 25.614,239.024 25.143 C 238.096 24.673,236.604 23.786,235.710 23.174 C 234.816 22.561,233.128 21.728,231.958 21.322 C 230.788 20.915,228.649 19.941,227.205 19.158 C 224.081 17.463,217.601 15.537,218.793 16.657 M143.190 18.572 C 142.431 19.087,141.183 19.840,140.417 20.244 C 139.560 20.697,139.281 20.986,139.693 20.997 C 140.279 21.011,145.591 18.100,145.591 17.765 C 145.591 17.356,144.384 17.762,143.190 18.572 M136.792 21.286 C 136.390 21.389,135.461 21.879,134.728 22.377 C 133.995 22.875,132.840 23.637,132.160 24.070 C 131.481 24.504,131.002 24.936,131.096 25.030 C 131.329 25.263,132.745 24.483,134.334 23.246 C 135.056 22.684,136.407 21.965,137.336 21.648 C 138.889 21.119,138.491 20.854,136.792 21.286 M128.661 25.991 C 125.597 27.883,121.802 30.505,119.783 32.126 C 113.632 37.062,110.694 39.536,110.694 39.778 C 110.694 39.927,109.994 40.533,109.138 41.127 C 108.282 41.720,106.649 43.389,105.509 44.836 C 104.368 46.283,102.662 48.339,101.718 49.404 C 99.143 52.307,96.528 55.618,95.356 57.459 C 94.782 58.361,94.013 59.345,93.649 59.645 C 93.284 59.945,92.493 61.232,91.892 62.505 C 91.290 63.778,90.192 65.612,89.452 66.582 C 88.712 67.551,88.180 68.418,88.270 68.508 C 88.608 68.845,91.418 65.027,92.294 63.039 C 92.795 61.904,93.645 60.469,94.183 59.850 C 94.722 59.231,95.763 57.795,96.497 56.660 C 97.231 55.525,98.919 53.415,100.248 51.970 C 101.578 50.525,103.441 48.330,104.388 47.092 C 107.039 43.629,114.780 36.419,118.655 33.804 C 119.583 33.178,120.563 32.399,120.833 32.073 C 121.104 31.748,123.281 30.200,125.672 28.634 C 128.063 27.069,130.179 25.642,130.375 25.464 C 131.075 24.829,130.016 25.155,128.661 25.991 M278.799 67.900 C 278.799 69.591,280.856 71.317,282.814 71.268 C 283.657 71.247,283.507 71.132,282.055 70.686 C 280.574 70.231,280.148 69.895,279.705 68.836 C 279.177 67.573,278.799 67.182,278.799 67.900 M86.794 71.862 C 86.167 73.098,85.193 74.986,84.628 76.059 C 84.063 77.131,83.664 78.196,83.740 78.424 C 83.816 78.653,84.856 76.962,86.052 74.666 C 87.248 72.371,88.160 70.296,88.079 70.054 C 87.999 69.813,87.420 70.626,86.794 71.862 M285.624 71.490 C 285.763 71.629,287.872 71.895,290.312 72.082 C 292.751 72.268,295.844 72.756,297.186 73.167 C 300.404 74.152,306.472 75.433,307.675 75.381 C 309.367 75.309,295.596 72.069,292.683 71.855 C 291.135 71.741,288.857 71.555,287.620 71.442 C 286.383 71.329,285.484 71.350,285.624 71.490 M309.944 75.778 C 310.253 75.989,310.853 76.164,311.277 76.167 C 311.701 76.170,313.389 76.821,315.029 77.613 C 316.669 78.405,319.142 79.429,320.524 79.888 C 321.906 80.347,323.452 81.050,323.960 81.450 C 324.468 81.849,325.013 82.176,325.170 82.176 C 325.328 82.176,325.723 82.403,326.049 82.679 C 326.375 82.955,327.640 83.577,328.860 84.060 C 330.080 84.544,331.797 85.489,332.677 86.160 C 333.556 86.831,334.753 87.630,335.337 87.935 C 337.115 88.864,346.437 96.456,348.077 98.311 C 350.551 101.109,353.476 104.706,354.486 106.191 C 355.118 107.120,356.004 108.212,356.456 108.619 C 356.907 109.025,357.846 110.545,358.541 111.996 C 359.236 113.447,360.330 115.225,360.972 115.947 C 362.413 117.568,362.073 116.366,360.530 114.383 C 359.941 113.625,359.118 112.234,358.701 111.292 C 358.284 110.350,357.317 108.833,356.551 107.923 C 355.786 107.012,354.146 104.941,352.908 103.322 C 350.110 99.663,343.858 93.456,341.018 91.517 C 339.844 90.716,338.778 89.889,338.649 89.680 C 338.026 88.673,331.475 84.579,327.955 82.998 C 326.614 82.395,325.131 81.560,324.661 81.142 C 324.191 80.724,322.379 79.927,320.634 79.371 C 318.888 78.816,316.890 77.974,316.192 77.500 C 314.799 76.555,313.181 75.985,310.882 75.627 C 309.800 75.459,309.538 75.501,309.944 75.778 M83.025 81.051 C 82.814 81.773,82.038 83.727,81.299 85.392 C 80.560 87.057,79.862 89.168,79.747 90.082 C 79.557 91.606,79.597 91.553,80.228 89.450 C 80.607 88.188,81.261 86.572,81.682 85.859 C 82.654 84.212,83.790 80.816,83.573 80.205 C 83.482 79.948,83.236 80.328,83.025 81.051 M78.680 96.085 C 78.025 100.076,76.268 106.286,74.936 109.318 C 74.036 111.366,73.447 111.753,69.418 112.944 C 66.833 113.707,64.629 114.670,64.165 115.239 C 64.062 115.366,63.302 115.823,62.477 116.255 C 61.562 116.733,61.242 117.046,61.657 117.057 C 62.318 117.073,63.785 116.444,64.165 115.982 C 64.696 115.337,68.401 113.683,70.544 113.135 C 72.887 112.537,74.642 111.372,75.452 109.878 C 76.515 107.921,79.044 98.271,79.395 94.841 C 79.778 91.092,79.389 91.768,78.680 96.085 M57.786 119.150 C 56.651 120.070,55.584 120.823,55.414 120.824 C 55.245 120.825,54.879 121.037,54.603 121.295 C 54.326 121.553,53.035 122.608,51.734 123.640 C 47.981 126.616,43.366 131.338,42.015 133.583 C 41.332 134.719,40.241 136.323,39.591 137.148 C 37.940 139.243,37.608 140.038,39.041 138.462 C 39.698 137.739,41.020 135.965,41.979 134.518 C 44.582 130.590,51.017 124.436,55.722 121.374 C 57.919 119.945,60.767 117.480,60.225 117.478 C 60.019 117.478,58.921 118.230,57.786 119.150 M362.120 117.851 C 362.070 118.430,363.450 121.918,364.189 123.077 C 364.648 123.799,365.228 125.035,365.477 125.823 C 365.725 126.610,366.013 127.170,366.117 127.066 C 366.423 126.760,365.174 123.474,363.602 120.450 C 362.797 118.902,362.130 117.733,362.120 117.851 M366.450 129.644 C 366.560 130.469,367.246 133.002,367.974 135.272 C 368.797 137.841,369.427 140.746,369.642 142.964 C 370.150 148.223,370.375 149.865,370.618 150.085 C 371.541 150.919,369.756 138.136,368.500 134.911 C 368.095 133.871,367.423 131.923,367.006 130.582 C 366.434 128.741,366.298 128.511,366.450 129.644 M36.062 142.427 C 34.555 144.719,33.921 146.149,32.079 151.407 C 31.718 152.439,31.039 154.299,30.571 155.541 C 30.102 156.783,29.622 158.809,29.504 160.044 C 29.270 162.484,29.180 162.687,30.756 157.223 C 32.033 152.792,34.740 145.313,35.391 144.413 C 37.417 141.611,37.960 140.708,37.838 140.342 C 37.763 140.117,36.964 141.056,36.062 142.427 M370.451 156.660 C 370.455 157.486,370.532 157.779,370.622 157.313 C 370.712 156.846,370.708 156.171,370.614 155.812 C 370.520 155.453,370.447 155.835,370.451 156.660 M369.872 162.958 C 369.503 165.390,368.866 168.683,368.457 170.275 C 367.450 174.195,366.193 180.202,366.346 180.355 C 367.025 181.034,370.893 162.794,370.664 159.995 C 370.579 158.959,370.350 159.816,369.872 162.958 M28.761 165.572 C 28.414 168.462,28.517 181.676,28.893 182.552 C 29.085 182.997,29.226 179.302,29.242 173.452 C 29.269 163.441,29.184 162.051,28.761 165.572 M365.896 181.989 C 365.872 182.298,365.177 183.863,364.352 185.465 C 362.729 188.616,362.580 189.061,363.359 188.414 C 364.157 187.752,366.304 182.818,366.113 182.086 C 365.990 181.616,365.928 181.588,365.896 181.989 M29.488 188.286 C 29.595 189.583,30.078 191.778,30.559 193.164 C 31.978 197.247,33.207 200.313,33.553 200.636 C 34.081 201.129,33.418 198.871,32.258 196.225 C 31.665 194.870,30.996 193.013,30.772 192.097 C 30.547 191.181,30.123 189.418,29.828 188.180 L 29.292 185.929 29.488 188.286 M361.737 191.625 C 361.289 192.826,360.522 194.231,360.032 194.747 C 359.541 195.263,358.803 196.445,358.392 197.373 C 357.981 198.302,356.857 200.075,355.894 201.313 C 354.931 202.552,353.841 204.156,353.472 204.878 C 353.102 205.600,352.425 206.529,351.966 206.942 C 351.507 207.355,350.625 208.427,350.006 209.325 C 348.529 211.466,344.043 215.863,341.039 218.112 C 339.724 219.097,337.552 220.742,336.210 221.769 C 334.869 222.796,332.843 224.075,331.708 224.613 C 330.573 225.150,328.837 226.182,327.850 226.907 C 326.862 227.631,325.258 228.536,324.284 228.916 C 323.311 229.297,322.852 229.613,323.265 229.618 C 324.230 229.630,327.047 228.351,328.507 227.239 C 329.132 226.763,330.566 225.906,331.693 225.335 C 332.821 224.764,335.402 223.009,337.430 221.435 C 339.458 219.862,341.921 217.983,342.904 217.261 C 345.130 215.625,348.792 211.954,350.281 209.867 C 350.901 208.999,352.674 206.583,354.221 204.498 C 355.769 202.413,357.355 200.168,357.745 199.509 C 358.136 198.850,359.257 197.045,360.238 195.497 C 361.953 192.790,363.132 190.024,362.738 189.630 C 362.635 189.526,362.184 190.424,361.737 191.625 M33.779 201.863 C 33.772 202.343,35.619 205.793,38.508 210.694 C 39.540 212.446,42.026 215.311,42.026 214.749 C 42.026 214.538,41.361 213.609,40.548 212.685 C 39.735 211.762,38.640 210.035,38.116 208.848 C 37.591 207.661,36.710 206.156,36.159 205.503 C 35.607 204.850,34.848 203.640,34.472 202.814 C 34.095 201.989,33.784 201.561,33.779 201.863 M46.717 220.135 C 51.849 225.081,53.521 226.304,61.939 231.276 C 63.913 232.442,65.855 233.388,66.254 233.378 C 66.693 233.368,66.238 232.980,65.103 232.397 C 64.071 231.867,62.959 231.198,62.632 230.911 C 62.305 230.624,60.954 229.867,59.630 229.228 C 58.306 228.589,56.548 227.531,55.722 226.875 C 54.897 226.220,53.479 225.206,52.573 224.621 C 51.666 224.036,49.104 221.803,46.879 219.659 C 44.654 217.514,42.695 215.768,42.524 215.778 C 42.353 215.788,44.240 217.749,46.717 220.135 M320.244 230.364 C 320.048 230.555,318.705 231.314,317.261 232.051 C 315.816 232.789,314.972 233.393,315.385 233.393 C 316.201 233.394,320.300 231.378,321.187 230.539 C 321.669 230.083,321.667 230.019,321.169 230.019 C 320.856 230.019,320.440 230.174,320.244 230.364 M68.105 233.741 C 71.920 235.418,80.000 237.529,82.364 237.465 C 83.774 237.427,83.740 237.404,81.801 237.078 C 78.667 236.553,75.885 235.831,72.983 234.792 C 70.439 233.881,66.489 233.030,68.105 233.741 M311.069 233.779 C 310.141 233.941,307.903 234.613,306.096 235.272 C 304.289 235.931,301.588 236.692,300.092 236.963 C 297.774 237.383,297.605 237.461,298.950 237.490 C 300.958 237.533,304.003 236.881,306.180 235.943 C 307.115 235.540,309.315 234.814,311.069 234.331 C 314.256 233.452,314.256 233.222,311.069 233.779 M90.155 237.417 C 90.726 237.504,91.570 237.501,92.031 237.412 C 92.493 237.323,92.026 237.253,90.994 237.256 C 89.962 237.258,89.585 237.331,90.155 237.417 M292.782 237.417 C 293.352 237.504,294.197 237.501,294.658 237.412 C 295.120 237.323,294.653 237.253,293.621 237.256 C 292.589 237.258,292.212 237.331,292.782 237.417 M184.991 260.012 C 182.339 260.166,187.482 260.292,198.330 260.338 C 211.476 260.394,216.100 260.528,216.435 260.863 C 217.047 261.475,217.003 264.416,216.352 266.443 C 216.058 267.357,215.717 268.718,215.593 269.468 C 215.469 270.217,214.822 271.549,214.156 272.427 C 212.123 275.108,211.636 275.951,211.634 276.801 C 211.633 277.249,211.020 278.418,210.271 279.399 C 208.726 281.424,207.140 284.624,207.129 285.741 C 207.125 286.154,206.533 287.233,205.812 288.139 C 204.306 290.035,204.184 291.141,205.287 292.925 C 206.596 295.042,206.615 295.046,221.733 295.474 L 235.774 295.872 236.122 296.920 C 236.728 298.740,236.177 299.549,230.280 305.500 C 226.580 309.235,224.220 311.935,223.679 313.053 C 223.196 314.049,222.308 315.120,221.602 315.556 C 220.923 315.976,219.925 316.957,219.385 317.736 C 218.845 318.515,217.906 319.447,217.297 319.806 C 216.688 320.166,215.832 321.040,215.393 321.750 C 214.955 322.459,214.002 323.406,213.277 323.855 C 212.551 324.303,211.516 325.336,210.978 326.150 C 210.440 326.963,209.521 327.876,208.937 328.178 C 208.354 328.480,207.456 329.393,206.942 330.206 C 206.428 331.020,205.500 331.949,204.878 332.270 C 204.257 332.591,203.298 333.536,202.747 334.369 C 202.195 335.202,201.260 336.134,200.668 336.441 C 200.076 336.747,199.269 337.538,198.875 338.198 C 198.481 338.859,197.433 339.918,196.547 340.552 C 195.660 341.186,194.712 342.163,194.439 342.722 C 194.167 343.281,193.301 344.144,192.515 344.641 C 191.728 345.137,190.711 346.149,190.253 346.889 C 189.795 347.630,188.962 348.473,188.401 348.763 C 187.839 349.054,186.889 350.000,186.288 350.867 C 185.687 351.734,184.564 352.842,183.791 353.330 C 183.018 353.818,182.130 354.711,181.817 355.315 C 181.505 355.919,180.725 356.787,180.083 357.244 C 179.442 357.701,178.601 358.812,178.215 359.712 C 177.709 360.892,177.132 361.532,176.149 362.000 C 175.327 362.392,174.514 363.183,174.102 363.990 C 173.571 365.032,172.913 365.548,171.139 366.313 L 168.858 367.297 168.294 366.492 C 167.321 365.103,168.094 360.596,169.594 358.912 C 170.675 357.699,171.183 356.484,172.072 352.988 C 172.620 350.836,173.372 349.010,174.235 347.734 C 175.588 345.736,176.735 342.503,176.735 340.691 C 176.735 340.134,176.998 339.461,177.320 339.194 C 178.447 338.259,179.814 335.435,180.533 332.559 C 181.048 330.497,181.526 329.436,182.181 328.899 C 184.992 326.595,185.792 317.605,183.392 315.290 L 182.176 314.117 171.581 313.850 C 160.318 313.566,159.543 313.435,158.937 311.710 C 158.449 310.324,159.615 304.643,160.801 302.627 C 162.926 299.012,163.649 297.416,163.993 295.580 C 164.195 294.503,164.695 293.199,165.105 292.683 C 166.403 291.049,167.241 289.206,168.075 286.151 C 168.561 284.371,169.325 282.630,169.985 281.796 C 171.339 280.087,171.816 278.882,172.285 275.985 C 172.572 274.207,172.917 273.457,173.926 272.420 C 175.269 271.038,176.080 269.188,176.543 266.444 C 176.760 265.162,177.182 264.466,178.430 263.330 C 179.876 262.014,180.941 260.193,180.095 260.485 C 179.331 260.749,176.004 265.112,175.815 266.098 C 175.702 266.686,175.512 267.675,175.392 268.296 C 175.272 268.916,174.517 270.298,173.715 271.366 C 172.765 272.630,172.099 274.036,171.807 275.397 C 171.311 277.710,170.668 279.172,169.404 280.863 C 168.942 281.482,168.126 283.438,167.591 285.209 C 167.056 286.980,166.182 289.072,165.649 289.858 C 165.116 290.644,164.101 292.905,163.394 294.883 C 162.687 296.862,161.594 299.308,160.965 300.320 C 160.336 301.332,159.470 303.447,159.040 305.020 C 158.611 306.593,157.929 308.532,157.525 309.328 C 156.678 310.999,156.905 311.895,158.720 314.027 L 159.800 315.296 171.303 315.528 L 182.806 315.760 183.523 316.646 C 184.897 318.343,184.261 323.590,182.307 326.672 C 181.681 327.657,180.664 329.911,180.046 331.680 C 179.427 333.449,178.363 335.910,177.681 337.148 C 176.999 338.386,176.143 340.497,175.779 341.839 C 175.048 344.532,174.543 345.668,173.197 347.652 C 172.700 348.385,171.987 350.280,171.614 351.865 C 171.240 353.450,170.549 355.314,170.078 356.009 C 168.914 357.723,168.224 359.453,167.363 362.816 L 166.636 365.654 167.574 367.255 C 168.518 368.866,168.988 369.177,169.422 368.475 C 169.551 368.266,170.363 367.738,171.226 367.303 C 172.813 366.503,178.612 360.939,178.612 360.217 C 178.612 359.929,195.459 342.705,204.210 334.046 C 205.604 332.666,216.753 321.547,217.073 321.217 C 217.280 321.004,218.818 319.516,220.491 317.910 C 222.165 316.304,223.832 314.413,224.196 313.709 C 224.560 313.005,227.353 309.885,230.401 306.777 C 237.001 300.049,237.794 298.798,236.961 296.436 C 235.972 293.634,236.918 293.809,222.750 293.807 C 208.729 293.804,207.459 293.657,206.567 291.934 C 205.942 290.725,205.832 289.456,206.325 289.152 C 206.502 289.042,207.185 287.527,207.843 285.783 C 208.501 284.039,209.512 282.018,210.090 281.290 C 210.668 280.563,211.505 278.970,211.950 277.750 C 212.395 276.529,213.181 275.075,213.697 274.518 C 214.853 273.271,215.464 272.085,216.323 269.418 C 216.689 268.283,217.387 266.664,217.875 265.821 C 219.193 263.540,219.124 260.913,217.730 260.360 C 216.528 259.882,191.744 259.619,184.991 260.012 " stroke="none" fill="#d4d4d4" fill-rule="evenodd"></path></g></svg>