<svg id="svg" version="1.1" xmlns="http://www.w3.org/2000/svg" xmlns:xlink="http://www.w3.org/1999/xlink" width="400" height="375" viewBox="0, 0, 400,375"><g id="svgg"><path id="path0" d="M189.778 60.017 C 186.993 60.309,186.395 60.556,184.223 62.303 C 183.697 62.726,181.925 63.407,180.284 63.817 C 177.777 64.444,177.032 64.821,175.611 66.182 C 174.682 67.073,173.381 68.014,172.720 68.273 C 171.343 68.813,168.123 72.072,167.196 73.865 C 166.851 74.533,166.180 75.227,165.706 75.407 C 165.231 75.587,164.559 76.382,164.213 77.173 C 163.357 79.125,162.802 80.152,161.387 82.402 C 159.209 85.863,159.423 90.673,161.859 92.977 C 164.907 95.862,173.059 95.856,173.939 92.968 C 174.284 91.836,175.230 90.794,176.276 90.394 C 176.746 90.214,177.224 89.770,177.340 89.405 C 178.338 86.254,180.368 83.884,185.129 80.314 C 189.207 77.256,199.146 75.261,202.248 76.878 C 203.056 77.299,204.611 77.758,205.705 77.898 C 210.335 78.492,218.366 85.259,218.383 88.582 C 218.385 88.906,218.989 89.874,219.724 90.734 C 222.757 94.277,222.726 105.875,219.675 109.109 C 218.966 109.860,218.386 110.780,218.386 111.152 C 218.386 113.528,215.221 117.393,212.159 118.756 C 211.108 119.224,210.145 119.873,210.021 120.197 C 209.626 121.226,207.413 122.062,204.315 122.352 C 201.372 122.628,200.382 122.917,198.499 124.048 C 196.982 124.959,188.174 124.589,184.991 123.480 C 182.754 122.701,181.541 122.602,170.356 122.284 C 163.649 122.093,156.135 121.773,153.659 121.572 C 151.182 121.372,146.201 121.021,142.589 120.794 C 137.675 120.484,135.598 120.199,134.334 119.662 C 129.686 117.686,115.886 117.692,111.633 119.672 C 110.575 120.164,108.855 120.437,105.811 120.595 C 103.435 120.718,99.775 121.075,97.678 121.389 C 95.581 121.702,90.677 122.118,86.781 122.312 C 79.545 122.672,78.393 122.889,76.488 124.245 C 74.941 125.347,73.509 125.668,66.782 126.421 C 61.583 127.003,60.665 127.208,59.586 128.029 C 57.467 129.640,56.208 130.104,52.720 130.561 C 50.863 130.804,49.002 131.225,48.584 131.496 C 45.791 133.308,46.118 145.216,48.961 145.216 C 49.494 145.216,50.520 145.462,51.242 145.764 C 52.437 146.263,53.237 146.213,60.266 145.201 C 64.509 144.590,68.027 144.090,68.085 144.090 C 68.142 144.090,68.815 143.593,69.579 142.986 C 71.229 141.675,72.852 141.313,80.628 140.525 C 85.539 140.027,86.741 139.775,88.705 138.827 C 94.749 135.912,143.626 135.295,161.067 137.913 C 163.078 138.215,165.579 138.462,166.626 138.462 C 167.773 138.462,169.302 138.797,170.475 139.306 C 172.398 140.140,172.615 140.150,189.493 140.150 L 206.567 140.150 208.088 138.927 C 209.329 137.929,210.296 137.572,213.341 136.988 C 218.006 136.094,218.848 135.769,219.641 134.559 C 219.990 134.026,221.075 133.172,222.052 132.661 C 223.028 132.151,224.785 130.757,225.956 129.563 C 227.126 128.369,228.930 126.535,229.963 125.487 C 231.275 124.157,232.077 122.917,232.615 121.384 C 233.040 120.175,233.791 118.753,234.284 118.224 C 236.168 116.200,236.699 113.328,237.029 103.377 C 237.423 91.529,236.509 84.776,234.019 81.117 C 233.271 80.018,232.462 78.463,232.222 77.661 C 231.764 76.132,225.537 69.372,222.889 67.529 C 222.167 67.026,220.969 65.979,220.227 65.202 C 219.226 64.155,218.573 63.790,217.698 63.790 C 216.185 63.790,212.885 62.539,211.861 61.577 C 210.332 60.140,197.345 59.223,189.778 60.017 M284.615 114.518 C 283.996 114.746,282.953 115.399,282.296 115.969 C 281.176 116.941,279.604 117.534,275.321 118.598 C 274.071 118.908,273.294 119.375,272.746 120.145 C 272.314 120.751,271.063 121.645,269.965 122.130 C 268.611 122.729,267.780 123.381,267.377 124.159 C 267.051 124.790,266.406 125.508,265.944 125.756 C 264.683 126.430,259.800 131.478,259.101 132.830 C 258.765 133.480,257.910 134.354,257.200 134.773 C 256.246 135.335,255.910 135.793,255.910 136.529 C 255.909 137.795,254.010 141.808,252.975 142.728 C 251.997 143.599,251.527 145.070,251.224 148.218 C 251.094 149.559,250.716 152.138,250.382 153.949 C 249.787 157.178,249.792 157.314,250.662 160.997 C 251.771 165.695,251.646 165.602,256.842 165.637 L 261.105 165.666 263.198 163.491 C 264.349 162.295,265.294 161.198,265.298 161.052 C 265.431 156.270,266.657 151.746,268.348 149.799 C 268.937 149.121,269.422 148.277,269.427 147.923 C 269.464 145.029,277.745 135.844,280.323 135.837 C 280.646 135.836,281.282 135.331,281.737 134.715 C 282.873 133.179,284.288 132.528,287.473 132.076 C 289.396 131.804,290.671 131.371,291.848 130.591 C 294.991 128.510,301.542 128.478,305.447 130.525 C 306.712 131.188,308.959 131.964,310.440 132.250 C 314.126 132.962,314.734 133.240,316.946 135.229 C 318.005 136.181,319.069 136.961,319.310 136.961 C 320.020 136.961,325.193 142.273,326.830 144.683 C 327.659 145.905,328.744 147.456,329.240 148.131 C 329.812 148.910,330.304 150.347,330.589 152.071 C 330.836 153.563,331.400 155.629,331.842 156.660 C 333.046 159.471,333.032 168.253,331.819 170.732 C 331.365 171.660,330.821 173.812,330.611 175.514 C 330.193 178.891,329.498 180.613,328.295 181.257 C 327.866 181.486,327.258 182.294,326.942 183.051 C 325.631 186.197,318.983 192.529,316.207 193.277 C 315.349 193.508,314.065 194.208,313.354 194.832 C 311.469 196.487,310.010 196.973,305.290 197.518 C 302.947 197.789,300.492 198.297,299.781 198.660 C 296.409 200.378,279.639 200.399,276.024 198.689 C 274.246 197.848,273.304 197.713,266.945 197.388 C 258.982 196.981,257.585 196.725,254.311 195.072 C 252.473 194.145,251.258 193.841,248.239 193.556 C 242.167 192.982,238.653 192.237,236.362 191.036 C 233.650 189.614,232.197 189.240,227.598 188.776 C 224.404 188.455,223.418 188.179,220.787 186.869 C 218.047 185.506,217.205 185.282,213.077 184.824 C 208.421 184.308,207.069 183.935,205.158 182.637 C 203.563 181.554,202.161 181.265,195.685 180.682 C 189.648 180.140,186.786 179.472,184.921 178.172 C 183.591 177.245,181.164 176.845,173.921 176.362 C 170.619 176.141,166.897 175.800,165.651 175.603 C 164.404 175.406,161.714 175.072,159.672 174.860 C 157.115 174.595,155.738 174.275,155.248 173.832 C 153.446 172.201,121.590 172.210,119.787 173.843 C 119.293 174.289,118.403 174.490,116.856 174.504 C 114.555 174.525,110.784 174.915,106.567 175.568 C 105.225 175.775,101.257 176.131,97.749 176.358 C 90.132 176.851,87.559 177.259,86.304 178.175 C 84.654 179.380,81.744 180.117,77.116 180.504 C 71.039 181.011,68.874 181.489,67.532 182.618 C 66.098 183.824,64.061 184.433,59.554 185.000 C 56.304 185.409,55.780 185.590,54.032 186.903 C 52.969 187.701,51.395 188.530,50.534 188.745 C 47.380 189.530,46.957 190.419,46.925 196.317 C 46.892 202.644,47.241 203.037,53.120 203.300 C 57.657 203.503,60.445 202.980,62.477 201.543 C 64.316 200.243,65.594 199.832,70.169 199.071 C 72.791 198.635,74.228 198.174,75.602 197.325 C 77.875 195.922,81.128 195.206,87.039 194.807 C 90.960 194.543,91.687 194.385,92.941 193.529 C 96.119 191.361,100.235 191.034,127.955 190.753 C 161.222 190.417,170.855 190.953,176.831 193.477 C 178.676 194.256,180.173 194.540,183.865 194.812 C 189.666 195.239,192.601 195.896,195.545 197.428 C 197.325 198.355,198.578 198.691,201.258 198.963 C 207.118 199.558,210.057 200.249,211.986 201.487 C 213.379 202.381,214.468 202.719,216.924 203.020 C 224.085 203.897,226.188 204.453,227.848 205.908 C 228.721 206.673,232.370 207.492,234.939 207.499 C 238.221 207.508,240.868 208.133,243.601 209.544 C 246.299 210.937,248.142 211.350,254.597 212.010 C 258.662 212.425,262.800 213.547,265.680 215.016 C 267.073 215.727,267.903 215.759,284.694 215.733 C 306.204 215.701,308.149 215.566,310.329 213.963 C 311.844 212.849,312.640 212.602,317.943 211.604 C 319.584 211.295,320.372 210.917,321.116 210.082 C 322.422 208.616,324.069 207.653,325.793 207.347 C 326.806 207.166,327.521 206.692,328.370 205.635 C 329.016 204.831,330.169 203.924,330.932 203.619 C 331.695 203.313,333.406 201.937,334.734 200.560 C 336.062 199.183,337.876 197.309,338.765 196.394 C 339.655 195.479,340.619 194.166,340.908 193.474 C 341.196 192.783,342.025 191.731,342.748 191.137 C 343.847 190.234,344.191 189.564,344.842 187.054 C 345.270 185.403,345.956 183.630,346.366 183.114 C 348.611 180.292,349.117 175.935,348.867 161.571 C 348.680 150.812,348.427 148.768,347.103 147.280 C 346.042 146.087,345.630 145.076,345.016 142.154 C 344.531 139.849,344.215 139.202,343.015 138.048 C 341.636 136.723,339.962 133.779,339.962 132.678 C 339.962 132.381,339.245 131.745,338.368 131.264 C 337.414 130.742,336.512 129.868,336.125 129.093 C 335.768 128.380,334.885 127.439,334.161 127.003 C 333.438 126.566,332.357 125.534,331.760 124.710 C 330.930 123.565,330.142 123.017,328.416 122.388 C 327.056 121.892,325.553 120.978,324.638 120.090 C 323.631 119.112,322.639 118.535,321.691 118.376 C 319.105 117.941,317.669 117.390,315.020 115.814 L 312.404 114.259 299.073 114.182 C 290.100 114.130,285.373 114.240,284.615 114.518 M116.666 229.425 C 116.430 229.661,108.512 230.346,99.199 230.935 C 92.176 231.379,90.656 231.582,89.351 232.247 C 87.101 233.395,82.249 234.444,77.111 234.893 C 71.404 235.391,71.068 235.473,69.251 236.809 C 67.413 238.161,66.128 238.522,60.852 239.172 C 57.066 239.638,56.602 239.785,54.948 241.048 C 53.961 241.802,52.212 242.677,51.061 242.993 C 46.954 244.120,46.902 244.219,46.906 250.803 C 46.911 256.871,47.443 257.455,53.201 257.713 C 59.300 257.986,62.932 257.233,66.191 255.022 C 67.635 254.042,70.317 253.443,74.963 253.063 C 77.513 252.855,78.365 252.613,79.723 251.714 C 81.969 250.226,82.980 249.979,89.493 249.326 C 93.920 248.883,96.244 248.423,100.375 247.177 L 105.629 245.591 133.208 245.480 C 165.114 245.352,169.798 245.560,173.037 247.252 C 175.218 248.391,177.612 248.941,182.176 249.351 C 186.024 249.697,188.629 250.510,189.333 251.584 C 189.768 252.248,190.500 252.605,192.056 252.911 C 196.306 253.749,198.305 254.485,199.662 255.711 C 200.411 256.388,201.870 257.222,202.904 257.566 C 204.031 257.940,205.255 258.708,205.961 259.484 C 206.608 260.195,207.853 261.135,208.728 261.573 C 210.986 262.704,212.596 264.345,214.307 267.261 C 215.124 268.654,215.918 269.794,216.071 269.794 C 216.789 269.794,217.673 272.298,218.204 275.835 C 218.526 277.973,219.036 280.100,219.338 280.561 C 220.038 281.629,220.030 282.147,219.303 282.951 C 218.945 283.346,218.516 285.136,218.197 287.564 C 217.598 292.131,217.636 292.044,214.195 296.683 C 211.570 300.222,210.623 300.975,207.692 301.858 C 206.805 302.124,205.405 302.885,204.581 303.547 C 201.170 306.288,191.341 306.007,187.477 303.057 C 186.540 302.343,185.186 301.564,184.467 301.326 C 183.540 301.020,182.877 300.411,182.184 299.228 C 181.646 298.311,180.975 297.561,180.693 297.561 C 179.825 297.561,178.273 295.364,177.666 293.276 C 177.349 292.186,176.678 290.906,176.174 290.433 C 175.009 289.338,174.228 286.847,173.979 283.424 C 173.569 277.809,170.919 275.932,163.821 276.227 C 159.970 276.387,159.383 276.818,158.510 280.121 C 157.448 284.146,159.668 299.812,161.301 299.812 C 161.867 299.812,163.263 302.292,163.953 304.522 C 164.421 306.036,164.899 306.757,165.866 307.409 C 166.575 307.886,167.505 308.900,167.931 309.660 C 168.358 310.421,169.403 311.547,170.253 312.163 C 171.103 312.779,172.023 313.735,172.297 314.289 C 172.664 315.030,173.438 315.525,175.235 316.167 C 176.748 316.709,178.074 317.486,178.730 318.215 C 180.010 319.641,180.838 319.898,185.183 320.225 C 187.038 320.364,190.623 320.844,193.149 321.290 C 197.570 322.071,197.811 322.077,199.537 321.456 C 200.524 321.101,203.267 320.641,205.633 320.434 C 211.046 319.959,212.584 319.553,214.387 318.125 C 215.180 317.497,216.903 316.567,218.218 316.059 C 219.674 315.496,220.693 314.864,220.828 314.438 C 220.950 314.054,221.870 313.151,222.872 312.431 C 224.661 311.146,228.081 307.356,228.936 305.712 C 229.175 305.253,229.904 304.371,230.558 303.752 C 231.523 302.837,231.866 302.060,232.388 299.595 C 232.827 297.523,233.472 295.861,234.426 294.342 L 235.823 292.120 235.953 283.865 C 236.120 273.269,235.926 271.373,234.486 269.562 C 233.390 268.182,232.704 266.256,231.898 262.289 C 231.559 260.617,231.256 260.083,230.305 259.475 C 229.659 259.062,228.770 258.037,228.328 257.197 C 227.271 255.184,219.916 247.834,218.273 247.147 C 217.564 246.851,216.524 246.004,215.960 245.266 C 215.243 244.326,214.525 243.846,213.565 243.666 C 211.375 243.256,209.695 242.438,207.813 240.866 C 206.847 240.060,205.845 239.400,205.585 239.400 C 203.915 239.400,199.952 238.008,198.396 236.874 C 196.907 235.790,196.113 235.510,193.705 235.221 C 186.692 234.379,186.127 234.228,182.150 232.138 C 180.836 231.447,176.592 230.971,166.535 230.387 C 162.679 230.164,158.965 229.820,158.282 229.624 C 157.094 229.283,117.000 229.091,116.666 229.425 " stroke="none" fill="#a5a5a5" fill-rule="evenodd"></path><path id="path1" d="M189.493 58.796 C 186.976 59.218,184.061 60.112,183.169 60.737 C 182.623 61.119,180.994 61.898,179.550 62.469 C 176.955 63.494,175.384 64.419,173.921 65.782 C 173.508 66.167,172.545 66.804,171.780 67.199 C 169.441 68.405,163.991 74.402,162.944 76.923 C 162.644 77.645,161.827 78.938,161.129 79.795 C 158.196 83.394,157.781 90.779,160.346 93.701 C 165.463 99.529,173.295 97.399,179.155 88.584 C 181.320 85.328,184.485 82.471,188.899 79.788 C 192.356 77.687,203.525 77.693,207.632 79.798 C 209.969 80.995,216.886 87.312,216.886 88.249 C 216.886 88.450,217.682 90.163,218.655 92.056 C 221.755 98.084,221.327 101.943,216.382 112.566 C 215.060 115.407,208.052 120.473,204.503 121.154 C 197.676 122.463,189.111 122.528,173.734 121.386 C 172.598 121.302,170.066 121.129,168.105 121.003 C 166.144 120.876,162.683 120.532,160.413 120.239 C 158.143 119.946,155.441 119.702,154.409 119.697 C 153.377 119.693,151.520 119.450,150.281 119.158 C 148.059 118.634,145.623 118.401,138.274 118.011 C 132.039 117.681,127.937 117.448,124.515 117.229 C 118.790 116.864,99.249 118.477,94.559 119.702 C 93.011 120.106,89.296 120.699,86.304 121.018 C 79.133 121.785,76.954 122.191,73.358 123.433 C 71.707 124.003,68.583 124.753,66.417 125.101 C 60.688 126.019,58.931 126.452,57.001 127.419 C 56.053 127.894,53.690 128.738,51.748 129.294 C 47.270 130.578,47.004 130.777,45.681 133.851 C 41.918 142.589,48.805 150.627,57.535 147.687 C 60.636 146.643,66.656 145.216,67.964 145.215 C 68.454 145.215,69.893 144.724,71.161 144.125 C 74.033 142.766,75.561 142.443,84.803 141.247 C 87.383 140.914,90.458 140.319,91.638 139.927 C 96.394 138.344,106.908 137.729,129.456 137.716 C 145.269 137.706,149.170 137.963,157.786 139.583 C 164.447 140.835,172.999 141.276,190.619 141.276 L 207.317 141.276 211.632 139.529 C 214.006 138.569,216.629 137.601,217.463 137.379 C 218.296 137.156,219.845 136.254,220.905 135.373 C 221.964 134.492,223.542 133.349,224.411 132.833 C 226.550 131.562,232.364 125.114,233.601 122.641 C 234.152 121.539,234.999 120.214,235.485 119.695 C 239.281 115.640,239.756 87.190,236.125 81.402 C 235.759 80.819,234.618 78.940,233.589 77.225 C 230.379 71.879,222.259 64.117,218.574 62.874 C 217.542 62.526,216.023 61.853,215.197 61.378 C 211.143 59.047,196.668 57.593,189.493 58.796 M205.239 60.037 C 209.466 60.329,210.446 60.512,211.243 61.162 C 212.719 62.365,215.227 63.435,217.366 63.773 C 218.902 64.016,219.551 64.351,220.444 65.362 C 221.067 66.067,222.167 67.048,222.889 67.543 C 225.494 69.328,231.761 76.122,232.222 77.661 C 232.462 78.463,233.271 80.018,234.019 81.117 C 236.509 84.776,237.423 91.529,237.029 103.377 C 236.699 113.328,236.168 116.200,234.284 118.224 C 233.791 118.753,233.040 120.175,232.615 121.384 C 232.077 122.917,231.275 124.157,229.963 125.487 C 228.930 126.535,227.126 128.369,225.956 129.563 C 224.785 130.757,223.028 132.151,222.052 132.661 C 221.075 133.172,219.990 134.026,219.641 134.559 C 218.848 135.769,218.006 136.094,213.341 136.988 C 210.296 137.572,209.329 137.929,208.088 138.927 L 206.567 140.150 189.493 140.150 C 172.615 140.150,172.398 140.140,170.475 139.306 C 169.302 138.797,167.773 138.462,166.626 138.462 C 165.579 138.462,163.078 138.215,161.067 137.913 C 143.626 135.295,94.749 135.912,88.705 138.827 C 86.741 139.775,85.539 140.027,80.628 140.525 C 72.852 141.313,71.229 141.675,69.579 142.986 C 68.815 143.593,68.142 144.090,68.085 144.090 C 68.027 144.090,64.509 144.590,60.266 145.201 C 53.237 146.213,52.437 146.263,51.242 145.764 C 50.520 145.462,49.494 145.216,48.961 145.216 C 46.118 145.216,45.791 133.308,48.584 131.496 C 49.002 131.225,50.863 130.804,52.720 130.561 C 56.208 130.104,57.467 129.640,59.586 128.029 C 60.665 127.208,61.583 127.003,66.782 126.421 C 73.509 125.668,74.941 125.347,76.488 124.245 C 78.393 122.889,79.545 122.672,86.781 122.312 C 90.677 122.118,95.581 121.702,97.678 121.389 C 99.775 121.075,103.435 120.718,105.811 120.595 C 108.855 120.437,110.575 120.164,111.633 119.672 C 115.886 117.692,129.686 117.686,134.334 119.662 C 135.598 120.199,137.675 120.484,142.589 120.794 C 146.201 121.021,151.182 121.372,153.659 121.572 C 156.135 121.773,163.649 122.093,170.356 122.284 C 181.541 122.602,182.754 122.701,184.991 123.480 C 188.174 124.589,196.982 124.959,198.499 124.048 C 200.382 122.917,201.372 122.628,204.315 122.352 C 207.413 122.062,209.626 121.226,210.021 120.197 C 210.145 119.873,211.108 119.224,212.159 118.756 C 215.221 117.393,218.386 113.528,218.386 111.152 C 218.386 110.780,218.966 109.860,219.675 109.109 C 221.420 107.259,221.759 105.747,221.762 99.810 C 221.764 93.896,221.527 92.839,219.724 90.734 C 218.989 89.874,218.385 88.906,218.383 88.582 C 218.366 85.259,210.335 78.492,205.705 77.898 C 204.611 77.758,203.056 77.299,202.248 76.878 C 195.581 73.402,179.913 81.282,177.340 89.405 C 177.224 89.770,176.746 90.214,176.276 90.394 C 175.230 90.794,174.284 91.836,173.939 92.968 C 173.059 95.856,164.907 95.862,161.859 92.977 C 159.423 90.673,159.209 85.863,161.387 82.402 C 162.802 80.152,163.357 79.125,164.213 77.173 C 164.559 76.382,165.231 75.587,165.706 75.407 C 166.180 75.227,166.851 74.533,167.196 73.865 C 168.123 72.072,171.343 68.813,172.720 68.273 C 173.381 68.014,174.682 67.073,175.611 66.182 C 177.032 64.821,177.777 64.444,180.284 63.817 C 181.925 63.407,183.697 62.726,184.223 62.303 C 184.748 61.880,185.560 61.262,186.026 60.928 C 187.588 59.811,196.179 59.412,205.239 60.037 M287.992 112.927 C 283.875 113.286,282.765 113.565,280.975 114.687 C 280.211 115.167,277.948 116.231,275.945 117.052 C 273.943 117.873,271.866 118.949,271.330 119.442 C 270.795 119.936,269.584 120.859,268.639 121.494 C 266.204 123.131,255.201 134.591,254.914 135.789 C 254.588 137.152,253.800 138.698,252.307 140.902 C 251.306 142.379,250.842 143.710,250.129 147.149 C 249.630 149.553,249.043 151.854,248.825 152.263 C 246.880 155.896,247.064 158.840,249.486 162.852 C 249.673 163.161,250.006 163.871,250.225 164.428 C 250.899 166.141,252.600 166.728,256.848 166.713 C 263.793 166.690,265.826 164.956,266.988 158.065 C 267.307 156.169,268.008 153.834,268.646 152.533 C 269.254 151.295,270.028 149.481,270.365 148.502 C 271.430 145.415,276.184 140.170,280.675 137.127 C 282.017 136.218,283.537 135.134,284.053 134.719 C 284.568 134.303,286.510 133.609,288.368 133.176 C 290.225 132.743,293.049 132.067,294.643 131.673 C 298.246 130.783,298.946 130.783,302.649 131.674 C 304.288 132.068,307.148 132.753,309.006 133.195 C 315.700 134.790,323.740 141.692,328.267 149.731 C 331.295 155.110,331.057 175.885,327.931 179.011 C 327.531 179.411,327.205 179.831,327.205 179.946 C 327.205 181.314,318.781 190.620,316.651 191.604 C 316.161 191.831,313.734 192.959,311.257 194.111 C 305.601 196.743,304.119 196.984,291.909 197.260 C 276.991 197.597,260.113 196.137,257.912 194.318 C 257.416 193.909,252.196 192.800,245.734 191.732 C 243.337 191.336,240.128 190.525,238.605 189.930 C 237.081 189.335,234.568 188.643,233.021 188.392 C 228.455 187.651,225.461 186.883,223.289 185.896 C 221.436 185.053,218.485 184.320,214.447 183.697 C 213.621 183.570,211.004 182.810,208.630 182.008 C 205.852 181.070,202.378 180.256,198.874 179.725 C 195.882 179.271,191.744 178.416,189.680 177.825 C 184.163 176.246,179.102 175.248,176.548 175.235 C 175.310 175.230,172.692 174.881,170.732 174.460 C 161.984 172.584,154.543 171.848,141.839 171.603 C 129.206 171.359,111.660 172.352,105.234 173.676 C 100.096 174.734,99.562 174.823,96.998 175.050 C 88.215 175.825,87.005 176.043,81.238 177.882 C 80.000 178.277,77.552 178.854,75.797 179.164 C 69.991 180.190,67.154 180.891,64.425 181.974 C 61.628 183.085,60.528 183.409,56.098 184.432 C 54.529 184.794,52.715 185.545,51.595 186.296 C 50.563 186.987,49.304 187.674,48.798 187.822 C 44.789 188.996,43.658 198.922,47.082 202.883 L 48.293 204.284 53.148 204.435 C 58.378 204.598,62.765 203.774,64.962 202.216 C 65.863 201.577,71.216 200.053,74.848 199.402 C 75.668 199.255,77.216 198.747,78.289 198.272 C 80.914 197.111,84.103 196.316,87.054 196.087 C 88.396 195.983,92.707 195.225,96.635 194.403 C 107.788 192.068,109.709 191.943,134.334 191.939 C 156.777 191.936,164.734 192.286,168.955 193.464 C 171.870 194.278,178.246 195.455,182.943 196.046 C 185.344 196.349,188.816 197.126,191.198 197.895 C 193.460 198.625,196.998 199.490,199.062 199.818 C 204.415 200.668,207.293 201.378,209.071 202.285 C 209.923 202.719,212.863 203.482,215.604 203.979 C 218.408 204.488,222.109 205.464,224.067 206.211 C 226.236 207.039,229.566 207.887,232.904 208.461 C 236.149 209.020,239.409 209.843,241.175 210.550 C 243.147 211.339,245.927 212.002,249.769 212.599 C 252.892 213.085,256.523 213.886,257.836 214.379 C 268.132 218.245,304.716 218.303,313.309 214.466 C 314.863 213.772,317.140 212.985,318.369 212.717 C 319.598 212.449,321.380 211.706,322.329 211.067 C 323.279 210.429,325.228 209.266,326.662 208.483 C 328.095 207.701,329.690 206.676,330.206 206.207 C 330.722 205.738,332.050 204.754,333.158 204.021 C 335.254 202.633,338.493 199.212,341.164 195.564 C 342.021 194.392,343.290 192.763,343.983 191.943 C 344.684 191.113,345.503 189.531,345.828 188.378 C 346.150 187.237,346.826 185.664,347.330 184.883 C 349.230 181.938,349.628 180.253,350.067 173.307 C 350.257 170.286,350.617 167.136,350.865 166.306 C 351.212 165.148,351.216 164.507,350.879 163.543 C 350.638 162.853,350.354 160.769,350.249 158.912 C 349.713 149.472,349.246 147.060,347.450 144.465 C 347.093 143.949,346.541 142.654,346.225 141.587 C 345.516 139.198,345.158 138.520,343.199 135.858 C 342.348 134.700,341.330 133.039,340.937 132.167 C 340.545 131.295,340.074 130.582,339.892 130.582 C 339.709 130.582,337.666 128.662,335.352 126.316 C 333.038 123.970,330.422 121.685,329.539 121.238 C 328.656 120.790,326.842 119.692,325.508 118.797 C 324.085 117.843,322.421 117.064,321.486 116.915 C 320.609 116.774,318.875 116.091,317.633 115.397 C 313.493 113.082,299.546 111.920,287.992 112.927 M315.020 115.814 C 317.669 117.390,319.105 117.941,321.691 118.376 C 322.639 118.535,323.631 119.112,324.638 120.090 C 325.553 120.978,327.056 121.892,328.416 122.388 C 330.142 123.017,330.930 123.565,331.760 124.710 C 332.357 125.534,333.438 126.566,334.161 127.003 C 334.885 127.439,335.768 128.380,336.125 129.093 C 336.512 129.868,337.414 130.742,338.368 131.264 C 339.245 131.745,339.962 132.381,339.962 132.678 C 339.962 133.779,341.636 136.723,343.015 138.048 C 344.215 139.202,344.531 139.849,345.016 142.154 C 345.630 145.076,346.042 146.087,347.103 147.280 C 348.427 148.768,348.680 150.812,348.867 161.571 C 349.117 175.935,348.611 180.292,346.366 183.114 C 345.956 183.630,345.270 185.403,344.842 187.054 C 344.191 189.564,343.847 190.234,342.748 191.137 C 342.025 191.731,341.196 192.783,340.908 193.474 C 340.619 194.166,339.655 195.479,338.765 196.394 C 337.876 197.309,336.062 199.183,334.734 200.560 C 333.406 201.937,331.695 203.313,330.932 203.619 C 330.169 203.924,329.016 204.831,328.370 205.635 C 327.521 206.692,326.806 207.166,325.793 207.347 C 324.069 207.653,322.422 208.616,321.116 210.082 C 320.372 210.917,319.584 211.295,317.943 211.604 C 312.640 212.602,311.844 212.849,310.329 213.963 C 308.149 215.566,306.204 215.701,284.694 215.733 C 267.903 215.759,267.073 215.727,265.680 215.016 C 262.800 213.547,258.662 212.425,254.597 212.010 C 248.142 211.350,246.299 210.937,243.601 209.544 C 240.868 208.133,238.221 207.508,234.939 207.499 C 232.370 207.492,228.721 206.673,227.848 205.908 C 226.188 204.453,224.085 203.897,216.924 203.020 C 214.468 202.719,213.379 202.381,211.986 201.487 C 210.057 200.249,207.118 199.558,201.258 198.963 C 198.578 198.691,197.325 198.355,195.545 197.428 C 192.601 195.896,189.666 195.239,183.865 194.812 C 180.173 194.540,178.676 194.256,176.831 193.477 C 170.855 190.953,161.222 190.417,127.955 190.753 C 100.235 191.034,96.119 191.361,92.941 193.529 C 91.687 194.385,90.960 194.543,87.039 194.807 C 81.128 195.206,77.875 195.922,75.602 197.325 C 74.228 198.174,72.791 198.635,70.169 199.071 C 65.594 199.832,64.316 200.243,62.477 201.543 C 60.445 202.980,57.657 203.503,53.120 203.300 C 47.241 203.037,46.892 202.644,46.925 196.317 C 46.957 190.419,47.380 189.530,50.534 188.745 C 51.395 188.530,52.969 187.701,54.032 186.903 C 55.780 185.590,56.304 185.409,59.554 185.000 C 64.061 184.433,66.098 183.824,67.532 182.618 C 68.874 181.489,71.039 181.011,77.116 180.504 C 81.744 180.117,84.654 179.380,86.304 178.175 C 87.559 177.259,90.132 176.851,97.749 176.358 C 101.257 176.131,105.225 175.775,106.567 175.568 C 110.784 174.915,114.555 174.525,116.856 174.504 C 118.403 174.490,119.293 174.289,119.787 173.843 C 121.590 172.210,153.446 172.201,155.248 173.832 C 155.738 174.275,157.115 174.595,159.672 174.860 C 161.714 175.072,164.404 175.406,165.651 175.603 C 166.897 175.800,170.619 176.141,173.921 176.362 C 181.164 176.845,183.591 177.245,184.921 178.172 C 186.786 179.472,189.648 180.140,195.685 180.682 C 202.161 181.265,203.563 181.554,205.158 182.637 C 207.069 183.935,208.421 184.308,213.077 184.824 C 217.205 185.282,218.047 185.506,220.787 186.869 C 223.418 188.179,224.404 188.455,227.598 188.776 C 232.197 189.240,233.650 189.614,236.362 191.036 C 238.653 192.237,242.167 192.982,248.239 193.556 C 251.258 193.841,252.473 194.145,254.311 195.072 C 257.585 196.725,258.982 196.981,266.945 197.388 C 273.304 197.713,274.246 197.848,276.024 198.689 C 279.639 200.399,296.409 200.378,299.781 198.660 C 300.492 198.297,302.947 197.789,305.290 197.518 C 310.010 196.973,311.469 196.487,313.354 194.832 C 314.065 194.208,315.349 193.508,316.207 193.277 C 318.983 192.529,325.631 186.197,326.942 183.051 C 327.258 182.294,327.866 181.486,328.295 181.257 C 329.498 180.613,330.193 178.891,330.611 175.514 C 330.821 173.812,331.365 171.660,331.819 170.732 C 333.032 168.253,333.046 159.471,331.842 156.660 C 331.400 155.629,330.836 153.563,330.589 152.071 C 330.304 150.347,329.812 148.910,329.240 148.131 C 328.744 147.456,327.659 145.905,326.830 144.683 C 325.193 142.273,320.020 136.961,319.310 136.961 C 319.069 136.961,318.005 136.181,316.946 135.229 C 314.734 133.240,314.126 132.962,310.440 132.250 C 308.959 131.964,306.712 131.188,305.447 130.525 C 301.542 128.478,294.991 128.510,291.848 130.591 C 290.671 131.371,289.396 131.804,287.473 132.076 C 284.288 132.528,282.873 133.179,281.737 134.715 C 281.282 135.331,280.646 135.836,280.323 135.837 C 277.745 135.844,269.464 145.029,269.427 147.923 C 269.422 148.277,268.937 149.121,268.348 149.799 C 266.657 151.746,265.431 156.270,265.298 161.052 C 265.294 161.198,264.349 162.295,263.198 163.491 L 261.105 165.666 256.842 165.637 C 251.646 165.602,251.771 165.695,250.662 160.997 C 249.792 157.314,249.787 157.178,250.382 153.949 C 250.716 152.138,251.094 149.559,251.224 148.218 C 251.527 145.070,251.997 143.599,252.975 142.728 C 254.010 141.808,255.909 137.795,255.910 136.529 C 255.910 135.793,256.246 135.335,257.200 134.773 C 257.910 134.354,258.765 133.480,259.101 132.830 C 259.800 131.478,264.683 126.430,265.944 125.756 C 266.406 125.508,267.051 124.790,267.377 124.159 C 267.780 123.381,268.611 122.729,269.965 122.130 C 271.063 121.645,272.314 120.751,272.746 120.145 C 273.294 119.375,274.071 118.908,275.321 118.598 C 279.604 117.534,281.176 116.941,282.296 115.969 C 284.393 114.148,284.852 114.099,299.073 114.182 L 312.404 114.259 315.020 115.814 M120.075 226.878 C 118.148 227.011,111.159 227.929,105.629 228.777 C 103.565 229.093,100.525 229.420,98.874 229.504 C 93.261 229.790,85.823 231.062,81.641 232.451 C 80.181 232.936,77.636 233.527,75.985 233.765 C 70.648 234.534,69.036 234.941,66.932 236.047 C 65.659 236.717,63.543 237.364,61.420 237.732 C 55.509 238.757,49.850 241.013,47.219 243.394 C 44.247 246.084,44.246 253.943,47.216 257.522 C 49.718 260.537,60.412 259.884,67.550 256.281 C 69.616 255.238,71.207 254.856,77.107 253.983 C 78.549 253.769,81.179 253.028,82.951 252.336 C 86.092 251.109,88.076 250.739,98.124 249.512 C 100.188 249.260,102.889 248.752,104.128 248.382 C 113.480 245.594,156.030 245.690,170.169 248.531 C 173.677 249.236,178.068 250.020,179.925 250.275 C 183.984 250.830,185.517 251.249,187.202 252.267 C 187.902 252.690,190.178 253.510,192.260 254.090 C 194.341 254.671,196.483 255.470,197.019 255.866 C 197.555 256.262,199.331 257.260,200.967 258.083 C 202.602 258.906,204.267 259.941,204.666 260.383 C 205.065 260.826,205.994 261.545,206.730 261.983 C 208.687 263.146,211.872 266.302,213.477 268.668 C 214.247 269.803,215.312 271.363,215.843 272.134 C 216.564 273.181,216.872 274.228,217.060 276.262 C 217.199 277.761,217.487 279.550,217.702 280.239 C 217.972 281.109,217.969 281.967,217.693 283.053 C 217.474 283.912,217.209 285.544,217.105 286.679 C 216.597 292.207,211.168 299.591,206.637 300.918 C 205.773 301.171,204.360 301.786,203.498 302.284 C 200.394 304.077,191.471 303.396,186.746 301.006 C 184.174 299.705,180.128 295.594,179.150 293.288 C 178.791 292.439,177.863 290.310,177.089 288.555 C 175.541 285.044,175.381 284.558,175.056 282.365 C 174.447 278.254,173.576 276.950,170.498 275.540 C 159.889 270.684,152.758 279.126,156.967 291.557 C 157.701 293.724,158.417 296.088,158.558 296.811 C 158.853 298.313,159.987 300.690,161.064 302.064 C 161.469 302.580,162.264 304.015,162.833 305.253 C 164.113 308.043,171.490 315.788,174.109 317.092 C 175.038 317.554,176.314 318.325,176.945 318.806 C 178.648 320.102,182.468 321.418,186.492 322.096 C 188.452 322.425,190.980 322.950,192.108 323.261 C 194.914 324.035,198.329 323.971,201.180 323.091 C 202.492 322.686,205.169 322.107,207.129 321.804 C 218.184 320.097,229.488 311.010,233.576 300.544 C 234.257 298.800,235.298 296.276,235.888 294.934 L 236.961 292.495 236.961 281.568 L 236.961 270.641 235.366 267.496 C 234.489 265.767,233.767 264.099,233.763 263.789 C 233.716 260.623,225.492 250.579,219.298 246.124 C 214.196 242.454,207.662 238.700,205.532 238.215 C 204.756 238.038,202.561 237.137,200.654 236.212 C 198.006 234.928,196.209 234.356,193.058 233.795 C 190.788 233.391,187.664 232.558,186.116 231.944 C 182.410 230.474,177.810 229.750,162.852 228.279 C 161.030 228.099,159.894 227.872,157.037 227.114 C 156.225 226.898,122.862 226.685,120.075 226.878 M158.282 229.624 C 158.965 229.820,162.679 230.164,166.535 230.387 C 176.592 230.971,180.836 231.447,182.150 232.138 C 186.127 234.228,186.692 234.379,193.705 235.221 C 196.113 235.510,196.907 235.790,198.396 236.874 C 199.952 238.008,203.915 239.400,205.585 239.400 C 205.845 239.400,206.847 240.060,207.813 240.866 C 209.695 242.438,211.375 243.256,213.565 243.666 C 214.525 243.846,215.243 244.326,215.960 245.266 C 216.524 246.004,217.564 246.851,218.273 247.147 C 219.916 247.834,227.271 255.184,228.328 257.197 C 228.770 258.037,229.659 259.062,230.305 259.475 C 231.256 260.083,231.559 260.617,231.898 262.289 C 232.704 266.256,233.390 268.182,234.486 269.562 C 235.926 271.373,236.120 273.269,235.953 283.865 L 235.823 292.120 234.426 294.342 C 233.472 295.861,232.827 297.523,232.388 299.595 C 231.866 302.060,231.523 302.837,230.558 303.752 C 229.904 304.371,229.175 305.253,228.936 305.712 C 228.081 307.356,224.661 311.146,222.872 312.431 C 221.870 313.151,220.950 314.054,220.828 314.438 C 220.693 314.864,219.674 315.496,218.218 316.059 C 216.903 316.567,215.180 317.497,214.387 318.125 C 212.584 319.553,211.046 319.959,205.633 320.434 C 203.267 320.641,200.524 321.101,199.537 321.456 C 197.811 322.077,197.570 322.071,193.149 321.290 C 190.623 320.844,187.038 320.364,185.183 320.225 C 180.838 319.898,180.010 319.641,178.730 318.215 C 178.074 317.486,176.748 316.709,175.235 316.167 C 173.438 315.525,172.664 315.030,172.297 314.289 C 172.023 313.735,171.103 312.779,170.253 312.163 C 169.403 311.547,168.358 310.421,167.931 309.660 C 167.505 308.900,166.575 307.886,165.866 307.409 C 164.899 306.757,164.421 306.036,163.953 304.522 C 163.263 302.292,161.867 299.812,161.301 299.812 C 159.668 299.812,157.448 284.146,158.510 280.121 C 159.383 276.818,159.970 276.387,163.821 276.227 C 170.919 275.932,173.569 277.809,173.979 283.424 C 174.228 286.847,175.009 289.338,176.174 290.433 C 176.678 290.906,177.349 292.186,177.666 293.276 C 178.273 295.364,179.825 297.561,180.693 297.561 C 180.975 297.561,181.646 298.311,182.184 299.228 C 182.877 300.411,183.540 301.020,184.467 301.326 C 185.186 301.564,186.540 302.343,187.477 303.057 C 191.341 306.007,201.170 306.288,204.581 303.547 C 205.405 302.885,206.805 302.124,207.692 301.858 C 210.623 300.975,211.570 300.222,214.195 296.683 C 217.636 292.044,217.598 292.131,218.197 287.564 C 218.516 285.136,218.945 283.346,219.303 282.951 C 220.030 282.147,220.038 281.629,219.338 280.561 C 219.036 280.100,218.526 277.973,218.204 275.835 C 217.673 272.298,216.789 269.794,216.071 269.794 C 215.918 269.794,215.124 268.654,214.307 267.261 C 212.596 264.345,210.986 262.704,208.728 261.573 C 207.853 261.135,206.608 260.195,205.961 259.484 C 205.255 258.708,204.031 257.940,202.904 257.566 C 201.870 257.222,200.411 256.388,199.662 255.711 C 198.305 254.485,196.306 253.749,192.056 252.911 C 190.500 252.605,189.768 252.248,189.333 251.584 C 188.629 250.510,186.024 249.697,182.176 249.351 C 177.612 248.941,175.218 248.391,173.037 247.252 C 169.798 245.560,165.114 245.352,133.208 245.480 L 105.629 245.591 100.375 247.177 C 96.244 248.423,93.920 248.883,89.493 249.326 C 82.980 249.979,81.969 250.226,79.723 251.714 C 78.365 252.613,77.513 252.855,74.963 253.063 C 70.317 253.443,67.635 254.042,66.191 255.022 C 62.932 257.233,59.300 257.986,53.201 257.713 C 47.443 257.455,46.911 256.871,46.906 250.803 C 46.902 244.219,46.954 244.120,51.061 242.993 C 52.212 242.677,53.961 241.802,54.948 241.048 C 56.602 239.785,57.066 239.638,60.852 239.172 C 66.128 238.522,67.413 238.161,69.251 236.809 C 71.068 235.473,71.404 235.391,77.111 234.893 C 82.249 234.444,87.101 233.395,89.351 232.247 C 90.656 231.582,92.176 231.379,99.199 230.935 C 108.512 230.346,116.430 229.661,116.666 229.425 C 117.000 229.091,157.094 229.283,158.282 229.624 " stroke="none" fill="#c4c4c4" fill-rule="evenodd"></path><path id="path2" d="M187.805 57.394 C 182.988 58.205,181.573 58.670,179.614 60.086 C 178.824 60.657,177.563 61.327,176.811 61.575 C 176.060 61.823,174.640 62.663,173.656 63.441 C 172.671 64.219,170.972 65.367,169.880 65.992 C 167.328 67.452,163.055 72.279,161.641 75.300 C 161.045 76.574,160.159 77.876,159.674 78.194 C 158.222 79.145,157.840 81.081,157.812 87.617 C 157.781 94.772,157.905 95.105,161.379 97.217 C 166.477 100.317,169.011 100.871,170.405 99.191 C 170.662 98.881,171.727 98.203,172.772 97.684 C 174.961 96.596,179.205 92.357,180.012 90.451 C 180.577 89.118,185.406 84.053,186.112 84.053 C 186.330 84.053,187.249 83.370,188.154 82.535 C 189.060 81.701,190.364 80.856,191.052 80.659 C 192.916 80.124,203.671 80.237,205.268 80.808 C 208.017 81.791,215.096 88.176,215.729 90.244 C 215.919 90.863,216.518 92.979,217.061 94.946 L 218.047 98.522 216.874 104.500 C 216.229 107.788,215.550 110.760,215.366 111.104 C 214.542 112.644,210.424 116.255,209.238 116.477 C 208.559 116.605,207.437 117.214,206.746 117.831 C 205.152 119.255,203.871 119.603,198.311 120.124 C 189.499 120.949,166.673 119.662,163.227 118.146 C 156.580 115.220,98.854 115.416,88.891 118.398 C 87.160 118.916,83.002 119.676,79.651 120.086 C 71.904 121.033,70.204 121.397,66.987 122.793 C 65.330 123.512,63.266 124.053,61.367 124.266 C 57.301 124.721,54.218 125.557,51.970 126.815 C 50.938 127.393,49.471 128.064,48.710 128.307 C 46.712 128.944,45.672 129.889,43.693 132.867 L 41.937 135.508 42.102 138.767 C 42.473 146.087,47.425 150.665,54.700 150.411 C 58.811 150.268,58.737 150.289,62.934 148.064 C 63.598 147.712,65.624 147.268,67.437 147.078 C 71.039 146.700,75.472 145.580,77.618 144.508 C 79.349 143.642,80.537 143.420,85.905 142.954 C 92.380 142.393,98.144 141.483,100.516 140.646 C 104.290 139.315,124.745 138.091,132.276 138.745 C 140.443 139.454,146.710 140.315,149.309 141.084 C 156.098 143.094,197.654 143.877,209.363 142.216 C 213.327 141.654,213.884 141.489,215.760 140.318 C 216.689 139.738,218.404 138.908,219.572 138.473 C 220.801 138.016,221.948 137.297,222.295 136.769 C 222.624 136.266,223.863 135.397,225.049 134.837 C 228.143 133.376,234.537 126.314,235.105 123.730 C 235.231 123.161,235.656 122.522,236.052 122.311 C 237.071 121.766,238.080 119.586,238.808 116.360 C 239.152 114.832,239.891 112.806,240.449 111.857 L 241.463 110.131 241.463 100.000 L 241.463 89.869 240.459 88.180 C 239.583 86.707,239.040 85.032,238.126 80.986 C 238.001 80.434,237.465 79.467,236.935 78.837 C 236.405 78.207,235.399 76.548,234.700 75.150 C 232.548 70.846,224.606 63.331,220.399 61.619 C 218.947 61.028,217.183 60.114,216.478 59.587 C 213.138 57.090,196.963 55.853,187.805 57.394 M202.814 58.172 C 211.212 59.053,212.065 59.240,215.385 60.926 C 217.139 61.817,219.022 62.656,219.570 62.791 C 220.783 63.089,223.645 65.313,227.356 68.841 C 231.705 72.974,232.148 73.506,233.438 76.138 C 234.105 77.498,235.120 79.203,235.693 79.925 C 236.694 81.186,237.202 82.655,237.899 86.304 C 238.077 87.233,238.445 88.583,238.717 89.306 C 240.322 93.564,238.870 114.213,236.665 118.493 C 233.831 123.995,227.550 131.528,224.015 133.666 C 223.293 134.102,221.985 135.033,221.108 135.734 C 218.695 137.665,210.732 140.656,206.199 141.335 C 196.734 142.753,160.637 141.350,150.657 139.176 C 141.195 137.114,101.587 137.772,93.305 140.127 C 91.621 140.606,89.146 141.112,87.805 141.251 C 78.575 142.211,79.410 142.052,72.983 144.068 C 71.126 144.651,68.255 145.413,66.604 145.762 C 64.953 146.112,61.829 146.979,59.662 147.689 C 51.613 150.327,46.215 148.055,44.452 141.286 C 42.818 135.014,45.679 130.237,52.012 128.661 C 53.021 128.410,54.968 127.730,56.338 127.150 C 57.709 126.571,59.397 126.004,60.090 125.891 C 65.101 125.074,66.805 124.692,71.295 123.379 C 74.926 122.316,78.379 121.637,83.490 120.980 C 87.411 120.476,91.970 119.729,93.621 119.320 C 95.272 118.911,99.071 118.402,102.064 118.190 C 105.056 117.977,108.940 117.648,110.694 117.460 C 116.747 116.810,143.709 117.555,150.657 118.565 C 170.699 121.478,195.788 122.746,202.518 121.187 C 208.849 119.721,217.253 113.269,217.262 109.868 C 217.263 109.600,217.802 108.114,218.461 106.567 C 220.686 101.338,220.184 96.142,216.759 88.952 C 215.445 86.193,209.601 81.146,206.007 79.668 C 203.197 78.511,193.827 78.398,190.545 79.481 C 187.615 80.448,180.685 86.342,179.307 89.039 C 175.292 96.902,167.055 99.626,161.065 95.070 C 157.973 92.718,157.668 82.878,160.590 79.742 C 160.977 79.327,161.873 77.959,162.581 76.703 C 165.019 72.376,168.858 68.155,171.686 66.693 C 172.313 66.368,173.660 65.414,174.678 64.573 C 175.697 63.731,177.376 62.795,178.415 62.490 C 179.452 62.186,180.891 61.536,181.614 61.047 C 183.595 59.705,186.275 58.930,190.423 58.502 C 192.482 58.290,194.241 58.042,194.332 57.951 C 194.626 57.656,198.973 57.770,202.814 58.172 M291.370 110.940 C 281.756 112.084,279.816 112.503,277.629 113.913 C 276.540 114.614,274.501 115.627,273.098 116.163 C 271.696 116.699,270.220 117.555,269.819 118.065 C 269.417 118.575,268.518 119.278,267.821 119.627 C 265.788 120.645,261.913 124.140,259.088 127.504 C 257.650 129.217,255.942 131.159,255.293 131.819 C 254.643 132.480,253.778 133.795,253.370 134.742 C 252.962 135.689,252.037 137.324,251.314 138.375 C 250.484 139.581,249.759 141.299,249.346 143.032 C 248.986 144.543,248.288 146.520,247.795 147.427 C 244.779 152.966,244.672 160.606,247.558 164.228 C 250.041 167.344,250.423 167.617,253.187 168.245 C 261.906 170.228,266.408 167.982,268.261 160.723 C 268.685 159.065,269.547 156.607,270.177 155.259 C 270.808 153.912,271.534 151.778,271.791 150.516 C 272.173 148.647,272.552 147.924,273.841 146.611 C 274.710 145.725,275.425 144.837,275.428 144.639 C 275.437 144.029,280.782 138.993,282.176 138.280 C 282.899 137.910,284.194 137.105,285.055 136.491 C 289.967 132.987,308.648 133.147,312.565 136.726 C 313.084 137.200,314.293 138.035,315.252 138.581 C 316.210 139.126,318.285 140.851,319.863 142.413 C 322.347 144.874,323.801 146.763,326.934 151.608 C 329.885 156.170,329.142 173.699,325.807 178.166 C 325.297 178.849,324.721 179.982,324.528 180.683 C 324.306 181.488,323.218 182.899,321.581 184.506 C 316.491 189.506,315.165 190.485,312.351 191.323 C 310.901 191.755,308.944 192.619,308.001 193.244 C 303.012 196.548,271.301 196.274,261.907 192.846 C 259.650 192.022,257.627 191.603,254.649 191.341 C 249.807 190.916,245.948 190.091,245.171 189.315 C 244.404 188.548,242.672 188.135,236.487 187.242 C 230.777 186.418,229.761 186.143,228.136 184.986 C 227.027 184.196,221.566 182.746,219.685 182.742 C 218.038 182.738,214.388 181.726,212.069 180.631 C 209.818 179.567,205.837 178.628,203.540 178.618 C 201.081 178.608,197.883 177.892,194.832 176.671 C 191.913 175.502,186.840 174.488,183.897 174.485 C 181.501 174.483,175.699 173.394,173.734 172.577 C 166.376 169.519,101.551 169.240,98.518 172.254 C 98.322 172.448,97.855 172.608,97.481 172.608 C 97.107 172.608,96.507 172.767,96.149 172.961 C 95.316 173.414,89.257 174.373,85.366 174.669 C 81.588 174.956,78.112 175.746,76.093 176.776 C 75.187 177.238,72.013 178.020,68.558 178.631 C 63.913 179.453,62.261 179.904,61.113 180.664 C 60.301 181.201,58.503 181.913,57.117 182.247 C 51.458 183.607,50.805 183.867,48.301 185.756 C 46.902 186.812,45.539 188.042,45.272 188.491 C 45.006 188.939,44.248 190.208,43.588 191.310 C 41.466 194.859,41.376 198.022,43.327 200.579 C 43.812 201.216,44.457 202.329,44.759 203.053 C 46.536 207.304,60.003 207.387,68.714 203.201 C 71.638 201.795,72.920 201.414,76.305 200.946 C 79.292 200.533,81.145 200.036,83.265 199.079 C 86.002 197.843,86.642 197.724,95.447 196.819 C 104.745 195.864,107.550 195.426,108.864 194.722 C 113.487 192.248,153.854 192.768,165.103 195.448 C 166.857 195.866,171.079 196.476,174.484 196.804 C 182.765 197.602,184.812 197.954,186.231 198.823 C 187.866 199.823,189.549 200.229,195.884 201.148 C 199.317 201.646,202.141 202.283,203.565 202.881 C 207.060 204.348,209.990 205.106,214.071 205.596 C 217.144 205.965,218.374 206.318,220.862 207.544 C 223.451 208.820,224.450 209.095,227.616 209.401 C 232.338 209.857,234.094 210.281,236.722 211.602 C 239.160 212.827,239.648 212.946,245.216 213.665 C 247.781 213.996,250.834 214.711,253.283 215.555 C 260.633 218.086,273.591 219.049,294.747 218.639 C 309.025 218.362,313.912 217.719,316.395 215.793 C 316.871 215.423,318.883 214.583,320.866 213.926 C 323.212 213.149,324.786 212.391,325.369 211.756 C 325.863 211.219,327.111 210.394,328.143 209.922 C 332.571 207.894,341.162 200.157,343.013 196.528 C 343.434 195.702,344.191 194.645,344.695 194.178 C 345.199 193.711,346.177 192.166,346.869 190.745 C 347.560 189.323,348.560 187.522,349.089 186.741 C 350.314 184.936,351.100 181.348,351.772 174.484 C 352.204 170.065,352.483 168.699,353.257 167.209 C 354.297 165.206,354.260 164.452,352.997 161.933 C 352.461 160.865,352.109 158.875,351.735 154.804 C 351.087 147.740,350.326 144.162,349.083 142.330 C 348.550 141.544,347.547 139.659,346.855 138.139 C 346.162 136.620,345.089 134.800,344.470 134.094 C 343.851 133.389,343.007 132.151,342.595 131.343 C 342.183 130.536,341.211 129.400,340.435 128.821 C 339.659 128.241,338.960 127.617,338.882 127.433 C 338.553 126.662,336.085 124.203,335.641 124.203 C 335.376 124.203,334.806 123.605,334.375 122.874 C 333.943 122.143,333.062 121.257,332.416 120.904 C 331.770 120.551,330.375 119.571,329.317 118.725 C 326.930 116.818,325.539 116.089,323.627 115.742 C 322.808 115.593,321.379 114.921,320.450 114.247 C 316.860 111.644,300.807 109.818,291.370 110.940 M311.257 112.939 C 314.036 113.263,315.332 113.659,318.574 115.178 C 320.741 116.194,322.944 117.114,323.469 117.224 C 326.872 117.936,339.196 128.457,341.704 132.791 C 342.255 133.743,343.358 135.350,344.156 136.362 C 344.953 137.375,345.691 138.641,345.795 139.177 C 345.899 139.712,346.663 141.501,347.492 143.152 C 349.405 146.960,349.710 148.015,350.098 152.158 C 350.723 158.826,351.215 162.638,351.600 163.807 C 351.878 164.647,351.872 165.313,351.579 166.081 C 351.352 166.678,351.014 168.687,350.828 170.544 C 349.804 180.744,349.506 182.239,347.976 184.857 C 347.476 185.712,346.661 187.450,346.163 188.719 C 345.666 189.988,344.610 191.821,343.817 192.793 C 343.024 193.764,341.910 195.283,341.341 196.169 C 339.767 198.620,335.269 203.184,332.892 204.742 C 331.724 205.507,330.191 206.632,329.483 207.241 C 328.776 207.851,327.594 208.600,326.857 208.906 C 326.119 209.212,324.756 210.012,323.827 210.684 C 322.899 211.355,320.113 212.620,317.636 213.494 C 315.159 214.368,312.205 215.422,311.069 215.836 C 306.300 217.577,271.478 218.211,266.792 216.642 C 266.482 216.539,265.131 216.364,263.790 216.254 C 262.448 216.143,259.831 215.575,257.974 214.990 C 253.828 213.684,249.849 212.758,248.387 212.758 C 246.901 212.758,244.437 212.154,239.962 210.692 C 234.774 208.996,233.557 208.699,230.856 208.467 C 229.477 208.349,225.950 207.410,222.325 206.196 C 218.926 205.059,215.522 204.128,214.760 204.128 C 213.316 204.128,212.211 203.852,208.443 202.552 C 205.058 201.384,201.256 200.411,198.514 200.011 C 193.517 199.283,191.874 198.917,189.446 197.989 C 187.141 197.109,184.197 196.544,176.548 195.514 C 174.897 195.292,171.716 194.696,169.480 194.190 C 161.903 192.476,158.883 192.310,135.272 192.309 C 111.374 192.308,111.386 192.307,98.874 194.522 C 94.953 195.216,90.305 195.972,88.546 196.202 C 84.735 196.700,81.419 197.522,79.362 198.479 C 78.537 198.863,77.355 199.261,76.735 199.364 C 72.902 199.999,71.193 200.423,68.856 201.318 C 57.701 205.591,52.110 206.229,47.280 203.781 C 46.451 203.360,44.192 198.560,43.993 196.795 C 43.667 193.899,46.553 188.461,49.146 187.086 C 49.667 186.809,51.023 186.073,52.158 185.449 C 53.293 184.825,54.981 184.196,55.910 184.052 C 56.839 183.907,59.287 183.199,61.351 182.478 C 67.940 180.176,69.446 179.740,71.613 179.506 C 72.779 179.380,76.099 178.624,78.990 177.826 C 85.231 176.103,86.742 175.802,91.932 175.241 C 94.099 175.007,97.477 174.488,99.437 174.089 C 101.398 173.690,104.437 173.104,106.191 172.787 C 111.312 171.863,126.400 171.384,143.340 171.609 C 159.716 171.826,162.311 172.043,170.919 173.912 C 173.189 174.405,176.954 175.003,179.284 175.241 C 183.584 175.680,185.662 176.118,193.058 178.142 C 195.328 178.763,198.368 179.365,199.812 179.480 C 202.750 179.712,205.320 180.328,210.381 182.011 C 213.357 183.001,218.580 184.269,221.813 184.786 C 222.356 184.873,223.791 185.356,225.003 185.861 C 227.968 187.095,231.094 187.966,233.280 188.165 C 234.272 188.256,236.013 188.607,237.148 188.947 C 242.992 190.693,247.811 191.825,250.844 192.165 C 252.748 192.378,255.931 193.112,258.140 193.846 C 265.100 196.161,273.234 197.003,288.608 197.000 C 302.237 196.998,304.532 196.690,309.931 194.142 C 311.885 193.220,313.766 192.423,314.112 192.370 C 317.744 191.816,327.402 180.717,329.131 175.111 C 330.078 172.042,330.168 156.796,329.259 153.309 C 328.144 149.028,320.536 139.502,316.624 137.488 C 315.942 137.137,314.753 136.312,313.982 135.654 C 312.165 134.104,309.307 133.260,302.282 132.198 C 298.433 131.617,297.991 131.619,294.965 132.233 C 286.853 133.879,285.169 134.385,283.469 135.683 C 282.548 136.386,281.620 136.961,281.406 136.961 C 280.049 136.961,271.229 146.749,270.756 148.780 C 270.611 149.400,269.852 151.426,269.068 153.283 C 267.587 156.791,266.575 160.326,266.738 161.424 C 267.442 166.183,254.344 169.656,250.685 165.680 C 247.918 162.675,246.373 157.160,247.476 154.221 C 247.824 153.293,248.584 150.844,249.164 148.780 C 250.928 142.503,251.374 141.231,252.169 140.221 C 252.589 139.687,253.365 138.273,253.893 137.079 C 256.454 131.287,269.036 119.321,275.226 116.789 C 276.460 116.285,278.402 115.407,279.542 114.838 C 284.509 112.360,298.888 111.499,311.257 112.939 M108.443 225.523 C 106.689 225.672,104.406 226.136,103.370 226.554 C 101.149 227.449,95.499 228.374,90.244 228.703 C 83.653 229.116,81.038 229.587,78.515 230.816 C 76.805 231.649,74.651 232.230,70.840 232.885 C 67.077 233.533,64.682 234.175,62.575 235.101 C 60.864 235.854,58.073 236.678,55.984 237.048 C 53.191 237.543,51.948 237.968,50.558 238.903 C 49.567 239.570,48.068 240.503,47.227 240.975 C 46.192 241.557,45.411 242.401,44.809 243.590 C 44.320 244.555,43.493 245.973,42.973 246.740 C 41.630 248.719,41.624 252.210,42.960 254.179 C 43.474 254.936,44.169 256.100,44.505 256.765 C 45.386 258.509,46.530 259.650,48.025 260.276 C 48.744 260.577,49.721 261.188,50.195 261.633 C 51.690 263.038,55.363 263.030,57.854 261.617 C 59.151 260.882,61.187 260.222,63.667 259.733 C 65.767 259.319,68.807 258.388,70.422 257.664 C 72.667 256.658,74.595 256.158,78.612 255.540 C 82.012 255.017,85.387 254.207,88.180 253.244 C 92.698 251.686,93.358 251.590,105.994 250.648 C 110.059 250.345,112.186 250.006,113.686 249.423 C 116.843 248.197,155.099 247.930,158.130 249.113 C 160.678 250.108,161.164 250.183,169.418 250.854 C 178.533 251.594,180.943 252.013,183.520 253.306 C 185.586 254.342,187.988 255.060,192.224 255.908 C 193.807 256.225,194.828 256.720,196.006 257.740 C 197.111 258.696,198.309 259.302,199.805 259.660 C 201.400 260.043,202.354 260.549,203.340 261.535 C 204.083 262.278,205.419 263.373,206.310 263.969 C 208.406 265.371,211.599 268.872,212.291 270.528 C 212.589 271.241,213.449 272.390,214.203 273.080 L 215.572 274.336 215.570 280.039 C 215.567 286.450,215.111 288.910,213.520 291.107 C 212.946 291.899,212.353 292.936,212.202 293.412 C 209.922 300.595,188.134 303.527,184.542 297.135 C 184.082 296.317,183.154 295.307,182.480 294.890 C 181.465 294.263,181.120 293.671,180.470 291.438 C 180.038 289.956,179.039 287.054,178.250 284.991 C 177.461 282.927,176.550 280.310,176.226 279.174 C 174.794 274.168,168.698 270.712,162.635 271.470 C 154.617 272.471,150.553 286.002,155.588 294.932 C 156.112 295.862,156.858 297.636,157.244 298.874 C 157.630 300.113,158.568 302.139,159.328 303.377 C 160.088 304.615,161.139 306.388,161.664 307.317 C 162.189 308.246,163.304 309.712,164.142 310.576 C 164.980 311.439,166.042 312.537,166.501 313.015 C 169.215 315.839,171.863 318.199,172.317 318.199 C 172.605 318.199,173.726 318.955,174.808 319.878 C 175.890 320.802,177.442 321.731,178.256 321.942 C 179.071 322.154,180.445 322.510,181.310 322.735 C 182.174 322.960,183.652 323.545,184.593 324.034 C 189.690 326.685,204.298 326.718,208.184 324.087 C 208.985 323.544,210.898 322.868,212.723 322.483 C 215.049 321.992,216.298 321.496,217.478 320.596 C 218.358 319.924,220.018 318.930,221.166 318.387 C 225.292 316.435,232.496 308.341,234.426 303.489 C 235.095 301.805,236.005 300.043,236.447 299.573 C 238.021 297.897,238.351 295.447,238.539 284.053 C 238.753 271.067,238.480 268.394,236.572 264.742 C 235.813 263.289,234.872 261.246,234.481 260.200 C 234.089 259.155,233.247 257.804,232.609 257.199 C 231.972 256.593,231.049 255.311,230.558 254.351 C 229.412 252.105,224.004 246.603,221.576 245.214 C 220.544 244.623,218.992 243.501,218.127 242.721 C 217.262 241.940,216.080 241.187,215.501 241.048 C 214.921 240.908,213.666 240.229,212.712 239.537 C 210.652 238.045,208.008 236.793,206.890 236.781 C 206.449 236.777,205.205 236.166,204.127 235.424 C 202.569 234.352,201.076 233.807,196.871 232.776 C 193.959 232.062,191.066 231.165,190.441 230.782 C 188.794 229.774,186.937 229.362,181.163 228.723 C 175.847 228.135,174.969 227.964,170.544 226.650 C 165.980 225.294,120.760 224.474,108.443 225.523 M159.475 226.982 C 162.344 227.533,176.777 229.568,179.737 229.839 C 181.079 229.962,184.203 230.741,186.679 231.570 C 190.584 232.876,192.269 233.315,197.373 234.353 C 198.856 234.655,201.256 235.659,201.922 236.256 C 202.256 236.556,203.997 237.301,205.790 237.911 C 207.582 238.520,209.588 239.428,210.247 239.927 C 210.906 240.427,212.396 241.254,213.558 241.766 C 214.721 242.278,216.627 243.475,217.794 244.425 C 218.962 245.376,220.073 246.154,220.263 246.154 C 220.843 246.154,227.573 252.773,228.739 254.490 C 229.340 255.374,230.529 256.967,231.382 258.029 C 232.305 259.177,233.280 261.002,233.788 262.532 C 234.258 263.946,235.206 266.130,235.895 267.386 L 237.148 269.668 237.148 281.591 L 237.148 293.514 235.416 297.508 C 232.463 304.317,232.210 304.795,229.940 307.880 C 227.357 311.389,222.376 315.997,219.700 317.354 C 218.668 317.877,217.317 318.689,216.698 319.159 C 214.927 320.502,211.122 321.701,204.878 322.885 C 203.537 323.139,201.522 323.624,200.401 323.962 C 197.316 324.894,195.082 324.722,188.535 323.048 C 185.244 322.207,181.991 321.444,181.306 321.353 C 176.911 320.768,165.231 310.846,162.168 305.096 C 161.483 303.809,160.427 301.976,159.823 301.023 C 159.219 300.070,158.724 298.988,158.724 298.618 C 158.724 298.249,158.017 296.129,157.153 293.908 L 155.582 289.869 155.558 284.554 L 155.535 279.239 156.660 277.651 C 159.652 273.431,165.430 272.451,170.908 275.235 L 173.862 276.735 174.730 279.174 C 175.207 280.516,175.600 282.234,175.604 282.993 C 175.607 283.824,176.120 285.352,176.892 286.833 C 177.597 288.185,178.380 289.929,178.631 290.706 C 180.058 295.119,184.818 300.278,188.555 301.465 C 192.166 302.612,201.257 302.770,203.312 301.722 C 204.157 301.291,205.087 300.938,205.379 300.938 C 206.311 300.938,209.165 299.140,210.895 297.464 C 216.747 291.794,218.342 284.896,216.303 274.087 C 216.222 273.662,215.736 272.733,215.222 272.023 C 214.708 271.313,213.672 269.803,212.920 268.668 C 211.150 265.997,209.958 264.731,207.880 263.313 C 206.951 262.679,205.561 261.602,204.790 260.918 C 204.020 260.235,202.331 259.195,201.038 258.607 C 199.745 258.019,197.570 256.859,196.205 256.028 C 194.686 255.104,193.086 254.446,192.078 254.331 C 191.172 254.228,189.334 253.682,187.992 253.118 C 183.310 251.149,180.406 250.281,178.504 250.281 C 177.453 250.281,175.654 250.113,174.507 249.906 C 173.359 249.700,169.972 249.082,166.979 248.532 C 155.965 246.510,111.027 246.842,104.342 248.996 C 103.428 249.290,101.750 249.531,100.612 249.531 C 99.475 249.531,97.605 249.692,96.458 249.888 C 95.310 250.085,92.767 250.520,90.807 250.855 C 88.846 251.190,85.722 251.945,83.865 252.533 C 79.763 253.832,77.280 254.409,75.792 254.409 C 74.722 254.409,71.922 255.272,64.916 257.762 C 63.161 258.386,61.373 258.899,60.941 258.904 C 60.509 258.908,59.173 259.250,57.974 259.662 C 51.319 261.952,45.150 258.310,44.053 251.445 C 43.610 248.679,46.510 242.430,48.524 241.808 C 48.975 241.669,50.441 240.908,51.782 240.116 C 53.124 239.325,54.812 238.598,55.535 238.502 C 59.520 237.968,64.296 236.728,65.830 235.829 C 67.044 235.117,68.810 234.610,71.842 234.102 C 74.203 233.706,77.536 232.979,79.249 232.486 C 83.961 231.130,89.151 230.091,92.495 229.835 C 94.146 229.708,95.750 229.534,96.060 229.447 C 96.370 229.361,98.442 229.120,100.665 228.913 C 102.888 228.705,105.083 228.331,105.543 228.081 C 106.401 227.614,110.551 227.178,119.137 226.650 C 125.888 226.235,156.915 226.491,159.475 226.982 " stroke="none" fill="#d4d4d4" fill-rule="evenodd"></path><path id="path3" d="M193.433 58.161 C 192.770 58.330,194.619 58.447,197.936 58.445 C 201.917 58.443,203.070 58.355,201.876 58.142 C 199.774 57.768,194.936 57.779,193.433 58.161 M187.430 58.792 C 185.326 59.263,182.785 60.247,181.614 61.044 C 180.891 61.535,179.452 62.186,178.415 62.490 C 177.376 62.795,175.697 63.731,174.678 64.573 C 173.660 65.414,172.313 66.368,171.686 66.693 C 168.858 68.155,165.019 72.376,162.581 76.703 C 161.873 77.959,160.977 79.327,160.590 79.742 C 159.633 80.770,158.718 83.052,158.754 84.322 C 158.788 85.521,158.941 85.200,159.267 83.244 C 159.394 82.480,160.136 81.068,160.942 80.055 C 161.738 79.055,162.637 77.645,162.939 76.923 C 164.000 74.392,169.445 68.403,171.780 67.199 C 172.545 66.804,173.508 66.167,173.921 65.782 C 175.384 64.419,176.955 63.494,179.550 62.469 C 180.994 61.898,182.623 61.119,183.169 60.737 C 184.061 60.112,186.976 59.218,189.493 58.796 C 190.295 58.662,190.268 58.638,189.306 58.631 C 188.687 58.627,187.842 58.699,187.430 58.792 M206.567 58.929 C 207.598 59.090,208.949 59.216,209.568 59.210 L 210.694 59.198 209.568 58.912 C 208.949 58.754,207.598 58.628,206.567 58.631 L 204.690 58.637 206.567 58.929 M211.411 59.608 C 211.557 59.844,211.894 60.038,212.161 60.038 C 212.427 60.038,213.759 60.629,215.120 61.351 C 218.504 63.147,219.212 63.002,215.947 61.182 C 213.140 59.617,210.946 58.855,211.411 59.608 M219.512 63.142 C 222.492 64.498,230.964 72.765,232.974 76.278 C 233.649 77.458,234.265 78.424,234.342 78.424 C 234.925 78.424,231.043 71.679,230.451 71.663 C 230.317 71.660,228.624 70.142,226.689 68.291 C 222.997 64.758,220.162 62.647,219.166 62.690 C 218.804 62.705,218.938 62.881,219.512 63.142 M194.184 78.424 C 193.258 78.590,194.768 78.695,198.124 78.699 C 201.987 78.703,203.075 78.618,201.876 78.405 C 199.852 78.045,196.253 78.054,194.184 78.424 M190.056 79.174 L 189.306 79.497 190.056 79.518 C 190.469 79.529,191.060 79.375,191.370 79.174 C 192.116 78.692,191.178 78.692,190.056 79.174 M206.007 79.641 C 209.463 81.107,214.366 85.240,216.581 88.555 C 217.185 89.459,217.200 89.462,217.000 88.640 C 216.392 86.134,208.445 79.623,205.253 79.015 C 204.217 78.817,204.376 78.950,206.007 79.641 M235.014 79.550 C 235.375 80.066,235.998 81.163,236.401 81.989 C 236.803 82.814,237.135 83.262,237.140 82.984 C 237.154 82.146,236.023 80.039,235.164 79.302 L 234.359 78.612 235.014 79.550 M187.394 80.714 C 187.002 81.148,185.980 81.914,185.125 82.415 C 183.222 83.530,180.585 86.302,178.857 89.002 C 173.663 97.123,166.044 99.257,160.694 94.089 C 160.023 93.441,159.475 93.101,159.475 93.332 C 159.475 94.723,165.028 97.561,167.749 97.561 C 171.463 97.561,177.065 93.431,179.307 89.039 C 180.047 87.591,182.731 84.909,186.645 81.707 C 187.844 80.727,188.663 79.925,188.467 79.925 C 188.270 79.925,187.787 80.280,187.394 80.714 M237.191 84.428 C 237.209 84.737,237.358 85.413,237.523 85.929 L 237.824 86.867 237.856 85.929 C 237.873 85.413,237.724 84.737,237.523 84.428 C 237.200 83.927,237.163 83.927,237.191 84.428 M238.126 88.180 C 239.797 94.659,237.913 117.100,235.480 119.700 C 234.997 120.216,234.152 121.539,233.601 122.641 C 232.364 125.114,226.550 131.562,224.411 132.833 C 223.542 133.349,221.973 134.485,220.923 135.357 C 219.799 136.292,218.207 137.178,217.047 137.515 C 214.232 138.333,207.564 141.074,208.369 141.082 C 209.773 141.095,219.511 137.013,221.093 135.747 C 221.978 135.039,223.293 134.102,224.015 133.666 C 227.550 131.528,233.831 123.995,236.665 118.493 C 239.010 113.941,240.319 92.969,238.522 88.743 C 238.171 87.917,237.992 87.664,238.126 88.180 M217.270 89.876 C 217.265 90.086,217.801 91.521,218.462 93.065 C 220.223 97.183,220.223 102.426,218.461 106.567 C 217.051 109.879,216.918 110.836,218.198 108.443 C 221.025 103.162,221.274 97.104,218.854 92.495 C 217.987 90.844,217.274 89.665,217.270 89.876 M216.014 112.289 C 214.064 115.587,208.145 119.740,203.752 120.893 C 202.411 121.245,201.651 121.540,202.064 121.548 C 206.765 121.647,215.396 115.754,216.998 111.351 C 217.404 110.236,217.000 110.621,216.014 112.289 M289.306 112.553 C 288.171 112.682,290.788 112.725,295.122 112.648 C 299.456 112.571,303.171 112.451,303.377 112.382 C 304.042 112.156,291.441 112.309,289.306 112.553 M306.285 112.839 C 306.853 112.925,307.781 112.925,308.349 112.839 C 308.917 112.753,308.452 112.683,307.317 112.683 C 306.182 112.683,305.718 112.753,306.285 112.839 M311.962 113.248 C 312.081 113.440,312.883 113.710,313.745 113.848 C 314.606 113.986,316.341 114.663,317.599 115.354 C 318.858 116.044,320.394 116.708,321.013 116.829 C 321.632 116.949,320.450 116.222,318.386 115.213 C 314.860 113.489,311.470 112.452,311.962 113.248 M279.737 114.709 C 278.705 115.247,276.764 116.143,275.422 116.699 C 269.060 119.340,256.510 131.178,253.938 136.966 C 253.435 138.098,252.575 139.681,252.028 140.484 C 250.674 142.469,250.759 143.079,252.126 141.191 C 253.430 139.391,254.588 137.147,254.914 135.789 C 255.199 134.598,266.188 123.145,268.639 121.484 C 269.584 120.844,270.871 119.878,271.501 119.337 C 272.130 118.796,274.072 117.789,275.816 117.099 C 279.732 115.550,283.171 113.634,281.895 113.714 C 281.740 113.723,280.769 114.171,279.737 114.709 M111.445 117.448 L 109.756 117.711 111.704 117.767 C 112.775 117.798,113.756 117.655,113.884 117.448 C 114.132 117.047,114.029 117.047,111.445 117.448 M116.417 117.332 C 116.778 117.426,117.369 117.426,117.730 117.332 C 118.091 117.237,117.795 117.160,117.073 117.160 C 116.351 117.160,116.055 117.237,116.417 117.332 M124.864 117.339 C 125.330 117.428,126.006 117.425,126.365 117.331 C 126.723 117.237,126.341 117.164,125.516 117.168 C 124.690 117.172,124.397 117.249,124.864 117.339 M325.436 118.749 C 326.810 119.670,328.656 120.790,329.539 121.238 C 330.422 121.685,333.038 123.970,335.352 126.316 C 339.536 130.558,341.530 132.179,338.439 128.825 C 334.134 124.155,328.718 119.777,324.627 117.662 C 322.562 116.593,322.900 117.048,325.436 118.749 M132.114 117.594 C 132.200 117.674,134.719 117.850,137.711 117.985 C 145.172 118.322,147.655 118.555,150.281 119.165 C 151.520 119.453,153.377 119.693,154.409 119.697 C 155.441 119.702,158.143 119.949,160.413 120.246 C 162.683 120.544,166.398 120.901,168.668 121.040 C 170.938 121.178,172.910 121.359,173.051 121.440 C 173.192 121.522,173.397 121.442,173.508 121.263 C 173.618 121.084,172.033 120.835,169.984 120.710 C 166.354 120.489,155.932 119.332,150.657 118.565 C 146.222 117.920,131.644 117.156,132.114 117.594 M104.409 118.097 C 105.183 118.178,106.449 118.178,107.223 118.097 C 107.997 118.016,107.364 117.950,105.816 117.950 C 104.268 117.950,103.635 118.016,104.409 118.097 M95.310 118.967 C 90.539 120.030,86.467 120.726,83.114 121.051 C 81.463 121.211,80.408 121.407,80.770 121.487 C 81.806 121.715,91.371 120.520,93.932 119.843 C 95.206 119.506,97.598 119.015,99.250 118.752 C 101.941 118.323,102.057 118.272,100.375 118.265 C 99.343 118.260,97.064 118.576,95.310 118.967 M175.132 121.472 C 175.798 121.554,176.980 121.556,177.759 121.475 C 178.538 121.393,177.992 121.326,176.548 121.324 C 175.103 121.322,174.466 121.389,175.132 121.472 M75.797 122.106 C 66.992 124.607,65.140 125.274,68.293 124.808 C 69.750 124.593,71.342 124.126,77.861 122.002 C 79.571 121.445,77.813 121.534,75.797 122.106 M190.353 122.230 C 191.755 122.302,193.950 122.302,195.231 122.229 C 196.513 122.156,195.366 122.096,192.683 122.097 C 190.000 122.098,188.952 122.157,190.353 122.230 M62.852 125.328 L 61.726 125.615 63.039 125.622 C 63.762 125.626,64.775 125.494,65.291 125.328 C 66.603 124.908,64.503 124.908,62.852 125.328 M58.349 126.423 C 57.317 126.805,55.375 127.492,54.034 127.948 C 49.258 129.572,48.361 129.912,48.499 130.050 C 48.747 130.298,54.157 128.669,56.660 127.591 C 58.002 127.014,59.522 126.364,60.038 126.148 C 61.638 125.476,60.328 125.690,58.349 126.423 M295.872 131.370 C 295.253 131.562,292.850 132.135,290.533 132.643 C 285.683 133.707,284.369 134.230,282.566 135.817 C 280.818 137.355,281.389 137.270,283.469 135.683 C 285.160 134.391,286.414 134.013,294.898 132.235 C 297.651 131.658,298.456 131.632,301.229 132.033 C 305.166 132.602,305.623 132.355,302.110 131.556 C 299.199 130.894,297.567 130.845,295.872 131.370 M341.126 132.458 C 341.565 133.386,342.553 134.991,343.322 136.023 C 344.091 137.054,344.994 138.405,345.328 139.024 C 345.682 139.680,345.942 139.899,345.951 139.549 C 345.959 139.218,345.554 138.374,345.051 137.673 C 344.548 136.971,343.492 135.440,342.706 134.269 C 340.352 130.765,340.298 130.703,341.126 132.458 M45.655 132.519 C 39.109 142.796,51.016 153.282,61.803 146.740 C 62.782 146.146,60.899 146.566,57.535 147.692 C 48.985 150.555,41.856 142.516,45.556 134.182 C 46.575 131.886,46.629 130.991,45.655 132.519 M306.942 133.021 C 307.664 133.299,308.677 133.524,309.193 133.521 C 309.755 133.518,309.379 133.307,308.255 132.994 C 305.903 132.340,305.210 132.354,306.942 133.021 M311.258 133.960 C 311.385 134.166,311.702 134.334,311.962 134.334 C 312.222 134.334,313.099 134.900,313.910 135.592 C 314.721 136.284,315.942 137.137,316.624 137.488 C 320.248 139.353,327.866 148.677,329.238 152.924 C 329.814 154.708,329.830 154.723,329.620 153.283 C 329.004 149.042,322.618 141.030,316.451 136.760 C 312.990 134.365,310.767 133.166,311.258 133.960 M279.325 138.053 C 275.506 140.904,271.290 145.822,270.365 148.502 C 270.028 149.481,269.261 151.295,268.662 152.533 C 267.632 154.660,266.521 158.953,266.902 159.334 C 266.998 159.431,267.196 158.876,267.341 158.102 C 267.486 157.327,268.255 155.167,269.049 153.300 C 269.843 151.433,270.611 149.400,270.756 148.780 C 271.131 147.167,273.417 144.313,277.481 140.381 C 279.426 138.500,280.965 136.961,280.902 136.961 C 280.840 136.961,280.129 137.452,279.325 138.053 M139.024 138.086 C 139.154 138.296,140.902 138.462,142.979 138.462 C 145.026 138.462,148.014 138.710,149.617 139.014 C 156.029 140.229,161.020 140.822,165.666 140.921 L 170.544 141.025 165.291 140.553 C 162.402 140.294,158.687 139.810,157.036 139.479 C 149.844 138.036,138.448 137.154,139.024 138.086 M101.126 138.340 C 97.410 138.655,93.237 139.291,92.584 139.640 C 92.191 139.850,90.829 140.249,89.556 140.525 C 87.568 140.958,87.438 141.033,88.632 141.058 C 89.397 141.075,91.508 140.666,93.323 140.150 C 95.469 139.540,98.722 139.033,102.627 138.700 C 107.038 138.323,107.834 138.191,105.629 138.200 C 103.977 138.207,101.951 138.270,101.126 138.340 M346.168 141.463 C 346.406 142.358,346.615 142.806,348.313 146.060 C 349.133 147.634,349.529 147.905,349.133 146.623 C 348.744 145.363,345.876 140.374,346.168 141.463 M82.927 141.463 L 81.238 141.726 82.927 141.738 C 83.856 141.744,85.122 141.621,85.741 141.463 L 86.867 141.177 85.741 141.189 C 85.122 141.196,83.856 141.319,82.927 141.463 M181.682 141.744 C 185.745 141.805,192.499 141.805,196.692 141.744 C 200.885 141.684,197.561 141.635,189.306 141.634 C 181.051 141.634,177.620 141.684,181.682 141.744 M76.291 142.441 C 74.054 142.882,68.088 145.214,69.195 145.215 C 69.382 145.216,71.363 144.625,73.597 143.902 C 75.832 143.180,77.906 142.589,78.207 142.589 C 78.509 142.589,78.859 142.420,78.987 142.214 C 79.114 142.008,79.167 141.855,79.103 141.874 C 79.039 141.894,77.774 142.149,76.291 142.441 M249.909 146.022 C 249.093 149.186,248.092 152.551,247.471 154.221 C 246.141 157.795,249.457 166.609,252.129 166.603 C 252.459 166.602,252.186 166.275,251.511 165.864 C 250.806 165.434,250.198 164.691,250.053 164.083 C 249.917 163.509,249.571 162.768,249.283 162.436 C 247.132 159.952,246.950 155.766,248.838 152.237 C 249.293 151.388,250.705 144.764,250.480 144.539 C 250.398 144.457,250.141 145.124,249.909 146.022 M64.728 145.770 C 63.250 146.150,63.091 146.256,63.977 146.268 C 64.597 146.277,65.779 146.061,66.604 145.789 C 68.533 145.153,67.180 145.140,64.728 145.770 M349.624 150.657 C 349.733 152.101,349.884 153.354,349.959 153.440 C 350.220 153.741,350.016 149.896,349.721 148.968 C 349.549 148.423,349.508 149.130,349.624 150.657 M350.242 158.572 C 350.331 160.450,350.610 162.671,350.861 163.509 C 351.212 164.683,351.216 165.322,350.878 166.288 C 350.332 167.849,349.917 175.017,350.436 173.921 C 350.632 173.508,350.803 172.235,350.818 171.092 C 350.832 169.949,351.095 168.052,351.401 166.878 C 351.809 165.308,351.855 164.473,351.571 163.728 C 351.359 163.170,351.084 161.351,350.959 159.687 C 350.632 155.304,350.043 154.389,350.242 158.572 M329.882 162.695 C 329.926 168.518,329.976 169.042,330.252 166.604 C 330.549 163.991,330.365 156.506,329.995 156.136 C 329.905 156.046,329.854 158.998,329.882 162.695 M265.898 162.379 C 264.460 165.568,262.252 166.665,257.146 166.727 C 254.932 166.755,253.887 166.890,254.262 167.100 C 257.904 169.138,267.373 164.833,266.719 161.436 C 266.645 161.056,266.332 161.417,265.898 162.379 M123.744 171.757 C 124.626 171.837,125.977 171.836,126.745 171.755 C 127.514 171.674,126.792 171.609,125.141 171.611 C 123.490 171.612,122.861 171.678,123.744 171.757 M148.499 171.754 C 149.170 171.837,150.267 171.837,150.938 171.754 C 151.609 171.670,151.060 171.602,149.719 171.602 C 148.377 171.602,147.828 171.670,148.499 171.754 M111.069 172.094 C 107.381 172.622,104.251 173.152,100.188 173.934 C 97.608 174.431,95.075 174.917,94.559 175.014 C 94.043 175.111,94.887 175.118,96.435 175.030 C 99.473 174.857,99.722 174.819,105.066 173.700 C 107.026 173.289,110.955 172.816,113.797 172.648 C 116.639 172.480,119.073 172.234,119.207 172.100 C 119.454 171.853,112.785 171.848,111.069 172.094 M156.848 172.282 C 164.141 173.241,167.884 173.828,170.919 174.488 C 172.777 174.891,175.056 175.198,175.985 175.168 C 177.477 175.121,177.520 175.097,176.360 174.966 C 175.638 174.885,173.189 174.412,170.919 173.916 C 165.323 172.694,159.278 171.846,156.612 171.910 L 154.409 171.962 156.848 172.282 M328.984 175.536 C 327.798 179.581,321.520 187.458,316.696 190.953 C 315.810 191.595,315.334 192.120,315.638 192.120 C 317.430 192.120,327.205 181.678,327.205 179.764 C 327.205 179.543,327.367 179.362,327.567 179.362 C 328.073 179.362,328.727 178.036,329.309 175.832 C 329.956 173.379,329.688 173.135,328.984 175.536 M89.917 175.531 C 89.816 175.695,90.313 175.761,91.021 175.678 C 91.729 175.595,92.308 175.462,92.308 175.381 C 92.308 175.099,90.099 175.238,89.917 175.531 M184.803 176.511 C 186.660 177.002,189.848 177.845,191.887 178.383 C 195.368 179.303,197.959 179.693,195.872 178.984 C 193.021 178.015,184.915 175.964,183.302 175.804 C 181.791 175.653,182.083 175.791,184.803 176.511 M79.835 177.580 C 76.792 178.426,74.373 179.188,74.458 179.273 C 74.683 179.499,78.631 178.682,81.238 177.871 C 82.477 177.486,84.334 176.920,85.366 176.614 C 86.554 176.261,86.898 176.054,86.304 176.049 C 85.788 176.045,82.877 176.734,79.835 177.580 M349.775 177.533 C 349.744 178.075,349.635 179.088,349.532 179.784 L 349.346 181.051 349.741 179.791 C 349.958 179.099,350.067 178.085,349.983 177.540 L 349.831 176.548 349.775 177.533 M68.480 180.102 C 67.036 180.487,65.191 181.083,64.381 181.428 C 63.571 181.772,61.798 182.407,60.441 182.839 C 59.084 183.270,58.239 183.684,58.562 183.759 C 58.886 183.833,60.575 183.364,62.315 182.716 C 64.055 182.069,66.829 181.194,68.480 180.773 C 70.131 180.352,71.820 179.874,72.233 179.710 C 73.744 179.112,71.208 179.377,68.480 180.102 M198.874 179.717 C 200.951 180.257,204.881 180.572,203.812 180.113 C 203.329 179.906,201.725 179.655,200.247 179.556 C 198.181 179.417,197.864 179.454,198.874 179.717 M205.306 180.665 C 205.810 181.169,212.857 183.449,214.464 183.627 C 215.486 183.741,215.985 183.740,215.572 183.626 C 215.159 183.512,212.781 182.759,210.286 181.953 C 205.915 180.541,204.926 180.285,205.306 180.665 M348.618 182.485 C 348.414 183.022,347.834 184.101,347.330 184.883 C 346.826 185.664,346.150 187.237,345.828 188.378 C 345.503 189.531,344.684 191.113,343.983 191.943 C 343.290 192.763,342.021 194.392,341.164 195.564 C 338.493 199.212,335.254 202.633,333.158 204.021 C 332.050 204.754,330.722 205.738,330.206 206.207 C 329.690 206.676,328.095 207.701,326.662 208.483 C 325.228 209.266,323.279 210.429,322.329 211.067 C 321.380 211.706,319.598 212.449,318.369 212.717 C 317.140 212.985,314.869 213.767,313.321 214.454 C 311.666 215.188,309.192 215.906,307.317 216.196 C 304.926 216.565,304.457 216.722,305.441 216.822 C 307.195 217.000,310.339 216.284,313.321 215.027 C 314.662 214.462,317.194 213.535,318.947 212.968 C 320.700 212.401,322.895 211.381,323.825 210.700 C 324.755 210.020,326.119 209.212,326.857 208.906 C 327.594 208.600,328.776 207.851,329.483 207.241 C 330.191 206.632,331.724 205.507,332.892 204.742 C 335.262 203.188,339.758 198.629,341.347 196.169 C 341.918 195.283,343.093 193.674,343.959 192.591 C 344.824 191.509,345.736 189.989,345.987 189.214 C 346.237 188.439,347.121 186.494,347.951 184.892 C 348.780 183.290,349.354 181.874,349.224 181.745 C 349.095 181.615,348.822 181.949,348.618 182.485 M54.921 184.222 C 54.274 184.377,52.923 184.974,51.919 185.549 C 50.915 186.124,49.619 186.842,49.039 187.145 C 48.458 187.448,48.055 187.767,48.142 187.855 C 48.422 188.135,50.425 187.221,51.756 186.206 C 52.466 185.665,54.071 184.929,55.323 184.570 C 57.550 183.932,57.245 183.668,54.921 184.222 M217.636 184.240 C 218.152 184.405,218.996 184.537,219.512 184.534 C 220.355 184.527,220.336 184.497,219.325 184.240 C 217.737 183.836,216.375 183.836,217.636 184.240 M221.388 184.795 C 221.388 185.500,229.476 188.244,230.502 187.888 C 230.752 187.801,230.366 187.601,229.644 187.444 C 228.921 187.286,226.856 186.585,225.055 185.886 C 221.679 184.576,221.388 184.490,221.388 184.795 M233.208 188.368 C 233.621 188.545,234.381 188.685,234.897 188.679 L 235.835 188.668 234.897 188.368 C 234.381 188.202,233.621 188.062,233.208 188.056 L 232.458 188.045 233.208 188.368 M238.274 189.733 C 240.295 190.661,243.538 191.472,246.904 191.892 C 247.833 192.008,246.735 191.636,244.465 191.065 C 242.195 190.494,239.617 189.738,238.735 189.385 C 236.286 188.403,235.942 188.663,238.274 189.733 M45.369 191.597 C 43.698 195.269,43.605 196.690,44.844 199.636 C 45.962 202.296,47.126 204.128,47.698 204.128 C 47.900 204.128,47.569 203.494,46.963 202.720 C 44.673 199.797,44.278 195.747,45.895 191.763 C 47.223 188.493,46.837 188.371,45.369 191.597 M125.797 192.026 C 130.492 192.085,138.175 192.085,142.871 192.026 C 147.566 191.966,143.724 191.918,134.334 191.918 C 124.944 191.918,121.102 191.966,125.797 192.026 M107.317 192.511 C 103.904 192.861,90.051 195.637,90.902 195.801 C 91.235 195.865,94.769 195.319,98.755 194.586 C 105.362 193.373,110.294 192.693,114.822 192.371 C 115.750 192.305,115.075 192.245,113.321 192.237 C 111.567 192.229,108.865 192.352,107.317 192.511 M154.702 192.396 C 155.688 192.474,157.208 192.473,158.079 192.394 C 158.950 192.316,158.143 192.252,156.285 192.253 C 154.428 192.254,153.715 192.319,154.702 192.396 M249.931 192.254 C 250.048 192.379,251.793 192.814,253.809 193.219 C 255.825 193.625,257.671 194.119,257.912 194.318 C 258.626 194.908,262.659 195.824,265.478 196.035 L 268.105 196.233 265.096 195.696 C 263.441 195.401,260.318 194.572,258.154 193.855 C 254.634 192.688,249.383 191.666,249.931 192.254 M310.524 193.882 C 308.470 194.849,305.937 195.859,304.895 196.127 L 303.002 196.616 304.878 196.415 C 306.572 196.235,314.447 192.867,314.447 192.323 C 314.447 192.028,314.577 191.976,310.524 193.882 M162.452 192.885 C 163.987 193.080,167.110 193.654,169.394 194.162 C 174.903 195.386,178.398 195.969,179.238 195.805 C 179.616 195.731,177.899 195.299,175.422 194.846 C 172.946 194.393,170.000 193.764,168.877 193.449 C 167.754 193.133,165.221 192.798,163.249 192.703 L 159.662 192.531 162.452 192.885 M84.892 196.289 C 82.709 196.653,78.775 197.905,77.307 198.704 C 75.732 199.562,77.532 199.385,79.353 198.504 C 80.200 198.093,82.069 197.484,83.505 197.151 C 88.299 196.037,88.993 195.606,84.892 196.289 M183.114 196.299 C 184.250 196.495,186.964 197.239,189.146 197.952 C 193.126 199.254,196.578 199.807,193.433 198.639 C 190.193 197.436,185.813 196.337,183.490 196.144 L 181.051 195.942 183.114 196.299 M269.331 196.520 C 270.006 196.603,271.019 196.601,271.583 196.516 C 272.147 196.430,271.595 196.362,270.356 196.364 C 269.118 196.366,268.657 196.436,269.331 196.520 M282.998 197.278 C 285.618 197.343,290.008 197.343,292.755 197.279 C 295.501 197.215,293.358 197.162,287.992 197.162 C 282.627 197.161,280.379 197.214,282.998 197.278 M73.734 199.625 C 72.712 199.885,72.695 199.913,73.546 199.929 C 74.062 199.939,74.822 199.802,75.235 199.625 C 76.160 199.227,75.296 199.227,73.734 199.625 M195.872 199.614 C 196.182 199.820,197.012 199.991,197.717 199.994 C 199.400 200.002,199.100 199.789,196.998 199.484 C 195.818 199.313,195.479 199.352,195.872 199.614 M202.458 200.720 C 203.913 201.073,206.237 201.815,207.622 202.369 C 209.006 202.924,210.433 203.375,210.792 203.373 C 212.125 203.366,207.206 201.412,204.128 200.727 C 200.179 199.847,198.837 199.841,202.458 200.720 M67.730 201.023 C 66.698 201.336,65.420 201.899,64.889 202.274 C 64.358 202.650,63.092 203.171,62.075 203.433 C 61.057 203.695,60.493 203.966,60.821 204.034 C 61.373 204.150,63.039 203.583,68.856 201.299 C 71.360 200.315,70.642 200.139,67.730 201.023 M212.383 203.741 C 212.692 203.947,213.523 204.119,214.228 204.122 C 215.910 204.129,215.610 203.917,213.508 203.612 C 212.328 203.440,211.989 203.479,212.383 203.741 M49.915 204.663 C 50.434 205.180,56.442 205.413,57.271 204.948 C 57.803 204.650,56.950 204.525,53.770 204.435 C 51.183 204.361,49.700 204.449,49.915 204.663 M216.886 204.228 C 217.448 204.809,228.699 208.261,230.597 208.435 C 232.729 208.631,232.685 208.607,229.644 207.913 C 227.889 207.513,225.188 206.688,223.640 206.080 C 222.092 205.472,220.235 204.855,219.512 204.710 C 218.790 204.565,217.861 204.354,217.448 204.241 C 217.036 204.127,216.782 204.121,216.886 204.228 M234.709 208.973 C 236.997 209.864,243.797 212.014,244.278 211.999 C 245.145 211.972,239.494 209.800,236.961 209.187 C 234.538 208.600,233.497 208.501,234.709 208.973 M245.966 212.370 C 246.677 212.687,249.832 212.912,249.500 212.621 C 249.414 212.546,248.415 212.383,247.280 212.259 C 245.932 212.112,245.476 212.151,245.966 212.370 M252.720 213.463 C 254.165 213.834,256.749 214.587,258.462 215.137 C 260.175 215.686,262.117 216.118,262.777 216.097 C 263.740 216.066,263.569 215.964,261.914 215.584 C 260.779 215.324,258.583 214.682,257.036 214.158 C 255.488 213.634,253.293 213.111,252.158 212.996 L 250.094 212.788 252.720 213.463 M267.824 216.782 C 268.494 216.865,269.592 216.865,270.263 216.782 C 270.933 216.699,270.385 216.630,269.043 216.630 C 267.702 216.630,267.153 216.699,267.824 216.782 M286.679 217.261 L 276.735 217.467 288.555 217.514 C 295.056 217.540,299.953 217.426,299.437 217.261 C 298.921 217.096,298.077 216.982,297.561 217.007 C 297.045 217.033,292.148 217.147,286.679 217.261 M123.900 226.464 C 124.213 226.777,150.469 226.860,150.469 226.548 C 150.469 226.393,144.447 226.266,137.086 226.266 C 129.725 226.266,123.791 226.355,123.900 226.464 M113.884 227.017 C 113.265 227.174,111.528 227.323,110.025 227.348 C 108.505 227.372,106.674 227.651,105.898 227.975 C 105.131 228.296,102.646 228.731,100.376 228.943 C 98.107 229.155,96.165 229.419,96.061 229.530 C 95.755 229.856,101.574 229.398,105.629 228.777 C 111.255 227.915,118.171 227.008,120.075 226.884 C 121.004 226.823,120.244 226.763,118.386 226.752 C 116.529 226.740,114.503 226.859,113.884 227.017 M152.003 226.800 C 152.090 226.887,153.343 227.001,154.786 227.053 C 156.230 227.105,158.086 227.351,158.912 227.598 C 159.737 227.846,161.679 228.166,163.227 228.308 C 164.775 228.451,168.122 228.826,170.665 229.141 C 177.937 230.043,176.359 229.516,168.380 228.378 C 164.411 227.812,160.348 227.189,159.352 226.995 C 157.569 226.647,151.694 226.491,152.003 226.800 M90.994 229.897 C 88.850 230.166,82.353 231.579,79.925 232.304 C 78.583 232.705,76.388 233.270,75.047 233.560 C 73.553 233.882,73.044 234.095,73.734 234.108 C 75.145 234.136,80.743 232.909,82.739 232.135 C 84.485 231.458,89.549 230.397,91.072 230.388 C 91.649 230.385,92.373 230.219,92.683 230.019 C 93.309 229.614,93.271 229.612,90.994 229.897 M180.863 230.361 C 182.617 230.746,185.366 231.586,186.970 232.228 C 188.575 232.871,190.348 233.385,190.910 233.371 C 192.553 233.331,182.413 230.098,179.925 229.868 C 177.805 229.673,177.859 229.701,180.863 230.361 M192.871 233.753 C 193.808 234.071,196.137 234.271,195.841 234.007 C 195.755 233.930,194.841 233.770,193.809 233.651 C 192.543 233.504,192.238 233.538,192.871 233.753 M68.956 234.552 C 68.185 234.734,66.600 235.392,65.432 236.015 C 64.264 236.638,63.005 237.148,62.633 237.148 C 62.262 237.148,61.863 237.302,61.747 237.490 C 61.415 238.026,65.361 236.991,66.503 236.242 C 67.066 235.873,68.502 235.259,69.692 234.879 C 71.916 234.168,71.453 233.963,68.956 234.552 M196.998 234.313 C 196.998 234.576,204.162 237.888,205.134 238.075 C 206.050 238.251,206.016 238.202,204.878 237.712 C 204.156 237.401,203.143 236.897,202.627 236.591 C 200.652 235.422,196.998 233.943,196.998 234.313 M58.724 237.899 L 57.598 238.185 58.724 238.203 C 59.343 238.213,60.188 238.076,60.600 237.899 L 61.351 237.576 60.600 237.594 C 60.188 237.604,59.343 237.741,58.724 237.899 M54.706 238.645 C 54.147 238.813,52.712 239.539,51.516 240.257 C 50.321 240.976,48.975 241.675,48.524 241.812 C 47.466 242.133,45.278 245.437,44.453 247.958 C 42.126 255.073,49.824 262.410,57.073 259.986 C 59.017 259.337,59.169 258.963,57.347 259.316 C 53.313 260.095,48.176 259.119,47.048 257.359 C 43.953 252.525,44.316 245.588,47.799 242.992 C 49.286 241.885,54.756 239.024,55.388 239.024 C 55.651 239.024,55.970 238.856,56.098 238.649 C 56.364 238.218,56.123 238.218,54.706 238.645 M208.785 239.583 C 210.005 240.335,211.947 241.429,213.100 242.013 C 214.253 242.597,215.872 243.616,216.698 244.278 C 217.523 244.939,219.043 246.045,220.075 246.736 C 225.230 250.189,233.725 260.835,233.763 263.889 C 233.767 264.254,234.297 265.484,234.941 266.624 C 235.584 267.763,236.332 269.407,236.604 270.277 C 237.049 271.699,237.101 271.748,237.123 270.763 C 237.137 270.161,236.584 268.641,235.895 267.386 C 235.206 266.130,234.258 263.946,233.788 262.532 C 233.280 261.002,232.305 259.177,231.382 258.029 C 230.529 256.967,229.340 255.374,228.739 254.490 C 227.573 252.773,220.843 246.154,220.263 246.154 C 220.073 246.154,218.962 245.376,217.794 244.425 C 216.627 243.475,214.733 242.281,213.585 241.774 C 212.437 241.266,210.810 240.370,209.970 239.783 C 209.130 239.196,208.021 238.603,207.505 238.466 C 206.989 238.328,207.565 238.831,208.785 239.583 M110.131 247.280 C 107.448 247.646,104.717 248.145,104.061 248.390 C 103.405 248.635,102.054 248.972,101.059 249.139 L 99.250 249.443 100.965 249.487 C 101.909 249.511,103.428 249.290,104.342 248.996 C 108.937 247.516,115.540 247.206,139.030 247.372 L 161.538 247.531 166.755 248.550 C 169.624 249.111,172.410 249.518,172.946 249.456 C 174.669 249.254,163.598 247.220,158.926 246.881 C 150.216 246.247,115.636 246.530,110.131 247.280 M175.047 249.899 C 175.757 250.211,179.288 250.434,178.956 250.146 C 178.870 250.071,177.786 249.911,176.548 249.790 C 175.118 249.650,174.570 249.689,175.047 249.899 M93.715 250.171 C 94.179 250.260,94.939 250.260,95.403 250.171 C 95.868 250.082,95.488 250.008,94.559 250.008 C 93.630 250.008,93.250 250.082,93.715 250.171 M87.805 250.845 C 85.265 251.358,79.253 253.630,80.385 253.648 C 80.742 253.654,82.105 253.255,83.415 252.762 C 84.725 252.269,86.797 251.651,88.020 251.389 C 89.243 251.127,90.404 250.771,90.600 250.597 C 91.041 250.207,90.902 250.219,87.805 250.845 M183.677 251.359 C 184.709 251.767,186.625 252.549,187.935 253.097 C 189.244 253.645,190.933 254.166,191.687 254.257 C 192.692 254.377,192.457 254.234,190.807 253.721 C 189.568 253.336,187.706 252.569,186.669 252.017 C 185.631 251.464,184.111 250.923,183.292 250.814 L 181.801 250.617 183.677 251.359 M75.708 254.299 C 76.175 254.389,76.850 254.386,77.209 254.292 C 77.568 254.198,77.186 254.124,76.360 254.128 C 75.535 254.133,75.241 254.209,75.708 254.299 M70.169 255.135 C 69.653 255.293,68.471 255.817,67.542 256.301 C 66.614 256.784,64.503 257.557,62.852 258.018 C 61.201 258.479,60.223 258.869,60.680 258.884 C 61.557 258.913,65.000 257.829,69.981 255.955 C 72.610 254.967,72.751 254.347,70.169 255.135 M195.064 255.387 C 195.537 255.718,197.728 256.911,199.932 258.038 C 202.136 259.166,204.447 260.559,205.066 261.134 C 205.685 261.709,206.951 262.694,207.880 263.323 C 210.010 264.764,211.199 266.046,212.901 268.737 C 213.643 269.910,214.423 270.977,214.635 271.108 C 215.332 271.538,216.510 274.243,216.548 275.501 C 216.568 276.180,216.731 277.158,216.910 277.674 C 217.122 278.287,217.161 277.766,217.024 276.173 C 216.908 274.831,216.534 273.280,216.193 272.725 C 213.038 267.598,209.589 263.682,206.730 261.983 C 205.994 261.545,205.065 260.826,204.666 260.383 C 204.267 259.941,202.650 258.930,201.072 258.136 C 199.495 257.342,197.572 256.263,196.799 255.739 C 196.025 255.214,195.125 254.784,194.798 254.784 C 194.367 254.784,194.440 254.949,195.064 255.387 M161.615 274.064 C 156.576 275.943,155.528 277.767,155.555 284.615 C 155.576 289.764,155.603 289.936,156.939 293.246 C 158.706 297.622,158.737 296.557,156.990 291.529 C 152.703 279.193,159.891 270.684,170.498 275.540 C 173.576 276.950,174.447 278.254,175.056 282.365 C 175.381 284.558,175.541 285.044,177.089 288.555 C 177.863 290.310,178.798 292.456,179.167 293.326 C 179.832 294.891,184.908 300.563,185.644 300.563 C 185.854 300.563,184.783 299.295,183.263 297.745 C 180.515 294.944,179.505 293.409,178.631 290.706 C 178.380 289.929,177.597 288.185,176.892 286.833 C 176.120 285.352,175.607 283.824,175.604 282.993 C 175.587 279.332,174.113 276.863,171.000 275.279 C 167.676 273.589,164.123 273.129,161.615 274.064 M217.329 281.614 C 217.321 283.600,217.366 283.739,217.709 282.796 C 217.974 282.068,217.977 281.350,217.718 280.545 C 217.371 279.465,217.337 279.559,217.329 281.614 M216.693 286.961 C 216.077 291.567,211.509 298.142,207.727 299.865 C 206.607 300.375,206.414 300.957,207.455 300.685 C 209.773 300.078,215.189 293.688,216.448 290.074 C 216.962 288.599,217.442 285.178,217.135 285.178 C 217.023 285.178,216.824 285.980,216.693 286.961 M236.154 294.068 C 235.710 295.267,234.724 297.739,233.963 299.561 C 233.203 301.383,232.673 302.967,232.786 303.080 C 232.900 303.194,233.148 302.885,233.338 302.394 C 233.529 301.903,234.475 299.680,235.441 297.453 C 236.406 295.227,237.144 293.064,237.079 292.647 C 237.001 292.147,236.685 292.631,236.154 294.068 M158.741 298.707 C 158.732 299.028,159.219 300.070,159.823 301.023 C 160.427 301.976,161.479 303.793,162.160 305.062 C 162.943 306.520,164.898 308.910,167.480 311.564 C 169.726 313.872,171.347 315.455,171.084 315.082 C 170.820 314.709,169.087 312.852,167.232 310.954 C 164.843 308.512,163.558 306.847,162.829 305.253 C 162.263 304.015,161.469 302.580,161.065 302.064 C 160.661 301.548,159.976 300.450,159.544 299.625 C 159.111 298.799,158.750 298.386,158.741 298.707 M187.755 301.450 C 190.213 303.460,200.541 303.852,203.940 302.064 C 205.117 301.445,205.803 300.938,205.464 300.938 C 205.125 300.938,204.186 301.276,203.377 301.689 C 200.790 303.008,192.336 302.709,187.805 301.137 C 187.079 300.885,187.077 300.895,187.755 301.450 M230.019 306.977 C 226.524 312.058,216.439 319.937,212.481 320.679 C 211.803 320.807,211.167 321.042,211.068 321.203 C 210.563 322.020,215.110 320.373,216.696 319.164 C 217.316 318.692,218.668 317.877,219.700 317.354 C 223.234 315.562,228.756 310.008,232.147 304.833 C 233.698 302.465,231.823 304.355,230.019 306.977 M172.690 316.515 C 173.939 317.833,179.313 320.948,181.051 321.361 C 182.611 321.732,181.830 321.094,179.737 320.288 C 178.809 319.930,177.542 319.253,176.923 318.785 C 175.774 317.914,172.200 315.998,172.690 316.515 M183.677 321.764 C 187.878 323.767,197.279 324.920,200.805 323.863 C 202.116 323.470,203.999 323.037,204.989 322.900 C 206.889 322.637,209.964 321.645,209.006 321.605 C 207.851 321.557,203.485 322.388,201.180 323.096 C 198.325 323.972,194.909 324.034,192.108 323.261 C 189.645 322.582,182.868 321.378,183.677 321.764 " stroke="none" fill="#cccccc" fill-rule="evenodd"></path></g></svg>